<?xml version="1.0" encoding="UTF-8"?>
<svg width="1200pt" height="1200pt" version="1.1" viewBox="0 0 1200 1200" xmlns="http://www.w3.org/2000/svg">
 <g>
  <path d="m1081.2 898.56c-14.797-10.953-28.074-23.824-39.48-38.277-27.84-32.281-59.398-68.281-122.52-68.281-63.121 0-94.68 36-122.52 68.281-25.199 28.918-45.121 51.719-86.281 51.719-41.16 0-61.199-22.801-86.398-51.719-27.84-32.281-59.398-68.281-122.52-68.281-63.121 0-94.68 36-122.52 68.281-25.082 28.918-45 51.719-86.281 51.719s-61.078-22.801-86.281-51.719c-17.258-22.672-39.035-41.512-63.957-55.32-7.6562-3.4727-16.566-2.6875-23.496 2.0664-6.9297 4.7539-10.867 12.785-10.383 21.176 0.48828 8.3906 5.3242 15.914 12.758 19.836 19.004 11.191 35.605 26.039 48.84 43.68 27.961 32.281 59.52 68.281 122.52 68.281s94.68-36 122.52-68.281c25.199-28.918 45.121-51.719 86.281-51.719 41.16 0 61.078 22.801 86.281 51.719 27.84 32.281 59.398 68.281 122.64 68.281 63.238 0 94.68-36 122.52-68.281 25.082-28.918 45.004-51.719 86.281-51.719 41.281 0 61.199 22.801 86.281 51.719 14.188 17.848 30.789 33.641 49.32 46.922 5.3125 3.6289 11.859 4.9688 18.172 3.7266 6.3164-1.2461 11.863-4.9727 15.402-10.348 3.5391-5.3711 4.7734-11.941 3.4258-18.234-1.3516-6.2891-5.168-11.777-10.602-15.227z"/>
  <path d="m1081.2 718.56c-14.793-10.957-28.07-23.828-39.48-38.277-27.84-32.281-59.398-68.281-122.52-68.281-63.121 0-94.68 36-122.52 68.281-25.199 28.918-45.121 51.719-86.398 51.719-41.281 0-61.082-22.801-86.281-51.719-27.84-32.281-59.398-68.281-122.52-68.281-63.121 0-94.68 36-122.52 68.281-25.082 28.918-45 51.719-86.281 51.719s-61.078-22.801-86.281-51.719c-17.258-22.672-39.035-41.512-63.957-55.32-7.6562-3.4727-16.566-2.6875-23.496 2.0664-6.9297 4.7539-10.867 12.785-10.383 21.176 0.48828 8.3906 5.3242 15.914 12.758 19.836 19.004 11.191 35.605 26.039 48.84 43.68 27.961 32.281 59.52 68.281 122.52 68.281s94.68-36 122.52-68.281c25.199-28.918 45-51.719 86.281-51.719s61.199 22.801 86.281 51.719c27.84 32.281 59.398 68.281 122.52 68.281s94.68-36 122.52-68.281c25.199-28.918 45.121-51.719 86.398-51.719 41.281 0 61.199 22.801 86.281 51.719 14.188 17.848 30.785 33.641 49.32 46.922 5.3125 3.6289 11.859 4.9688 18.172 3.7266 6.3164-1.2461 11.863-4.9727 15.402-10.348 3.5391-5.3711 4.7734-11.941 3.4258-18.234-1.3516-6.2891-5.168-11.777-10.602-15.227z"/>
  <path d="m1081.2 526.56c-14.797-10.953-28.074-23.824-39.48-38.277-27.84-32.281-59.398-68.281-122.52-68.281-63.121 0-94.68 36-122.52 68.281-25.199 28.918-45.121 51.719-86.281 51.719-41.16 0-61.199-22.801-86.398-51.719-27.84-32.281-59.398-68.281-122.52-68.281-63.121 0-94.68 36-122.52 68.281-25.082 28.918-45 51.719-86.281 51.719s-61.078-22.801-86.281-51.719c-17.258-22.672-39.035-41.512-63.957-55.32-7.6562-3.4727-16.566-2.6875-23.496 2.0664-6.9297 4.7539-10.867 12.785-10.383 21.176 0.48828 8.3906 5.3242 15.914 12.758 19.836 19.004 11.191 35.605 26.039 48.84 43.68 27.961 32.281 59.52 68.281 122.52 68.281s94.68-36 122.52-68.281c25.199-28.918 45.121-51.719 86.281-51.719 41.16 0 61.078 22.801 86.281 51.719 27.84 32.281 59.398 68.281 122.64 68.281 63.238 0 94.68-36 122.52-68.281 25.082-28.918 45.004-51.719 86.281-51.719 41.281 0 61.199 22.801 86.281 51.719 14.188 17.848 30.789 33.641 49.32 46.922 5.3125 3.6289 11.859 4.9688 18.172 3.7266 6.3164-1.2461 11.863-4.9727 15.402-10.348 3.5391-5.3711 4.7734-11.941 3.4258-18.234-1.3516-6.2891-5.168-11.777-10.602-15.227z"/>
  <path d="m1081.2 346.56c-14.793-10.957-28.07-23.828-39.48-38.277-27.84-32.281-59.398-68.281-122.52-68.281-63.121 0-94.68 36-122.52 68.281-25.199 28.918-45.121 51.719-86.398 51.719-41.281 0-61.082-22.801-86.281-51.719-27.84-32.281-59.398-68.281-122.52-68.281-63.121 0-94.68 36-122.52 68.281-25.082 28.918-45 51.719-86.281 51.719s-61.078-22.801-86.281-51.719c-17.258-22.672-39.035-41.512-63.957-55.32-7.6562-3.4727-16.566-2.6875-23.496 2.0664-6.9297 4.7539-10.867 12.785-10.383 21.176 0.48828 8.3906 5.3242 15.914 12.758 19.836 19.004 11.191 35.605 26.039 48.84 43.68 27.961 32.281 59.52 68.281 122.52 68.281s94.68-36 122.52-68.281c25.199-28.918 45-51.719 86.281-51.719s61.199 22.801 86.281 51.719c27.84 32.281 59.398 68.281 122.52 68.281s94.68-36 122.52-68.281c25.199-28.918 45.121-51.719 86.398-51.719 41.281 0 61.199 22.801 86.281 51.719 14.188 17.848 30.785 33.641 49.32 46.922 5.3125 3.6289 11.859 4.9688 18.172 3.7266 6.3164-1.2461 11.863-4.9727 15.402-10.348 3.5391-5.3711 4.7734-11.941 3.4258-18.234-1.3516-6.2891-5.168-11.777-10.602-15.227z"/>
 </g>
</svg>
