<?xml version="1.0" encoding="UTF-8"?>
<svg width="1200pt" height="1200pt" version="1.1" viewBox="0 0 1200 1200" xmlns="http://www.w3.org/2000/svg">
 <path d="m836.12 459.53-200.82-180.71v-102.36c0-19.41-15.883-35.293-35.293-35.293v-105.88c0-19.41-15.883-35.293-35.293-35.293h-211.77c-19.41 0-35.293 15.883-35.293 35.293v105.88c-19.414 0-35.297 15.883-35.297 35.293v105.88c0 14.469 8.8242 26.824 21.176 32.469-37.41 189.18-56.469 381.89-56.469 575.3v239.29c0 38.824 31.766 70.59 70.59 70.59h564.71c38.824 0 70.59-31.766 70.59-70.59l-0.003906-407.64c0-99.883-42.352-195.18-116.82-262.23zm-483.18-212.47v-35.293h211.77v35.293zm35.293-176.47h141.18v70.59h-141.18zm458.82 900c0 29.293-23.648 52.941-52.941 52.941-29.293 0-52.941-23.648-52.941-52.941v-282.35c0-29.293 23.648-52.941 52.941-52.941 29.293 0 52.941 23.648 52.941 52.941z"/>
</svg>
