<?xml version="1.0" encoding="UTF-8"?>
<svg width="1200pt" height="1200pt" version="1.1" viewBox="0 0 1200 1200" xmlns="http://www.w3.org/2000/svg">
 <g fill-rule="evenodd">
  <path d="m399.33 461.23h54.602v406.59h-54.602zm-124.71 0h87.359v406.59c-49.734 0-87.359-38.68-87.359-82.906zm796.73-115.71c-6.3086 0-13.266 1.1719-20.691 3.8281l-54.785 19.492h-792.24l-54.719-19.492c-7.4414-2.6523-14.359-3.8281-20.773-3.7617-44.559 0.21484-61.52 59.387-24.988 84.719l100.48 69.641v350.16c0 67.281 54.238 121.54 121.6 121.54h25.281c16.68-28.332 42.773-53.332 78.973-61.266 17.199-3.7461 33.668 12.52 33.879 26.055 0.21484 18.547 3.0547 27.508 8.9609 35.215h66.852c11.188-19.52 25.094-37.922 40.906-55.625 4.0391-4.5195 9.668-7.2266 15.707-7.5078 6.0391-0.28125 11.945 1.8672 16.387 6.0547 0 0 25.359 22.426 46.734 57.078h68.266c5.9727-7.7188 9.0273-16.668 9.0273-35.215 0-22.16 16.254-29.441 33.812-26.055 36.465 7.1055 62.375 32.934 78.961 61.266h25.348c67.359 0 121.52-54.238 121.52-121.54l-0.003907-350.14 100.56-69.641c36.469-25.348 19.602-84.586-25.051-84.801z"/>
  <path d="m821.15 325.31 78.055-179.93c18.348-42.16 67.719-66.453 108.69-42.922 40.906 23.535 44.441 78.254 16.945 115.08l-80.895 108.27z"/>
  <path d="m596.79 930.95c-34.785 38.945-58.281 77.973-62.309 125.91-2.4258 29.719 19.453 60.266 48.348 69.441-6.3984-5.9727-10.414-14.719-9.7188-23.387 1.6523-20.426 11.668-42.934 25.906-59.602 0 0 25.281 30.973 27.426 57.852 0.90625 11.668-2.9219 20.281-8.8945 25.762 28.266-7.3594 50.828-33.055 47.348-74.172-5.2773-63.066-68.105-121.8-68.105-121.8z"/>
  <path d="m763.09 936.43c0 78.266-67.16 63.266-67.16 145.56 0 26.309 24.309 46.852 52.973 46.852-11.105-7.1484-18.547-29.508-0.12109-44.559 18.734-15.359 22.266-40.988 22.266-40.988 20.707 13.961 49.32 51.332 12.922 84.602 89.199-20.438 72.949-166.33-20.879-191.46z"/>
  <path d="m436.49 936.43c-81.32 21.812-104.38 134.31-51.039 177.23 8.1875 6.6016 18.188 11.52 30.055 14.238-36.32-33.266-7.707-70.641 13-84.602 0 0 3.4648 25.613 22.227 40.988 18.48 15.055 10.973 37.426-0.066406 44.559 26.879 0 52.922-20.547 52.922-46.852-0.003906-82.293-67.098-67.293-67.098-145.56z"/>
  <path d="m470.67 70.586c-18.254 0.76172-29.105 20.84-19.652 36.613 13.199 22.773 8.8281 52.508-12.641 73.266-36.254 35-45.559 89.508-20.762 132.21 6.2383 12.309 21.652 16.828 33.602 9.9336 12.012-6.9453 15.707-22.574 8.1211-34.172-13.188-22.773-8.8125-52.508 12.641-73.188 36.238-35 45.559-89.668 20.773-132.36-4.4414-7.9219-12.988-12.641-22.082-12.309z"/>
  <path d="m617.88 70.586c-18.332 0.76172-29.078 20.84-19.719 36.613 13.266 22.773 8.8945 52.508-12.574 73.266-36.254 35-45.559 89.508-20.762 132.21 6.2383 12.309 21.602 16.828 33.613 9.9336 11.934-6.9453 15.68-22.574 8.1211-34.172-13.281-22.773-8.8398-52.508 12.613-73.188 36.199-35 45.559-89.668 20.773-132.36-4.4805-7.9219-12.973-12.641-22.066-12.309z"/>
  <path d="m759.91 70.586c-18.348 0.76172-29.105 20.84-19.719 36.613 13.254 22.773 8.8945 52.508-12.574 73.266-36.254 35-45.547 89.508-20.762 132.21 6.2539 12.309 21.602 16.828 33.613 9.8672 11.945-6.8789 15.707-22.508 8.1211-34.105-13.188-22.773-8.8125-52.508 12.652-73.188 36.172-35 45.547-89.668 20.762-132.36-4.5352-7.9219-13.012-12.641-22.094-12.309z"/>
 </g>
</svg>
