<?xml version="1.0" encoding="UTF-8"?>
<svg width="1200pt" height="1200pt" version="1.1" viewBox="0 0 1200 1200" xmlns="http://www.w3.org/2000/svg">
 <path d="m600 150c-82.668-0.26562-163.8 22.359-234.4 65.367-70.602 43.012-127.92 104.72-165.6 178.3v-143.67h-50v250h250v-50h-169.57c37.902-91.199 108.4-165.02 197.75-207.09 89.355-42.062 191.17-49.352 285.61-20.449s174.73 91.926 225.24 176.8c50.508 84.867 67.613 185.5 47.98 282.29-19.633 96.789-74.598 182.8-154.18 241.28-79.586 58.48-178.09 85.238-276.33 75.059s-189.16-56.566-255.06-130.12c-65.906-73.555-102.06-169.01-101.43-267.77h-50c0 119.35 47.41 233.81 131.8 318.2s198.85 131.8 318.2 131.8 233.81-47.41 318.2-131.8 131.8-198.85 131.8-318.2-47.41-233.81-131.8-318.2-198.85-131.8-318.2-131.8z"/>
</svg>
