<?xml version="1.0" encoding="UTF-8"?>
<svg width="1200pt" height="1200pt" version="1.1" viewBox="0 0 1200 1200" xmlns="http://www.w3.org/2000/svg">
 <path d="m600 31.379c-314.04 0-568.62 254.58-568.62 568.62s254.58 568.62 568.62 568.62 568.62-254.58 568.62-568.62c-0.35156-313.89-254.73-568.27-568.62-568.62zm223.04 724.66c18.824 18.18 19.348 48.18 1.1641 67.004-18.18 18.824-48.18 19.348-67.004 1.1641-0.39453-0.38281-0.78516-0.76953-1.1641-1.1641l-156.04-156.04-156.04 156.04c-18.824 18.18-48.82 17.66-67.004-1.1641-17.734-18.363-17.734-47.477 0-65.84l156.04-156.04-156.04-156.04c-18.18-18.824-17.66-48.82 1.1641-67.004 18.363-17.734 47.477-17.734 65.84 0l156.04 156.04 156.04-156.04c18.824-18.18 48.82-17.66 67.004 1.1641 17.734 18.363 17.734 47.477 0 65.84l-156.04 156.04z"/>
</svg>
