<?xml version="1.0" encoding="UTF-8"?>
<svg width="1200pt" height="1200pt" version="1.1" viewBox="0 0 1200 1200" xmlns="http://www.w3.org/2000/svg">
 <g>
  <path d="m554.56 300.88-64.234-58.59v-66.703h12.707c9.707 0 17.648-7.9414 17.648-17.648l-0.003907-85.941c0-30-24.352-54.352-54.355-54.352h-156c-30 0-54.355 24.352-54.355 54.352v85.941c0 9.707 7.9414 17.648 17.648 17.648h12.707v66.707l-64.234 58.59c-63.531 58.059-100.06 140.65-100.06 226.59v566.64c0 48.707 39.531 88.234 88.234 88.234h356.12c48.707 0 88.234-39.527 88.234-88.234l0.003907-566.64c0-85.941-36.527-168.53-100.06-226.59zm-263.29-228.88c0-10.586 8.6445-19.059 19.059-19.059h156c10.414 0 19.059 8.4727 19.059 19.059v68.293h-194.12zm328.06 950.65h-257.47c-19.41 0-35.293-15.883-35.293-35.293v-380.47c0-19.41 15.883-35.293 35.293-35.293h257.47z"/>
  <path d="m1078 376.94c0-121.23-69.004-256.77-161.3-256.77-92.469 0-161.47 135.53-161.47 256.77 0 90 40.059 154.41 105.71 177.18l-15 553.06c-0.52734 19.234 6.5312 37.41 19.945 51.176 13.41 13.941 31.41 21.531 50.82 21.531 19.238 0 37.238-7.5898 50.648-21.531 13.41-13.766 20.469-31.941 19.938-51.176l-15-553.06c65.648-22.586 105.71-87.176 105.71-177.18zm-161.3 151.06c-77.82 0-126.18-57.883-126.18-151.06 0-111.71 62.473-221.47 126.18-221.47 63.531 0 126 109.77 126 221.47 0 93.176-48.18 151.06-126 151.06z"/>
 </g>
</svg>
