<?xml version="1.0" encoding="UTF-8"?>
<svg width="1200pt" height="1200pt" version="1.1" viewBox="0 0 1200 1200" xmlns="http://www.w3.org/2000/svg">
 <path d="m1044.6 400.2c-3.6016-7.8008-7.8008-12.602-12.602-17.398-4.8008-4.8008-9-8.3984-13.199-12.602-8.3984-7.8008-18-15-27-22.199-19.199-13.801-39.602-25.801-63-34.199-6-1.8008-11.398-3.6016-18-4.8008 0-1.1992 0-1.8008 0.60156-2.3984 0-1.1992 1.1992-1.8008 1.8008-3 1.8008-3 13.199-11.398 28.199-19.801 1.1992-0.60156 1.8008-9.6016 1.1992-10.801-7.1992-6-16.199-9.6016-26.398-10.801-9.6016-0.60156-21.602 1.8008-31.801 11.398-6 5.3984-10.801 13.199-12.602 21-1.1992 4.8008-1.8008 9-2.3984 13.801-6.6016 1.1992-12.602 3-18.602 5.3984-21.602 9-42 19.199-61.199 28.199-19.801 9-39 16.199-58.801 19.801-10.199 1.8008-19.801 3-30.602 3.6016l-33 1.1992c-88.801 3-178.2 4.1992-267.6 7.8008-27.602 1.1992-54.602 2.3984-82.199 4.1992-13.801 0.60156-27 1.8008-41.398 3-15 1.1992-31.199 4.1992-46.801 11.398-15.602 7.1992-30.602 20.398-39 36.602-8.3984 16.199-10.199 33.602-10.199 49.199 0 6-3 110.4-3 110.4 0 37.199 3.6016 74.398 10.199 112.2-1.1992 0-2.3984 0.60156-3.6016 1.1992-12 3.6016-22.199 13.199-27 23.398-4.8008 10.199-5.3984 19.801-5.3984 28.199 0.60156 19.199 4.8008 34.801 9.6016 50.398 4.8008 15.602 10.801 30 17.398 44.398l18.602 39.602 19.199-40.199 2.3984-5.3984c1.8008-3.6016 1.8008-8.3984-0.60156-13.199-1.1992-2.3984-3-4.1992-5.3984-6-0.60156-1.1992-1.1992-2.3984-1.8008-3.6016 7.1992-12.602 12.602-25.199 16.199-39 3.6016-13.801 7.1992-27.602 5.3984-44.398 0-2.3984-0.60156-4.1992-1.1992-6.6016-0.60156-3-1.1992-5.3984-2.3984-8.3984-2.3984-5.3984-6-10.801-10.801-15-3-2.3984-6.6016-4.8008-10.801-6 4.8008-28.801 8.3984-57.602 9.6016-86.398 4.1992 9 7.8008 18 12 27l16.801 37.199c5.3984 12 9.6016 23.398 13.199 35.398 6.6016 24 8.3984 48.602 8.3984 75.602v20.398c0 5.3984-0.60156 12-1.1992 18.602-1.1992 13.199-2.3984 27.602-3 41.398 0 7.8008 0 15 0.60156 22.801 0 1.8008 0.60156 4.1992 0.60156 6s1.1992 6 1.8008 8.3984c0.60156 1.1992 0.60156 3 1.1992 4.1992l1.8008 3.6016c1.1992 2.3984 3 4.8008 4.1992 7.1992 5.3984 4.8008 11.398 7.8008 18 9 3.6016 0.60156 6.6016 0.60156 9.6016 0.60156 2.3984 0 4.1992-0.60156 6-0.60156 7.1992-1.1992 13.199-3 18-4.8008 9-3.6016 13.801-7.8008 14.398-12 2.3984 0 4.8008-1.1992 5.3984-3.6016 4.8008-35.398 4.8008-71.398 12-102.6 2.3984-10.199 5.3984-19.199 9.6016-28.199 8.3984 1.1992 17.398 1.8008 26.398 1.8008v4.1992c0 1.8008 0 4.1992 0.60156 6 9 33.602 30.602 33.602 39.602 0 0.60156-1.8008 0.60156-4.1992 0.60156-6v-10.801c6.6016-1.8008 12.602-4.8008 18.602-7.8008 17.398-9 30-22.801 40.801-31.801 5.3984-4.8008 10.801-7.8008 15.602-10.199 1.1992-0.60156 2.3984-1.1992 3.6016-1.8008l4.8008-1.8008c3-1.1992 6.6016-1.8008 10.199-2.3984 16.801-3.6016 36-4.8008 55.199-5.3984 18.602-0.60156 37.801 0 58.199-0.60156 2.3984 13.801 4.8008 27.602 6.6016 41.398 7.1992 52.199 14.398 104.4 25.199 157.2 0.60156 1.8008 3 2.3984 5.3984 2.3984 0 11.398 7.1992 20.398 16.199 21l7.8008 0.60156c3 0 5.3984 0.60156 10.801 0 9.6016-0.60156 19.801-5.3984 25.801-13.199 1.8008-1.8008 3-4.1992 4.1992-6l1.8008-3 1.1992-2.3984c1.8008-3.6016 2.3984-6 3.6016-9 2.3984-6.6016 3.6016-13.199 4.1992-19.801 1.1992-12.602 0-24-0.60156-34.199-1.1992-10.199-2.3984-20.398-3-28.801-0.60156-7.1992-0.60156-13.801 0-19.801 1.1992-6 3-14.398 4.8008-21.602 4.1992-14.398 9.6016-29.398 15-45 5.3984-15.602 10.801-31.801 13.801-49.199 0.60156-1.8008 0.60156-3.6016 0.60156-5.3984 3 1.1992 7.8008 1.8008 13.801 1.1992 12-1.1992 24-5.3984 33.602-13.801 9.6016-8.3984 15.602-19.199 19.801-30 8.3984-22.199 12-44.398 16.199-66 8.3984-42.602 18.602-88.801 61.801-95.398 20.398-6 42-10.199 64.199-16.801 11.398-3 22.199-6.6016 34.199-13.801 5.3984-3 13.801-10.801 17.398-19.199 5.3906-6.5859 4.1914-16.184-0.007813-24.586zm-844.2 390.6c-4.1992-13.199-7.1992-27-7.8008-38.398 0-4.8008 0.60156-9 1.1992-10.801 0.60156-1.8008 0.60156-1.8008 1.8008-3 0-0.60156 0.60156-1.1992 1.8008-1.1992 0.60156 0 0.60156 0 1.1992 0.60156l0.60156 0.60156c0 0.60156 0.60156 1.8008 1.1992 3 3 9.6016 3.6016 22.801 3.6016 35.398 0 7.1992-0.60156 14.398-0.60156 22.199-1.1992-2.4023-2.3984-5.4023-3-8.4023zm818.4-373.2c-0.60156 1.8008-1.1992 2.3984-4.8008 4.8008-7.1992 4.8008-16.801 8.3984-27 12-20.398 6.6016-42 11.398-64.199 19.199-114.6 40.801-34.801 193.8-124.8 217.8-4.8008 0.60156-9 1.1992-12 1.8008 1.8008-13.199 1.8008-26.398 0-39-0.60156-4.1992-9.6016-4.1992-10.801 0-5.3984 31.801-20.398 58.199-36 87.602-7.8008 14.398-15.602 30-21.602 46.801-3 8.3984-5.3984 16.199-7.1992 26.398-1.8008 10.801-1.8008 20.398-1.1992 29.398 1.8008 21.602 6 41.398 4.1992 56.398 0 3.6016-1.1992 6.6016-1.8008 9.6016-0.60156 1.8008-1.1992 4.1992-2.3984 5.3984l-0.60156 1.1992h-4.1992l-7.1992-0.60156c-4.1992 0-7.8008 1.1992-10.801 3.6016 8.3984-49.199 10.199-99.602 3-148.8-4.1992-33-10.801-66-18.602-98.398-1.8008-7.8008-12.602-11.398-23.398-9-10.801 3-18.602 10.801-16.801 18.602 1.1992 4.1992 1.8008 7.8008 2.3984 12-16.199 0.60156-33 0.60156-50.398 0.60156-20.398 0.60156-41.398 1.8008-63 6.6016-4.8008 1.1992-9 2.3984-13.801 3.6016l-6.6016 2.3984c-2.3984 1.1992-4.8008 2.3984-7.1992 3.6016-9.6016 4.8008-17.398 11.398-24 18-13.199 13.199-21 24.602-31.801 32.398-10.801 8.3984-24 14.398-38.398 19.199-6.6016 1.8008-13.801 3.6016-21 4.8008 8.3984-13.801 16.801-27 25.801-41.398 11.398-18 23.398-37.199 33-58.801 9.6016-21.602 15.602-45 17.398-69 1.1992-11.398-8.3984-20.398-19.801-20.398-11.398 0-21 7.8008-21.602 16.801-1.8008 19.199-6 37.801-14.398 55.801-7.8008 18-18.602 35.398-30 53.398-9.6016 15-18.602 30.602-27 46.801-9.6016 17.398-14.398 37.801-16.199 57-3 37.199 4.8008 70.801 10.199 104.4-2.3984-1.1992-6-2.3984-9.6016-3.6016-4.8008-1.1992-10.199-2.3984-16.199-3.6016-1.1992-0.60156-3-0.60156-4.1992-1.1992 0 0-0.60156-0.60156-0.60156-1.1992-0.60156-0.60156-0.60156-1.1992-0.60156-1.8008 0-0.60156 0.60156-0.60156 0.60156-1.1992v-1.1992-4.1992c0-6 0.60156-12 0.60156-19.199 0.60156-13.199 1.8008-26.398 3-39.602 0.60156-6.6016 1.1992-13.801 1.1992-22.199v-20.398c0-27.602-1.8008-57.602-9.6016-86.398-3.6016-14.398-9.6016-28.199-15-40.801l-16.801-37.801c-10.191-25.809-20.992-49.809-29.391-75.008-8.3984-24.602-15-49.801-15.602-72.602 0-11.398 1.8008-22.199 6-30s10.801-13.801 19.801-18 20.398-6.6016 32.398-7.8008l40.199-3c27-1.8008 54-3 81-4.1992 88.801-3.6016 178.2-6 267.6-10.199l34.199-1.8008c11.398-0.60156 24-2.3984 35.398-4.8008 24-4.8008 46.801-13.801 67.199-24 21-10.199 40.199-20.398 60-28.801 7.8008-3.6016 16.199-4.8008 25.199-4.8008s18.602 1.8008 28.199 4.8008c19.199 6 37.801 16.199 55.199 28.199 9 6 17.398 12.602 25.199 19.199 4.1992 3.6016 8.3984 7.1992 11.398 10.199 3.6016 3 6 7.1992 7.8008 9 0.007812 1.8047 0.60547 3.6055 0.007812 5.4062z"/>
</svg>
