<?xml version="1.0" encoding="UTF-8"?>
<svg width="1200pt" height="1200pt" version="1.1" viewBox="0 0 1200 1200" xmlns="http://www.w3.org/2000/svg">
 <path d="m1164.1 369.19c-6.9492-24.254 22.477-96.996 22.477-122.98 0-25.969 15.648-133.33-83.148-148.92-98.652-15.59-159.25 114.3-173.14 136.81-13.848 22.5-69.254 114.31-145.49 74.473-47.578-24.887-106.07-36.266-143.21-41.27-22.285-3.0352-59.641-2.9883-83.004 0.25391-37.211 5.1602-94.488 16.57-141.3 41.016-76.176 39.84-131.62-51.973-145.45-74.473-13.836-22.508-74.461-152.4-173.16-136.81-98.711 15.59-83.125 122.95-83.125 148.92 0 25.992 29.426 98.723 22.5 122.98-6.9258 24.254-24.254 38.09-25.98 51.961-1.7266 13.859 24.254 25.98 50.242 29.426 8.9883 1.1992 19.188-2.1602 29.305-6.9961-4.5859 23.82 0.35937 53.52 16.105 81.492 27.406 48.562 76.043 73.008 108.67 54.637 32.594-18.371 36.863-72.637 9.4922-121.21-21.406-37.895-55.645-60.828-85.176-60.48 12.793-23.387 22.066-50.449-7.4141-65.195-31.176-15.59-57.156-67.547-45-117.78 12.121-50.195 34.621-62.34 67.512-32.891 32.93 29.461 77.941 161.06 140.28 188.77 62.352 27.73 91.801 45.023 103.92 110.83 12.109 65.82 31.176 176.65 51.961 211.31 20.785 34.57 31.176 98.676 31.176 98.676s-34.656 6.9375-39.84 41.566c-5.1953 34.668 45.035 119.55 43.32 152.44-1.7539 32.855 19.031 107.35 22.5 121.23 3.4805 13.836 90.984 15.539 90.984 15.539s89.473-1.7031 92.953-15.539c3.4688-13.871 24.277-88.367 22.523-121.23-1.7383-32.879 48.457-117.77 43.32-152.44-5.2578-34.633-39.875-41.566-39.875-41.566s10.379-64.105 31.188-98.676c20.785-34.668 39.863-145.5 51.961-211.31 12.086-65.797 41.555-83.102 103.89-110.83 62.352-27.707 107.36-159.31 140.28-188.77 32.93-29.449 55.402-17.305 67.488 32.891 12.156 50.242-13.777 102.2-44.965 117.78-29.398 14.711-20.23 41.746-7.4766 65.137-29.426-0.10938-63.383 22.801-84.719 60.516-27.348 48.562-23.09 102.82 9.5156 121.2 32.605 18.383 81.266-6.0586 108.67-54.625 15.695-27.863 20.676-57.469 16.152-81.227 9.9844 4.6797 20.004 7.9336 28.859 6.7578 25.922-3.4453 51.961-15.562 50.207-29.426-1.7812-13.879-19.051-27.715-25.996-51.969zm-456.52 51.156c-20.746 20.785-38.051 95.242-48.445 122.95-10.391 27.695-29.449 76.199-31.188 164.53-1.7266 88.273-13.859 135.1-13.859 135.1s-12.637 14.711-26.027 0c0 0-12.133-46.812-13.859-135.1-1.7266-88.332-20.773-136.84-31.176-164.53-10.391-27.707-27.695-102.17-48.48-122.95-20.797-20.773-43.32-32.93-83.137-39.84 59.988-15.254 319.37-15.254 379.31 0-39.816 6.9258-62.352 19.066-83.137 39.84z"/>
</svg>
