<?xml version="1.0" encoding="UTF-8"?>
<svg width="1200pt" height="1200pt" version="1.1" viewBox="0 0 1200 1200" xmlns="http://www.w3.org/2000/svg">
 <path d="m600 327.95c-150.07 0-272.05 121.98-272.05 272.05s121.98 272.06 272.05 272.06 272.06-121.98 272.06-272.06-121.98-272.05-272.06-272.05zm0 30.227c133.74 0 241.83 108.09 241.83 241.83 0 133.74-108.09 241.83-241.83 241.83-133.73 0-241.83-108.09-241.83-241.83 0-133.73 108.09-241.83 241.83-241.83zm0 68.016c-45.73 0-83.125 37.395-83.125 83.129 0 45.73 37.395 83.129 83.125 83.129 45.734 0 83.129-37.398 83.129-83.129 0-45.734-37.395-83.129-83.129-83.129zm0 30.227c29.398 0 52.902 23.508 52.902 52.902 0 29.395-23.508 52.898-52.902 52.898s-52.898-23.504-52.898-52.898c0-29.395 23.504-52.902 52.898-52.902zm0 158.7c-61.465 0-113.36 48.816-113.36 109.58v34.008c0 4.0078 1.5938 7.8516 4.4258 10.684 2.8359 2.8359 6.6797 4.4297 10.688 4.4297h136.03c4.043 0.058594 7.9453-1.5117 10.824-4.3516 2.8828-2.8398 4.5039-6.7188 4.5039-10.762 0-4.0469-1.6211-7.9258-4.5039-10.766-2.8789-2.8398-6.7812-4.4062-10.824-4.3516h-120.91v-18.891c0-43.453 37.617-79.352 83.125-79.352 45.512 0 83.129 35.898 83.129 79.352v34.008c-0.054687 4.043 1.5117 7.9453 4.3516 10.824 2.8398 2.8828 6.7188 4.5039 10.766 4.5039 4.043 0 7.9219-1.6211 10.762-4.5039 2.8398-2.8789 4.4102-6.7812 4.3516-10.824v-34.008c0-60.762-51.891-109.58-113.36-109.58z"/>
</svg>
