<?xml version="1.0" encoding="UTF-8"?>
<svg width="1200pt" height="1200pt" version="1.1" viewBox="0 0 1200 1200" xmlns="http://www.w3.org/2000/svg">
 <path d="m746.76 144.6c-2.9961-5.9961-7.6016-11.039-13.305-14.559s-12.277-5.375-18.977-5.3633h-229.08c-6.6992-0.011719-13.273 1.8438-18.977 5.3633s-10.309 8.5625-13.301 14.559l-53.281 107.4h-181.56v72h51.238v715.32c0 9.5469 3.793 18.703 10.543 25.457 6.7539 6.75 15.91 10.543 25.457 10.543h588.96c9.5469 0 18.703-3.793 25.457-10.543 6.75-6.7539 10.543-15.91 10.543-25.457v-715.32h51.238v-72h-181.56zm-239.04 52.078h184.56l27.719 55.32h-240zm-24.957 727.32h-72v-495.6h72zm153.24 0h-72v-495.6h72zm153.24 0h-72v-495.6h72z"/>
</svg>
