<?xml version="1.0" encoding="UTF-8"?>
<svg width="1200pt" height="1200pt" version="1.1" viewBox="0 0 1200 1200" xmlns="http://www.w3.org/2000/svg">
 <path d="m1139.3 985.09c-0.26562-124.99-95.375-146.75-204.98-171.77-15.516-3.5742-31.176-7.0781-46.738-11.039-6.1562-1.6094-12.898-3.1797-20.027-4.8594-22.547-5.3164-47.605-11.258-69.59-19.297-26.531-9.7422-48.574-22.477-56.09-40.957-2.7461-6.707-4.7148-17.773-5.0156-29.426 80.398-30.168 174.88-79.906 154.37-148.62-9.625-32.281-30.254-83.242-56.617-140.18l14.27-58.754c6.9844-69.238-8.0391-143.51-44.004-188.93-37.367-47.148-108.16-89.953-177.86-94.754-9.0859-0.61328-18.121-0.83984-27.035-0.70703-8.9297-0.13281-17.953 0.097656-27.059 0.73047-69.684 4.7773-140.48 47.578-177.86 94.727-35.953 45.422-50.953 119.69-43.969 188.95l13.801 56.902c-26.508 57.574-47.137 109.3-56.449 142.01-19.586 68.688 74.605 118.38 154.64 148.55-0.30078 11.676-2.2695 22.777-5.0156 29.496-7.5352 18.48-29.531 31.262-56.09 40.98-21.984 8.0625-47.004 13.969-69.574 19.297-7.1406 1.7031-13.906 3.2539-20.039 4.8359-15.539 3.9609-31.199 7.5117-46.715 11.09-109.61 25.031-204.72 46.715-204.97 171.73l-0.6875 16.809c0 67.57 241.78 122.34 540 122.34 298.23 0 540-54.77 540-122.34z"/>
</svg>
