<?xml version="1.0" encoding="UTF-8"?>
<svg width="1200pt" height="1200pt" version="1.1" viewBox="0 0 1200 1200" xmlns="http://www.w3.org/2000/svg">
 <g>
  <path d="m827.21 515.26c-8.2734-9.3984-14.652-20.309-18.797-32.125-1.1055 3.75-2.2773 7.5-3.6484 11.383l0.003906-0.003906c-0.42188 1.1406-1.0391 2.1953-1.8203 3.1211 0.28516 11.832-0.41406 23.668-2.082 35.383 3.9922-1.3867 7.6758-3.5312 10.859-6.3086 4.6094-4.5117 9.8203-8.3633 15.484-11.449zm326.25-233.44c43.191 58.602-80.07 56.586-108.63 54.637-38.699-2.6055-73.5-15.742-110.91-24.656-22.367-5.3359-44.945-9.5625-67.707-13.004-23.879-3.6484-52.105-12.188-75.59-2.6719l0.003906 0.003906c6.5625 19.965 10.859 40.602 12.805 61.527 0.32812 0.066406 0.65625 0.066406 0.9375 0.13281 51 12.488 88.266 60.16 120.34 99 25.566 30.938 59.195 80.523 47.617 123.65-3.1211 11.578-9.0469 22.246-22.5 22.246-21.984 0-28.555-26.867-41.953-38.316-18.602-15.938-42.992-23.156-63.355-35.625-1.2227 1.1641-2.7227 1.9961-4.3594 2.4062-9.9453 2.4766-15.477 11.773-24.262 16.52-6.4414 3.2539-13.32 5.5547-20.422 6.8359-5.2266 14.414-8.5391 29.449-9.8516 44.727-0.027344 33.34-3.8008 66.57-11.25 99.066-6.2734 30.062-14.996 59.562-26.082 88.199l0.1875 0.19531c0.26172 0.58984 0.52344 1.1055 0.78906 1.6328 1.8477 1.3438 3.0859 3.3672 3.4414 5.625 6.2617 33.066 9.3594 66.656 9.2422 100.31 0.066406 32.258 5.3359 64.688-2.6719 96.336v0.003906c0.074219 0.9375 0.050781 1.8789-0.066406 2.8125-3.1875 17.812-24.328 23.672-39.375 28.809-35.625 12.039-76.172 26.672-114.29 25.5-39.16-1.1055-78.441-6.6289-117.54-9.4961-31.031-2.2109-61.34-6.1797-88.727-21.852v-0.003906c-2.0156-1.0898-3.5508-2.8984-4.293-5.0703 0-0.066406 0-0.066406-0.066406-0.066406-24.215-50.297-16.18-110.18-18.992-163.91-2.9883-58.414-5.0234-116.93-6.1133-175.57-32.719 40.594-94.574 12.188-131.2-12.188l0.003906 0.003906c-22.215-13.676-39.176-34.438-48.141-58.934-5.8281-17.648-13.184-34.758-21.984-51.129-4.7812-8.3008-7.625-17.57-8.3281-27.125-0.91406-1.8711-1.2422-3.9805-0.9375-6.0469 2.7266-18.863 15.805-30.441 32.137-39.227 23.738-12.816 36.355-30.441 55.996-47.418 18.281-15.805 42.02-23.438 58.742-40.914l0.003906 0.003906c8.4805-10.223 20.66-16.676 33.883-17.953 0.082032-1.6445 0.59766-3.2344 1.5-4.6133 0.12891-0.99219 0.41406-1.9609 0.84375-2.8672 8.5859-18.273 7.5-38.438 13.988-57.047-56.844-45.113-114.8 16.754-166.96 41.07-18.855 8.3789-39.754 11.027-60.102 7.6133-27.383-4.0977-56.203-3.0547-82.941-10.078-2.3555-0.54688-4.3828-2.0234-5.625-4.0977-2.7812-2.3008-3.8945-6.0547-2.8125-9.4961 7.2266-25.633 38.117-23.945 59.652-23.352 47.617 1.1055 96.562-40.312 131.13-69.863 71.746-61.461 151.11-103.43 244.84-64.07 2.1172 0.875 3.8789 2.4336 5.0078 4.4258 27.582-2.5664 55.371 1.6992 80.914 12.422 29.062-6.4414 54.055-17.043 83.324-15 0.63281-0.64453 1.3555-1.1875 2.1484-1.6211 58.996-33.242 141.73-26.805 200.08 5.625 94.773 52.742 179.01 119.68 294.98 98.211 0.8125-0.14062 1.6406-0.18359 2.4648-0.12891 4.1055-1.1523 8.4922 0.38672 10.977 3.8516zm-108.63 35.117c10.012 0.39453 94.445 0.9375 94.191-19.059v0.003906c-35.66 5.6172-72.066 4.3828-107.27-3.6406-36.57-5.4688-72.504-14.574-107.26-27.188-31.09-11.047-64.562-13.59-96.965-7.3672-14.953 2.6641-33.496 4.293-45.984 14.176 0.64844 1.4336 1.3672 2.8125 2.0156 4.293 21.402-8.3906 41.699-5.0703 64.855-1.6211 30.492 3.6953 60.746 9.168 90.602 16.387 34.93 9.4414 69.281 22.715 105.77 24.008zm-117.84 239.94c-0.066407-0.066406 26.992 36.355 26.926 14.758h-0.003907c0.19922-8.1797-0.51953-16.359-2.1445-24.375-1.8477-7.6445-4.3047-15.129-7.3516-22.379-30.309-0.84375-55.68-10.023-68.617-39.227-16.977 6.5625-21.797-15.543-22.059-31.613-18.93 0.72266-18.93-45.336-18.863-60.883l0.003906 0.003906c-9.0742-6.4609-19.102-11.465-29.719-14.832 0.51563 8.7852 0.84375 17.691 1.0391 26.867 0 0.12109-0.066406 0.1875-0.066406 0.25391 0.32031 0.46875 0.58203 0.97266 0.77734 1.5 4.8008 12.672 7.2031 26.125 7.0898 39.676 0.42969 0.59766 0.82422 1.2227 1.1719 1.875 7.2852 15.805 11.906 34.023 22.246 48.074 13.66 18.535 36.617 21.723 55.227 32.973 12.914 7.0938 24.527 16.336 34.344 27.328zm-45.141-310.97c24.461 1.4258 49.039 12.75 72.188 21.141-16.234-7.7969-31.98-16.562-47.156-26.25-68.297-43.648-151.36-91.133-232.5-59.129 22.672 4.5078 43.75 14.941 61.078 30.246 16.613 15.277 30.629 33.16 41.492 52.949 26.195-19.238 75.75-20.652 104.9-18.957zm33.496 266.75c8.1211 1.4375 16.344 2.2461 24.59 2.4102-13.789-27.648-34.688-49.762-56.336-73.961-11.938-14.246-24.848-27.652-38.633-40.125 0.77734 16.875 3.4492 46.566 11.316 42.273 1.5039-0.86719 3.3516-0.875 4.8633-0.019531 1.5117 0.85547 2.457 2.4453 2.4844 4.1836-0.32812 5.2695-1.4336 35.84 12.188 27.262 1.3086-0.75781 2.8945-0.86719 4.2969-0.29297 1.3984 0.57031 2.4531 1.7617 2.8594 3.2188 3.168 8.8398 21.25 32.969 32.371 35.051zm-120.94-64.848c0.27734-12.195-1.8438-24.328-6.2461-35.707-0.39062-0.99609-0.61328-2.0508-0.65625-3.1211-0.50781-1.2148-0.77344-2.5195-0.77734-3.8359-1.1719-57.508-6.1133-111.37-41.953-155.62 4.4922 23.625 0.85547 48.078-10.312 69.375-7.6133 12.555-26.805 20.223-29.465 32.586-5.3359 24.777-19.059 44.164-32.391 65.305-3.1875 50.211 24.91 97.5 18.863 149.02-3.0547 26.25-8.1367 45.852-2.082 72.789 2.8594 11.668 2.8594 23.848 0 35.516-1.3047 3.75-3.0547 8.4375-7.6133 9.0469 0.45312 6.168-0.14062 12.367-1.7539 18.336-1.4336 4.6875-3.4492 6.8359-4.1719 6.5078-0.9375-0.46094-0.71094-2.9922-0.9375-7.2188-0.28125-5.8672-1.0391-11.699-2.2656-17.438-11.25 0.066406-22.641 0-33.75-0.38281-14.645-0.52344-26.605-8.5234-42.281-8.3906v-0.003906c-15.992-0.55469-31.922 2.2383-46.773 8.1953-15.871 6.7695-36.816 7.2852-51.188 16.387-0.5 0.30469-1.0547 0.50391-1.6328 0.58984-0.1875 1.2383-0.38281 2.4102-0.64844 3.4492-0.84375 4.0977-1.7539 6.3672-2.6719 6.3672s-1.6875-2.2695-2.3984-6.4297c-0.60156-3.5078-0.99219-7.0508-1.1719-10.605-4.875-14.316-3.5156-29.148-7.4141-43.914-0.066406-0.12109-0.13281-0.1875-0.19531-0.32031v0.003906c-6.5156-21.805-10.812-44.207-12.836-66.871-1.3594-23.023 1.9492-45.852-0.44922-68.945-3.5-22.609-4.5039-45.535-2.9922-68.363 2.9922-25.633-16.727-29.598-30.449-42.543-18.008-17.043-27.703-50.934-27.32-74.867 0.64063-5.0742 1.957-10.039 3.9102-14.766 2.9258-9.9453-6.7695-19.773-10.668-28.426-2.7969-7.1289-3.7617-14.844-2.8125-22.445-6.7031 13.602-15 27-20.559 40.922 0.39844 3.0039-0.64453 6.0195-2.8125 8.1289-0.64453 1.8477-1.1875 3.7227-1.6328 5.625-4.4922 19.52-5.9141 38.512-14.371 56.914-0.066406 23.352-0.52344 46.707-0.77734 70.059v0.003906c4.3906-4.332 10.203-6.9297 16.359-7.3086 6.1562-0.38281 12.242 1.4727 17.137 5.2266 7.5273 5.3633 13.113 13.023 15.926 21.824 2.8164 8.8047 2.7031 18.285-0.31641 27.02 8.2578 5.9258 21.984 8.9805 27.449 17.438 7.4141 11.445-3.4492 19.773 4.0312 32.812 18.281 31.875 7.0234 68.559 11.512 103.36 3.2539 25.105 6.375 51.449 26.25 69.469 5.3984 4.9414 18.414 15.148 17.438 24.648-1.6328 16.07 6.8906 30.121 8.1289 45.984 0.9375 11.25-3.8984 21.402-2.6055 32.812 0.72266 5.2695 1.1719 10.602 1.5 15.871 1.3594-0.16406 2.7305 0.13281 3.8984 0.84375 0.67969 0.11328 1.3203 0.38281 1.875 0.78516 24.32 16.125 54.637 37.988 85.145 27.637v0.003906c0.44531-0.10156 0.90234-0.14062 1.3594-0.125 1.1211-1.2773 2.9531-1.6602 4.4922-0.9375 14.699 5.9258 26.082-4.4805 39.676-8.7109 8.3359-2.5391 16.527 0.51562 24.375-5.2695 25.961-19.125 26.148-35.773 31.875-65.176v0.003907c4.3242-16.012 4.7734-32.828 1.3008-49.051-2.1484-7.3516-7.9414-18.02-5.625-26.148 3.0547-11.25 13.398-10.312 17.305-27.055 8.5234-36.816 0-74.289 3.5078-111.68 2.5391-27.188 5.9258-53.082 10.867-79.941 0.71094-2.5938 3.3789-4.1289 5.9805-3.4492 3.6484-1.1055 7.2266-2.2773 10.801-3.4492-2.5234-6.0352-3.2227-12.676-2.0078-19.105 1.2148-6.4258 4.2891-12.355 8.8398-17.055 6.2344-6.8516 15.188-10.582 24.441-10.195 9.2539 0.39062 17.859 4.8633 23.496 12.211 0.35547 0.63672 0.80469 1.1914 1.1992 1.8086zm-9.4297 37.012-0.003907 0.003906c4.2656-4.6914 6.5742-10.836 6.4531-17.176-0.12109-6.3398-2.6641-12.391-7.1094-16.914-4.7148-5.168-11.613-7.7852-18.574-7.0469-6.957 0.74219-13.148 4.75-16.676 10.797-3.9492 7.6367-4.3555 16.621-1.1055 24.582 0.79297 0.83203 1.3359 1.8711 1.5586 3 1.3789 2.2148 3.2773 4.0664 5.5312 5.3906 4.7109 2.4648 10.027 3.5273 15.324 3.0586 5.293-0.46875 10.344-2.4414 14.551-5.6914zm-10.312 70.117h-0.003907c5.1562-18.969 8.0781-38.477 8.7109-58.125-6.1055 3.418-13.156 4.7539-20.09 3.8164-6.9336-0.94141-13.371-4.1094-18.348-9.0273-0.21875-0.24219-0.41797-0.50391-0.58984-0.77734-2.8438 3.7383-7.6094 5.4688-12.188 4.4219-5.2695-1.6211-10.406 58.219-10.668 60.555-3.1875 34.48 4.293 70.641-0.9375 104.4-1.5781 14.188-5.957 27.918-12.883 40.398-7.8008 13.461-3.75 23.156-1.1055 38.504 4.4922 26.344-7.1523 55.227-10.988 82.086 25.172-15.414 39.742-49.039 46.961-76.227 9.3164-29.98 16.148-60.68 20.426-91.781 1.2383-12.816 1.1055-26.25 1.4922-39.676-1.4219 0.56641-2.9766 0.71875-4.4805 0.44922-1.8398-0.33203-3.5938-1.043-5.1484-2.082 0.54688 8.9961-0.19531 18.02-2.2031 26.805l0.054688-0.46094c-2.1953 9.1797-5.7227 17.988-10.469 26.148-1.3945 2.4375-3.2773 4.5625-5.5234 6.2422-1.7617 1.3047-2.7383 1.0391-3.1211 0.72266-0.52344-0.46094 0.32031-1.5 0.77734-2.9258 0.46094-1.4258 1.3672-3.6484 2.2109-6.6367 2.3672-8.4219 4.2148-16.98 5.5312-25.629l0.054687-0.44922 0.003906-0.003906c0.80469-5.0391 0.92188-10.168 0.35547-15.242-0.8125-6.9688-0.46094-14.023 1.0391-20.879l1.7539-6.8984 6.8359 2.6719c2.3672 0.91016 4.6367 2.0664 6.7695 3.4492l1.4258 0.9375c0.46094-0.77734 0.84375-1.5664 1.3047-2.4102h-0.003906c1.4805-4.1797 2.4258-8.5273 2.8125-12.945 0.39453-4.3516 0.39453-9.3008 0.52344-13.789v-0.003907c0.14844-4.0977 0.0625-8.1992-0.26172-12.289-0.13281-3.5469-0.44531-7.0859-0.9375-10.602-0.65625-6.5625-1.5-11.898-1.7539-15.676-0.25391-3.7773-0.066406-5.9805 0.71094-6.1797 0.77734-0.19531 2.1484 1.5 3.8359 4.875 2.4609 4.875 4.3828 10 5.7305 15.293 0.95312 2.9297 1.7266 5.9141 2.3047 8.9414zm-34.219 430.87c7.6133-29.727 2.2109-61.211 2.082-91.586h-0.003906c0.027344-28.41-2.2773-56.777-6.8906-84.816-0.39453 0.58203-0.84375 1.2266-1.3047 1.8203l-0.066406 1.3672c-0.39453 5.9141-0.77734 12.555-1.2383 19.688-0.13281 1.7539-0.26172 3.5703-0.38281 5.3984-0.26172 2.0156-0.46094 4.0312-0.72266 6.0469l0.003906 0.003906c-0.6875 4.1484-1.625 8.2539-2.8125 12.289-2.4102 8.0703-5.7266 16.266-8.0078 24.008-0.58203 1.9492-1.0977 4.2852-1.6875 6.4297-0.32812 1.6953-0.77734 3.9766-1.0391 6.0547-0.64844 4.293-1.0391 8.9062-1.4922 13.594v0.003906c-0.55078 10.422-2.5664 20.715-5.9883 30.574-3.8555 9.8359-11.16 17.926-20.551 22.762l-6.9648 3.5156-0.066406-0.32812c-2.4766 3.6484-5.3047 7.043-8.4375 10.145-5.3086 5.0859-11.387 9.3047-18.012 12.496-0.85156 0.44922-1.6953 0.84375-2.4766 1.293h0.003906c-4.2109 6.957-10.266 12.609-17.496 16.332l-5.8594 2.9258-1.2383-3.6484h0.003907c-3.9648 4.0352-8.3672 7.6133-13.125 10.668-8.875 6.1797-19.586 9.1562-30.375 8.4375-2.1562-0.19922-4.2773-0.67969-6.3125-1.4219-2.3867-0.69141-4.6836-1.6719-6.832-2.9258-3.8008-2.1289-7.3008-4.7578-10.406-7.8086-3.4688-3.4023-6.5234-7.1992-9.1055-11.316-0.37891 0.21484-0.76953 0.40625-1.1719 0.58203-1.1328 0.45313-2.3711 0.58594-3.5781 0.39063-1.2773-0.17188-2.4844-0.66406-3.5156-1.4336-1.6367-1.2031-3.1211-2.5977-4.418-4.1602-0.9375-1.1719-1.875-2.2773-2.7383-3.3828-0.44922-0.64844-0.77734-1.2383-1.1719-1.8203l-2.5312-1.9492c-5.625-3.9648-12.883-8.5234-20.559-14.898-0.9375-0.77734-1.9492-1.5664-2.9922-2.3438l-1.4922-1.1719-0.72266-0.64844-0.13281-0.066406-0.066406-0.066407-0.38281-0.39453-0.13281-0.1875-0.32812-0.32812 0.007812 0.003906c-1.8477-1.9805-3.5234-4.1133-5.0078-6.375l-1.1719-1.9492c-2.2539 0.60938-4.6406 0.49609-6.8242-0.32812-2.0078-0.72266-3.9023-1.7305-5.625-2.9922-2.9922-2.168-5.7773-4.6055-8.3242-7.2852-5.0703-5.3477-9.6211-11.164-13.594-17.371-0.066406-0.066406-0.066406-0.12109-0.13281-0.1875-0.066407-0.066406-0.066407-0.13281-0.13281-0.19531-1.8203-3.1875-3.8359-6.4414-5.7266-9.7578v-0.003906c-1.9219-3.5234-3.5547-7.1953-4.875-10.988-1.5352-3.7617-2.7852-7.6289-3.75-11.578-1.1055-3.9102-2.082-7.8086-2.9336-11.645v-0.066406l-4.0312 0.71094v0.003907c-4.4062-6.1797-7.7305-13.066-9.8242-20.363-2.0469-6.3672-3.6719-12.863-4.875-19.441-1.6211-13.012-2.4102-24.066-3.3828-34.352l-0.38281-4.4805h-0.003906c-17.598-24.508-28.781-53.031-32.531-82.969-1.5-8.6445-3.1875-17.363-4.8828-26.082 0.77734 41.57 2.0156 83.195 4.4258 124.43 3.3828 56.586-7.7422 125.21 17.43 178.03h-0.003906c18.039 9.1602 37.676 14.746 57.836 16.453-7.9258-6.3555-14.816-13.902-20.43-22.367-1.082 0.64844-2.2148 1.2148-3.3828 1.6875-5.6172 2.2031-12.012 0.23047-15.414-4.7539-2.4805-3.5156-4.2305-7.4922-5.1367-11.699-0.89453-3.4883-1.5664-7.0312-2.0156-10.602-0.26172-2.082-0.46094-4.0391-0.65625-6.0547v-0.003906c-1.4531 0.80859-3.082 1.2578-4.7461 1.3047-2.9883 0.09375-5.8945-1.0039-8.0703-3.0586-1.5742-1.3477-2.9336-2.9297-4.0312-4.6875l-1.1055-1.875c-0.71094-1.4258-0.77734-1.8203-1.1719-2.7266-1.168-3.0234-1.8906-6.1992-2.1484-9.4297-0.45703-9.8516 0.89062-19.699 3.9766-29.062 4.7422-15.215 9.3008-23.344 10.539-22.961 1.5547 0.46094-0.46094 9.6289-2.9336 24.723h-0.003906c-1.582 8.5547-1.9336 17.293-1.0391 25.949 0.34375 2.207 1.0039 4.3555 1.957 6.375l0.51562 1.1055 1.1719 1.7539c0.48047 0.68359 1.0469 1.2969 1.6875 1.8281 0.13281-0.13281 0.26172-0.19531 0.46094-0.39453 1.6445-1.7773 3.0469-3.7656 4.1641-5.9141l7.7422-13.922 3.7031 15.414v-0.003906c0.75 3.4023 1.2969 6.8477 1.6328 10.312 0.38281 3.1211 0.84375 6.2422 1.2266 9.4961 0.52344 3.1211 1.0391 6.1797 1.875 9.1133 0.49609 2.4766 1.4492 4.8359 2.8125 6.957 0.097656 0.17969 0.23438 0.33594 0.39453 0.46094h0.1875c1.793-0.91797 3.4219-2.1289 4.8164-3.582l6.3086-6.2422 4.0977 7.875c6.375 11.836 15.199 22.176 25.887 30.336 2.5391 1.8203 5.0156 3.5703 7.3516 5.2695 0.72266 0.44922 1.4336 0.84375 2.1484 1.2383 1.9492 0.054688 3.9102 0.1875 5.8594 0.32031 28.555 1.3047 56.652 5.8594 85.078 7.8086 35.062 2.4102 64.688-4.7539 98.223-13.66 10.012-2.6719 55.152-10.734 59.184-24.461h-0.003906c-0.070313-1.0781 0.015625-2.1641 0.26172-3.2148zm-37.855-650.62c33.891-15.477 40.199-65.953 28.125-101.02-0.51562-0.52344-1.0391-1.1055-1.5547-1.6328h-0.003906c-10.109-9.543-21.688-17.402-34.285-23.277-1.2695 2.5469-2.9375 4.8711-4.9414 6.8906-4.293 4.293-23.867 5.3984-21.723 12.684 1.5977 3.5781 2.1875 7.5195 1.7031 11.406-0.48047 3.8867-2.0156 7.5664-4.4375 10.645-7.0234 10.996-9.5625 6.1797-5.457 18.992 2.3359 7.5-4.2266 16.977-7.9414 22.379-19.641 28.293-59.062 29.062-78.441 58.668-0.90234 1.4648-2.5 2.3555-4.2188 2.3555s-3.3125-0.89062-4.2188-2.3555c-18.348-27.055-43.387-23.805-66.414-40.781h0.003906c-8.6523-5.5078-14.617-14.371-16.465-24.457-0.56641-6.082 0.011719-12.215 1.6992-18.086 2.2109-12.883-10.801-11.906-14.445-20.164-6.6953-15.086 7.2266-36.422-16.586-42.281-17.074 7.2461-31.609 19.402-41.758 34.93-1.5664 14.898-5.2031 34.219 2.6641 46.508v0.003907c3.5898 4.8008 6.3633 10.164 8.2031 15.871 2.1484 11.773-5.3359 19.969-3.9102 32.258 2.9922 24.375 14.316 56.137 36.684 69.535 8.0078 4.1875 14.969 10.125 20.363 17.371 5.9805 7.9961 0 23.023-0.13281 30.938-0.26172 20.223 2.4102 39.805 3.9648 59.906 3.5156 44.23 0.85156 87.609 12.43 131.06h0.003906c1.0391 4.0273 1.6914 8.1406 1.9492 12.293 0.44922-1.6875 0.84375-3.375 1.3047-5.0703 0.32031-1.2383 0.64844-2.5312 0.9375-3.75 0.64844-1.8203 1.0391-2.8125 1.5547-4.2266 1.0391-2.6055 2.082-5.3359 3.1875-8.0625 1.3047-2.6719 2.9258-5.3359 4.4258-8.0078 2.8125-5.0703 8.9727-10.312 10.406-16.07 2.6719-10.727-2.4102-23.223-0.32812-34.734 0.84766-6.1289 3.2422-11.938 6.9648-16.875 0.98047-1.3984 2.3633-2.4648 3.9648-3.0586 1.0391-0.38281 1.7539-0.44922 2.0156-0.13281 0.26172 0.32031 0.26172 0.98438-0.19531 2.0234-0.26172 0.51562-0.58203 1.0977-0.9375 1.7539-0.35547 0.65625-0.38281 1.4922-0.64844 2.2109v0.003907c-1.3398 4.8867-1.9961 9.9336-1.9492 15-0.066406 3.3203 0 7.0312 0.1875 11.062 0.13281 0.84375 0.26172 1.7539 0.39453 2.6641 0.13281 0.91016 0.46094 1.5664 0.64844 2.3438 0.65625 1.9492 1.3672 4.0312 2.082 6.1133 5.2109 15.684-0.32031 21.207-9.75 31.613l-1.6328 3c-1.2383 2.2031-2.5977 4.3516-3.75 6.5625-0.9375 2.4102-1.9492 4.7539-2.9258 7.0977l-1.3672 3.1875c-0.39453 1.2266-0.77734 2.5312-1.1719 3.75-0.77734 2.4766-1.5547 4.875-2.2773 7.2188l-0.003906-0.003906c-1.3516 4.2383-2.418 8.5664-3.1875 12.949-0.57812 2.2031-1.0312 4.4375-1.3594 6.6914 3.0469 2.5859 7.2695 3.2891 10.988 1.8281 17.16-6.1602 34.637-11.395 52.359-15.676 18.719-3.8984 38.055-3.7891 56.727 0.32031 17.758 5.1367 33.102 3.1875 50.41 5.082-0.19531-1.0391-0.39453-2.0234-0.65625-3.1328-0.51562-2.3359-0.9375-4.9414-1.4922-7.2188-0.55469-2.2773-1.1055-4.4805-1.875-6.6953l0.003906 0.003907c-4.5391-10.223-10.098-19.957-16.586-29.062-1.4922-2.4648-2.8594-5.0703-4.2266-7.5469-1.1719-2.7266-2.2773-5.3242-3.4492-7.9961l-2.8594-6.5625 7.4141-1.9492c2.9258-0.77734 4.0312-1.9492 4.8828-5.3984v-0.003906c0.54688-3.7773 0.32422-7.6289-0.65625-11.316-1.7148-7-4.5-13.691-8.2578-19.836-2.3984-4.1367-5.4023-7.8867-8.918-11.129-1.293-1.0391-2.2031-1.7539-2.9922-2.3359s-1.293-1.0391-1.2383-1.4336c0.054687-0.39453 0.65625-0.71094 1.6328-0.9375h0.003906c1.6289-0.14844 3.2734 0.070313 4.8086 0.64844 5.2969 2.1562 9.957 5.625 13.535 10.086 5.543 6.3828 9.7422 13.816 12.359 21.852 1.8711 5.25 2.5117 10.855 1.875 16.391-0.42578 3.5898-1.8477 6.9922-4.0977 9.8242-0.85938 1.0508-1.8398 1.9961-2.9258 2.8125l0.58203 1.3672c1.3047 2.1484 2.4102 4.3594 3.75 6.6367 7.0312 9.9336 12.707 20.762 16.875 32.195 0.78906 2.8672 1.1719 5.793 1.7617 8.5234 0.44922 2.6055 0.51562 4.8203 0.77734 7.0234 3.75-14.062-7.8672-50.41-7.7422-54.637 0.58984-19.574 9.0469-37.332 10.086-56.98 2.4648-47.812-23.438-93.402-20.035-140.36v-0.003906c-0.03125-0.94141 0.21875-1.8711 0.71484-2.6719 12.816-20.289 27.449-39.805 32.008-63.871 1.0742-6.0859 1.1406-11.09 6.9258-13.699zm19.773 496.04c0.39453-2.4766 0.72266-4.7539 1.1055-7.0859h-0.003906c-5.4648 5.4336-11.609 10.137-18.281 13.996-1.8281 24.066-5.793 53.082-23.289 71.164-7.875 7.7656-17.621 13.363-28.293 16.258-0.60156 0.38672-1.2266 0.73438-1.875 1.0391-1.0391 0.52344-2.1484 1.0391-3.2539 1.5664l-0.84375 0.44922-0.38281 0.19531-0.26172 0.066406-0.9375 0.32812-2.4766 0.51562c-3.1211 0.58984-6.1133 0.72266-8.1953 1.0391-1.875 0.32812-2.3438 0.65625-2.7383 1.0391 0 0.066406 0 0.19531-0.054687 0.19531v0.007812c-0.79688 2.9883-1.3633 6.0352-1.6953 9.1133-0.46875 3.7266-1.2734 7.4023-2.4102 10.984-1.582 5.9023-4.3242 11.434-8.0625 16.266-2.9922 3.2539-5.3359 4.4805-6.375 3.8359-1.0391-0.64844-0.64844-3.3828 0.52344-7.4141 0.71094-3.7031 1.875-8.9727 2.6641-15.676l0.19531-0.71094c0.32812-1.6953 0.51562-5.3359 0.77734-8.7852 0.13281-1.6875 0.26172-3.6484 0.52344-5.625h0.003907c0.14453-0.60156 0.25-1.207 0.32031-1.8203-3.5078 0.52344-6.957 1.0391-10.312 1.5664-3.7461 0.63672-7.5234 1.0469-11.316 1.2266 0.97656 1.9609 1.9492 3.8359 2.9258 5.625 0.46094 0.9375 0.9375 1.8203 1.3047 2.8125 0.36719 0.99219 0.71094 2.082 1.1055 3.1211 0.64844 2.0156 1.2383 3.9766 1.875 5.793v0.003907c1.5391 5.7148 2.0859 11.656 1.6211 17.559-0.44922 4.1641-1.1641 6.375-2.082 6.3086-2.1484 0-3.1211-8.7188-8.3242-20.746-0.71094-1.3672-1.4258-2.8594-2.2109-4.4258-0.38281-0.77734-0.71094-1.5547-1.0977-2.3438-0.38281-0.78906-1.1055-1.6875-1.6328-2.5312-1.1719-1.7617-2.3438-3.5156-3.5156-5.3984-0.9375-1.1719-2.3359-2.4102-3.4414-3.75-1.3516-1.0664-2.8125-1.9805-4.3594-2.7305-6.7656-0.79688-13.445-2.1875-19.969-4.1602 4.3594 10.996 9.6953 20.68 13.07 28.688 4.8828 11.25 6.0547 18.402 4.6875 19.125-1.5664 0.71094-5.625-5.4648-12.188-15-8.832-11.879-15.969-24.926-21.207-38.766-7.4805-3.4258-14.641-7.5039-21.402-12.188-22.312-15.609-29.793-41.371-43.125-63.609-0.074219 0.007812-0.14453-0.015626-0.19922-0.066407-11.047-5.2812-21.453-11.809-31.02-19.453-2.6055-1.4336-5.3984-2.9922-8.2031-4.8086 0.9375 6.3086 1.875 12.871 2.9336 19.773v-0.003906c1.3125 5.9648 2.9609 11.848 4.9414 17.625 1.5781 4.7891 3.6719 9.3906 6.2422 13.727l6.6367 0.066406c0.51563 2.2773 1.0391 4.6211 1.6211 6.957l0.003906-0.003906c2.5703 14.223 7.6484 27.871 15 40.312l0.13281 0.26172 0.13281 0.13281h-0.003907c3.418 5.6758 7.3164 11.051 11.645 16.07 0.71094 0.84375 1.4258 1.5547 2.2031 2.3359v-0.003907c-2.9453-8.25-5.3555-16.68-7.2188-25.234-2.8242-8.5039-5.2148-17.141-7.1562-25.887-2.9258-14.316-3.3828-23.352-1.6875-23.746 1.875-0.44922 5.4648 7.8086 10.602 21.074s12.355 31.164 20.879 51.461c2.0156 4.3516 4.3594 10.211 6.1797 13.07v-0.003906c1.1719 2.082 2.5664 4.0234 4.1641 5.7969l0.19531 0.25391 0.64844 0.58984 1.3047 1.1719 2.5391 2.2773c1.2266 1.1641 2.3984 2.2031 3.6367 3.3086-0.71094-1.5547-1.4336-3.1211-2.0156-4.6875-1.5664-4.4258-3.0547-8.5234-4.2266-12.188-4.3594-14.766-5.625-23.672-4.293-24.066s5.2031 7.7422 11.445 21.336c1.6328 3.3203 3.3867 6.9609 5.2695 10.93 2.0156 3.9648 4.5547 8.1953 7.0312 12.75v0.003906c2.3906 4.4258 5.082 8.6836 8.0625 12.742 0.58203 0.72266 1.2383 1.4336 1.875 2.1484v-0.003906c0.30859-0.52344 0.65625-1.0195 1.0391-1.4883l6.1133-7.6797 4.3594 9.1016c4.9648 11.926 15.301 20.789 27.844 23.879l0.9375 0.13281 0.38281 0.13281 0.19531 1.0391 0.9375-0.52344 2.8125-0.51562c1.875-0.19531 3.75-1.0391 5.625-1.3672 1.8281-0.71094 3.6484-1.5 5.4648-2.2109 1.8203-0.9375 3.582-1.9492 5.2695-2.8594l0.003907-0.003906c6.6641-4.1328 12.656-9.2695 17.754-15.227l7.4141-8.5859 2.9336 10.473c0.054688 0.066406 0.054688 0.066406 0.054688 0.13281l0.003906-0.003906c4.75-3.6133 8.6406-8.2344 11.391-13.527 3.9648-6.957 6.6953-13.988 9.4961-19.574 2.0391-4.5078 4.5898-8.7656 7.6055-12.688 2.2109-2.6055 3.75-3.75 4.2266-3.3828 0.47656 0.36719 0.066406 2.1484-1.1055 5.2695s-2.5977 7.5-4.2852 13.332c-1.4336 4.4922-2.8672 9.8906-5.1484 15.938h0.003907c2.8555-2.3359 5.4727-4.9492 7.8086-7.8008 2.5547-3.0625 4.8203-6.3477 6.7695-9.8242 2.1484-3.75 4.4141-7.875 6.7578-12.234l6.4414-11.961 3.3203 11.578-0.003906-0.003906c3.4492-3.3555 6.0938-7.4492 7.7344-11.973 2.7383-8.7773 4.3359-17.871 4.7539-27.055 0.46094-4.7539 0.9375-9.4961 1.6875-14.316 0.34766-2.4922 0.82812-4.9648 1.4336-7.4062 0.64844-2.2109 1.1055-4.293 1.8203-6.5078 2.9922-9.3008 6.4414-16.875 8.9141-24.262 1.2344-3.4883 2.2578-7.0508 3.0586-10.668 0.32812-1.6875 0.64844-3.3828 0.9375-5.0703zm-52.055 61.051c9.1875-16.672 14.414-35.234 15.281-54.254-13.527 11.906-21.789 20.559-41.305 22.5-18.75 1.875-28.68 16.453-47.867 9.2344h-0.003906c-0.42578 0.35938-0.91016 0.64453-1.4336 0.84375-33.301 11.25-66.086-10.988-92.691-28.68-0.13281-0.066406-0.13281-0.19531-0.25391-0.32812l-3.75 0.58203c8.7852 16.266 15 35.906 28.82 48.074v0.003907c23.875 21.168 56.422 29.672 87.602 22.883 16.844-3.4297 45.852-3.6172 55.602-20.859zm-13.914-675.24c3.8359-5.625 18.863-8.3906 24.59-13.266h0.003907c-9.8438-3.3359-19.973-5.7734-30.254-7.2852-33.43-5.2031-59.383 7.9961-91.32 14.305h-0.003907c-3.0703 0.63672-6.2617-0.23438-8.5859-2.3438-26.973-11.277-56.785-13.898-85.312-7.5 5.5 3.9258 10.078 9.0078 13.406 14.887 2.3984 3.9102 0.38281 8.2695-0.78906 12.039-5.625 19.387 6.8984 16.453 13.273 27.383h0.003906c2.9727 4.5938 3.6875 10.293 1.9492 15.48-6.1797 30.938 16.875 35.773 36.16 42.281 16.297 4.5547 30.477 14.684 40.066 28.621 7.7266-10.605 17.875-19.215 29.598-25.105 14.832-7.1523 36.684-14.766 45.797-29.398 6.6289-10.602-0.52344-13.594 0.9375-22.246 1.4922-9.1133 10.406-13.078 12.094-22.051 1.9023-10.707-8.3789-15.848-1.6133-25.801zm-166.25 615.07c0.54297 0.21094 1.0625 0.46875 1.5547 0.77734-1.707-9.0234-2.4062-18.207-2.082-27.383 1.1055-9.168 4.3594-30 0.26172-36.422-7.8086-11.973-3.0547-34.473-12.684-43.191-22.961-20.879-30.309-42.02-34.801-72.723-5.8516-39.871 3.3203-77.812-14.699-115.07-3.8359-7.9961 5.0703-23.438-4.2266-28.492v0.003906c-6.7578-3.2734-13.316-6.9414-19.641-10.988-5.0078 6.4766-12.316 10.773-20.41 11.996-8.0938 1.2227-16.348-0.72656-23.043-5.4336-1.1719-0.78906-2.2773-1.6328-3.3203-2.4766-0.13672 9.0352 0.49219 18.062 1.875 26.992 6.0391 11.332 12.75 22.289 20.102 32.812 1.0391-10.312 4.293-16.199 5.7266-15.676 1.7539 0.64844 0.9375 8.5234 3.2539 21.336v0.003906c1.0859 7.293 2.9727 14.445 5.625 21.328 2.9922 7.4141 8.1289 14.512 14.242 14.645 1.2383 0.12109 2.6055-0.26172 3.8984-0.26172l6.8359 0.19531 0.9375 4.6875c1.6719 9.332 2.1719 18.836 1.4883 28.293-0.38281 8.1953-0.84375 15.355-0.64844 21.141-0.066406 11.129 2.8125 18.93 0.9375 19.586-1.3047 0.44922-6.957-4.8828-9.8164-18.477l0.003906-0.003906c-1.4023-7.3359-2.168-14.777-2.2773-22.246-0.32812-6.375-0.52344-13.199-1.4336-19.773h-0.84375c-3.5508-0.12891-7.0039-1.1836-10.023-3.0547 3.4492 23.156 6.9648 46.051 11.129 69.207 5.0078 27.711 6.4414 56.531 17.297 82.809 13.789 33.234 32.008 49.82 63.75 65.176 0.375 0.22266 0.70312 0.48438 1.0312 0.68359zm-102.19-591.16c12.625-25.312 34.242-45.008 60.617-55.227-37.891-12.695-79.145-10.887-115.78 5.0703-42.469 17.812-72.395 48.59-108.43 75.938-10.539 7.9414-21.918 17.043-33.891 25.762 21.664-11.645 42.414-24.262 64.012-36.168 39.352-22.488 87.035-25 128.53-6.7695 0.58203-1.4258 1.2266-2.7266 1.8203-4.0977 0.60156-1.6133 1.6328-3.0312 2.9883-4.0938 0.066406-0.19922 0.066406-0.32812 0.13281-0.41406zm10.863 245.44c1.9688-5.8789 2.3125-12.18 0.99219-18.234-1.3203-6.0586-4.2539-11.645-8.4922-16.172-3.7461-4.1133-9.1211-6.3594-14.68-6.1328-5.5625 0.22656-10.738 2.8984-14.137 7.3047 6.6797-3.957 14.957-4.0898 21.762-0.34766 6.8047 3.7422 11.125 10.801 11.359 18.562 0.49609 6.125-1.8711 12.137-6.418 16.273-4.5469 4.1406-10.75 5.9375-16.805 4.8672-6.2852-1.4297-11.66-5.4766-14.766-11.129-0.13281 2.6719-0.26172 5.3359-0.32812 8.0078 0.88672 1.5117 2.0312 2.8516 3.3867 3.9648 12.102 10.098 33.375 11.84 38.125-6.9648zm-31.492-16.875c3.3203-0.32031 1.5664-5.7188-0.054687-7.9297-1.3438 0.69531-2.5703 1.5938-3.6445 2.6602 0.58203 2.6992 1.7539 5.457 3.7031 5.2969zm-3.1211-181.41c4.8828-10.023 10.086-19.773 14.832-29.793-34.145-14.57-76.164-17.625-109.69 0.9375-22.836 12.555-43.848 28.039-67.5 39.027-21.469 9.957-43.387 25.367-67.133 29.336-10.66 1.8203-21.461 2.6719-32.195 3.4492 16.605 4.1562 33.691 6.082 50.805 5.7266 38.832-4.4258 63.477-32.336 96.918-48.523 39.555-19.191 78.816-24.723 113.96-0.13281zm-8.6445 367.05c13.199-42.281-8.2031-78.32-14.578-118.12h0.003906c-0.45312-1.293-0.62891-2.668-0.51562-4.0312-0.54688-3.5781-0.89453-7.1836-1.043-10.801-0.52344-10.988-0.77734-21.984-0.84375-32.973-0.09375-0.18359-0.16016-0.38281-0.19531-0.58984-1.9492-22.367-27.188-27.898-35.129-46.961-1.1445-2.7461-2.0156-5.6016-2.5977-8.5195-1.8359-4.0234-2.7695-8.3945-2.7344-12.816-8.5938 4.7188-16.93 9.8828-24.977 15.477 11.184 9.5625 20.945 16.133 25.895 31.875 0.96094 3.2617 0.38281 6.7812-1.5664 9.5625-2.2109 2.4102 11.062 28.949 11.645 30.375 5.0078 13.273 32.258 100.95-6.3086 100.24-19.691-0.83203-38.461-8.5664-53.016-21.852-9.2773-7.9922-16.789-17.828-22.051-28.887-2.1211-8.3281-4.8164-16.5-8.0625-24.457-17.625 0.52344-17.043-24.195-14.699-40.781-11.578 5.9805-22.574 12.883-25.949 26.25h-0.003906c0.41797 0.96875 0.66016 2.0039 0.71484 3.0547 1.5547 19.453 18.992 38.961 24.648 58.219 6.6367 22.707 16.875 45.074 37.273 58.668 26.992 17.953 87.816 55.164 113.63 21.008v0.003906c-0.13281-1.3203 0.023437-2.6562 0.46094-3.9102zm-16.875-196.5c0.25391-22.707 0.9375-45.402 1.1719-68.043h0.003906c-10.504 3.4023-19.82 9.7188-26.871 18.215-3.0312 6.8086-4.1367 14.324-3.1875 21.723 7.2734 11.516 17.156 21.152 28.848 28.133zm-28.984 128.81c8.0703-39.086-6.8906-72.844-23.223-107.71-1.0703-1.9336-0.75-4.3398 0.78906-5.9258 8.9062-9.6289-11.84-24.449-21.93-32.129v0.003906c-5.707 4.6914-10.996 9.8711-15.805 15.477-9.418 11.754-20.953 21.637-34.012 29.137-2.3438 11.25-6.6367 36.945 9.5625 36.496 2.2109-0.039063 4.168 1.4336 4.7422 3.5742 2.4102 16.66 6.5625 34.996 19.902 46.773 5.793 5.0703 54.02 42.992 59.973 14.305z"/>
  <path d="m776.93 448.2c23.438 10.145-1.4258 47.738-19.969 35.625-10.078-6.6367-13.727-24.656-2.8594-32.457 6.5977-4.8125 15.168-6.0039 22.828-3.168zm-7.9297 13.398h-0.003906c0.41797-1.7031 0.55078-3.4609 0.39453-5.2031-2.2773-0.20312-4.5664 0.20312-6.6367 1.1719 0.51562 1.875 1.1055 5.625 3.6367 5.0078 0.39453-0.13281 1.4258-0.46094 2.6055-0.97656z"/>
  <path d="m755.98 382.24c2.5312 7.4453 3.1758 15.402 1.875 23.156-0.47266 4.7734-1.6797 9.4492-3.582 13.855-1.3008 2.7266-3.0859 5.1914-5.2656 7.2852-2.6289 2.4883-5.9766 4.0859-9.5625 4.5547-4.5977 0.45312-9.2266-0.42969-13.332-2.5391-0.023437 8.3672-2.1953 16.59-6.3086 23.879-2.1875 3.5625-5.875 5.9336-10.023 6.4375-2.5312 0-3.75-0.72266-3.8984-1.3672-0.14844-0.64844 1.1719-1.5664 2.9258-2.7383h-0.003906c1.9102-1.6133 3.3281-3.7305 4.0977-6.1133 1.2031-4.1602 1.75-8.4844 1.6328-12.812 0.13281-5.3906-0.46094-11.117-0.26172-18.664l0.19531-11.383 9.75 6.7695v-0.003906c3.8242 3.1602 8.5273 5.0625 13.473 5.457 1.8203-0.1875 3.3203-1.4922 4.9414-4.4141 1.5273-3.1992 2.6016-6.5938 3.1875-10.09 1.6211-6.1094 2.0195-12.48 1.1719-18.75-0.85938-4.332-2.1133-8.5781-3.75-12.684-1.1641-3.1211-1.4922-5.1367-0.71094-5.7266 0.77734-0.58984 2.4766 0.52344 5.0703 3 3.6836 3.6484 6.5391 8.043 8.3789 12.891z"/>
  <path d="m680.73 315.18c0.64844 1.3672-4.8203 5.0703-12.75 12.289-10.672 8.8281-17.863 21.164-20.297 34.801l-2.2109 20.23-6.5078-12.75c-0.77734 5.5312-1.293 11.512-1.8203 17.887-0.13281 0.9375-0.13281 1.6328-0.38281 3.1875l-1.875 10.801c-5.2812-3.75-10.824-7.1211-16.582-10.086-0.875 10.449-1.0273 20.949-0.46094 31.422 0.39453 5.2031 0.98438 10.078 1.3672 14.504 2.2109 18.664 0.39453 29.598-1.1719 29.793-2.0156 0.1875-3.5078-11.324-7.9297-28.238-0.9375-4.4805-2.1484-9.375-2.9922-14.766-0.52344-5.457-1.5664-11.645-1.6328-17.625 0-3.0547-0.066407-6.1797 0.066406-9.5625l0.003906 0.003906c0.085938-3.9023 0.78906-7.7656 2.082-11.449 1-3.1328 3.2148-5.7305 6.1523-7.207 2.9375-1.4805 6.3438-1.7188 9.457-0.65625 0.52344 0.1875 0.9375 0.38281 1.3672 0.58203 0.46094-4.293 0.9375-8.5859 1.8203-12.883 0.32812-1.7539 0.72266-3.4414 1.2383-5.3359h-0.003907c0.59375-2.2266 1.5156-4.3555 2.7383-6.3086 0.28906-0.41016 0.60156-0.80078 0.9375-1.1719 0.40625-0.48438 0.88672-0.89844 1.4258-1.2266 1.5586-1.1328 3.4844-1.6445 5.3984-1.4375 0.14844 0.066407 0.30078 0.10938 0.46094 0.13281 2.2188-5.3242 5.1953-10.297 8.8398-14.766 1.3672-1.5664 2.7383-2.9922 4.0312-4.4258 1.3242-1.2891 2.7148-2.5039 4.1719-3.6367 2.4414-2.1172 5.0508-4.0352 7.8008-5.7266 10.039-6.0469 16.734-7.4922 17.258-6.375z"/>
  <path d="m668.04 718.73c9.2344 9.4297 2.7266 20.102 0.32812 31.68-8.9805 43.508-33.508 48.328-74.484 55.152v-0.003906c-1.3125 0.23828-2.6641-0.0625-3.75-0.84375-19.711 1.875-39.242-5.082-53.332-18.992-9.1797-10.539-23.289-31.809-22.246-46.445h-0.003906c0.11719-1.6328 0.43359-3.25 0.9375-4.8086-0.50391-1.4922-0.34375-3.1289 0.4375-4.5 0.78516-1.3672 2.1172-2.332 3.6602-2.6523 3.5-2.8672 7.7109-4.7344 12.188-5.3984 25.926-6.3008 52.434-9.8984 79.098-10.734 12.871-0.066407 46.566-3.2539 57.168 7.5469zm-13.332 47.551c1.1641-4.6211 2.4648-9.375 3.7031-14.117v-0.003906c-4.2969 6.9219-9.6016 13.172-15.738 18.535-6.7148 5.2266-14.027 9.6328-21.789 13.125-4.9023 2.7422-9.4336 6.1055-13.473 10.012 19.52-2.9727 42.348-8.2031 47.297-27.555zm-26.09 2.3359v-0.003906c15.211-9.9531 26.285-25.09 31.164-42.602-8.5859-6.375-32.336-5.1367-39.027-5.1367-29.152-0.46094-58.234 3.0273-86.449 10.379-3.168 0.75-5.8281 2.9023-7.2188 5.8516 7.9297 17.887 15.938 30.57 38.055 35.062 14.242 2.9258 24.066 7.4141 29.719 19.836 3.9219-4.25 8.2109-8.1445 12.816-11.645 6.6367-4.582 14.117-7.3867 20.941-11.746zm-43.125 26.477c-8.7734-16.586-30.375-10.602-44.945-21.273-1.1719-0.84375-2.2109-1.8203-3.2539-2.7266l0.003906-0.003906c1.8398 2.8008 3.9766 5.3984 6.375 7.7422 11.48 10.352 26.359 16.137 41.82 16.258z"/>
  <path d="m636.76 216.77c0.25391 3.5703-15.094 4.2852-17.504 4.875h0.003906c-7.7266 2.2773-14.637 6.7266-19.906 12.816l0.066407 0.58203c4.9414 0.13281 12.75 4.6875 7.2852 10.211-2.4102 2.4766-7.8672 0.066406-10.734 1.4336v-0.003906c-5.082 3.6602-8.9531 8.7578-11.117 14.637-3.0547 7.0859-3.9648 12.301-5.793 12.355-0.84375 0-1.6875-1.1641-2.3984-3.6367h-0.003906c-0.79688-3.5898-0.93359-7.2969-0.39453-10.934 0.71094-5.793 2.9062-11.305 6.375-16.004 1.8516-2.293 4.0469-4.2891 6.5078-5.9141-0.4375-1.7656-0.52734-3.6016-0.26172-5.3984 0.46875-2.5859 1.4219-5.0547 2.8125-7.2852 2.2891-3.9258 5.6836-7.0898 9.7578-9.1055l2.1484-1.0391c1.0391-0.32812 2.0156-0.65625 2.9258-0.9375h-0.003906c1.7383-0.55078 3.5234-0.92188 5.3359-1.1055 2.9336-0.38672 5.9023-0.45312 8.8516-0.19922 10.387 0.9375 15.984 2.9531 16.047 4.6523z"/>
  <path d="m557.07 236.25 3.1875 5.1367-4.6133 3.2539h0.003907c-1.125 0.88281-2.3242 1.668-3.582 2.3438-2.3672 1.1992-4.8906 2.0547-7.5 2.5312 1.7617 2.3438 3.6484 4.6875 5.3984 7.0977 3.7148 4.6016 6.3984 9.9492 7.875 15.676 2.0156 10.473-2.0234 15.676-3.1211 15.281-1.7617-0.25391-1.2383-5.9141-4.6211-12.75-2.2734-4.125-5.1719-7.8789-8.5898-11.121-5.1562-4.8359-9.7109-10.277-13.574-16.199l-4.8086-7.9688 9.4961-1.4336c2.9336-0.44922 5.625-0.77734 8.0703-1.1719-0.65625-0.58203-1.2383-1.1719-1.875-1.6875h0.003906c-7.3516-6.1953-15.93-10.762-25.172-13.398-3.7109-1.0078-7.5898-1.2305-11.391-0.65625-1.1953 0.125-2.375 0.39062-3.5078 0.78906-0.9375 0.12109-1.5 0.054688-1.7617-0.26172-0.26172-0.32031-0.1875-0.9375 0.19531-1.8203 0.56641-1.2461 1.4688-2.3086 2.6055-3.0664 4.3516-3.0273 9.6094-4.4727 14.898-4.0977 7.3594 0.46484 14.547 2.4141 21.133 5.7305 3.9297 1.8516 7.6406 4.1406 11.062 6.8242 4.0625 2.9766 7.5195 6.6992 10.188 10.969z"/>
  <path d="m522.4 387.38c0.29688 2.2188 0.027344 4.4766-0.77734 6.5625-0.60938 1.5742-1.6172 2.9648-2.9258 4.0312-1.0547 0.88281-2.2695 1.5469-3.582 1.9609-1.4023 0.42578-2.8398 0.73828-4.293 0.9375 2.418 7.9883 3.6016 16.297 3.5156 24.645-0.25391 8.4336-1.543 16.801-3.8438 24.918-3.8359 13.594-7.8008 21.195-9.4883 20.812-1.875-0.46094-1.0508-9.1133 0.32031-22.5 2.5977-16.551 0.84766-33.496-5.0703-49.172l-0.39453-1.1719-2.8125-7.6133 7.4141-1.5547c2.6641-0.55859 5.3555-0.97266 8.0625-1.2383 0.46094-0.066407 0.78906-0.066407 1.1719-0.13281-0.066407-0.64844-0.13281-1.2383-0.25391-1.9492v0.003906c-0.41406-1.9688-0.95703-3.9023-1.6289-5.7969-2.5352-6.6758-6.2812-12.828-11.055-18.141-3.2891-3.8281-6.7852-7.4766-10.473-10.93-2.9336-2.4766-4.3594-4.2266-3.9102-5.0078 0.44922-0.77734 2.6055-0.58984 6.3086 0.51563h0.003906c5.2773 2.125 10.176 5.0938 14.504 8.7852 6.7695 5.4648 12.199 12.406 15.871 20.297 1 2.3711 1.8516 4.8047 2.5391 7.2852 0.35547 1.4688 0.62109 2.9531 0.79688 4.4531z"/>
  <path d="m436.35 464.65c1.0391 1.2383 2.3438 1.9492 2.0156 2.5391-0.32813 0.58984-1.1055 1.2266-3.4492 0.64844h-0.003907c-3.2305-1.0078-5.9531-3.2227-7.6016-6.1758-4.2188-7.7148-6.6641-16.266-7.1641-25.043-4.293-0.46094-8.9727-0.85156-14.176-1.5664h0.003906c-8.0391-0.97656-15.582-4.4062-21.602-9.8242-8.6523-8.3125-13.715-19.676-14.109-31.668-0.60547-8.9258 0.24609-17.891 2.5312-26.539 3.75-14.504 8.7852-22.312 10.312-21.797 1.875 0.65625 0 9.4414-1.1641 23.352-0.77344 7.8828-0.64453 15.828 0.38672 23.68 0.13281 1.1055 0.26172 2.2109 0.39453 3.2539 0.13281 1.0391 0.58203 1.9492 0.84375 2.9258 0.38672 2.1406 1.0664 4.2188 2.0156 6.1797l1.6953 3.5156 0.64844 1.2383 0.066406 0.1875 0.26172 0.32812 0.51563 0.64844v-0.003906c1.2656 1.8438 2.75 3.5312 4.4219 5.0156 4.2148 3.7344 9.4297 6.1523 15 6.957 5.9805 1.1055 12.355 1.9492 18.273 3.3203l4.8828 1.1055-0.19531 4.5547c-0.69141 9.1016 0.058594 18.254 2.2109 27.121 0.60937 2.1836 1.6211 4.2344 2.9844 6.0469z"/>
  <path d="m323.76 652.63c0.51563 1.2383-9.1016 6.7695-26.25 5.3984-9.9648-0.76953-19.664-3.5781-28.492-8.2578-10.953-5.8086-20.395-14.098-27.582-24.199-4.4297-6.3164-7.832-13.297-10.078-20.68-2.1133 1.0547-4.4961 1.4375-6.832 1.1055-3.3086-0.63672-6.2305-2.5547-8.1289-5.3359-1.2812-1.8359-2.332-3.8281-3.1211-5.9219-2.1445-6.1172-3.375-12.512-3.6484-18.984-0.58203-10.48 0.52344-16.594 1.875-16.66s3 5.8594 5.625 15.422c0.98047 7.1836 4.3477 13.824 9.5625 18.863 4.6211 3.5078 10.801-0.19531 15.16 3.3828 4.8086 3.8984 6.4961 15.863 10.406 21.262 11.25 15.637 27.84 26.605 46.629 30.836 14.598 3.4492 24.48 1.5664 24.875 3.7695z"/>
 </g>
</svg>
