<?xml version="1.0" encoding="UTF-8"?>
<svg width="1200pt" height="1200pt" version="1.1" viewBox="0 0 1200 1200" xmlns="http://www.w3.org/2000/svg">
 <g>
  <path d="m77.293 1039.3c95.227 11.516 123.25-111.46 275.75-161.39 97.148-31.488 260.17-2.1602 328.65-110.08 64.992-101.97-23.074-229.44 82.406-414.12 10.285-18.121 29.387-51.797 10.773-78.488-17.188-24.73-151.29-106.04-318.86-106.04-79.836 0-158.7 17.387-228.98 50.816-1.2695 0.98828-64.809 34.383-102.37 104.45-30 55.84-53.387 120.37-69.797 191.51-21.305 92.938-49.469 329.14-40.777 407.39 4.9062 43.711 12.254 109.71 63.191 115.96z"/>
  <path d="m792.27 257.58c0.98047 1.2227 1.8359 2.4492 2.6953 3.6719 27.43 39.305 1.4688 84.977-9.5508 104.57-103.08 180.39-11.25 302.58-83.02 415.1-1.4688 2.3242-2.9375 4.5312-4.5312 6.7344 1.7148 0.85547 3.4297 1.7148 5.1445 2.5703 13.348 6.3672 28.777 9.6719 45.551 9.6719 71.879 0 156.49-58.406 196.78-114.86 39.223-54.695 62.012-132.79 122.2-164.08 10.777-5.6328 22.652-9.6719 35.145-14.082 26.203-8.9414 53.387-18.367 70.652-42.367 27.672-38.324 11.512-92.082-19.961-121.96-62.926-59.457-278.93-80.539-361.11-84.969z"/>
  <path d="m1146.2 291.62 12.473-21.082c-33.586-19.867-71.086-30.098-103.32-37.48-20.617-4.7344-41.598-9.1016-62.367-12.969l-4.4844 24.07c20.434 3.8086 41.082 8.1016 61.375 12.766 30.41 6.9648 65.637 16.539 96.328 34.695z"/>
  <path d="m905.48 231.07c15.098 1.9492 30.156 4.1328 45.176 6.543l3.875-24.18c-15.258-2.4453-30.57-4.6641-45.918-6.6484z"/>
  <path d="m1021.4 1061.6h-23.145v24.488h23.145v23.148h24.488v-23.148h23.152v-24.488h-23.152v-23.145h-24.488z"/>
  <path d="m492.05 1135.5v-23.152h23.145v-24.488h-23.145v-23.145h-24.488v23.145h-23.152v24.488h23.152v23.152z"/>
  <path d="m758.25 890.78v23.148h-23.145v24.492h23.145v23.148h24.488v-23.148h23.152v-24.492h-23.152v-23.148z"/>
  <path d="m148.44 135.29v-23.145h23.148v-24.488h-23.148v-23.152h-24.488v23.152h-23.152v24.488h23.152v23.145z"/>
  <path d="m874.5 157.65v-23.152h23.148v-24.488h-23.148v-23.145h-24.488v23.145h-23.152v24.488h23.152v23.152z"/>
  <path d="m1092.7 759.06h24.488v24.488h-24.488z"/>
  <path d="m1043.7 759.06h24.488v24.488h-24.488z"/>
  <path d="m994.72 759.06h24.488v24.488h-24.488z"/>
  <path d="m1065.3 87.652h24.488v24.488h-24.488z"/>
  <path d="m1016.3 87.652h24.488v24.488h-24.488z"/>
  <path d="m967.34 87.652h24.488v24.488h-24.488z"/>
  <path d="m522.81 87.652h24.488v24.488h-24.488z"/>
  <path d="m473.83 87.652h24.488v24.488h-24.488z"/>
  <path d="m571.79 87.652h24.488v24.488h-24.488z"/>
  <path d="m852.07 1097h24.488v24.488h-24.488z"/>
  <path d="m754.12 1097h24.488v24.488h-24.488z"/>
  <path d="m803.09 1097h24.488v24.488h-24.488z"/>
  <path d="m487.3 936.79h24.488v24.488h-24.488z"/>
  <path d="m536.28 936.79h24.488v24.488h-24.488z"/>
  <path d="m438.32 936.79h24.488v24.488h-24.488z"/>
  <path d="m196.11 1107.6h24.488v24.488h-24.488z"/>
  <path d="m245.09 1107.6h24.488v24.488h-24.488z"/>
  <path d="m147.13 1107.6h24.488v24.488h-24.488z"/>
 </g>
</svg>
