<?xml version="1.0" encoding="UTF-8" standalone="no"?>
<svg
   width="1200pt"
   height="1200pt"
   version="1.1"
   viewBox="0 0 1200 1200"
   id="svg4"
   sodipodi:docname="respi.svg"
   inkscape:version="1.1.2 (0a00cf5339, 2022-02-04)"
   xmlns:inkscape="http://www.inkscape.org/namespaces/inkscape"
   xmlns:sodipodi="http://sodipodi.sourceforge.net/DTD/sodipodi-0.dtd"
   xmlns="http://www.w3.org/2000/svg"
   xmlns:svg="http://www.w3.org/2000/svg">
  <defs
     id="defs8" />
  <sodipodi:namedview
     id="namedview6"
     pagecolor="#ffffff"
     bordercolor="#666666"
     borderopacity="1.0"
     inkscape:pageshadow="2"
     inkscape:pageopacity="0.0"
     inkscape:pagecheckerboard="0"
     inkscape:document-units="pt"
     showgrid="false"
     inkscape:zoom="0.5275"
     inkscape:cx="800.94787"
     inkscape:cy="800.94787"
     inkscape:window-width="1920"
     inkscape:window-height="1016"
     inkscape:window-x="0"
     inkscape:window-y="27"
     inkscape:window-maximized="1"
     inkscape:current-layer="svg4" />
  <path
     d="m1098.6 919.02c-4.8477-80.195-64.367-637.3-337.38-618.04-122.64 8.6523-34.43 137.69-40.609 175.36-1.9805 12.156-5.207 28.008-8.8672 48l-39.781-41.531v-253.31h-96v253.31l-39.77 41.531c-3.6836-20.004-6.8984-35.855-8.8906-48.012-6.1562-37.668 82.031-166.7-40.586-175.36-273.01-19.262-332.53 537.84-337.38 618.04-6.0117 99.637 41.855 99.602 163.48 108.19 106.52 7.5117 257.82-89.762 245.44-316.12-1.2969-23.797-3.0234-45.66-4.9805-65.785l70.691-73.809 70.691 73.812c-1.957 20.125-3.6719 42-4.9688 65.797-12.406 226.36 138.89 323.63 245.41 316.12 121.64-8.5938 169.49-8.5586 163.5-108.2z"
     id="path2"
     style="fill:#0000ff" />
</svg>
