<?xml version="1.0" encoding="UTF-8" standalone="no"?>
<svg
   width="1200pt"
   height="1200pt"
   version="1.1"
   viewBox="0 0 1200 1200"
   id="svg4"
   sodipodi:docname="del_light.svg"
   inkscape:version="1.1.2 (0a00cf5339, 2022-02-04)"
   xmlns:inkscape="http://www.inkscape.org/namespaces/inkscape"
   xmlns:sodipodi="http://sodipodi.sourceforge.net/DTD/sodipodi-0.dtd"
   xmlns="http://www.w3.org/2000/svg"
   xmlns:svg="http://www.w3.org/2000/svg">
  <defs
     id="defs8" />
  <sodipodi:namedview
     id="namedview6"
     pagecolor="#ffffff"
     bordercolor="#666666"
     borderopacity="1.0"
     inkscape:pageshadow="2"
     inkscape:pageopacity="0.0"
     inkscape:pagecheckerboard="0"
     inkscape:document-units="pt"
     showgrid="false"
     inkscape:zoom="0.5275"
     inkscape:cx="800.94787"
     inkscape:cy="800"
     inkscape:window-width="1920"
     inkscape:window-height="1043"
     inkscape:window-x="1920"
     inkscape:window-y="0"
     inkscape:window-maximized="1"
     inkscape:current-layer="svg4" />
  <path
     d="m746.76 144.6c-2.9961-5.9961-7.6016-11.039-13.305-14.559s-12.277-5.375-18.977-5.3633h-229.08c-6.6992-0.011719-13.273 1.8438-18.977 5.3633s-10.309 8.5625-13.301 14.559l-53.281 107.4h-181.56v72h51.238v715.32c0 9.5469 3.793 18.703 10.543 25.457 6.7539 6.75 15.91 10.543 25.457 10.543h588.96c9.5469 0 18.703-3.793 25.457-10.543 6.75-6.7539 10.543-15.91 10.543-25.457v-715.32h51.238v-72h-181.56zm-239.04 52.078h184.56l27.719 55.32h-240zm-24.957 727.32h-72v-495.6h72zm153.24 0h-72v-495.6h72zm153.24 0h-72v-495.6h72z"
     id="path2"
     style="fill:#ececec" />
</svg>
