<?xml version="1.0" encoding="UTF-8" standalone="no"?>
<svg
   width="1200pt"
   height="1200pt"
   version="1.1"
   viewBox="0 0 1200 1200"
   id="svg8"
   sodipodi:docname="edit.svg"
   inkscape:version="1.1.2 (0a00cf5339, 2022-02-04)"
   xmlns:inkscape="http://www.inkscape.org/namespaces/inkscape"
   xmlns:sodipodi="http://sodipodi.sourceforge.net/DTD/sodipodi-0.dtd"
   xmlns="http://www.w3.org/2000/svg"
   xmlns:svg="http://www.w3.org/2000/svg">
  <defs
     id="defs12" />
  <sodipodi:namedview
     id="namedview10"
     pagecolor="#ffffff"
     bordercolor="#666666"
     borderopacity="1.0"
     inkscape:pageshadow="2"
     inkscape:pageopacity="0.0"
     inkscape:pagecheckerboard="0"
     inkscape:document-units="pt"
     showgrid="false"
     inkscape:zoom="0.5275"
     inkscape:cx="800.94787"
     inkscape:cy="800"
     inkscape:window-width="1920"
     inkscape:window-height="1043"
     inkscape:window-x="1920"
     inkscape:window-y="0"
     inkscape:window-maximized="1"
     inkscape:current-layer="svg8" />
  <g
     id="g6">
    <path
       d="m266.99 919.84c1.2852 0 2.5703-0.26172 3.7969-0.79688l139.69-61.883c2.082-0.91797 3.5352-2.5586 4.4805-4.4453 0.88281-0.44141 1.7617-0.91797 2.4922-1.6602l480.08-480.07c3.4961 1.1992 7.1719 1.9609 10.977 1.9609 9.0391 0 17.523-3.5156 23.906-9.9102 9.4219-9.4219 11.98-23.035 7.9492-34.867l13.586-13.594c8.1484-8.1367 12.816-18.918 12.816-29.57 0-8.7461-3.1875-16.742-8.9727-22.508l-42.789-42.797c-13.293-13.305-36.664-11.578-52.098 3.8359l-13.762 13.754c-8.8516-2.8398-18.711-2.0703-26.973 2.2695l-13.996-13.988c-3.6641-3.6562-9.5898-3.6562-13.258 0l-229.3 229.29c-3.6641 3.6641-3.6641 9.5898 0 13.258 1.8281 1.8281 4.2266 2.7461 6.6289 2.7461 2.3984 0 4.8008-0.91797 6.6289-2.7461l22.883-22.883 3.1016 3.1133c1.8281 1.8359 4.2383 2.7461 6.6367 2.7461s4.8008-0.91797 6.6172-2.7383c3.6758-3.6641 3.6758-9.5898 0.019531-13.266l-3.1211-3.1211 186.52-186.52 7.2734 7.2734c-2.7266 4.9414-4.3203 10.453-4.3125 16.246 0.007812 3.8164 0.75781 7.4805 1.9688 10.988l-280.29 280.29-199.79 199.76c-0.73047 0.74219-1.2578 1.6328-1.707 2.5391-1.8555 0.94531-3.4883 2.3906-4.3984 4.4453l-61.875 139.67c-1.5742 3.5352-0.79688 7.6875 1.9414 10.426 1.8125 1.8086 4.2109 2.7539 6.6406 2.7539zm614.78-559.6-271.16 271.16-64.547-64.527 271.19-271.16zm19.98-127.29 42.797 42.805c2.8672 2.8672 3.4688 6.6094 3.4688 9.2539 0 5.625-2.7383 11.719-7.3203 16.305l-11.082 11.082-64.539-64.527 11.09-11.082c7.9883-7.9805 19.699-9.7305 25.586-3.8359zm-52.734 25.359 70.145 70.133c5.8672 5.8867 5.8672 15.449 0 21.336-5.6992 5.6914-15.629 5.6719-21.328-0.007813l-70.125-70.145c-2.8594-2.8516-4.4336-6.6367-4.4336-10.668s1.5664-7.8086 4.4141-10.668c2.8516-2.8398 6.6289-4.4062 10.66-4.4062s7.8164 1.5781 10.668 4.4258zm-316.21 321.82 64.547 64.527-186.54 186.52-64.547-64.539zm-198.36 201.2 61.688 61.688-110.74 49.051z"
       id="path2" />
    <path
       d="m957.39 970.53h-714.79c-5.1836 0-9.375 4.1992-9.375 9.375 0 5.1758 4.1914 9.375 9.375 9.375h714.79c5.1836 0 9.375-4.1992 9.375-9.375 0-5.1758-4.1914-9.375-9.375-9.375z"
       id="path4" />
  </g>
</svg>
