<?xml version="1.0" encoding="UTF-8" standalone="no"?>
<svg
   width="1200pt"
   height="1200pt"
   version="1.1"
   viewBox="0 0 1200 1200"
   id="svg4"
   sodipodi:docname="reset.svg"
   inkscape:version="1.1.2 (0a00cf5339, 2022-02-04)"
   xmlns:inkscape="http://www.inkscape.org/namespaces/inkscape"
   xmlns:sodipodi="http://sodipodi.sourceforge.net/DTD/sodipodi-0.dtd"
   xmlns="http://www.w3.org/2000/svg"
   xmlns:svg="http://www.w3.org/2000/svg">
  <defs
     id="defs8" />
  <sodipodi:namedview
     id="namedview6"
     pagecolor="#ffffff"
     bordercolor="#666666"
     borderopacity="1.0"
     inkscape:pageshadow="2"
     inkscape:pageopacity="0.0"
     inkscape:pagecheckerboard="0"
     inkscape:document-units="pt"
     showgrid="false"
     inkscape:zoom="0.5275"
     inkscape:cx="800.94787"
     inkscape:cy="800"
     inkscape:window-width="1920"
     inkscape:window-height="1043"
     inkscape:window-x="1920"
     inkscape:window-y="0"
     inkscape:window-maximized="1"
     inkscape:current-layer="svg4" />
  <path
     d="m1020 360c-14.398-21.602-44.398-26.398-64.801-12-21.602 14.398-27.602 45.602-12 67.199 55.199 78 84 176.4 74.398 280.8-17.996 198-177.6 357.6-375.6 376.8-261.6 25.199-482.4-192-459.6-453.6 18-212.4 196.8-378 409.2-382.8v76.801c0 27.602 31.199 44.398 54 30l198-123.6c22.801-14.398 22.801-46.801 0-60l-198-123.6c-24-14.398-54 2.3984-54 30v76.801c-256.8 3.5977-470.4 193.2-501.6 450-38.398 319.2 218.4 590.4 534 577.2 261.6-12 476.4-224.4 489.6-486 6-121.2-30-232.8-93.602-324z"
     id="path2"
     style="fill:#4d4d4d" />
</svg>
