<?xml version="1.0" encoding="UTF-8" standalone="no"?>
<svg
   width="1200pt"
   height="1200pt"
   version="1.1"
   viewBox="0 0 1200 1200"
   id="svg4"
   sodipodi:docname="save.svg"
   inkscape:version="1.1.2 (0a00cf5339, 2022-02-04)"
   xmlns:inkscape="http://www.inkscape.org/namespaces/inkscape"
   xmlns:sodipodi="http://sodipodi.sourceforge.net/DTD/sodipodi-0.dtd"
   xmlns="http://www.w3.org/2000/svg"
   xmlns:svg="http://www.w3.org/2000/svg">
  <defs
     id="defs8" />
  <sodipodi:namedview
     id="namedview6"
     pagecolor="#ffffff"
     bordercolor="#666666"
     borderopacity="1.0"
     inkscape:pageshadow="2"
     inkscape:pageopacity="0.0"
     inkscape:pagecheckerboard="0"
     inkscape:document-units="pt"
     showgrid="false"
     inkscape:zoom="0.5275"
     inkscape:cx="800.94787"
     inkscape:cy="800"
     inkscape:window-width="1920"
     inkscape:window-height="1043"
     inkscape:window-x="1920"
     inkscape:window-y="0"
     inkscape:window-maximized="1"
     inkscape:current-layer="svg4" />
  <path
     d="m882.6 68.398c3.2148-2.7969 7.0078-4.5977 11.398-5.3984h132.6c10.801 0 19.609 3.8047 26.398 11.398l76.211 76.211c7.1992 7.1992 10.789 15.602 10.789 25.199v926.4c0 9.6016-3.3945 17.797-10.211 24.602-6.3945 6.793-14.195 10.199-23.387 10.199l-1012.2 0.003907c-9.2148 0-17.207-3.3945-24-10.199-6.8164-6.8047-10.211-15.012-10.211-24.602v-1004.4c0-9.6016 3.3945-17.797 10.211-24.602 6.793-6.793 15-10.199 24.578-10.199h189c6.8047 0 12.215 2.0039 16.211 6 2.7969 2.3984 4.7891 6 6 10.801h0.60156v369c0.39453 9.2031 3.793 17.004 10.199 23.398 6 6.3945 13.609 9.793 22.801 10.199h502.8c9.2031 0 17.207-3.3945 24-10.199 6.793-6.3945 10.402-14.207 10.801-23.398l-0.003906-369c1.1992-4.3945 3.0117-8.1953 5.4023-11.402zm-89.391 49.812v313.79h-150.61v-313.79zm201.58 961.79v-424.79c-0.39453-9.2031-3.793-16.801-10.199-22.801-6.3945-6.3945-14.207-9.9961-23.387-10.789l-721.2 0.003906-4.2109 1.1992h-2.3906c-7.5977 1.1992-14.004 5.0039-19.199 11.398-5.6055 6.3945-8.4102 13.391-8.4102 21h-0.58984v424.78z"
     fill-rule="evenodd"
     id="path2" />
</svg>
