<?xml version="1.0" encoding="UTF-8"?>
<svg width="1200pt" height="1200pt" version="1.1" viewBox="0 0 1200 1200" xmlns="http://www.w3.org/2000/svg">
 <path d="m377.01 450 47.883-112.5h350.21l47.883 112.5zm391.74-150v-75h-337.5v75zm-1.5859-150h-334.33c-11.547 0.03125-22.797 3.6562-32.184 10.379-9.3867 6.7227-16.445 16.199-20.191 27.121h439.08c-3.7461-10.922-10.805-20.402-20.191-27.121-9.3867-6.7227-20.637-10.352-32.184-10.379zm-167.16-75c-9.9414 0.011719-19.473 3.9648-26.504 10.996s-10.984 16.562-10.996 26.504h75c-0.011719-9.9414-3.9648-19.473-10.996-26.504s-16.562-10.984-26.504-10.996zm262.38 371.2 52.566-52.566c9.3438-9.3438 12.996-22.969 9.5742-35.738-3.4219-12.766-13.395-22.738-26.16-26.16-12.77-3.4219-26.395 0.23047-35.738 9.5742l-31.664 31.66 31.238 73.398c0.070313-0.058593 0.125-0.11328 0.18359-0.16797zm-449.88 678.8h375c11.621-0.027344 22.949-3.6445 32.434-10.355 9.4844-6.7148 16.66-16.195 20.551-27.145h-480.97c3.8906 10.949 11.066 20.43 20.551 27.145 9.4844 6.7109 20.812 10.328 32.434 10.355zm-75.121-783.7c-9.3438-9.3438-22.969-12.996-35.738-9.5742-12.766 3.4219-22.738 13.395-26.16 26.16-3.4219 12.77 0.23047 26.395 9.5742 35.738l52.562 52.562c0.058593 0.058594 0.125 0.11328 0.18359 0.17188l31.238-73.398zm24.332 146.2c-3.6094 12.172-5.4492 24.805-5.4609 37.5v525h487.5v-525c-0.011719-12.695-1.8516-25.328-5.4609-37.5z"/>
</svg>
