<?xml version="1.0" encoding="UTF-8" standalone="no"?>
<svg
   width="1200pt"
   height="1200pt"
   version="1.1"
   viewBox="0 0 1200 1200"
   id="svg8"
   sodipodi:docname="aliment.svg"
   inkscape:version="1.2.2 (b0a8486541, 2022-12-01)"
   xmlns:inkscape="http://www.inkscape.org/namespaces/inkscape"
   xmlns:sodipodi="http://sodipodi.sourceforge.net/DTD/sodipodi-0.dtd"
   xmlns="http://www.w3.org/2000/svg"
   xmlns:svg="http://www.w3.org/2000/svg">
  <defs
     id="defs12" />
  <sodipodi:namedview
     id="namedview10"
     pagecolor="#ffffff"
     bordercolor="#666666"
     borderopacity="1.0"
     inkscape:showpageshadow="2"
     inkscape:pageopacity="0.0"
     inkscape:pagecheckerboard="0"
     inkscape:deskcolor="#d1d1d1"
     inkscape:document-units="pt"
     showgrid="false"
     inkscape:zoom="0.2585035"
     inkscape:cx="87.03944"
     inkscape:cy="746.60497"
     inkscape:window-width="1674"
     inkscape:window-height="749"
     inkscape:window-x="50"
     inkscape:window-y="118"
     inkscape:window-maximized="0"
     inkscape:current-layer="svg8" />
  <g
     id="g6"
     transform="matrix(1.158783,0,0,1.4456772,-97.588653,-187.47723)"
     style="stroke-width:0.772615;fill:#f9f9f9">
    <path
       d="m 673.01,702.82 c -2.5,0.0117 -4.9375,-0.78906 -6.9492,-2.2734 -10.09,-7.418 -19.363,-15.887 -27.664,-25.262 0.4375,2.1328 0.98437,4.2383 1.6445,6.3164 1.3516,4.75 -0.44922,9.8359 -4.4883,12.68 -4.0391,2.8438 -9.4336,2.8242 -13.449,-0.0508 -8.832,-7.2305 -15.953,-16.336 -20.844,-26.652 l -3.9141,-6.8203 c -1.0234,4.1367 -1.6133,8.3711 -1.7695,12.633 -0.1875,5.1953 -3.8047,9.6328 -8.8555,10.867 -5.0508,1.2344 -10.309,-1.0391 -12.871,-5.5625 l -23.242,-41.305 c -3.1367,-5.6172 -1.1289,-12.715 4.4844,-15.855 5.6172,-3.1367 12.715,-1.1289 15.855,4.4844 l 8.7148,15.535 v 0.004 c 1.2773,-2.8555 2.7109,-5.64059 4.293,-8.3359 1.5547,-2.668 4.1094,-4.6055 7.0938,-5.3867 2.9844,-0.7812 6.1602,-0.34375 8.8242,1.2148 h 0.88281 c 6.3984,4.8281 11.766,10.883 15.789,17.812 0.52344,-1.0352 1.1562,-2.0117 1.8945,-2.9062 3.1133,-3.707 7.8008,-5.7227 12.633,-5.4297 6.8438,0.83203 13.004,4.5586 16.926,10.23 5.0273,7.3867 10.691,14.316 16.926,20.715 l 4.5469,-28.547 c 0.49609,-4.168 2.4688,-8.0234 5.5586,-10.863 2.9453,-2.2852 6.5664,-3.5234 10.297,-3.5234 3.7266,0 7.3477,1.2383 10.293,3.5234 8.8984,4.9062 17.098,10.98 24.379,18.062 4.6406,4.4648 4.7812,11.848 0.31641,16.484 -4.4648,4.6406 -11.844,4.7812 -16.484,0.31642 -3.8906,-3.82421 -8.1211,-7.2891 -12.633,-10.35501 l -6.6953,38.906 v -0.004 c -1.0898,5.4727 -5.9141,9.3945 -11.492,9.3477 z"
       id="path2"
       style="stroke-width:0.772615;fill:#f9f9f9" />
    <path
       d="m 1103.9,874.86 c -12,-10.609 -61.012,-62.148 -93.602,-98.777 l 6.8203,1.5156 c 12.395,3.4609 25.078,5.7852 37.895,6.9453 5.7812,0.55859 11.309,-2.5078 13.895,-7.7031 2.3086,-4.7656 1.4023,-10.465 -2.2734,-14.273 -22.789,-19.332 -46.797,-37.176 -71.871,-53.434 -12.633,-8.7148 -25.262,-17.559 -34.609,-24.504 l 19.578,-7.832 c 3.5703,-1.4023 6.2188,-4.4766 7.0742,-8.2148 0.85938,-3.7383 -0.17969,-7.6602 -2.7812,-10.48 -6.5703,-7.0742 -18.82,-19.707 -30.695,-31.832 l -16.043,-16.043 13.391,-2.6523 c 3.7852,-0.73047 6.9609,-3.2891 8.4805,-6.832 1.5156,-3.543 1.1797,-7.6055 -0.90234,-10.852 -7.2852,-10.277 -15.484,-19.875 -24.504,-28.672 9.2227,0.63281 16.422,1.5156 16.547,1.6406 h 1.5156 c 5.0039,0.0547 9.4805,-3.0977 11.113,-7.8242 1.6328,-4.7305 0.0586,-9.9727 -3.9141,-13.02 -25.262,-23.117 -51.789,-48.254 -68.969,-65.305 -1.1875,-3.1406 -2.5352,-6.2188 -4.0391,-9.2188 l 12.633,1.8945 h -0.004 c 4.8789,0.92969 9.8203,1.5195 14.781,1.7656 5.7305,0.26562 10.914,-3.3672 12.629,-8.8398 2.0312,-6.2305 -1.043,-12.977 -7.0703,-15.539 -32.109,-23.832 -62.152,-50.324 -89.812,-79.199 -23.457,-24.184 -48.48,-46.801 -74.906,-67.703 9.6953,-0.94531 18.691,-5.4453 25.266,-12.633 3.4492,-5.4062 1.8672,-12.586 -3.5391,-16.043 l -1.2617,-0.63281 v 0.004 c -16.305,-8.9727 -31.887,-19.195 -46.609,-30.57 -35.117,-25.262 -74.777,-53.938 -115.45,-53.938 -26.906,0 -80.969,8.0859 -141.73,60.883 l -152.84,132 c -3.8086,3.3125 -5.0391,8.7031 -3.0508,13.344 1.9883,4.6367 6.7422,7.4648 11.766,6.9922 l 40.043,-3.7891 -0.88281,3.5352 c -19.199,24 -46.988,54.82 -73.391,83.117 l -91.578,-235.07 c -1.7188,-5.4805 -5.6133,-10.016 -10.77,-12.547 -5.1523,-2.5312 -11.125,-2.8359 -16.512,-0.84375 -5.3867,1.9922 -9.7188,6.1055 -11.988,11.383 -2.2692,5.2775 -2.2734,11.254 -0.0156,16.535 v 0.63281 l 98.906,253.64 -30.316,31.578 -15.535,16.547 c -3.7617,4.1094 -4.082,10.309 -0.75781,14.777 9.2969,9.6328 22.59,14.316 35.871,12.633 h 2.7812 c -1.0117,1.6406 -2.3984,3.5352 -4.293,5.9375 -1.8945,2.3984 -8.4648,12.633 -16.043,23.496 -21.094,31.832 -60.379,90.949 -82.359,107.5 v -0.004 c -4.3633,3.1641 -6.2383,8.7422 -4.6758,13.895 3.1562,9.3477 12.633,9.3477 25.262,9.3477 h 9.9805 c -23.746,37.895 -49.516,74.906 -76.801,110.02 l 0.004,0.004 c -3.1992,4.0039 -3.3945,9.6289 -0.48438,13.848 2.9062,4.2148 8.2344,6.0312 13.113,4.4648 l 96.379,-28.801 -0.63281,7.0742 0.004,0.004 c -0.41016,4.0273 1.3047,7.9766 4.5273,10.426 3.2227,2.4492 7.4883,3.0469 11.262,1.5742 l 59.746,-22.988 7.3281,18.82 v -0.004 c 2.3438,5.957 9.0664,8.8945 15.031,6.5703 l 2.0195,-1.0117 16.422,-10.734 21.852,25.262 c 2.1562,2.5078 5.2812,3.9805 8.5898,4.043 3.2969,0.0859 6.4688,-1.25 8.7148,-3.6641 l 32.336,-34.105 c 16.984,15.961 33.09,32.828 48.254,50.52701 2.0078,2.35159 4.8672,3.8047 7.9492,4.043 3.082,0.23437 6.1289,-0.76563 8.4727,-2.78121 6.9766,-6.5469 13.316,-13.73799 18.945,-21.47299 9.7266,-12.633 18.949,-24.379 28.801,-24.379 h 1.3906 c 5.6094,3.4102 10.82,7.43359 15.535,12 5.1445,4.9492 10.922,9.1992 17.18,12.633 l 69.602,31.707 v -0.004 c 3.1406,1.2227 6.6602,1.0195 9.6445,-0.55469 2.9805,-1.5742 5.1328,-4.3711 5.8906,-7.6562 3.5469,-16.695 6.2461,-33.559 8.0859,-50.527 41.305,13.391 97.641,56.211 98.273,56.715 v 0.004 c 2.6562,2.4062 6.2734,3.4492 9.8008,2.832 3.5312,-0.61719 6.5781,-2.82809 8.2617,-5.9922 l 23.117,-46.738 v 0.004 c 21.031,6.293 41.352,14.762 60.629,25.262 l 2.5273,2.0195 c 4.7031,4.1914 11.887,3.875 16.199,-0.71094 4.3125,-4.5898 4.1875,-11.777 -0.28125,-16.215 l 60.883,28.422 c 2.8711,1.3477 6.168,1.4609 9.125,0.31641 2.9609,-1.1445 5.3203,-3.4492 6.5391,-6.3789 2.9023,-6.6055 5.3516,-13.398 7.3242,-20.336 2.9414,0.004 5.8711,0.38672 8.7148,1.1367 l 50.527,18.695 c 1.3711,0.52344 2.8281,0.78125 4.2969,0.75781 4.9297,-0.10547 9.2617,-3.3164 10.797,-8.0039 1.5312,-4.6914 -0.062,-9.8398 -3.9766,-12.84 l -18.191,-17.18 c 7.832,3.5352 15.914,7.4531 23.621,11.242 28.547,13.77 55.578,26.906 73.641,26.906 v 0 c 2.5078,-0.004 5.0117,-0.30078 7.4531,-0.88281 4.1836,-1.0391 7.4453,-4.3086 8.4805,-8.4961 1.0312,-4.1836 -0.336,-8.5977 -3.5547,-11.465 z m -75.789,-26.906 c -28.676,-14.273 -55.453,-26.906 -73.77,-26.906 -2.5117,0.004 -5.0117,0.30078 -7.4531,0.88672 -4.2031,1.0039 -7.5039,4.2578 -8.5625,8.4492 -1.0625,4.1914 0.28906,8.625 3.5078,11.508 l 12.633,10.738 c -5.0469,-0.86719 -10.164,-1.2461 -15.285,-1.1367 h -6.5703 0.004 c -5.6641,0.33594 -10.258,4.7148 -10.863,10.355 -0.74219,4.3086 -1.8828,8.5391 -3.4102,12.633 l -84.633,-38.906 c -3.9492,-1.8789 -8.6172,-1.3867 -12.082,1.2812 -3.4688,2.6641 -5.1445,7.0508 -4.3398,11.352 0,1.0938 0.21094,2.2305 0.63281,3.4102 -19.074,-7.4531 -37.895,-13.391 -41.43,-14.527 -5.4648,-1.7109 -11.359,0.80859 -13.895,5.9375 l -21.348,43.328 c -22.359,-15.914 -72.758,-49.516 -109.01,-55.832 -3.0508,-0.55078 -6.1953,0.14062 -8.7305,1.918 -2.5391,1.7812 -4.2617,4.5 -4.7852,7.5547 v 0.75781 c -1.7695,15.664 -3.5352,31.074 -6.4414,46.863 l -56.211,-25.262 c -4.0781,-2.7578 -7.9219,-5.8398 -11.496,-9.2227 -7.5078,-8.3125 -17.168,-14.391 -27.914,-17.559 h -4.293 c -21.348,0 -35.117,17.809 -47.242,33.473 -2.6523,3.4102 -5.1797,6.6953 -7.832,9.8516 l -0.004,0.004 c -15.93,-17.73 -32.797,-34.594 -50.523,-50.527 -4.6758,-4.1914 -11.836,-3.9141 -16.168,0.63281 l -31.453,32.969 -19.957,-23.117 h -0.004 c -3.75,-4.3867 -10.148,-5.3516 -15.031,-2.2734 l -13.391,8.4648 -6.4414,-16.422 c -0.92578,-2.9844 -3.0117,-5.4727 -5.793,-6.8984 -2.7813,-1.4257 -6.0195,-1.6719 -8.9844,-0.68359 l -52.926,20.465 v -5.5586 c 0.51562,-3.9141 -0.99609,-7.8242 -4.0078,-10.379 -3.0156,-2.5547 -7.1172,-3.4023 -10.898,-2.25 l -78.949,23.621 c 23.117,-31.578 44.969,-64.168 65.305,-97.516 l 0.004,-0.004 c 2.2539,-3.9062 2.2539,-8.7227 0,-12.629 -4.043,-7.1992 -12.633,-8.3359 -26.02,-8.4648 h -0.004 c 24.754,-30.121 47.66,-61.715 68.59,-94.609 6.9492,-10.484 12.633,-18.695 15.031,-22.23 8.3359,-10.988 15.41,-22.484 10.484,-32.844 -4.926,-10.36 -15.66,-10.23 -25.895,-10.23 h -6.9492 l 3.9141,-4.043 22.988,-23.875 35.625,91.074 -25.262,9.8516 c -5.7812,2.2109 -10.281,6.875 -12.281,12.734 -2.0039,5.8555 -1.2969,12.297 1.9258,17.582 0.27734,1.5664 0.74609,3.0938 1.3867,4.5469 l 2.6523,6.8203 c 2.0195,5.0508 4.4219,10.863 7.0742,17.051 2.6523,6.1914 5.5586,12.633 8.4648,19.328 5.9375,12.633 11.746,26.273 16.043,36.125 l 1.3906,3.4102 -0.004,0.004 c -7.3633,7.8008 -14,16.258 -19.832,25.262 -3.7305,5.2344 -2.5156,12.5 2.7188,16.234 5.2305,3.7305 12.496,2.5156 16.23,-2.7188 l 0.75781,-1.1367 c 4.4883,-7.1406 9.5586,-13.898 15.156,-20.207 h 0.88672 c 2.6875,-0.91406 4.6992,-3.1641 5.3047,-5.9375 l 4.8008,-4.6719 v -0.004 c 2.8594,4.875 3.8477,10.621 2.7773,16.168 -1.0742,4.7812 0.96094,9.7227 5.0938,12.355 4.1328,2.6289 9.4727,2.3867 13.348,-0.60547 9.0625,-7.582 16.68,-16.742 22.484,-27.031 3.0547,-5.0156 6.4297,-9.8242 10.105,-14.402 l 5.5586,23.875 c 0.91797,3.9062 3.7891,7.0664 7.5938,8.3516 3.8008,1.2852 8,0.51562 11.102,-2.0352 9.5391,-8.6328 17.34,-19.008 22.988,-30.57 l 3.9141,-6.6953 h 0.004 c 4.5508,-10.156 12.891,-18.133 23.238,-22.23 6.2812,-1.4648 10.184,-7.7422 8.7188,-14.02 -1.4648,-6.2812 -7.7422,-10.184 -14.023,-8.7188 -9.3281,2.5078 -17.746,7.6367 -24.25,14.781 l -3.1602,-7.707 c -3.5352,-10.23 -8.2109,-23.746 -12.633,-37.895 -2.2734,-6.8203 -4.5469,-13.641 -6.8203,-19.957 -2.2734,-6.3164 -4.4219,-12.633 -6.3164,-17.305 l -2.6523,-6.8203 c -0.47656,-1.457 -1.1094,-2.8555 -1.8945,-4.168 -1.0391,-5.4297 -4.1914,-10.219 -8.7617,-13.32 -4.5742,-3.1055 -10.188,-4.2656 -15.617,-3.2305 l -3.7891,1.1367 -25.262,9.8516 -43.074,-109.26 c 19.832,-21.094 40.801,-43.957 58.988,-65.051 1.1328,3.5977 3.9375,6.4258 7.5312,7.5781 3.5898,1.1562 7.5156,0.49609 10.535,-1.7695 10.609,-7.0742 21.602,-13.77 32.844,-19.957 h -0.004 c -6.4961,11.859 -10.254,25.023 -10.988,38.527 -0.0117,4.5469 2.6289,8.6836 6.7578,10.586 4.1328,1.9062 8.9922,1.2227 12.441,-1.7422 7.4102,-6.2852 15.262,-12.027 23.496,-17.18 0.46094,6.0703 5.5312,10.754 11.621,10.734 6.418,0 11.621,-5.2031 11.621,-11.621 v -18.949 0.004 c -0.0156,-4.0156 -2.1055,-7.7383 -5.5234,-9.8477 -3.418,-2.1055 -7.6836,-2.3008 -11.277,-0.51172 -5.7266,2.8633 -11.285,5.9375 -16.672,9.2227 h -0.004 c 4.9492,-9.6133 8.5625,-19.855 10.738,-30.441 0.80469,-4.3008 -0.87109,-8.6875 -4.3359,-11.352 -3.4688,-2.668 -8.1367,-3.1641 -12.086,-1.2812 -13.906,6.4727 -27.484,13.641 -40.672,21.473 0,-1.7695 0.63281,-3.4102 1.0117,-5.1797 6.3164,-8.0859 11.746,-15.41 15.664,-21.602 l -0.004,0.004 c 2.3789,-3.7383 2.4258,-8.5078 0.11719,-12.289 -2.3086,-3.7852 -6.5664,-5.9258 -10.98,-5.5234 l -31.707,3.0312 125.18,-108.76 c 40.168,-34.863 86.273,-55.074 126.32,-55.199 33.094,0 69.602,26.273 101.81,49.516 9.9805,7.1992 19.707,14.148 29.051,20.336 h 0.004 c -9.3516,1.0039 -17.973,5.5195 -24.125,12.633 -3.4492,5.4062 -1.8672,12.586 3.5352,16.043 h 0.75781 c 25.262,14.02 56.844,44.59 89.809,76.801 20.844,20.465 42.191,41.305 63.156,58.988 h -2.1484 0.008 c -7.8828,-0.8125 -15.699,2.0273 -21.223,7.707 -3.2031,4.1133 -4.2773,9.4961 -2.9062,14.523 2.9727,7.0977 7.7148,13.316 13.77,18.062 l -62.398,-26.777 c -4.7656,-2.0586 -10.32,-0.70703 -13.605,3.3125 -3.285,4.01953 -3.5078,9.7305 -0.54297,13.992 3.9414,5.707 7.2852,11.801 9.9766,18.191 -2.9023,-2.5195 -5.6445,-5.2188 -8.207,-8.0859 -3.5859,-4.0703 -9.5117,-5.1172 -14.273,-2.5273 -3.6133,2.1836 -6.5312,5.3516 -8.4102,9.1328 -1.8789,3.7812 -2.6445,8.0156 -2.2031,12.215 l -19.074,-22.23 c -4.1836,-4.8828 -11.535,-5.4492 -16.418,-1.2617 -4.8867,4.1836 -5.4492,11.535 -1.2656,16.418 l 25.262,29.809 0.004,0.004 c 2.3945,3.1016 5.5781,5.5 9.2188,6.9453 1.8242,0.66016 3.7461,1 5.6836,1.0117 3.75,0 7.3945,-1.2422 10.359,-3.5352 4.9062,-4.1172 8.0664,-9.9414 8.8438,-16.297 7.3945,5.6719 15.453,10.422 24,14.148 3.9219,1.7461 8.4922,1.1836 11.875,-1.4609 3.3867,-2.6445 5.0352,-6.9414 4.293,-11.172 -1.1328,-8.6094 -3.1641,-17.078 -6.0664,-25.262 l 57.852,25.262 h 0.004 c 4.707,2.0508 10.203,0.76562 13.516,-3.1562 l 26.148,25.262 h -3.1602 c -5.3242,-0.0469 -10.641,0.29297 -15.914,1.0117 -4.3398,1.3594 -7.4883,5.1211 -8.0625,9.6328 -0.57031,4.5117 1.543,8.9414 5.4102,11.336 11.539,8.2383 22.02,17.867 31.199,28.672 l -15.535,3.0312 h -0.004 c -4.1484,0.80078 -7.5391,3.7852 -8.8516,7.8047 -1.3125,4.0156 -0.33984,8.4297 2.5391,11.523 6.5703,7.0742 18.82,19.707 30.695,31.832 l 18.57,19.074 -22.863,9.0938 h -0.004 c -3.7852,1.4805 -6.5195,4.8281 -7.2188,8.8281 -0.69531,4.0039 0.74609,8.0781 3.8086,10.75 6.5703,5.8086 27.789,20.715 52.422,37.895 10.863,7.5781 24.00003,16.926 35.87503,25.262 v 0.004 c -10.324,-2.8711 -20.89804,-4.7773 -31.57804,-5.6875 -5.7148,-0.55859 -11.188,2.4531 -13.77,7.582 -2.8086,4.8477 -2.0898,10.965 1.7695,15.031 18.316,21.602 56.33604,63.156 84.37904,92.211 -9.7266,-4.293 -20.336,-9.4727 -30.316,-14.273 z m -668.59,-113.68 4.168,10.105 c -2.2734,3.1562 -4.293,6.4414 -6.3164,9.4727 l -2.1484,3.4102 c -3.2539,-6.7148 -8.1133,-12.531 -14.148,-16.926 -4.1719,-3.1992 -9.9727,-3.1992 -14.145,0 l -6.1914,5.1797 c -3.4102,-9.7266 -7.4531,-21.852 -11.496,-34.105 -2.2734,-6.8203 -4.5469,-13.641 -6.8203,-19.957 -1.5156,-4.4219 -3.0312,-8.4648 -4.4219,-12.633 l 31.957,-12.633 5.0508,12.633 c 2.6523,6.1914 5.5586,12.633 8.4648,19.328 5.9375,12.633 11.746,26.273 16.043,36.125 z m -8.0859,-75.789 31.957,-12.633 5.0508,12.633 c 2.6523,6.1914 5.5586,12.633 8.4648,19.328 5.9375,12.633 11.875,26.273 16.168,36.125 l 5.0508,12.633 1.8945,4.6719 -1.7695,2.9062 -8.3359,14.398 -4.168,-17.684 h 0.004 c -0.48047,-3.2109 -2.2812,-6.0781 -4.9688,-7.9023 -2.6875,-1.8242 -6.0156,-2.4375 -9.1797,-1.6992 h -1.5156 c -5.1367,2.0273 -9.8828,4.9336 -14.02,8.5898 l -0.75781,-2.0195 c -3.5352,-10.23 -8.2109,-23.746 -12.633,-37.895 -2.2734,-6.8203 -4.5469,-13.641 -6.8203,-19.957 -1.5156,-4.293 -3.0312,-8.4648 -4.4219,-12.633 z"
       id="path4"
       style="stroke-width:0.772615;fill:#f9f9f9" />
  </g>
</svg>
