<?xml version="1.0" encoding="UTF-8" standalone="no"?>
<svg
   width="1200pt"
   height="1200pt"
   version="1.1"
   viewBox="0 0 1200 1200"
   id="svg28"
   sodipodi:docname="aromacoup.svg"
   inkscape:version="1.1.2 (0a00cf5339, 2022-02-04)"
   xmlns:inkscape="http://www.inkscape.org/namespaces/inkscape"
   xmlns:sodipodi="http://sodipodi.sourceforge.net/DTD/sodipodi-0.dtd"
   xmlns="http://www.w3.org/2000/svg"
   xmlns:svg="http://www.w3.org/2000/svg">
  <defs
     id="defs32" />
  <sodipodi:namedview
     id="namedview30"
     pagecolor="#ffffff"
     bordercolor="#666666"
     borderopacity="1.0"
     inkscape:pageshadow="2"
     inkscape:pageopacity="0.0"
     inkscape:pagecheckerboard="0"
     inkscape:document-units="pt"
     showgrid="false"
     inkscape:zoom="0.5275"
     inkscape:cx="800.94787"
     inkscape:cy="800"
     inkscape:window-width="1920"
     inkscape:window-height="1043"
     inkscape:window-x="1920"
     inkscape:window-y="0"
     inkscape:window-maximized="1"
     inkscape:current-layer="svg28" />
  <g
     id="g26">
    <path
       d="m1047.6 845.64-18.602-190.44c-1.6797-17.641-9.6016-34.199-22.078-46.68l-90.84-90.84c-19.078-19.078-50.16-19.078-69.238 0l-14.16 14.16-27.961-27.961c-12.602-12.602-29.52-19.68-47.398-19.68-17.879 0-34.68 6.9609-47.398 19.68-12.602 12.602-19.68 29.52-19.68 47.398 0 4.5586 0.48047 8.8789 1.3203 13.199-16.078 0.83984-32.16 7.4414-44.641 19.922-15.602 15.602-22.078 36.602-19.559 56.52-17.398-0.12109-34.801 6.3594-48 19.559-16.922 16.922-22.801 40.559-17.879 62.281-16.559 0.83984-32.16 7.5586-43.922 19.441-26.16 26.16-26.16 68.641 0 94.801l161.88 161.88c30.961 30.961 72 47.641 114.48 47.641 9.7188 0 19.559-0.83984 29.398-2.6406l151.44 151.32c3.1211 3.1211 7.3203 4.8008 11.52 4.8008s8.2812-1.5586 11.52-4.8008l188.16-188.16c6.3594-6.3594 6.3594-16.68 0-22.922zm-314.76-318.84c6.4805-6.4805 15.121-10.078 24.359-10.078s17.879 3.6016 24.359 10.078l27.961 27.961-48.719 48.84-27.961-27.961c-13.441-13.441-13.441-35.402 0-48.84zm-64.68 127.56c-5.8789-5.8789-9.1211-14.039-8.8789-22.68 0.23828-9 3.9609-17.641 10.68-24.238 6.6016-6.6016 15.238-10.441 24.238-10.68 8.6406-0.12109 16.801 2.8789 22.68 8.8789l21 21c-2.2812 2.8789-3.7188 6.4805-3.7188 10.199 0 4.3203 1.6797 8.3984 4.8008 11.52l23.879 23.879c12.121 12.121 27.238 20.039 43.68 23.16l11.039 11.039c5.8789 5.8789 9.1211 14.039 8.8789 22.68-0.23828 9-3.9609 17.641-10.68 24.238-6.6016 6.6016-15.238 10.441-24.238 10.68-8.7617 0.23828-16.801-2.8789-22.68-8.8789l-94.68-94.68zm-65.762 29.039c13.441-13.441 35.398-13.441 48.84 0l92.879 92.879c13.441 13.441 13.441 35.281 0 48.84-13.441 13.441-35.281 13.441-48.84 0l-93-93c-13.316-13.316-13.316-35.277 0.12109-48.719zm-61.797 81.723c6.4805-6.4805 15.121-10.078 24.359-10.078 9.2383 0 17.879 3.6016 24.359 10.078l83.039 83.039c13.441 13.441 13.441 35.281 0 48.84-13.441 13.441-35.398 13.441-48.84 0l-83.039-83.039c-13.32-13.441-13.32-35.402 0.12109-48.84zm445.68 395.64-146.16-146.16c-0.12109-0.12109-0.12109-0.12109-0.23828-0.23828-0.48047-0.48047-0.96094-0.83984-1.4414-1.1992-0.35938-0.23828-0.71875-0.60156-1.0781-0.83984-0.48047-0.35938-0.96094-0.48047-1.4414-0.83984-0.48047-0.23828-0.83984-0.48047-1.3203-0.60156-0.48047-0.23828-1.0781-0.35937-1.5586-0.48047s-0.96094-0.23828-1.4414-0.35938c-0.48047-0.12109-1.0781-0.12109-1.5586-0.12109s-1.0781-0.12109-1.5586-0.12109-0.96094 0.12109-1.4414 0.12109c-0.60156 0.12109-1.1992 0.12109-1.8008 0.23828h-0.35938c-44.398 10.68-90.121-2.2812-122.4-34.441l-38.398-38.398c11.398-2.8789 22.32-8.6406 31.199-17.52 14.398-14.398 20.762-33.602 19.32-52.441 1.6797 0.12109 3.3594 0.23828 5.0391 0.23828 17.16 0 34.32-6.4805 47.398-19.559 14.16-14.16 20.641-33.238 19.32-51.84 1.4414 0.12109 2.8789 0.23828 4.3203 0.23828 10.559 0 21.238-2.5195 30.961-7.5586 2.0391 33.961 15.961 67.441 41.879 93.359 3.1211 3.1211 7.3203 4.8008 11.52 4.8008s8.2812-1.5586 11.52-4.8008c6.3594-6.3594 6.3594-16.68 0-22.922-43.441-43.441-43.441-114.24 0-157.68 8.2812-8.2812 17.762-15.238 28.199-20.52 1.0781-0.48047 2.0391-1.1992 3-1.9219l0.12109-0.12109c0.71875-0.60156 1.5586-1.3203 2.1602-2.0391 0.12109-0.12109 0.23828-0.35938 0.35938-0.48047 0.48047-0.71875 1.0781-1.3203 1.4414-2.1602 0.12109-0.12109 0.12109-0.35938 0.23828-0.48047 0.35938-0.71875 0.71875-1.5586 1.0781-2.3984 0-0.12109 0.12109-0.35938 0.12109-0.48047 0.23828-0.83984 0.48047-1.6797 0.60156-2.6406v-0.96094c0-0.71875 0.12109-1.4414 0.12109-2.1602l-2.6406-40.559c0-0.35938-0.12109-0.60156-0.12109-0.96094-0.12109-0.60156-0.12109-1.0781-0.23828-1.6797-0.12109-0.48047-0.23828-0.96094-0.48047-1.5586-0.12109-0.48047-0.35938-0.96094-0.60156-1.4414-0.23828-0.48047-0.48047-0.96094-0.71875-1.4414-0.23828-0.48047-0.48047-0.83984-0.83984-1.3203s-0.71875-0.83984-1.0781-1.3203c-0.23828-0.23828-0.35938-0.60156-0.60156-0.83984-0.12109-0.12109-0.23828-0.23828-0.48047-0.35938-0.35938-0.35938-0.71875-0.60156-1.0781-0.96094-0.48047-0.35938-0.96094-0.71875-1.4414-1.0781-0.35938-0.23828-0.60156-0.35938-0.96094-0.48047-0.60156-0.35938-1.3203-0.60156-1.9219-0.83984-0.23828-0.12109-0.60156-0.12109-0.83984-0.23828-0.71875-0.23828-1.4414-0.35937-2.1602-0.48047-0.35938 0-0.71875-0.12109-1.0781-0.12109-0.71875 0-1.3203-0.12109-2.0391-0.12109h-0.48047c-0.35938 0-0.60156 0.12109-0.96094 0.12109-0.60156 0.12109-1.0781 0.12109-1.6797 0.23828-0.48047 0.12109-0.96094 0.23828-1.4414 0.48047-0.48047 0.12109-0.96094 0.35938-1.4414 0.60156-0.48047 0.23828-0.96094 0.48047-1.4414 0.71875-0.48047 0.23828-0.83984 0.48047-1.3203 0.83984s-0.96094 0.71875-1.3203 1.0781c-0.23828 0.23828-0.48047 0.35938-0.71875 0.60156l-34.801 34.801c-9.7188 9.7188-22.68 15.121-36.359 15.121s-26.641-5.3984-36.359-15.121l-12.359-12.359 96.238-96.238c3.1211-3.1211 7.1992-4.8008 11.641-4.8008s8.5195 1.6797 11.641 4.8008l90.84 90.84c7.1992 7.1992 11.762 16.801 12.719 26.879l19.199 196.32c0 0.23828 0.12109 0.48047 0.12109 0.71875 0.12109 0.48047 0.12109 0.96094 0.23828 1.4414 0.12109 0.48047 0.23828 1.0781 0.48047 1.5586 0.12109 0.48047 0.35937 0.83984 0.48047 1.3203 0.23828 0.48047 0.48047 1.0781 0.83984 1.5586 0.23828 0.35937 0.48047 0.71875 0.71875 1.0781 0.35938 0.48047 0.83984 0.96094 1.1992 1.4414 0.23828 0.23828 0.35938 0.48047 0.48047 0.60156l131.04 131.04z"
       id="path2" />
    <path
       d="m540.96 621.96c13.32-13.32 19.801-31.078 19.559-48.602 3 0.35938 6.1211 0.71875 9.1211 0.71875 17.16 0 34.32-6.4805 47.398-19.559 12.359-12.359 18.84-28.441 19.441-44.762 4.4414 0.96094 9.1211 1.4414 13.801 1.4414 17.879 0 34.68-6.9609 47.398-19.68 26.16-26.16 26.16-68.641 0-94.801l-28.078-27.957 14.16-14.16c19.078-19.078 19.078-50.16 0-69.238l-90.84-90.84c-12.48-12.48-29.039-20.398-46.68-22.078l-190.44-18.602-138.48-138.48c-3-3-7.1992-4.8008-11.52-4.8008-4.3203 0-8.3984 1.6797-11.52 4.8008l-188.04 188.28c-6.3594 6.3594-6.3594 16.68 0 22.922l151.44 151.44c-9.6016 52.559 6.8398 105.72 45 143.76l161.88 161.88c13.078 13.078 30.238 19.559 47.398 19.559 17.16 0 34.32-6.4805 47.398-19.559 12.238-12.238 18.602-27.961 19.441-43.922 4.9219 1.0781 9.8398 1.6797 14.879 1.6797 17.043 0.11719 34.203-6.3633 47.285-19.441zm-71.762-22.922-9.9609-9.9609c-6.3594-6.3594-16.68-6.3594-23.039 0-3.1211 3.1211-4.8008 7.3203-4.8008 11.52 0 3.1211 0.83984 6.2383 2.6406 9 0.60156 0.96094 1.3203 1.8008 2.0391 2.5195 13.441 13.441 13.441 35.281 0 48.84-13.441 13.441-35.398 13.441-48.84 0l-24.598-24.957-137.04-137.04c-32.281-32.281-45.121-78-34.441-122.4v-0.35938c0.12109-0.60156 0.23828-1.1992 0.23828-1.8008 0-0.48047 0.12109-0.96094 0.12109-1.4414 0-0.48047 0-1.0781-0.12109-1.5586 0-0.48047 0-1.0781-0.12109-1.5586s-0.23828-0.96094-0.35938-1.4414c-0.12109-0.48047-0.23828-1.0781-0.48047-1.5586-0.23828-0.48047-0.48047-0.96094-0.71875-1.3203-0.23828-0.48047-0.48047-0.96094-0.71875-1.4414-0.23828-0.35938-0.48047-0.71875-0.83984-1.0781-0.35938-0.48047-0.71875-0.96094-1.1992-1.4414-0.12109-0.12109-0.12109-0.12109-0.23828-0.23828l-146.04-146.16 165.24-165.24 131.04 131.04c0.12109 0.12109 0.35937 0.23828 0.60156 0.48047 0.48047 0.35938 0.83984 0.71875 1.3203 1.0781 0.35938 0.23828 0.83984 0.60156 1.1992 0.83984 0.48047 0.23828 0.96094 0.48047 1.4414 0.71875 0.48047 0.23828 0.96094 0.48047 1.4414 0.60156 0.48047 0.12109 0.96094 0.35937 1.4414 0.48047 0.60156 0.12109 1.0781 0.23828 1.6797 0.35938 0.23828 0 0.48047 0.12109 0.71875 0.12109l196.32 19.199c10.078 0.96094 19.68 5.5195 26.879 12.719l90.84 90.84c6.4805 6.4805 6.4805 16.922 0 23.281l-14.16 14.16-55.082-55.078c-6.3594-6.3594-16.68-6.3594-22.922 0-6.3594 6.3594-6.3594 16.68 0 22.922l106.08 106.08c6.4805 6.4805 10.078 15.121 10.078 24.359s-3.6016 17.879-10.078 24.359c-6.4805 6.4805-15.121 10.078-24.359 10.078-9.2383 0-17.879-3.6016-24.359-10.078l-8.7617-8.7617c-1.5586-1.5586-3.3594-2.7617-5.3984-3.6016-4.5586-1.9219-9.8398-1.4414-14.16 1.0781-0.23828 0.12109-0.60156 0.23828-0.83984 0.48047-0.12109 0-0.12109 0.12109-0.23828 0.12109-0.83984 0.60156-1.5586 1.1992-2.2812 1.9219-6.3594 6.3594-6.3594 16.68 0 23.039 13.441 13.441 13.441 35.281 0 48.84-13.441 13.441-35.281 13.441-48.719 0l-4.3203-4.3203c-0.23828-0.23828-0.48047-0.35938-0.71875-0.60156-6.3594-5.7617-16.199-5.6406-22.32 0.60156-0.48047 0.48047-0.83984 0.96094-1.1992 1.4414-0.23828 0.35938-0.60156 0.71875-0.83984 1.0781-0.48047 0.83984-0.96094 1.5586-1.3203 2.5195 0 0.12109-0.12109 0.23828-0.23828 0.35938-0.35938 0.83984-0.60156 1.6797-0.71875 2.5195 0 0.12109-0.12109 0.35938-0.12109 0.48047-0.12109 0.60156-0.12109 1.3203-0.23828 2.0391 0 0.35938-0.12109 0.71875-0.12109 1.0781s0.12109 0.71875 0.12109 1.0781c0.23828 3.8398 1.8008 7.5586 4.6797 10.441 13.441 13.441 13.441 35.281 0 48.84-13.809 13.324-35.648 13.324-49.09-0.11719z"
       id="path4" />
    <path
       d="m620.52 182.64c9 0 16.199-7.3203 16.199-16.199v-147.36c0-9-7.3203-16.199-16.199-16.199-9 0-16.199 7.3203-16.199 16.199v147.36c-0.12109 9.0039 7.1992 16.203 16.199 16.203z"
       id="path6" />
    <path
       d="m620.52 979.2c-9 0-16.199 7.3203-16.199 16.199v147.36c0 9 7.3203 16.199 16.199 16.199 9 0 16.199-7.3203 16.199-16.199v-147.24c0-9-7.3203-16.32-16.199-16.32z"
       id="path8" />
    <path
       d="m222.12 580.92c0-9-7.3203-16.199-16.199-16.199l-147.36-0.003906c-9 0-16.199 7.3203-16.199 16.199 0 9 7.3203 16.199 16.199 16.199h147.36c9.0039 0.12109 16.203-7.1953 16.203-16.195z"
       id="path10" />
    <path
       d="m1182.4 564.72h-147.36c-9 0-16.199 7.3203-16.199 16.199 0 9 7.3203 16.199 16.199 16.199h147.36c9 0 16.199-7.3203 16.199-16.199 0-8.8789-7.1992-16.199-16.199-16.199z"
       id="path12" />
    <path
       d="m315.84 862.56-104.16 104.16c-6.3594 6.3594-6.3594 16.68 0 22.922 3.1211 3.1211 7.3203 4.8008 11.52 4.8008s8.2812-1.5586 11.52-4.8008l104.16-104.16c6.3594-6.3594 6.3594-16.68 0-22.922-6.3594-6.3594-16.68-6.3594-23.039 0z"
       id="path14" />
    <path
       d="m913.56 304.08c4.1992 0 8.2812-1.5586 11.52-4.8008l104.16-104.16c6.3594-6.3594 6.3594-16.68 0-22.922-6.3594-6.3594-16.68-6.3594-22.922 0l-104.16 104.16c-6.3594 6.3594-6.3594 16.68 0 22.922 3.125 3.2422 7.3242 4.8008 11.402 4.8008z"
       id="path16" />
    <path
       d="m252.48 733.32c-3.4805-8.2812-12.961-12.238-21.238-8.7617l-136.08 56.398c-8.2812 3.4805-12.238 12.961-8.7617 21.238 2.6406 6.2383 8.6406 10.078 15 10.078 2.0391 0 4.1992-0.35938 6.2383-1.1992l136.08-56.398c8.2812-3.4766 12.242-12.957 8.7617-21.355z"
       id="path18" />
    <path
       d="m988.44 428.52c2.6406 6.2383 8.6406 10.078 15 10.078 2.0391 0 4.1992-0.35938 6.2383-1.1992l136.08-56.398c8.2812-3.4805 12.238-12.961 8.7617-21.238-3.4805-8.2812-12.961-12.238-21.238-8.7617l-136.08 56.398c-8.2812 3.3633-12.242 12.84-8.7617 21.121z"
       id="path20" />
    <path
       d="m468 948.96c-8.2812-3.4805-17.762 0.48047-21.238 8.7617l-56.398 136.08c-3.4805 8.2812 0.48047 17.762 8.7617 21.238 2.0391 0.83984 4.0781 1.1992 6.2383 1.1992 6.3594 0 12.48-3.7188 15-10.078l56.398-136.08c3.4766-8.1602-0.48047-17.762-8.7617-21.121z"
       id="path22" />
    <path
       d="m772.92 213c2.0391 0.83984 4.0781 1.1992 6.2383 1.1992 6.3594 0 12.48-3.7188 15-10.078l56.398-136.08c3.4805-8.2812-0.48047-17.762-8.7617-21.238-8.2812-3.4805-17.762 0.48047-21.238 8.7617l-56.398 136.08c-3.4805 8.3945 0.48047 17.875 8.7617 21.355z"
       id="path24" />
  </g>
</svg>
