<?xml version="1.0" encoding="UTF-8" standalone="no"?>
<svg
   width="1200pt"
   height="1200pt"
   version="1.1"
   viewBox="0 0 1200 1200"
   id="svg4"
   sodipodi:docname="baume.svg"
   inkscape:version="1.1.2 (0a00cf5339, 2022-02-04)"
   xmlns:inkscape="http://www.inkscape.org/namespaces/inkscape"
   xmlns:sodipodi="http://sodipodi.sourceforge.net/DTD/sodipodi-0.dtd"
   xmlns="http://www.w3.org/2000/svg"
   xmlns:svg="http://www.w3.org/2000/svg">
  <defs
     id="defs8" />
  <sodipodi:namedview
     id="namedview6"
     pagecolor="#ffffff"
     bordercolor="#666666"
     borderopacity="1.0"
     inkscape:pageshadow="2"
     inkscape:pageopacity="0.0"
     inkscape:pagecheckerboard="0"
     inkscape:document-units="pt"
     showgrid="false"
     inkscape:zoom="0.5275"
     inkscape:cx="800.94787"
     inkscape:cy="800"
     inkscape:window-width="1920"
     inkscape:window-height="1043"
     inkscape:window-x="1920"
     inkscape:window-y="0"
     inkscape:window-maximized="1"
     inkscape:current-layer="svg4" />
  <path
     d="m1012.7 534.48c19.559-12 29.281-27 29.281-43.68v-163.08c0.066406-3.2344-0.63281-6.4453-2.0391-9.3594-7.6797-31.078-52.559-53.762-139.8-71.039-99.059-17.535-199.53-25.848-300.12-24.84-100.91-1.0703-201.71 7.2461-301.08 24.84-96 19.078-141.12 44.762-141.12 81 0.019531 2.4102 0.21875 4.8164 0.59766 7.1992l-0.95703 155.28c0 16.801 9.8398 31.441 30 44.16-19.012 21.148-29.488 48.602-29.402 77.039v283.68c0 36 44.879 61.922 141.24 81h0.003906c99.246 17.629 199.92 25.945 300.72 24.84 100.91 1.1289 201.71-7.1875 301.08-24.84 96-19.078 141.12-44.762 141.12-81v-283.68c0.1875-28.621-10.344-56.273-29.52-77.52zm-809.88-45v-108c30.535 13.152 62.516 22.656 95.277 28.32 99.668 17.477 200.74 25.633 301.92 24.359 100.91 1.1016 201.7-7.1719 301.08-24.719 33.023-5.7266 65.25-15.355 96-28.68v108.72c-13.199 22.441-155.16 61.68-396.84 61.68-241.68 0-384.24-39.121-397.44-61.68zm397.2-221.64c237.36 0 378.36 37.801 396 60-17.641 22.68-158.64 60-396 60s-378.36-37.801-396-60c17.281-22.199 158.4-60 396-60zm397.08 626.88c-14.16 22.441-156 61.441-396.72 61.441s-384-39.238-396.84-61.68v-282.48c-0.0625-18.691 7.3711-36.633 20.641-49.801l7.1992-7.3203c22.02 7.1211 44.465 12.855 67.199 17.16 99.504 17.488 200.42 25.684 301.44 24.48 100.91 1.1016 201.7-7.1719 301.08-24.719 23.047-4.3203 45.777-10.176 68.043-17.52l7.6797 7.6797c13.195 13.285 20.5 31.316 20.277 50.039z"
     id="path2" />
</svg>
