<?xml version="1.0" encoding="UTF-8" standalone="no"?>
<svg
   width="1200pt"
   height="1200pt"
   version="1.1"
   viewBox="0 0 1200 1200"
   id="svg12"
   sodipodi:docname="cocche.svg"
   inkscape:version="1.1.2 (0a00cf5339, 2022-02-04)"
   xmlns:inkscape="http://www.inkscape.org/namespaces/inkscape"
   xmlns:sodipodi="http://sodipodi.sourceforge.net/DTD/sodipodi-0.dtd"
   xmlns="http://www.w3.org/2000/svg"
   xmlns:svg="http://www.w3.org/2000/svg">
  <defs
     id="defs16" />
  <sodipodi:namedview
     id="namedview14"
     pagecolor="#ffffff"
     bordercolor="#666666"
     borderopacity="1.0"
     inkscape:pageshadow="2"
     inkscape:pageopacity="0.0"
     inkscape:pagecheckerboard="0"
     inkscape:document-units="pt"
     showgrid="false"
     inkscape:zoom="0.5275"
     inkscape:cx="800.94787"
     inkscape:cy="800.94787"
     inkscape:window-width="1920"
     inkscape:window-height="1016"
     inkscape:window-x="0"
     inkscape:window-y="27"
     inkscape:window-maximized="1"
     inkscape:current-layer="svg12" />
  <g
     id="g10"
     style="stroke:#000000;fill:none;stroke-width:12;stroke-miterlimit:4;stroke-dasharray:none">
    <path
       d="m 893.55,418.95 c -22.027,-22.008 -64.398,-40.43 -141.34,-2.6016 -39.793,20.27 -76.293,46.43 -108.27,77.602 -37.887,37.891 -52.688,93.117 -38.816,144.88 13.867,51.758 54.297,92.184 106.05,106.05 51.758,13.867 106.98,-0.92969 144.87,-38.82 32.367,-39.145 53.758,-86.184 61.984,-136.3 7.7773,-39.402 14.938,-111.44 -24.484,-150.8 z"
       id="path2"
       style="stroke:#000000;fill:none;stroke-width:12;stroke-miterlimit:4;stroke-dasharray:none" />
    <path
       d="m 454.88,824.7 c -115.55,-3.1641 -208.5,-85.789 -208.5,-187.2 0,-103.41 96.582,-187.5 215.3,-187.5 3.8125,0 7.5234,0.50391 11.305,0.67188 5.5156,-9.0117 10.926,-18.012 17.105,-27.113 20.215,-29.766 42.703,-57.93 67.258,-84.23 -10.02,-0.56641 -20.352,-0.96875 -31.277,-1.0977 v 0.004 c -109.23,-2.4688 -217.03,25.27 -311.5,80.164 -89.355,55.992 -138.92,132.75 -139.56,216.17 -1.3008,168.2 194.59,301.57 445.92,303.66 2.0859,0 4.1562,0.0391 6.2266,0.0391 17.629,0 34.148,-0.88281 50.16,-2.2109 -6.4688,-3.9492 -12.965,-7.1406 -19.414,-11.52 l -0.004,-0.004 c -40.312,-26.504 -75.262,-60.375 -103.01,-99.84 z"
       id="path4"
       style="stroke:#000000;fill:none;stroke-width:12;stroke-miterlimit:4;stroke-dasharray:none" />
    <path
       d="m 409.68,718.51 c -12.758,-79.547 2.2266,-161.06 42.438,-230.86 -0.71094,-0.008 -1.4062,-0.14453 -2.1172,-0.14453 -51.445,-0.13281 -99.352,26.172 -126.84,69.66 -27.492,43.484 -30.715,98.043 -8.5312,144.46 22.188,46.418 66.664,78.18 117.77,84.098 -10.387,-21.352 -18.02,-43.938 -22.715,-67.211 z"
       id="path6"
       style="stroke:#000000;fill:none;stroke-width:12;stroke-miterlimit:4;stroke-dasharray:none" />
    <path
       d="M 1123.6,477.91 C 1126.5648,372.59 1090.202,288.8 1021.22,242 952.243,195.164 861,192.27 764.16,233.9062 c -99.156,46.094 -183.38,119.11 -243.07,210.72 -65.406,96.312 -90.508,186.04 -74.633,266.64 h -0.004 c 8.7734,37.695 25.02,73.25 47.773,104.55 22.754,31.305 51.559,57.73 84.703,77.711 51.23,36.801 112.23,57.578 175.27,59.691 81.48,0 174.5,-40.797 263.32,-171.64 h -0.019 v 0 c 63.109,-89.285 99.867,-194.5 106.09,-303.66 z m -168.79,99.098 c -9.9844,57.309 -34.914,110.97 -72.27,155.57 -35.16,35.156 -82.848,54.906 -132.57,54.902 -49.723,0 -97.406,-19.754 -132.56,-54.914 -35.154,-35.16 -54.906,-82.844 -54.906,-132.57 0.004,-49.719 19.754,-97.402 54.914,-132.56 1.0977,-1.0977 111.47,-110.3 213.89,-110.3 33.16,-0.73828 65.203,12.012 88.789,35.34 51.707,51.637 43.945,137.8 34.715,184.54 z"
       id="path8"
       style="stroke:#000000;fill:none;stroke-width:12;stroke-miterlimit:4;stroke-dasharray:none" />
  </g>
</svg>
