<?xml version="1.0" encoding="UTF-8" standalone="no"?>
<!-- Created with Inkscape (http://www.inkscape.org/) -->

<svg
   width="109.61271"
   height="99.824425"
   viewBox="0 0 29.001692 26.411878"
   version="1.1"
   id="svg5"
   inkscape:version="1.2.2 (b0a8486541, 2022-12-01)"
   sodipodi:docname="CP_gestation.svg"
   xmlns:inkscape="http://www.inkscape.org/namespaces/inkscape"
   xmlns:sodipodi="http://sodipodi.sourceforge.net/DTD/sodipodi-0.dtd"
   xmlns="http://www.w3.org/2000/svg"
   xmlns:svg="http://www.w3.org/2000/svg">
  <sodipodi:namedview
     id="namedview7"
     pagecolor="#ffffff"
     bordercolor="#666666"
     borderopacity="1.0"
     inkscape:pageshadow="2"
     inkscape:pageopacity="0.0"
     inkscape:pagecheckerboard="0"
     inkscape:document-units="mm"
     showgrid="false"
     fit-margin-top="0"
     fit-margin-left="5"
     fit-margin-right="5"
     fit-margin-bottom="0"
     units="px"
     width="100px"
     inkscape:zoom="4.1091101"
     inkscape:cx="-2.5552978"
     inkscape:cy="55.243105"
     inkscape:window-width="1920"
     inkscape:window-height="1011"
     inkscape:window-x="0"
     inkscape:window-y="32"
     inkscape:window-maximized="1"
     inkscape:current-layer="layer1"
     inkscape:showpageshadow="2"
     inkscape:deskcolor="#d1d1d1" />
  <defs
     id="defs2" />
  <g
     inkscape:label="Calque 1"
     inkscape:groupmode="layer"
     id="layer1"
     transform="translate(-55.761687,-106.86235)">
    <g
       id="g18505">
      <path
         style="fill:#548e98;stroke-width:0.999998"
         d="m 67.982396,133.10793 c -6.264952,-0.92809 -10.897792,-6.47706 -10.897792,-13.05281 0,-14.38739 19.595504,-18.34285 25.438045,-5.13479 1.221019,2.76032 1.224084,7.50554 0.0072,10.24536 -2.57782,5.80113 -8.21691,8.87993 -14.546851,7.94224 z"
         id="path982"
         sodipodi:nodetypes="cssccc" />
      <path
         d="m 68.81014,122.97036 -2.288197,1.93986 0.245111,3.9101 h -0.815833 l -0.839198,-4.67113 1.414592,-1.19943 z m 11.261509,-7.64856 c -2.12e-4,-0.34537 -0.137636,-0.67629 -0.381685,-0.92055 l -1.509322,-1.50933 c -0.309256,-0.30925 -0.725351,-0.48575 -1.161197,-0.4968 l -1.745938,-1.74594 c -0.410571,-0.41057 -0.967699,-0.64145 -1.548405,-0.64145 h -1.705156 l 1.528863,0.60385 c 0.372977,0.14742 0.698376,0.39422 0.940726,0.71389 l 0.809035,1.06732 h -1.798399 l 0.307556,0.45432 c 0.313504,0.46303 0.836436,0.74043 1.395475,0.74043 h 0.089 l -1.831747,3.00463 h -8.118189 c -0.893358,0 -1.748486,0.36278 -2.369122,1.0053 l -0.02697,0.0281 -1.990623,-1.00678 v 0.53461 c 0,0.31266 0.09474,0.61809 0.272085,0.87595 l 0.681807,0.99191 0.539713,2.63144 -0.597273,0.89612 0.855127,6.27348 h 0.816045 l -0.0013,-3.91158 2.842354,-2.40991 5.344012,0.048 v 6.2722 l 0.788646,-6.4e-4 0.407385,-4.35252 1.845979,-1.83981 c 1.124664,-1.12085 1.881025,-2.55816 2.167978,-4.11974 l 0.465159,-2.53055 h 0.746802 l 0.746803,1.4934 h 0.597271 v -1.49636 c 0.334745,-0.0293 0.597911,-0.31012 0.597484,-0.65293 z m -6.20615,8.81995 1.016128,4.67899 h 0.816045 l -0.930529,-5.57744 z"
         id="path2"
         style="fill:#ffffff;stroke-width:0.264583" />
    </g>
    <ellipse
       style="fill:#e9e9e9;stroke:#000000;stroke-width:0.264583"
       id="path311"
       cx="104.06373"
       cy="88.948227"
       rx="2.354068"
       ry="1.5646137"
       transform="rotate(20.993448)" />
  </g>
</svg>
