<?xml version="1.0" encoding="UTF-8" standalone="no"?>
<!-- Created with Inkscape (http://www.inkscape.org/) -->

<svg
   width="109.61271"
   height="99.824425"
   viewBox="0 0 29.001692 26.411878"
   version="1.1"
   id="svg5"
   inkscape:version="1.2.2 (b0a8486541, 2022-12-01)"
   sodipodi:docname="CP_lactation.svg"
   xmlns:inkscape="http://www.inkscape.org/namespaces/inkscape"
   xmlns:sodipodi="http://sodipodi.sourceforge.net/DTD/sodipodi-0.dtd"
   xmlns="http://www.w3.org/2000/svg"
   xmlns:svg="http://www.w3.org/2000/svg">
  <sodipodi:namedview
     id="namedview7"
     pagecolor="#ffffff"
     bordercolor="#666666"
     borderopacity="1.0"
     inkscape:pageshadow="2"
     inkscape:pageopacity="0.0"
     inkscape:pagecheckerboard="0"
     inkscape:document-units="mm"
     showgrid="false"
     fit-margin-top="0"
     fit-margin-left="5"
     fit-margin-right="5"
     fit-margin-bottom="0"
     units="px"
     width="100px"
     inkscape:zoom="4.2537851"
     inkscape:cx="50.073052"
     inkscape:cy="46.076611"
     inkscape:window-width="1920"
     inkscape:window-height="1011"
     inkscape:window-x="0"
     inkscape:window-y="32"
     inkscape:window-maximized="1"
     inkscape:current-layer="layer1"
     inkscape:showpageshadow="2"
     inkscape:deskcolor="#d1d1d1" />
  <defs
     id="defs2" />
  <g
     inkscape:label="Calque 1"
     inkscape:groupmode="layer"
     id="layer1"
     transform="translate(-55.761687,-106.86235)">
    <g
       id="g18505">
      <path
         style="fill:#548e98;stroke-width:0.999998"
         d="m 67.982396,133.10793 c -6.264952,-0.92809 -10.897792,-6.47706 -10.897792,-13.05281 0,-14.38739 19.595504,-18.34285 25.438045,-5.13479 1.221019,2.76032 1.224084,7.50554 0.0072,10.24536 -2.57782,5.80113 -8.21691,8.87993 -14.546851,7.94224 z"
         id="path982"
         sodipodi:nodetypes="cssccc" />
      <path
         d="m 68.81014,122.97036 -2.288197,1.93986 0.245111,3.9101 h -0.815833 l -0.839198,-4.67113 1.414592,-1.19943 z m 11.261509,-7.64856 c -2.12e-4,-0.34537 -0.137636,-0.67629 -0.381685,-0.92055 l -1.509322,-1.50933 c -0.309256,-0.30925 -0.725351,-0.48575 -1.161197,-0.4968 l -1.745938,-1.74594 c -0.410571,-0.41057 -0.967699,-0.64145 -1.548405,-0.64145 h -1.705156 l 1.528863,0.60385 c 0.372977,0.14742 0.698376,0.39422 0.940726,0.71389 l 0.809035,1.06732 h -1.798399 l 0.307556,0.45432 c 0.313504,0.46303 0.836436,0.74043 1.395475,0.74043 h 0.089 l -1.831747,3.00463 h -8.118189 c -0.893358,0 -1.748486,0.36278 -2.369122,1.0053 l -0.02697,0.0281 -1.990623,-1.00678 v 0.53461 c 0,0.31266 0.09474,0.61809 0.272085,0.87595 l 0.681807,0.99191 0.539713,2.63144 -0.597273,0.89612 0.855127,6.27348 h 0.816045 l -0.0013,-3.91158 2.842354,-2.40991 5.344012,0.048 v 6.2722 l 0.788646,-6.4e-4 0.407385,-4.35252 1.845979,-1.83981 c 1.124664,-1.12085 1.881025,-2.55816 2.167978,-4.11974 l 0.465159,-2.53055 h 0.746802 l 0.746803,1.4934 h 0.597271 v -1.49636 c 0.334745,-0.0293 0.597911,-0.31012 0.597484,-0.65293 z m -6.20615,8.81995 1.016128,4.67899 h 0.816045 l -0.930529,-5.57744 z"
         id="path2"
         style="fill:#ffffff;stroke-width:0.264583" />
    </g>
    <path
       d="m 65.015695,121.83364 0.57142,-1.34254 h 4.179293 l 0.57142,1.34254 z m 4.674898,-1.79005 v -0.89503 h -4.027615 v 0.89503 z m -0.01893,-1.79005 h -3.989785 c -0.137798,3.7e-4 -0.272052,0.0436 -0.384073,0.12386 -0.112018,0.0802 -0.19625,0.19331 -0.240953,0.32365 h 5.239838 c -0.04471,-0.13034 -0.128944,-0.24347 -0.240953,-0.32365 -0.112018,-0.0802 -0.246275,-0.12354 -0.384074,-0.12386 z m -1.994833,-0.89503 c -0.118637,1.4e-4 -0.232384,0.0473 -0.31629,0.13122 -0.08391,0.0839 -0.131079,0.19765 -0.131222,0.31629 h 0.895025 c -1.39e-4,-0.11863 -0.04731,-0.23238 -0.131223,-0.31629 -0.08391,-0.0839 -0.197645,-0.13108 -0.31629,-0.13122 z m 3.131158,4.42978 0.627306,-0.6273 c 0.111505,-0.11151 0.15509,-0.27411 0.114255,-0.42649 -0.04084,-0.15235 -0.159852,-0.27135 -0.312185,-0.31218 -0.152393,-0.0408 -0.314989,0.003 -0.426486,0.11425 l -0.377868,0.37782 0.372784,0.87591 c 8.39e-4,-7e-4 0.0015,-0.001 0.0022,-0.002 z m -5.368722,8.10058 h 4.475128 c 0.138681,-3.4e-4 0.273866,-0.0435 0.387057,-0.12357 0.113184,-0.0801 0.198815,-0.19327 0.245249,-0.32394 h -5.739739 c 0.04643,0.13066 0.132058,0.2438 0.245249,0.32394 0.113183,0.0801 0.248363,0.12325 0.387056,0.12357 z m -0.896469,-9.35242 c -0.111506,-0.11151 -0.274105,-0.15509 -0.426486,-0.11426 -0.152345,0.0408 -0.271348,0.15986 -0.312185,0.31219 -0.04084,0.15239 0.0028,0.31499 0.114256,0.42648 l 0.627257,0.62726 c 7e-4,7e-4 0.0015,10e-4 0.0022,0.002 l 0.372785,-0.8759 z m 0.29037,1.7447 c -0.04307,0.14526 -0.06503,0.29602 -0.06517,0.44751 v 6.26518 h 5.817667 v -6.26518 c -1.35e-4,-0.15149 -0.0221,-0.30225 -0.06517,-0.44751 z"
       id="path2290"
       style="fill:#0000ff;stroke-width:0.0119337" />
  </g>
</svg>
