<?xml version="1.0" encoding="UTF-8" standalone="no"?>
<svg
   width="1200pt"
   height="1200pt"
   version="1.1"
   viewBox="0 0 1200 1200"
   id="svg8"
   sodipodi:docname="default.svg"
   inkscape:version="1.1.2 (0a00cf5339, 2022-02-04)"
   xmlns:inkscape="http://www.inkscape.org/namespaces/inkscape"
   xmlns:sodipodi="http://sodipodi.sourceforge.net/DTD/sodipodi-0.dtd"
   xmlns="http://www.w3.org/2000/svg"
   xmlns:svg="http://www.w3.org/2000/svg">
  <defs
     id="defs12" />
  <sodipodi:namedview
     id="namedview10"
     pagecolor="#ffffff"
     bordercolor="#666666"
     borderopacity="1.0"
     inkscape:pageshadow="2"
     inkscape:pageopacity="0.0"
     inkscape:pagecheckerboard="0"
     inkscape:document-units="pt"
     showgrid="false"
     inkscape:zoom="0.5275"
     inkscape:cx="800.94787"
     inkscape:cy="800.94787"
     inkscape:window-width="1920"
     inkscape:window-height="1016"
     inkscape:window-x="0"
     inkscape:window-y="27"
     inkscape:window-maximized="1"
     inkscape:current-layer="g6" />
  <g
     id="g6">
    <path
       d="m 767.40839,309.67848 -64.234,-58.59 v -66.703 h 12.707 c 9.707,0 17.648,-7.9414 17.648,-17.648 l -0.004,-85.941002 c 0,-30 -24.352,-54.352 -54.355,-54.352 h -156 c -30,0 -54.355,24.352 -54.355,54.352 v 85.941002 c 0,9.707 7.9414,17.648 17.648,17.648 h 12.707 v 66.707 l -64.234,58.59 c -63.531,58.059 -100.06,140.65 -100.06,226.59 v 566.64002 c 0,48.707 39.531,88.234 88.234,88.234 h 356.12 c 48.707,0 88.234,-39.527 88.234,-88.234 l 0.004,-566.64002 c 0,-85.941 -36.527,-168.53 -100.06,-226.59 z m -263.29,-228.880002 c 0,-10.586 8.6445,-19.059 19.059,-19.059 h 156 c 10.414,0 19.059,8.4727 19.059,19.059 v 68.293002 h -194.12 z m 328.06,950.650022 h -257.47 c -19.41,0 -35.293,-15.883 -35.293,-35.29302 v -380.47 c 0,-19.41 15.883,-35.293 35.293,-35.293 h 257.47 z"
       id="path2"
       style="fill:#808080;stroke:#000000;stroke-width:8.4;stroke-miterlimit:4;stroke-dasharray:none" />
  </g>
</svg>
