<?xml version="1.0" encoding="UTF-8" standalone="no"?>
<svg
   width="1200pt"
   height="1200pt"
   version="1.1"
   viewBox="0 0 1200 1200"
   id="svg4"
   sodipodi:docname="digestif.svg"
   inkscape:version="1.1.2 (0a00cf5339, 2022-02-04)"
   xmlns:inkscape="http://www.inkscape.org/namespaces/inkscape"
   xmlns:sodipodi="http://sodipodi.sourceforge.net/DTD/sodipodi-0.dtd"
   xmlns="http://www.w3.org/2000/svg"
   xmlns:svg="http://www.w3.org/2000/svg">
  <defs
     id="defs8" />
  <sodipodi:namedview
     id="namedview6"
     pagecolor="#ffffff"
     bordercolor="#666666"
     borderopacity="1.0"
     inkscape:pageshadow="2"
     inkscape:pageopacity="0.0"
     inkscape:pagecheckerboard="0"
     inkscape:document-units="pt"
     showgrid="false"
     inkscape:zoom="0.5275"
     inkscape:cx="800.94787"
     inkscape:cy="800"
     inkscape:window-width="1920"
     inkscape:window-height="1043"
     inkscape:window-x="1920"
     inkscape:window-y="0"
     inkscape:window-maximized="1"
     inkscape:current-layer="svg4" />
  <path
     d="m845.28 394.2h-0.23828-313.2c-4.3203 0-7.6797-3.4805-7.6797-7.5586 0-4.1992 3.4805-7.6797 7.6797-7.6797h56.641c78.48 0 142.08-63.602 142.08-142.08v-76.32c0-22.441-18.121-40.559-40.559-40.559h-10.199c-22.441 0-40.559 18.121-40.559 40.559v61.078c0 36.359-29.52 65.879-65.879 65.879h-53.762c-20.16 0-40.441 4.6797-57.121 16.078-27.121 18.359-42.719 46.199-44.641 77.039-3.4805 57.84 46.801 105.12 104.76 105.12h307.44c4.1992 0 7.6797 3.4805 7.6797 7.6797 0 4.3203-3.4805 7.5586-7.6797 7.5586l-472.33 0.003906c-18.84 0-37.801 3.9609-53.762 13.801-30 18.48-47.281 49.078-48.238 82.078-0.83984 25.801 8.8789 50.281 27.84 69.602 20.039 20.879 47.879 32.641 76.441 32.641h389.28c4.1992 0 7.6797 3.4805 7.6797 7.6797 0 4.0781-3.4805 7.5586-7.6797 7.5586h-297.84c-24.602 0-49.32 7.3203-67.801 23.398-23.879 20.762-36.719 50.16-34.922 81.602 3 53.281 50.641 93.121 103.92 93.121h120.96c26.879 0 48.84 21.961 48.84 48.84v78.121c0 22.441 18.121 40.559 40.559 40.559h10.32c22.441 0 40.559-18.121 40.559-40.559v-83.762c0-74.281-60.238-134.52-134.28-134.64h-116.88c-4.3203 0-7.6797-3.4805-7.6797-7.5586 0-4.1992 3.4805-7.6797 7.6797-7.6797h301.44c57.84 0 104.28-49.68 98.762-108.36-4.8008-51.84-51.719-89.762-103.8-89.762h-389.52c-4.3203 0-7.6797-3.4805-7.6797-7.5586 0-4.1992 3.4805-7.6797 7.6797-7.6797h475.68c54.719 0 99.238-44.398 99.238-99-0.12109-54.602-44.52-99.242-99.238-99.242z"
     id="path2" />
</svg>
