<?xml version="1.0" encoding="UTF-8" standalone="no"?>
<svg
   version="1.1"
   x="0px"
   y="0px"
   viewBox="0 0 100 100"
   enable-background="new 0 0 100 100"
   xml:space="preserve"
   id="svg24"
   sodipodi:docname="documents.svg"
   inkscape:version="1.1.2 (0a00cf5339, 2022-02-04)"
   xmlns:inkscape="http://www.inkscape.org/namespaces/inkscape"
   xmlns:sodipodi="http://sodipodi.sourceforge.net/DTD/sodipodi-0.dtd"
   xmlns="http://www.w3.org/2000/svg"
   xmlns:svg="http://www.w3.org/2000/svg"><defs
     id="defs28" /><sodipodi:namedview
     id="namedview26"
     pagecolor="#ffffff"
     bordercolor="#666666"
     borderopacity="1.0"
     inkscape:pageshadow="2"
     inkscape:pageopacity="0.0"
     inkscape:pagecheckerboard="0"
     showgrid="false"
     inkscape:zoom="8.44"
     inkscape:cx="50"
     inkscape:cy="50"
     inkscape:window-width="1920"
     inkscape:window-height="1043"
     inkscape:window-x="1920"
     inkscape:window-y="0"
     inkscape:window-maximized="1"
     inkscape:current-layer="svg24" /><g
     id="g22"
     style="fill:#558f99;fill-opacity:1"><g
       id="g10"
       style="fill:#558f99;fill-opacity:1"><g
         id="g8"
         style="fill:#558f99;fill-opacity:1"><path
           d="M 18.166,5.745 47.956,26.13 V 95.71 C 37.488,80.663 18.166,74.55 18.166,74.55 Z"
           id="path2"
           style="fill:#558f99;fill-opacity:1" /><path
           d="m 21.335,91.309 c 0,0 -8.674,-4.383 -20.286,-2.572 V 20.375 h 2.84 V 85.31 c 0,0.001 12.504,-0.154 17.446,5.999 z"
           id="path4"
           style="fill:#558f99;fill-opacity:1" /><path
           d="m 33.061,89.082 v 0 C 28.524,82.631 14.245,77.613 14.245,77.613 V 13.452 l -5.932,-2.32 v 69.835 c 0,0 6.098,0.752 9.144,1.611 10.519,2.973 15.604,6.504 15.604,6.504 z"
           id="path6"
           style="fill:#558f99;fill-opacity:1" /></g></g><g
       id="g20"
       style="fill:#558f99;fill-opacity:1"><g
         id="g18"
         style="fill:#558f99;fill-opacity:1"><path
           d="M 81.668,5.745 51.878,26.13 V 95.71 C 62.346,80.663 81.668,74.55 81.668,74.55 Z"
           id="path12"
           style="fill:#558f99;fill-opacity:1" /><path
           d="m 78.499,91.309 c 0,0 8.675,-4.383 20.286,-2.572 V 20.375 h -2.84 V 85.31 c 0,0.001 -12.504,-0.154 -17.446,5.999 z"
           id="path14"
           style="fill:#558f99;fill-opacity:1" /><path
           d="m 66.773,89.082 v 0 C 71.31,82.631 85.589,77.613 85.589,77.613 V 13.452 l 5.932,-2.32 v 69.835 c 0,0 -6.098,0.752 -9.144,1.611 -10.52,2.973 -15.604,6.504 -15.604,6.504 z"
           id="path16"
           style="fill:#558f99;fill-opacity:1" /></g></g></g></svg>
