<?xml version="1.0" encoding="UTF-8" standalone="no"?>
<svg
   width="1200pt"
   height="1200pt"
   version="1.1"
   viewBox="0 0 1200 1200"
   id="svg24255"
   sodipodi:docname="dosages.svg"
   inkscape:version="1.2.2 (b0a8486541, 2022-12-01)"
   xmlns:inkscape="http://www.inkscape.org/namespaces/inkscape"
   xmlns:sodipodi="http://sodipodi.sourceforge.net/DTD/sodipodi-0.dtd"
   xmlns="http://www.w3.org/2000/svg"
   xmlns:svg="http://www.w3.org/2000/svg">
  <defs
     id="defs24259" />
  <sodipodi:namedview
     id="namedview24257"
     pagecolor="#ffffff"
     bordercolor="#666666"
     borderopacity="1.0"
     inkscape:showpageshadow="2"
     inkscape:pageopacity="0.0"
     inkscape:pagecheckerboard="0"
     inkscape:deskcolor="#d1d1d1"
     inkscape:document-units="pt"
     showgrid="false"
     inkscape:zoom="0.5425"
     inkscape:cx="800"
     inkscape:cy="802.76498"
     inkscape:window-width="1920"
     inkscape:window-height="1011"
     inkscape:window-x="0"
     inkscape:window-y="32"
     inkscape:window-maximized="1"
     inkscape:current-layer="svg24255" />
  <path
     d="m574.87 532.5c62.484 23.016 116.02 64.875 153.52 118.64 5.4375 7.8281 10.547 15.844 15.281 24.141l0.84375 1.4531c26.625 46.922 41.812 101.25 41.812 158.9 0 89.156-36.188 169.92-94.594 228.37l-1.0781 0.98438c-58.359 57.844-138.66 93.609-227.29 93.609-89.109 0-169.87-36.188-228.32-94.641-58.453-58.406-94.641-139.13-94.641-228.32 0-68.484 21.422-132.1 57.938-184.45 37.453-53.812 90.938-95.672 153.52-118.69 11.766-4.3125 21.328-11.766 27.938-21.188 6.5156-9.3281 10.172-20.906 10.172-33.469v-400.45h-15.703c-9.9375 0-18-8.0625-18-18s8.0625-18 18-18h178.26c9.9375 0 18 8.0625 18 18s-8.0625 18-18 18h-15.75v400.45c0 12.609 3.6562 24.141 10.172 33.516 6.5625 9.375 16.125 16.828 27.891 21.188zm334.45-201.79h86.391v-152.72h-86.391zm-45.984-152.72c-9.9375 0-18-8.0625-18-18s8.0625-18 18-18h178.31c9.9375 0 18 8.0625 18 18s-8.0625 18-18 18h-9.9375v663.05c0 21.188-8.4375 40.547-22.219 54.797l-1.0312 1.125c-14.344 14.344-34.125 23.25-55.922 23.25-21.797 0-41.672-8.9062-55.969-23.25-14.344-14.344-23.25-34.172-23.25-55.922v-663.05zm-259.36 770.29h18.797c9.9375 0 18-8.0625 18-18s-8.0625-18-18-18h-18.797c-9.9375 0-18 8.0625-18 18s8.0625 18 18 18zm-131.21-28.031h18.797c9.9375 0 18-8.0625 18-18s-8.0625-18-18-18h-18.797c-9.9375 0-18 8.0625-18 18s8.0625 18 18 18zm-18.797 117.14h18.797c9.9375 0 18-8.0625 18-18s-8.0625-18-18-18h-18.797c-9.9375 0-18 8.0625-18 18s8.0625 18 18 18zm-128.72-89.156h18.797c9.9375 0 18-8.0625 18-18s-8.0625-18-18-18h-18.797c-9.9375 0-18 8.0625-18 18s8.0625 18 18 18zm311.44-102h18.797c9.9375 0 18-8.0625 18-18s-8.0625-18-18-18h-18.797c-9.9375 0-18 8.0625-18 18s8.0625 18 18 18zm-451.26-82.266c219.52 50.625 295.31 9.2344 375.19-34.406 39.844-21.75 80.719-44.062 138.66-57.609-33.562-48.141-81.094-85.312-136.74-105.8-18.75-6.8906-34.172-18.984-44.906-34.359-10.781-15.422-16.828-34.078-16.828-54.047v-400.45h-74.859v400.45c0 19.922-6.0469 38.578-16.828 54-10.734 15.422-26.156 27.469-44.906 34.359-55.547 20.438-103.08 57.656-136.4 105.47-19.266 27.562-33.797 58.734-42.422 92.344z"
     id="path24253"
     style="fill:#f9f9f9" />
</svg>
