<?xml version="1.0" encoding="UTF-8" standalone="no"?>
<svg
   version="1.1"
   x="0px"
   y="0px"
   viewBox="0 0 66 66"
   style="enable-background:new 0 0 66 66;"
   xml:space="preserve"
   id="svg20"
   sodipodi:docname="duree.svg"
   inkscape:version="1.1.2 (0a00cf5339, 2022-02-04)"
   xmlns:inkscape="http://www.inkscape.org/namespaces/inkscape"
   xmlns:sodipodi="http://sodipodi.sourceforge.net/DTD/sodipodi-0.dtd"
   xmlns="http://www.w3.org/2000/svg"
   xmlns:svg="http://www.w3.org/2000/svg"><defs
     id="defs24" /><sodipodi:namedview
     id="namedview22"
     pagecolor="#ffffff"
     bordercolor="#666666"
     borderopacity="1.0"
     inkscape:pageshadow="2"
     inkscape:pageopacity="0.0"
     inkscape:pagecheckerboard="0"
     showgrid="false"
     inkscape:zoom="12.787879"
     inkscape:cx="33"
     inkscape:cy="33"
     inkscape:window-width="1920"
     inkscape:window-height="1043"
     inkscape:window-x="1920"
     inkscape:window-y="0"
     inkscape:window-maximized="1"
     inkscape:current-layer="svg20" /><path
     d="M32.5,29.15h6.6c0.55,0,0.99-0.44,0.99-0.99v-5.24c0-0.55-0.44-0.99-0.99-0.99h-6.6c-0.55,0-0.99,0.44-0.99,0.99v5.24  C31.5,28.71,31.95,29.15,32.5,29.15z M33.49,23.91h4.62v3.26h-4.62V23.91z"
     id="path2"
     style="fill:#558f99;fill-opacity:1" /><path
     d="M44.06,29.15h6.6c0.55,0,0.99-0.44,0.99-0.99v-5.24c0-0.55-0.44-0.99-0.99-0.99h-6.6c-0.55,0-0.99,0.44-0.99,0.99v5.24  C43.07,28.71,43.51,29.15,44.06,29.15z M45.05,23.91h4.62v3.26h-4.62V23.91z"
     id="path4"
     style="fill:#558f99;fill-opacity:1" /><path
     d="M15.97,32.76h-6.6c-0.55,0-0.99,0.44-0.99,0.99V39c0,0.55,0.44,0.99,0.99,0.99h6.6c0.55,0,0.99-0.44,0.99-0.99v-5.24  C16.96,33.2,16.51,32.76,15.97,32.76z M14.97,38h-4.62v-3.26h4.62V38z"
     id="path6"
     style="fill:#558f99;fill-opacity:1" /><path
     d="M27.53,32.76h-6.6c-0.55,0-0.99,0.44-0.99,0.99V39c0,0.55,0.44,0.99,0.99,0.99h6.6c0.55,0,0.99-0.44,0.99-0.99v-5.24  C28.52,33.2,28.08,32.76,27.53,32.76z M26.54,38h-4.62v-3.26h4.62V38z"
     id="path8"
     style="fill:#558f99;fill-opacity:1" /><path
     d="M32.5,39.99h6.6c0.55,0,0.99-0.44,0.99-0.99v-5.24c0-0.55-0.44-0.99-0.99-0.99h-6.6c-0.55,0-0.99,0.44-0.99,0.99V39  C31.5,39.55,31.95,39.99,32.5,39.99z M33.49,34.75h4.62V38h-4.62V34.75z"
     id="path10"
     style="fill:#558f99;fill-opacity:1" /><path
     d="M15.97,43.6h-6.6c-0.55,0-0.99,0.44-0.99,0.99v5.24c0,0.55,0.44,0.99,0.99,0.99h6.6c0.55,0,0.99-0.44,0.99-0.99v-5.24  C16.96,44.04,16.51,43.6,15.97,43.6z M14.97,48.84h-4.62v-3.26h4.62V48.84z"
     id="path12"
     style="fill:#558f99;fill-opacity:1" /><path
     d="M27.53,43.6h-6.6c-0.55,0-0.99,0.44-0.99,0.99v5.24c0,0.55,0.44,0.99,0.99,0.99h6.6c0.55,0,0.99-0.44,0.99-0.99v-5.24  C28.52,44.04,28.08,43.6,27.53,43.6z M26.54,48.84h-4.62v-3.26h4.62V48.84z"
     id="path14"
     style="fill:#558f99;fill-opacity:1" /><path
     d="M58.35,40.26V17.33c0,0,0,0,0,0c0,0,0,0,0,0V9.87c0-2.95-2.39-5.34-5.33-5.34h-5.08V2.01c0-0.55-0.44-0.99-0.99-0.99  s-0.99,0.44-0.99,0.99v2.52h-9.31V2.01c0-0.55-0.44-0.99-0.99-0.99s-0.99,0.44-0.99,0.99v2.52h-9.31V2.01  c0-0.55-0.44-0.99-0.99-0.99c-0.55,0-0.99,0.44-0.99,0.99v2.52h-9.31V2.01c0-0.55-0.44-0.99-0.99-0.99c-0.55,0-0.99,0.44-0.99,0.99  v2.52H7c-2.94,0-5.33,2.4-5.33,5.34v7.42c0,0.01-0.01,0.02-0.01,0.03c0,0.01,0.01,0.02,0.01,0.03v34.67c0,2.94,2.39,5.33,5.33,5.33  h31.68c2.19,4.51,6.8,7.63,12.14,7.63c7.45,0,13.51-6.06,13.51-13.51C64.33,46.81,61.96,42.69,58.35,40.26z M61.4,52.57h0.9  c-0.23,2.42-1.21,4.61-2.71,6.36L59,58.36c-0.39-0.39-1.02-0.39-1.4,0c-0.39,0.39-0.39,1.02,0,1.4l0.58,0.58  c-1.76,1.46-3.95,2.4-6.36,2.61v-0.79c0-0.55-0.44-0.99-0.99-0.99s-0.99,0.44-0.99,0.99v0.79c-2.4-0.21-4.6-1.15-6.36-2.61  l0.58-0.58c0.39-0.39,0.39-1.02,0-1.4c-0.39-0.39-1.02-0.39-1.4,0l-0.58,0.58c-1.49-1.75-2.48-3.95-2.71-6.36h0.89  c0.55,0,0.99-0.44,0.99-0.99s-0.44-0.99-0.99-0.99h-0.91c0.19-2.45,1.13-4.69,2.61-6.47l0.69,0.69c0.19,0.19,0.45,0.29,0.7,0.29  c0.25,0,0.51-0.1,0.7-0.29c0.39-0.39,0.39-1.02,0-1.4l-0.69-0.69c1.78-1.52,4.02-2.5,6.48-2.71v1.01c0,0.55,0.44,0.99,0.99,0.99  s0.99-0.44,0.99-0.99v-1.01c2.46,0.21,4.7,1.2,6.48,2.71L57.6,43.4c-0.39,0.39-0.39,1.02,0,1.4c0.19,0.19,0.45,0.29,0.7,0.29  c0.25,0,0.51-0.1,0.7-0.29l0.69-0.69c1.48,1.78,2.43,4.02,2.61,6.47H61.4c-0.55,0-0.99,0.44-0.99,0.99S60.85,52.57,61.4,52.57z   M38.1,46.97c-0.22,0.61-0.4,1.23-0.53,1.87h-4.08v-3.26h4.61V46.97z M45.05,38v-3.26h4.62V38H45.05z M7,6.52h5.08v3.05  c0,0.55,0.44,0.99,0.99,0.99c0.55,0,0.99-0.44,0.99-0.99V6.52h9.31v3.05c0,0.55,0.44,0.99,0.99,0.99c0.55,0,0.99-0.44,0.99-0.99  V6.52h9.31v3.05c0,0.55,0.44,0.99,0.99,0.99s0.99-0.44,0.99-0.99V6.52h9.31v3.05c0,0.55,0.44,0.99,0.99,0.99s0.99-0.44,0.99-0.99  V6.52h5.08c1.85,0,3.35,1.51,3.35,3.36v6.46H3.66V9.87C3.66,8.02,5.16,6.52,7,6.52z M3.66,52.02V18.32h52.71v20.85  c-1.45-0.66-3.04-1.06-4.72-1.16v-4.25c0-0.55-0.44-0.99-0.99-0.99h-6.6c-0.55,0-0.99,0.44-0.99,0.99V39c0,0.46,0.32,0.83,0.75,0.94  c-1.63,0.99-3.04,2.32-4.12,3.89c-0.17-0.13-0.37-0.22-0.6-0.22H32.5c-0.55,0-0.99,0.44-0.99,0.99v5.24c0,0.55,0.44,0.99,0.99,0.99  h4.85c-0.01,0.21-0.03,0.42-0.03,0.64c0,1.36,0.21,2.66,0.58,3.9H7C5.16,55.37,3.66,53.87,3.66,52.02z"
     id="path16" /><path
     d="M 58.355,40.26 V 17.33 c 0,0 0,0 0,0 0,0 0,0 0,0 V 9.87 c 0,-2.95 -2.39,-5.34 -5.33,-5.34 h -5.08 V 2.01 c 0,-0.55 -0.44,-0.99 -0.99,-0.99 -0.55,0 -0.99,0.44 -0.99,0.99 v 2.52 h -9.31 V 2.01 c 0,-0.55 -0.44,-0.99 -0.99,-0.99 -0.55,0 -0.99,0.44 -0.99,0.99 v 2.52 h -9.31 V 2.01 c 0,-0.55 -0.44,-0.99 -0.99,-0.99 -0.55,0 -0.99,0.44 -0.99,0.99 v 2.52 h -9.31 V 2.01 c 0,-0.55 -0.44,-0.99 -0.99,-0.99 -0.55,0 -0.99,0.44 -0.99,0.99 v 2.52 h -5.09 c -2.94,0 -5.33,2.4 -5.33,5.34 v 7.42 c 0,0.01 -0.01,0.02 -0.01,0.03 0,0.01 0.01,0.02 0.01,0.03 v 34.67 c 0,2.94 2.39,5.33 5.33,5.33 h 31.68 c 2.19,4.51 6.8,7.63 12.14,7.63 7.45,0 13.51,-6.06 13.51,-13.51 0,-4.66 -2.37,-8.78 -5.98,-11.21 z m 3.05,12.31 h 0.9 c -0.23,2.42 -1.21,4.61 -2.71,6.36 l -0.59,-0.57 c -0.39,-0.39 -1.02,-0.39 -1.4,0 -0.39,0.39 -0.39,1.02 0,1.4 l 0.58,0.58 c -1.76,1.46 -3.95,2.4 -6.36,2.61 v -0.79 c 0,-0.55 -0.44,-0.99 -0.99,-0.99 -0.55,0 -0.99,0.44 -0.99,0.99 v 0.79 c -2.4,-0.21 -4.6,-1.15 -6.36,-2.61 l 0.58,-0.58 c 0.39,-0.39 0.39,-1.02 0,-1.4 -0.39,-0.39 -1.02,-0.39 -1.4,0 l -0.58,0.58 c -1.49,-1.75 -2.48,-3.95 -2.71,-6.36 h 0.89 c 0.55,0 0.99,-0.44 0.99,-0.99 0,-0.55 -0.44,-0.99 -0.99,-0.99 h -0.91 c 0.19,-2.45 1.13,-4.69 2.61,-6.47 l 0.69,0.69 c 0.19,0.19 0.45,0.29 0.7,0.29 0.25,0 0.51,-0.1 0.7,-0.29 0.39,-0.39 0.39,-1.02 0,-1.4 l -0.69,-0.69 c 1.78,-1.52 4.02,-2.5 6.48,-2.71 v 1.01 c 0,0.55 0.44,0.99 0.99,0.99 0.55,0 0.99,-0.44 0.99,-0.99 v -1.01 c 2.46,0.21 4.7,1.2 6.48,2.71 l -0.7,0.67 c -0.39,0.39 -0.39,1.02 0,1.4 0.19,0.19 0.45,0.29 0.7,0.29 0.25,0 0.51,-0.1 0.7,-0.29 l 0.69,-0.69 c 1.48,1.78 2.43,4.02 2.61,6.47 h -0.9 c -0.55,0 -0.99,0.44 -0.99,0.99 0,0.55 0.44,1 0.99,1 z m -23.3,-5.6 c -0.22,0.61 -0.4,1.23 -0.53,1.87 h -4.08 v -3.26 h 4.61 z M 45.055,38 v -3.26 h 4.62 V 38 Z M 7.005,6.52 h 5.08 v 3.05 c 0,0.55 0.44,0.99 0.99,0.99 0.55,0 0.99,-0.44 0.99,-0.99 V 6.52 h 9.31 v 3.05 c 0,0.55 0.44,0.99 0.99,0.99 0.55,0 0.99,-0.44 0.99,-0.99 V 6.52 h 9.31 v 3.05 c 0,0.55 0.44,0.99 0.99,0.99 0.55,0 0.99,-0.44 0.99,-0.99 V 6.52 h 9.31 v 3.05 c 0,0.55 0.44,0.99 0.99,0.99 0.55,0 0.99,-0.44 0.99,-0.99 V 6.52 h 5.08 c 1.85,0 3.35,1.51 3.35,3.36 v 6.46 H 3.665 V 9.87 c 0,-1.85 1.5,-3.35 3.34,-3.35 z m -3.34,45.5 v -33.7 h 52.71 v 20.85 c -1.45,-0.66 -3.04,-1.06 -4.72,-1.16 v -4.25 c 0,-0.55 -0.44,-0.99 -0.99,-0.99 h -6.6 c -0.55,0 -0.99,0.44 -0.99,0.99 V 39 c 0,0.46 0.32,0.83 0.75,0.94 -1.63,0.99 -3.04,2.32 -4.12,3.89 -0.17,-0.13 -0.37,-0.22 -0.6,-0.22 h -6.6 c -0.55,0 -0.99,0.44 -0.99,0.99 v 5.24 c 0,0.55 0.44,0.99 0.99,0.99 h 4.85 c -0.01,0.21 -0.03,0.42 -0.03,0.64 0,1.36 0.21,2.66 0.58,3.9 h -30.9 c -1.84,0 -3.34,-1.5 -3.34,-3.35 z"
     id="path16-3"
     style="fill:#558f99;fill-opacity:1" /><path
     d="M51.82,51.12V44.1c0-0.55-0.44-0.99-0.99-0.99s-0.99,0.44-0.99,0.99v7.42c0,0.26,0.1,0.51,0.29,0.7l3.27,3.33  c0.19,0.2,0.45,0.3,0.71,0.3c0.25,0,0.5-0.1,0.7-0.29c0.39-0.38,0.4-1.01,0.01-1.4L51.82,51.12z"
     id="path18"
     style="fill:#558f99;fill-opacity:1" /></svg>
