<?xml version="1.0" encoding="UTF-8" standalone="no"?>
<svg
   width="1200pt"
   height="1200pt"
   version="1.1"
   viewBox="0 0 1200 1200"
   id="svg4"
   sodipodi:docname="giec.svg"
   inkscape:version="1.1.2 (0a00cf5339, 2022-02-04)"
   xmlns:inkscape="http://www.inkscape.org/namespaces/inkscape"
   xmlns:sodipodi="http://sodipodi.sourceforge.net/DTD/sodipodi-0.dtd"
   xmlns="http://www.w3.org/2000/svg"
   xmlns:svg="http://www.w3.org/2000/svg">
  <defs
     id="defs8" />
  <sodipodi:namedview
     id="namedview6"
     pagecolor="#ffffff"
     bordercolor="#666666"
     borderopacity="1.0"
     inkscape:pageshadow="2"
     inkscape:pageopacity="0.0"
     inkscape:pagecheckerboard="0"
     inkscape:document-units="pt"
     showgrid="false"
     inkscape:zoom="0.5275"
     inkscape:cx="800.94787"
     inkscape:cy="800.94787"
     inkscape:window-width="1920"
     inkscape:window-height="1016"
     inkscape:window-x="0"
     inkscape:window-y="27"
     inkscape:window-maximized="1"
     inkscape:current-layer="svg4" />
  <path
     d="m893.67 251.54c-10.406-7.918-22.004-7.5547-29.719-7.2852-1.8047 0.058594-3.7305 0.15234-5.668 0.035156-13.617-0.91797-26.059 8.6992-28.344 22.332-3.2344 19.316-2.9336 38.41-2.6445 56.875 0.28906 18.387 0.55859 35.531-2.5938 51.504-44.273-109.52-103.44-217.18-208.19-297.04-4.4023-3.3711-8.8984-7.1758-13.488-11.043-24.16-20.391-57.242-48.32-97.613-32.02-44.09 17.773-40.648 62.016-38.59 88.438 0.66016 8.4609 1.2852 16.453 0.75 22.617-10.176 117.48-61.262 215.06-141.5 326.57-13.723-45.941-28.48-93.223-82.191-127.5-8.168-5.2227-18.52-5.6211-27.059-1.0625-8.5508 4.5625-13.977 13.363-14.203 23.051-2.2031 94.707-36.375 174.4-71.184 247.92-24.801 52.375-41.078 102.18-49.77 152.25-13.695 78.902 10.066 167.62 65.191 243.42 60.711 83.465 149.54 139.02 243.69 152.41 10.66 1.4961 21.145-3.4648 26.719-12.645 5.5742-9.1797 5.1328-20.812-1.125-29.547-88.863-124.07-33.039-209.26 31.598-307.91 11.566-17.656 23.371-35.664 34.406-54.129 6.7227 18.973 7.2852 40.211 7.9609 65.844l0.1875 7.0234c0.30078 10.57 6.793 19.988 16.57 24.031 9.793 4.043 21.02 1.957 28.703-5.3164 56.617-53.625 95.727-123.7 123.08-220.54 1.8086-6.3984 2.6875-12.918 3.4648-18.656 0.39453-2.9453 0.91797-6.8359 1.5391-9.8281 3.0117 2.957 7.0664 8.4844 9.7344 12.129 2.8594 3.9141 5.6797 7.7188 8.543 11.113 109.48 129.52 136.15 277.27 81.555 451.64-0.85547 2.7344-2.5625 6.4805-4.3672 10.453-6.6875 14.707-20.605 45.305 3.9492 68.77 11.238 10.738 22.652 14.559 33.301 14.559 19.98 0 37.266-13.457 45.574-19.93 2.8633-2.2266 5.6094-4.4414 8.2969-6.1055 163.9-101.25 262.78-259.42 271.3-433.94 8.5156-174.6-74.531-341.7-227.87-458.49zm174.26 455.88c-7.6445 156.61-97.27 299.08-245.9 390.9-4.6797 2.8867-8.9453 6.2109-13.07 9.418-0.23047 0.1875-0.47266 0.37891-0.71875 0.56641 2.3164-5.0898 4.6797-10.359 6.457-16.039 59.688-190.63 28.805-359.63-91.785-502.32-2.1055-2.4883-4.1367-5.3047-6.2344-8.168-9.6211-13.141-26.27-35.875-53.961-35.875-4.9258 0-10.211 0.71875-15.855 2.3438-31.656 9.1094-35.746 39.457-37.941 55.77-0.58984 4.3594-1.1445 8.4844-1.9219 11.23-17.52 62.004-39.199 110.3-67.855 149.95-4.9102-26.504-15.598-52.656-39.969-77.277-6.1094-6.1641-14.82-9.0391-23.375-7.6016-8.5625 1.3906-15.922 6.8359-19.758 14.613-14.727 29.875-34.285 59.719-53.199 88.578-57.418 87.637-121.52 185.47-64.148 311.03-57.219-21.625-109.41-61.828-148.44-115.5-46.637-64.113-66.934-137.98-55.711-202.68 7.8438-45.223 22.691-90.512 45.398-138.46 30.047-63.453 59.652-131.42 71.289-210.51 10.738 18.02 16.965 38.902 24.031 62.57 4.8086 16.121 9.7891 32.801 16.676 50.113 3.5781 9.0156 11.738 15.379 21.344 16.676 9.5859 1.3203 19.164-2.6875 25.004-10.418 84.855-112.38 168.87-235.5 182.75-395.75 0.91406-10.547 0.089844-21.156-0.71484-31.395-2.2227-28.59-0.24609-32.328 5.1562-34.496 9.6406-3.8906 23.883 7.1758 42.934 23.254 5.293 4.4648 10.477 8.8281 15.559 12.703 111.14 84.727 167.2 207.34 211.23 327.22 3.1719 8.6289 10.531 15.027 19.512 16.973 8.9805 1.9336 18.328-0.84766 24.785-7.3789 42.895-43.5 42.098-94.117 41.457-134.8-0.066406-4.3359-0.12891-8.6016-0.15234-12.812 126.47 104.82 194.4 248.44 187.12 397.57z"
     id="path2"
     style="fill:#ff2a2a" />
</svg>
