<?xml version="1.0" encoding="UTF-8" standalone="no"?>
<svg
   width="1200pt"
   height="1200pt"
   version="1.1"
   viewBox="0 0 1200 1200"
   id="svg4"
   sodipodi:docname="insectes.svg"
   inkscape:version="1.1.2 (0a00cf5339, 2022-02-04)"
   xmlns:inkscape="http://www.inkscape.org/namespaces/inkscape"
   xmlns:sodipodi="http://sodipodi.sourceforge.net/DTD/sodipodi-0.dtd"
   xmlns="http://www.w3.org/2000/svg"
   xmlns:svg="http://www.w3.org/2000/svg">
  <defs
     id="defs8" />
  <sodipodi:namedview
     id="namedview6"
     pagecolor="#ffffff"
     bordercolor="#666666"
     borderopacity="1.0"
     inkscape:pageshadow="2"
     inkscape:pageopacity="0.0"
     inkscape:pagecheckerboard="0"
     inkscape:document-units="pt"
     showgrid="false"
     inkscape:zoom="0.5275"
     inkscape:cx="800.94787"
     inkscape:cy="800"
     inkscape:window-width="1920"
     inkscape:window-height="1043"
     inkscape:window-x="1920"
     inkscape:window-y="0"
     inkscape:window-maximized="1"
     inkscape:current-layer="svg4" />
  <path
     d="m578.81 765.91c-40.754 40.754-81.863 81.359-122.21 122.45-54.816 55.754-141.57 144.05-212.28 81.145-100.8-89.711 162.91-392.11 226.68-475.63 23.879 39.406 63.887 107.95 107.79 125.54v146.5zm42.359 0v-146.52c43.871-17.566 84.098-86.352 107.93-125.79 63 83.207 322.37 385.87 221.21 475.89-46.414 41.328-98.113 17.09-143.4-20.137-20.617-16.922-41.375-38.09-59.832-57.098-41.473-42.594-83.859-84.305-125.91-126.36zm-164.83-525.96c0 51.574 42.266 93.816 93.84 93.816h34.633v-182.33c0.23828-2.7852-0.023438-3.7422-0.50391-5.7852l-7.8477-29.734c-3.168-11.93-4.5859-13.922-12.289-23.305l-30.551-37.105c-5.9531-7.2461-16.703-8.3047-23.977-2.3516-7.2461 5.9766-8.2812 16.703-2.3281 23.977l34.801 42.289 7.0781 26.762c-51.191 0.52344-92.855 42.523-92.855 93.766zm158.86-89.137v182.98h34.633c51.551 0 93.816-42.266 93.816-93.816 0-51.168-41.617-93.168-92.641-93.816l6.9375-26.258 34.824-42.289c5.9531-7.2461 4.9219-18-2.3281-23.977-7.2734-5.9531-18.023-4.9219-23.977 2.3281l-30.047 36.48c-8.2305 9.9844-9.4062 11.062-12.695 23.449-2.6641 10.078-5.3047 20.16-7.9688 30.238-0.38672 1.2031-0.55469 2.8125-0.55469 4.6836zm-132.36 771.14c24.406 29.566 78.719 69.816 117.17 69.816 38.496 0 92.711-40.055 117.12-69.719 11.762 12.145 24.602 25.32 38.23 38.281l-16.055 59.977c-1.9922 8.9023-1.3438 16.801 3.2891 24.84l83.328 144.31c5.8555 10.105 18.816 13.559 28.895 7.6797 10.078-5.8555 13.535-18.793 7.6797-28.895l-81.312-140.79 9.6953-36.191c55.656 43.465 121.2 68.879 187.59 9.8398 134.09-119.38-142.44-435.46-222-541.41l104.14 69.48c7.9922 5.3281 13.703 9.2891 23.711 9.2891h217.01c11.688 0 21.191-9.5039 21.191-21.191s-9.5039-21.191-21.191-21.191h-214.18l-138.38-92.328v-19.273l63.551-44.039c9.5742-6.1211 15.312-16.246 15.312-27.672v-152.82l138.14-123c8.7344-7.7773 9.5039-21.145 1.7266-29.879-7.7773-8.7109-21.168-9.5039-29.879-1.7266l-141.41 125.9c-6.9844 6.0703-10.992 15.215-10.992 24.457v152.09c-52.32 38.496-60.145 56.93-129.43 56.93h-111.62c-48.672 0-89.93-30.551-129.41-56.93l-0.003906-152.12c0-9.1914-4.0312-18.383-10.992-24.457l-141.41-125.9c-8.7109-7.7773-22.105-6.9844-29.879 1.7266-7.7539 8.7617-6.9609 22.129 1.7734 29.906l138.14 123v152.79c0 11.398 5.7617 21.551 15.312 27.672l63.551 44.039v19.273l-138.38 92.328-214.2-0.003906c-11.688 0-21.191 9.5039-21.191 21.191 0 11.711 9.5039 21.191 21.191 21.191h217.01c10.105 0 15.91-4.0781 23.855-9.3828l104.73-69.887c-80.137 106.46-362.57 422.23-228.1 541.92 66.77 59.398 135 32.93 192.57-11.137l10.031 37.488-81.289 140.79c-5.8555 10.078-2.3984 23.039 7.7031 28.895 10.078 5.8555 23.039 2.3984 28.895-7.6797l82.488-142.82c4.6328-8.0625 6.793-16.848 4.1289-26.328l-16.246-60.672c13.781-12.746 26.672-25.73 38.383-37.656z"
     fill-rule="evenodd"
     id="path2"
     style="fill:#808080" />
  <path
     style="fill:#aa0000;stroke:#aa0000;stroke-width:44.25;stroke-linecap:butt;stroke-linejoin:miter;stroke-opacity:1;stroke-miterlimit:4;stroke-dasharray:none"
     d="M 1.8598656,1.2978576 1200.0479,1200.8663"
     id="path858" />
  <path
     style="fill:#aa0000;stroke:#aa0000;stroke-width:44.25;stroke-linecap:butt;stroke-linejoin:miter;stroke-miterlimit:4;stroke-dasharray:none;stroke-opacity:1"
     d="M 1198.6518,-3.6064761 0.46375817,1195.962"
     id="path858-3" />
</svg>
