<?xml version="1.0" encoding="UTF-8" standalone="no"?>
<svg
   width="1200pt"
   height="1200pt"
   version="1.1"
   viewBox="0 0 1200 1200"
   id="svg29921"
   sodipodi:docname="lait.svg"
   inkscape:version="1.2.2 (b0a8486541, 2022-12-01)"
   xmlns:inkscape="http://www.inkscape.org/namespaces/inkscape"
   xmlns:sodipodi="http://sodipodi.sourceforge.net/DTD/sodipodi-0.dtd"
   xmlns="http://www.w3.org/2000/svg"
   xmlns:svg="http://www.w3.org/2000/svg">
  <defs
     id="defs29925" />
  <sodipodi:namedview
     id="namedview29923"
     pagecolor="#ffffff"
     bordercolor="#666666"
     borderopacity="1.0"
     inkscape:showpageshadow="2"
     inkscape:pageopacity="0.0"
     inkscape:pagecheckerboard="0"
     inkscape:deskcolor="#d1d1d1"
     inkscape:document-units="pt"
     showgrid="false"
     inkscape:zoom="0.5425"
     inkscape:cx="800"
     inkscape:cy="806.45161"
     inkscape:window-width="1920"
     inkscape:window-height="1011"
     inkscape:window-x="0"
     inkscape:window-y="32"
     inkscape:window-maximized="1"
     inkscape:current-layer="g29919" />
  <g
     id="g29919">
    <rect
       style="fill:#ffffff;stroke:#e5d5ff;stroke-width:0.799372;stroke-linejoin:round"
       id="rect35952"
       width="666.40155"
       height="597.99982"
       x="271.60651"
       y="441.9035" />
    <path
       d="m960 980v-663.6c23.199-8.1992 40-30.199 40-56.398v-80c0-33-27-60-60-60h-680c-33 0-60 27-60 60v80c0 26 16.801 48 40 56.398v663.6c0 55.199 44.801 100 100 100h520c55.199 0 100-44.801 100-100zm-40-560h-640v-100h640zm-680-240c0-11 9-20 20-20h40v40c0 11 9 20 20 20s20-9 20-20v-40h80v40c0 11 9 20 20 20s20-9 20-20v-40h80v40c0 11 9 20 20 20s20-9 20-20v-40h80v40c0 11 9 20 20 20s20-9 20-20v-40h80v40c0 11 9 20 20 20s20-9 20-20v-40h60v40c0 11 9 20 20 20s20-9 20-20v-40h20c11 0 20 9 20 20v80c0 11-9 20-20 20h-680c-11 0-20-9-20-20zm40 800v-520h640v520c0 33-27 60-60 60h-520c-33 0-60-27-60-60z"
       id="path29917"
       style="fill:#808080" />
  </g>
</svg>
