<?xml version="1.0" encoding="UTF-8" standalone="no"?>
<svg
   width="1200pt"
   height="1200pt"
   version="1.1"
   viewBox="0 0 1200 1200"
   id="svg8"
   sodipodi:docname="lubri.svg"
   inkscape:version="1.1.2 (0a00cf5339, 2022-02-04)"
   xmlns:inkscape="http://www.inkscape.org/namespaces/inkscape"
   xmlns:sodipodi="http://sodipodi.sourceforge.net/DTD/sodipodi-0.dtd"
   xmlns="http://www.w3.org/2000/svg"
   xmlns:svg="http://www.w3.org/2000/svg">
  <defs
     id="defs12" />
  <sodipodi:namedview
     id="namedview10"
     pagecolor="#ffffff"
     bordercolor="#666666"
     borderopacity="1.0"
     inkscape:pageshadow="2"
     inkscape:pageopacity="0.0"
     inkscape:pagecheckerboard="0"
     inkscape:document-units="pt"
     showgrid="false"
     inkscape:zoom="0.5275"
     inkscape:cx="800.94787"
     inkscape:cy="800"
     inkscape:window-width="1920"
     inkscape:window-height="1043"
     inkscape:window-x="1920"
     inkscape:window-y="0"
     inkscape:window-maximized="1"
     inkscape:current-layer="svg8" />
  <g
     id="g6">
    <path
       d="m718.8 90c-27.602-38.398-72-60-118.8-60s-91.199 22.801-118.8 60c-111.6 152.4-297.6 440.4-297.6 663.6 0 229.2 187.2 416.4 416.4 416.4 229.2 0 416.4-187.2 416.4-416.4 0.003907-222-186-511.2-297.59-663.6zm-118.8 986.4c-178.8 0-322.8-145.2-322.8-322.8 0-201.6 190.8-487.2 279.6-608.4 10.801-14.398 27.602-22.801 43.199-22.801 16.801 0 32.398 7.1992 43.199 22.801 88.801 121.2 279.6 406.8 279.6 608.4 0 178.8-144 322.8-322.8 322.8z"
       id="path2" />
    <path
       d="m536.4 778.8c-31.199-70.801-39.602-166.8-39.602-168-1.1992-18-15.602-33.602-33.602-36-18-2.3984-36 8.3984-43.199 25.199-22.801 60-34.801 111.6-34.801 153.6 0 117.6 96 213.6 213.6 213.6 16.801 0 31.199-10.801 37.199-26.398 6-15.602 1.1992-33.602-12-44.398 1.2031-0.007812-57.598-49.207-87.598-117.61z"
       id="path4" />
  </g>
</svg>
