<?xml version="1.0" encoding="UTF-8" standalone="no"?>
<svg
   width="1200pt"
   height="1200pt"
   version="1.1"
   viewBox="0 0 1200 1200"
   id="svg4"
   sodipodi:docname="mamm.svg"
   inkscape:version="1.1.2 (0a00cf5339, 2022-02-04)"
   xmlns:inkscape="http://www.inkscape.org/namespaces/inkscape"
   xmlns:sodipodi="http://sodipodi.sourceforge.net/DTD/sodipodi-0.dtd"
   xmlns="http://www.w3.org/2000/svg"
   xmlns:svg="http://www.w3.org/2000/svg">
  <defs
     id="defs8" />
  <sodipodi:namedview
     id="namedview6"
     pagecolor="#ffffff"
     bordercolor="#666666"
     borderopacity="1.0"
     inkscape:pageshadow="2"
     inkscape:pageopacity="0.0"
     inkscape:pagecheckerboard="0"
     inkscape:document-units="pt"
     showgrid="false"
     inkscape:zoom="0.5275"
     inkscape:cx="800.94787"
     inkscape:cy="800.94787"
     inkscape:window-width="1920"
     inkscape:window-height="1016"
     inkscape:window-x="0"
     inkscape:window-y="27"
     inkscape:window-maximized="1"
     inkscape:current-layer="svg4" />
  <path
     d="m1145.2 968.67-113.67-292.73c68.906-108.75 107.58-242.11 107.58-382.27v-2.8125c-0.70312-160.31-131.95-290.86-292.73-290.86h-492.66c-160.78 0-292.03 130.55-292.73 290.86v2.8125c0 152.81 45.938 299.3 129.61 414.84l-101.02 260.16c-23.438 60.234 6.5625 128.44 66.797 151.64 29.297 11.25 61.172 10.547 89.766-2.1094s50.625-35.625 62.109-64.922l2.5781-6.7969v36.328c0 64.688 52.5 117.19 117.19 117.19s117.19-52.5 117.19-117.19v-154.92c18.047 2.1094 36.328 3.2812 54.609 3.2812 25.781 0 51.562-2.1094 76.875-6.5625v158.2c0 64.688 52.5 117.19 117.19 117.19s117.19-52.5 117.19-117.19v-67.969l15 38.672c11.25 29.297 33.281 52.266 62.109 64.922 15.234 6.5625 31.172 10.078 47.344 10.078 14.297 0 28.594-2.5781 42.422-7.9688 29.297-11.25 52.266-33.281 64.922-62.109 12.891-28.594 13.594-60.469 2.3438-89.766zm-674.77 114.14c0 23.203-18.984 42.188-42.188 42.188s-42.188-18.984-42.188-42.188v-203.91c27.422 14.062 55.547 25.312 84.609 33.75v170.16zm366.09-286.64v286.64c0 23.203-18.984 42.188-42.188 42.188s-42.188-18.984-42.188-42.188v-204.84c0-11.719-5.3906-22.734-14.766-29.766-6.5625-4.9219-14.531-7.7344-22.734-7.7344-3.2812 0-6.7969 0.46875-10.078 1.4062-33.984 9.6094-69.141 14.297-104.3 14.297-76.875 0-153.28-23.438-220.55-67.734-9.375-6.3281-21.328-7.7344-32.109-4.4531-10.781 3.5156-19.453 11.484-23.438 22.266l-85.547 220.08c-3.9844 10.547-11.953 18.75-22.266 23.438-10.312 4.4531-21.797 4.9219-32.344 0.70312-21.797-8.4375-32.578-33.047-24.141-54.609l108.52-279.61c4.6875-12.188 2.8125-26.25-5.3906-36.562-82.031-105-127.03-241.88-127.03-386.02v-2.5781c0.46875-119.06 98.203-216.09 217.73-216.09h492.66c119.53 0 217.27 97.031 217.73 216.09v2.5781c0 191.95-79.688 368.67-213.05 472.97-9.375 7.2656-14.531 18.047-14.531 29.531zm237.89 232.03c-4.4531 10.312-12.891 18.281-23.438 22.266s-22.031 3.75-32.344-0.70312-18.281-12.891-22.266-23.438l-82.969-213.98c23.438-19.688 45.234-41.484 65.391-65.156l96.328 248.44c4.2188 10.781 3.9844 22.266-0.70312 32.578z"
     id="path2"
     style="fill:#0000ff" />
</svg>
