<?xml version="1.0" encoding="UTF-8" standalone="no"?>
<svg
   width="1200pt"
   height="1200pt"
   version="1.1"
   viewBox="0 0 1200 1200"
   id="svg4"
   sodipodi:docname="metrites.svg"
   inkscape:version="1.1.2 (0a00cf5339, 2022-02-04)"
   xmlns:inkscape="http://www.inkscape.org/namespaces/inkscape"
   xmlns:sodipodi="http://sodipodi.sourceforge.net/DTD/sodipodi-0.dtd"
   xmlns="http://www.w3.org/2000/svg"
   xmlns:svg="http://www.w3.org/2000/svg">
  <defs
     id="defs8" />
  <sodipodi:namedview
     id="namedview6"
     pagecolor="#ffffff"
     bordercolor="#666666"
     borderopacity="1.0"
     inkscape:pageshadow="2"
     inkscape:pageopacity="0.0"
     inkscape:pagecheckerboard="0"
     inkscape:document-units="pt"
     showgrid="false"
     inkscape:zoom="0.093389627"
     inkscape:cx="-3356.9039"
     inkscape:cy="-513.97571"
     inkscape:window-width="1920"
     inkscape:window-height="1043"
     inkscape:window-x="1920"
     inkscape:window-y="0"
     inkscape:window-maximized="1"
     inkscape:current-layer="svg4" />
  <path
     d="m 1164.1,369.19 c -6.9492,-24.254 22.477,-96.996 22.477,-122.98 0,-25.969 15.648,-133.33 -83.148,-148.92 -98.652,-15.59 -159.25,114.3 -173.14,136.81 -13.848,22.5 -69.254,114.31 -145.49,74.473 -47.578,-24.887 -72.77867,51.60266 -125.664,234.723 -22.285,-3.0352 -31.8328,1.44394 -55.1958,4.68615 C 514.86926,311.20395 464.097,284.12691 417.285,308.57291 c -76.176,39.84 -131.62,-51.973 -145.45,-74.473 -13.836,-22.508 -74.461,-152.4 -173.16,-136.81 -98.711,15.59 -83.125,122.95 -83.125,148.92 0,25.992 29.426,98.723 22.5,122.98 -6.9258,24.254 -24.254,38.09 -25.98,51.961 -1.7266,13.859 24.254,25.98 50.242,29.426 8.9883,1.1992 19.188,-2.1602 29.305,-6.9961 -4.5859,23.82 0.35937,53.52 16.105,81.492 27.406,48.562 76.043,73.008 108.67,54.637 32.594,-18.371 36.863,-72.637 9.4922,-121.21 -21.406,-37.895 -55.645,-60.828 -85.176,-60.48 12.793,-23.387 22.066,-50.449 -7.4141,-65.195 -31.176,-15.59 -57.156,-67.547 -45,-117.78 12.121,-50.195 34.621,-62.34 67.512,-32.891 32.93,29.461 77.941,161.06 140.28,188.77 62.352,27.73 91.801,45.023 103.92,110.83 12.109,65.82 31.176,176.65 51.961,211.31 20.785,34.57 31.176,98.676 31.176,98.676 0,0 -34.656,6.9375 -39.84,41.566 -5.1953,34.668 45.035,119.55 43.32,152.44 -1.7539,32.85499 19.031,107.34999 22.5,121.22999 3.4805,13.836 90.984,15.539 90.984,15.539 0,0 89.473,-1.7031 92.953,-15.539 3.4688,-13.871 24.277,-88.367 22.523,-121.22999 -1.7383,-32.879 48.457,-117.77 43.32,-152.44 -5.2578,-34.633 -39.875,-41.566 -39.875,-41.566 0,0 10.379,-64.105 31.188,-98.676 20.785,-34.668 39.863,-145.5 51.961,-211.31 12.086,-65.797 41.555,-83.102 103.89,-110.83 62.352,-27.707 107.36,-159.31 140.28,-188.77 32.93,-29.449 55.402,-17.305 67.488,32.891 12.156,50.242 -13.777,102.2 -44.965,117.78 -29.398,14.711 -20.23,41.746 -7.4766,65.137 -29.426,-0.10938 -63.383,22.801 -84.719,60.516 -27.348,48.562 -23.09,102.82 9.5156,121.2 32.605,18.383 81.266,-6.0586 108.67,-54.625 15.695,-27.863 20.676,-57.469 16.152,-81.227 9.9844,4.6797 20.004,7.9336 28.859,6.7578 25.922,-3.4453 51.961,-15.562 50.207,-29.426 -1.7812,-13.879 -19.051,-27.715 -25.996,-51.969 z m -477.29995,43.92182 c -36.62047,46.20116 -72.46685,107.16233 -82.86085,134.87033 -10.391,27.695 25.7468,71.51285 24.0078,159.84385 -1.7266,88.273 -13.859,135.1 -13.859,135.1 0,0 -12.637,14.711 -26.027,0 0,0 -12.133,-46.812 -13.859,-135.1 C 572.4754,619.494 539.52097,633.47452 529.11797,605.78452 518.72697,578.07752 515.331,441.126 494.546,420.346 c -20.797,-20.773 -43.32,-32.93 -83.137,-39.84 59.988,-15.254 98.42748,1177.2493 379.31,0 -39.816,6.9258 -49.25406,-24.25289 -70.03906,-3.47889 z"
     id="path2"
     sodipodi:nodetypes="csccccccccscccccccccccccccccccccccccccccccccccccccccccccccccc" />
</svg>
