<?xml version="1.0" encoding="UTF-8" standalone="no"?>
<svg
   data-name="Layer 1"
   viewBox="0 0 64 64"
   x="0px"
   y="0px"
   version="1.1"
   id="svg18"
   sodipodi:docname="mineraux.svg"
   inkscape:version="1.1.2 (0a00cf5339, 2022-02-04)"
   xmlns:inkscape="http://www.inkscape.org/namespaces/inkscape"
   xmlns:sodipodi="http://sodipodi.sourceforge.net/DTD/sodipodi-0.dtd"
   xmlns="http://www.w3.org/2000/svg"
   xmlns:svg="http://www.w3.org/2000/svg">
  <defs
     id="defs22" />
  <sodipodi:namedview
     id="namedview20"
     pagecolor="#ffffff"
     bordercolor="#666666"
     borderopacity="1.0"
     inkscape:pageshadow="2"
     inkscape:pageopacity="0.0"
     inkscape:pagecheckerboard="0"
     showgrid="false"
     inkscape:zoom="13.1875"
     inkscape:cx="32.037915"
     inkscape:cy="32.037915"
     inkscape:window-width="1920"
     inkscape:window-height="1016"
     inkscape:window-x="0"
     inkscape:window-y="27"
     inkscape:window-maximized="1"
     inkscape:current-layer="svg18" />
  <path
     d="M42.67,36.31a1,1,0,0,0-.8-.59L27.87,34a1,1,0,0,0-.88.34L18.24,44.64a1,1,0,0,0-.17,1l5.25,13.72a1,1,0,0,0,.93.64h14a1,1,0,0,0,.76-.35l8.75-10.29a1,1,0,0,0,.16-1ZM28,53a3,3,0,1,1,3-3A3,3,0,0,1,28,53Zm5-9a2,2,0,1,1,2-2A2,2,0,0,1,33,44Zm5,9a2,2,0,1,1,2-2A2,2,0,0,1,38,53Z"
     id="path2"
     style="fill:#666666;fill-opacity:1" />
  <rect
     x="31"
     y="4"
     width="23"
     height="2"
     id="rect4"
     style="fill:#666666;fill-opacity:1" />
  <rect
     x="35"
     y="8"
     width="23"
     height="2"
     id="rect6"
     style="fill:#666666;fill-opacity:1" />
  <rect
     x="39"
     y="12"
     width="23"
     height="2"
     id="rect8"
     style="fill:#666666;fill-opacity:1" />
  <rect
     x="45"
     y="34"
     width="9"
     height="2"
     id="rect10"
     style="fill:#666666;fill-opacity:1" />
  <rect
     x="49"
     y="38"
     width="9"
     height="2"
     id="rect12"
     style="fill:#666666;fill-opacity:1" />
  <rect
     x="53"
     y="42"
     width="9"
     height="2"
     id="rect14"
     style="fill:#666666;fill-opacity:1" />
  <path
     d="M21.08,36a1,1,0,0,0,.51-.14L33.21,29a1,1,0,0,0,.49-.76L35,14.64a1,1,0,0,0-.22-.72L27,4.37A1,1,0,0,0,26.25,4H10.75a1,1,0,0,0-.82.42L2.18,15.33a1,1,0,0,0-.15.83l3.88,15a1,1,0,0,0,.69.71L20.81,36A.84.84,0,0,0,21.08,36ZM27,17a3,3,0,1,1-3,3A3,3,0,0,1,27,17ZM20,9a3,3,0,1,1-3,3A3,3,0,0,1,20,9ZM11,20a3,3,0,1,1,3-3A3,3,0,0,1,11,20Zm3,6a4,4,0,1,1,4,4A4,4,0,0,1,14,26Z"
     id="path16"
     style="fill:#666666;fill-opacity:1" />
</svg>
