<?xml version="1.0" encoding="UTF-8" standalone="no"?>
<svg
   width="1200pt"
   height="1200pt"
   version="1.1"
   viewBox="0 0 1200 1200"
   id="svg24"
   sodipodi:docname="oeil.svg"
   inkscape:version="1.1.2 (0a00cf5339, 2022-02-04)"
   xmlns:inkscape="http://www.inkscape.org/namespaces/inkscape"
   xmlns:sodipodi="http://sodipodi.sourceforge.net/DTD/sodipodi-0.dtd"
   xmlns="http://www.w3.org/2000/svg"
   xmlns:svg="http://www.w3.org/2000/svg">
  <defs
     id="defs28" />
  <sodipodi:namedview
     id="namedview26"
     pagecolor="#ffffff"
     bordercolor="#666666"
     borderopacity="1.0"
     inkscape:pageshadow="2"
     inkscape:pageopacity="0.0"
     inkscape:pagecheckerboard="0"
     inkscape:document-units="pt"
     showgrid="false"
     inkscape:zoom="0.5275"
     inkscape:cx="800.94787"
     inkscape:cy="800.94787"
     inkscape:window-width="1920"
     inkscape:window-height="1016"
     inkscape:window-x="0"
     inkscape:window-y="27"
     inkscape:window-maximized="1"
     inkscape:current-layer="g22" />
  <g
     id="g22">
    <path
       d="m 623.53,585.6 -15.719,21.574 h 9.9844 l 2.1953,-3.793 c 1.7656,1.1641 3.3477,2.5547 5.0625,3.793 h 15.348 l -5.4258,7.5117 c 4.4414,3.793 8.6992,7.8008 12.695,12.059 l -51.949,43.57 c -0.17969,-0.17969 -0.39453,-0.30078 -0.57422,-0.48047 l -19.957,27.637 72.551,-48.59 10.848,-9.0977 c 0.30078,0.40625 0.55078,0.85156 0.83984,1.2617 l 14.258,-9.5391 c -13.434,-18.477 -30.523,-34.086 -50.156,-45.906 z"
       id="path2" />
    <path
       d="m 676.87,671.09 -63.926,23.23 c -0.20312,-0.42187 -0.48047,-0.78125 -0.68359,-1.1992 l -27.613,18.492 c -2.8906,1.9336 -6.1914,2.8789 -9.4688,2.8789 -4.4766,0 -8.9297,-1.7773 -12.238,-5.1953 -5.7227,-5.9297 -6.3711,-15.098 -1.5586,-21.77 l 45.742,-63.336 c -5.7852,-0.22656 -10.98,-3.4688 -13.922,-8.4609 l -21.938,37.98 c -3.8281,-1.7266 -7.7891,-3.168 -11.891,-4.3203 l 11.809,-66.898 c 9.3359,2.1953 18.215,5.4727 26.797,9.2773 l 10.414,-14.316 c -21.898,-10.32 -46.332,-16.141 -72.121,-16.141 -93.695,0 -169.92,76.223 -169.92,169.92 0,93.695 76.234,169.93 169.92,169.93 88.621,0 161.52,-68.207 169.19,-154.87 l -17.102,-2.8906 c -0.85156,11.051 -2.6406,21.852 -5.7461,32.113 l -63.887,-23.293 c 1.0312,-4.0547 1.8594,-8.1836 2.2812,-12.457 l 46.043,0.0234 -22.367,-3.7812 c -7.4531,-1.2461 -13.262,-6.5039 -15.613,-13.246 h -8.0625 c -0.42187,-4.2617 -1.2461,-8.3984 -2.2695,-12.469 l 12.07,-4.3789 c 3.457,-5.8086 9.6836,-9.7422 16.859,-9.875 l 10.848,-0.19141 24.133,-8.7734 c 0.81641,2.6992 1.2852,5.5312 1.9453,8.3047 l 17.676,-0.3125 c -3.8398,-17.617 -10.523,-34.152 -19.355,-49.262 l -14.102,9.4453 c 2.9961,5.082 5.707,10.363 8.0586,15.836 z m -224.2,-67.719 33.973,58.848 c -3.4219,2.4727 -6.6836,5.1602 -9.707,8.1016 l -51.949,-43.598 c 8.2812,-8.8203 17.531,-16.691 27.684,-23.352 z m -38.605,36.371 51.898,43.559 c -2.3633,3.4805 -4.4141,7.1758 -6.2539,10.992 l -63.926,-23.27 c 4.8203,-11.203 11.047,-21.633 18.281,-31.281 z m -24.094,47.27 63.91,23.258 c -1.0312,4.0547 -1.8477,8.1836 -2.2695,12.445 h -67.777 c 0.67578,-12.328 2.6914,-24.305 6.1367,-35.703 z m -6.1445,52.715 h 67.777 c 0.42188,4.2617 1.2461,8.3867 2.2695,12.445 l -63.926,23.258 c -3.4336,-11.402 -5.4375,-23.379 -6.1211,-35.703 z m 30.227,82.957 c -7.2461,-9.6484 -13.465,-20.062 -18.277,-31.273 l 63.926,-23.258 c 1.8359,3.8164 3.8867,7.5117 6.2539,10.992 z m 10.91,13.031 51.949,-43.57 c 3.0234,2.9531 6.2773,5.6406 9.707,8.1133 l -33.973,58.824 c -10.152,-6.6758 -19.406,-14.547 -27.684,-23.367 z m 76.426,44.258 c -11.941,-2.7969 -23.328,-6.9961 -34.008,-12.422 l 33.949,-58.777 c 3.8164,1.7266 7.7773,3.168 11.867,4.3203 z m -0.0352,-226.27 -33.949,-58.801 c 10.691,-5.4258 22.078,-9.625 34.02,-12.422 l 11.797,66.91 c -4.0781,1.1445 -8.0391,2.5859 -11.867,4.3125 z m 34.945,230.45 c -6.1562,0 -12.191,-0.46875 -18.168,-1.1758 l 11.82,-66.949 c 2.1016,0.15625 4.2109,0.32422 6.3359,0.32422 2.125,0 4.2109,-0.16797 6.2891,-0.3125 l 11.785,66.949 c -5.918,0.70703 -11.93,1.1641 -18.062,1.1641 z m 6.3359,-237.7 c -2.1016,-0.15625 -4.1992,-0.32422 -6.3242,-0.32422 -2.125,0 -4.2227,0.16797 -6.3125,0.3125 l -11.797,-66.961 c 5.9531,-0.70703 11.977,-1.1758 18.121,-1.1758 6.1562,0 12.191,0.46875 18.145,1.1758 z m 28.5,233.54 -11.762,-66.887 c 4.0938,-1.1523 8.0508,-2.5781 11.867,-4.3086 l 33.91,58.789 c -10.688,5.4219 -22.062,9.6094 -34.016,12.406 z m 48.766,-20.879 -33.938,-58.836 c 3.4219,-2.4727 6.6836,-5.1484 9.707,-8.0898 l 51.91,43.609 c -8.2734,8.7969 -17.527,16.668 -27.68,23.316 z m 56.906,-67.621 c -4.8242,11.207 -11.062,21.625 -18.289,31.262 l -51.875,-43.57 c 2.3633,-3.4805 4.4297,-7.1641 6.2773,-10.98 z"
       id="path4"
       style="fill:#0000ff" />
    <path
       d="m 687.3,722.8 18.684,3.1562 c -0.10938,-3.625 -0.21484,-7.2461 -0.55078,-10.812 l -17.438,0.3125 c 0.25391,2.4609 0.68359,4.8594 0.81641,7.3438 z"
       id="path6" />
    <path
       d="m 1058.3,724.51 c 3.6133,2.1484 8.2578,1.332 10.934,-1.9336 2.6641,-3.2539 2.543,-7.9805 -0.2891,-11.09 -3.7578,-4.1523 -37.078,-40.32 -89.47296,-85.992 l -84.227,15.215 c 93.383,42.738 161.59996,82.938 163.04996,83.801 z"
       id="path8" />
    <path
       d="m 809.79,501.66 -75.098,74.844 2.8203,1.2344 c 0.37109,0.16797 0.67188,0.43359 1.0195,0.625 9.0859,3 18.133,6.0859 27.133,9.2891 3.2148,5.125 6.2539,10.355 9.1445,15.707 l 104.23,-56.855 c -21.887,-15.418 -44.988,-30.602 -69.25,-44.844 z"
       id="path10" />
    <path
       d="m 1054.5,594.67 -92.473,-74.086 -248.8,135.72 z"
       id="path12"
       style="fill:#800000" />
    <path
       d="m 1069.2,739.79 c -2.8086,-3.3125 -7.6445,-3.9844 -11.23,-1.5703 -1.8828,1.2734 -117.05,77.914 -253.69,138.05 17.746,-32.699 29.688,-68.988 34.43,-107.48 l -33.758,-5.6992 c -6.0469,51.121 -26.219,97.98 -56.734,136.34 -72.348,27.758 -147.13,47.879 -211.89,47.879 -66.215,0 -141.49,-21.086 -213.43,-49.824 -35.855,-45.926 -57.301,-103.62 -57.301,-166.26 0,-51.984 14.746,-100.56 40.246,-141.84 76.98,-28.535 159,-50.23 230.48,-50.23 29.23,0 60.539,3.7812 92.699,10.031 l 73.066,-100.32 c -53.641,-20.809 -109.71,-34.043 -165.76,-34.043 -136.51,0 -270.42,80.855 -358.71,148.7 -95.219,73.164 -159.41,147.39 -160.04,148.14 -2.7461,3.1797 -2.7461,7.8945 -0.01172,11.074 1.668,1.957 4.0469,2.9766 6.457,2.9766 1.5469,0 3.1094,-0.42188 4.5,-1.2852 0.66016,-0.40625 15.719,-9.707 40.957,-23.914 3.8047,9.0703 7.8711,21.191 7.8711,30.719 0,10.453 -4.8125,23.867 -8.9023,33.18 -24.383,-15.527 -38.891,-25.633 -39.539,-26.09 -3.5273,-2.4844 -8.3633,-1.9219 -11.258,1.3086 -2.8672,3.2383 -2.8555,8.1016 0.03516,11.328 9.9375,11.066 235.02,258.93 481.34,282.66 12.238,1.5 24.672,2.3633 37.297,2.3633 13.477,0 26.711,-0.9727 39.73,-2.6758 122.95,-12.828 243.19,-81.492 325.77,-140.18 98.67596,-70.129 166.38996,-141.29 167.05996,-142 2.9766,-3.1445 3.1211,-8.0391 0.3243,-11.34 z M 97.57,782.532 c 5.125,-10.801 13.777,-31.922 13.777,-51.312 0,-17.258 -6.8047,-35.699 -11.914,-47.195 41.062,-22.117 96.648,-50.09 158.06,-75.59 -16.621,37.598 -25.922,79.117 -25.922,122.79 0,51.336 12.805,99.707 35.316,142.19 -66.105,-30.383 -126.06,-64.484 -169.32,-90.875 z"
       id="path14"
       style="fill:#483e37" />
    <path
       d="m 830.61,652.39 -33.625,6.0703 c 3.168,11.305 5.6172,22.922 7.3086,34.754 l 34.234,-0.61328 c -1.7773,-13.691 -4.3906,-27.117 -7.918,-40.211 z"
       id="path16" />
    <path
       d="m 902.34,759.13 48.383,-48.398 -302.66,5.4375 z"
       id="path18"
       style="fill:#800000" />
    <path
       d="m 745.74,361.39 30.109,15.051 -168.04,230.73 h 32.59 l -65.207,90.301 155.52,-104.15 -25.715,-11.242 196.25,-195.6 -37.617,-15.059 278.41,-255.82 -170.59,-30.109 z"
       id="path20"
       style="fill:#800000" />
  </g>
</svg>
