<?xml version="1.0" encoding="UTF-8" standalone="no"?>
<svg
   width="1200pt"
   height="1200pt"
   version="1.1"
   viewBox="0 0 1200 1200"
   id="svg29921"
   sodipodi:docname="organe.svg"
   inkscape:version="1.2.2 (b0a8486541, 2022-12-01)"
   xmlns:inkscape="http://www.inkscape.org/namespaces/inkscape"
   xmlns:sodipodi="http://sodipodi.sourceforge.net/DTD/sodipodi-0.dtd"
   xmlns="http://www.w3.org/2000/svg"
   xmlns:svg="http://www.w3.org/2000/svg">
  <defs
     id="defs29925" />
  <sodipodi:namedview
     id="namedview29923"
     pagecolor="#ffffff"
     bordercolor="#666666"
     borderopacity="1.0"
     inkscape:showpageshadow="2"
     inkscape:pageopacity="0.0"
     inkscape:pagecheckerboard="0"
     inkscape:deskcolor="#d1d1d1"
     inkscape:document-units="pt"
     showgrid="false"
     inkscape:zoom="0.5425"
     inkscape:cx="800"
     inkscape:cy="802.76498"
     inkscape:window-width="1920"
     inkscape:window-height="1011"
     inkscape:window-x="0"
     inkscape:window-y="32"
     inkscape:window-maximized="1"
     inkscape:current-layer="g29919" />
  <g
     id="g29919">
    <path
       d="M 960,980 V 316.4 c 23.199,-8.1992 40,-30.199 40,-56.398 v -80 c 0,-33 -27,-60 -60,-60 H 260 c -33,0 -60,27 -60,60 v 80 c 0,26 16.801,48 40,56.398 V 980 c 0,55.199 44.801,100 100,100 h 520 c 55.199,0 100,-44.801 100,-100 z M 280,320 H 920 M 240,180 c 0,-11 9,-20 20,-20 h 40 v 40 c 0,11 9,20 20,20 11,0 20,-9 20,-20 v -40 h 80 v 40 c 0,11 9,20 20,20 11,0 20,-9 20,-20 v -40 h 80 v 40 c 0,11 9,20 20,20 11,0 20,-9 20,-20 v -40 h 80 v 40 c 0,11 9,20 20,20 11,0 20,-9 20,-20 v -40 h 80 v 40 c 0,11 9,20 20,20 11,0 20,-9 20,-20 v -40 h 60 v 40 c 0,11 9,20 20,20 11,0 20,-9 20,-20 v -40 h 20 c 11,0 20,9 20,20 v 80 c 0,11 -9,20 -20,20 H 260 c -11,0 -20,-9 -20,-20 z m 40,800 -0.42216,-657.75556 643.17035,0.20475 L 920,980 c -0.13792,32.9997 -27,60 -60,60 H 340 c -33,0 -60,-27 -60,-60 z"
       id="path29917"
       sodipodi:nodetypes="scsssssscssssccsscsssccsssccsssccsssccsssccssscssssssssccssss" />
    <g
       id="g33049"
       transform="matrix(0.51548844,0,0,0.51548844,305.0172,521.4616)"
       style="stroke-width:1.93991">
      <path
         d="M 1090.3,258.52 H 626.94 c -5.9062,0 -11.719,1.5938 -16.781,4.5 7.6406,11.719 13.031,25.031 14.719,39.797 l 35.156,309.98 c 2.5312,22.312 -0.98438,44.203 -9.2344,63.938 9.375,4.4531 20.438,4.7344 29.812,0.1875 l 165.52,-80.344 c 43.5,-21.094 77.484,-59.391 93.281,-105.19 l 15.75,-45.938 c 8.25,-23.672 24.422,-43.781 45.562,-56.719 l 107.62,-66.047 c 16.547,-10.031 18.797,-26.625 15.375,-38.812 -3.4219,-12.281 -13.969,-25.359 -33.375,-25.359 z"
         id="path33045"
         style="stroke-width:1.93991" />
      <path
         d="m 587.53,307.03 c -3.1406,-27.609 -26.484,-48.469 -54.281,-48.469 h -91.312 c -202.31,0 -366.94,164.63 -366.94,366.94 v 285.42 c 0,11.578 6.0938,21.656 16.266,26.953 10.5,5.4375 22.594,4.6406 32.438,-2.2031 141.28,-98.438 337.4,-182.21 441.74,-223.4 38.344,-15.141 61.875,-54.328 57.234,-95.297 l -35.156,-309.98 z m -210.28,53.062 c -122.76,29.906 -208.5,139.08 -208.5,265.45 0,10.359 -8.3906,18.75 -18.75,18.75 -10.3594,0 -18.75,-8.3906 -18.75,-18.75 0,-143.72 97.5,-267.84 237.1,-301.87 10.078,-2.3906 20.203,3.75 22.641,13.781 2.4375,10.078 -3.7031,20.203 -13.781,22.641 z"
         id="path33047"
         style="stroke-width:1.93991" />
    </g>
  </g>
</svg>
