<?xml version="1.0" encoding="UTF-8" standalone="no"?>
<svg
   width="1200pt"
   height="1200pt"
   version="1.1"
   viewBox="0 0 1200 1200"
   id="svg18"
   sodipodi:docname="ovules.svg"
   inkscape:version="1.1.2 (0a00cf5339, 2022-02-04)"
   xmlns:inkscape="http://www.inkscape.org/namespaces/inkscape"
   xmlns:sodipodi="http://sodipodi.sourceforge.net/DTD/sodipodi-0.dtd"
   xmlns="http://www.w3.org/2000/svg"
   xmlns:svg="http://www.w3.org/2000/svg">
  <defs
     id="defs22" />
  <sodipodi:namedview
     id="namedview20"
     pagecolor="#ffffff"
     bordercolor="#666666"
     borderopacity="1.0"
     inkscape:pageshadow="2"
     inkscape:pageopacity="0.0"
     inkscape:pagecheckerboard="0"
     inkscape:document-units="pt"
     showgrid="false"
     inkscape:zoom="0.5275"
     inkscape:cx="800.94787"
     inkscape:cy="800"
     inkscape:window-width="1920"
     inkscape:window-height="1043"
     inkscape:window-x="1920"
     inkscape:window-y="0"
     inkscape:window-maximized="1"
     inkscape:current-layer="svg18" />
  <g
     id="g16">
    <path
       d="m320.87 292.5c-69.266 0-117.87 109.29-117.87 168.47 0 64.805 52.875 117.53 117.87 117.53 64.992 0 117.87-52.723 117.87-117.53 0-59.18-48.602-168.47-117.87-168.47zm0 262c-51.758 0-93.867-41.953-93.867-93.527 0-54.34 45.461-144.47 93.867-144.47 48.402 0 93.867 90.129 93.867 144.47 0 51.574-42.109 93.527-93.867 93.527z"
       id="path2" />
    <path
       d="m600 292.5c-69.266 0-117.87 109.29-117.87 168.47 0 64.805 52.875 117.53 117.87 117.53s117.87-52.723 117.87-117.53c0-59.18-48.602-168.47-117.87-168.47zm0 262c-51.758 0-93.867-41.953-93.867-93.527 0-54.34 45.465-144.47 93.867-144.47s93.867 90.129 93.867 144.47c0 51.574-42.109 93.527-93.867 93.527z"
       id="path4" />
    <path
       d="m879.13 292.5c-69.266 0-117.87 109.29-117.87 168.47 0 64.805 52.875 117.53 117.87 117.53 64.992 0 117.87-52.723 117.87-117.53 0-59.18-48.605-168.47-117.87-168.47zm0 262c-51.758 0-93.867-41.953-93.867-93.527 0-54.34 45.461-144.47 93.867-144.47 48.402 0 93.867 90.129 93.867 144.47 0 51.574-42.109 93.527-93.867 93.527z"
       id="path6" />
    <path
       d="m320.87 621.5c-69.266 0-117.87 109.29-117.87 168.47 0 64.805 52.875 117.53 117.87 117.53 64.992 0 117.87-52.723 117.87-117.53 0-59.18-48.602-168.47-117.87-168.47zm0 262c-51.758 0-93.867-41.953-93.867-93.527 0-54.34 45.461-144.47 93.867-144.47 48.402 0 93.867 90.129 93.867 144.47 0 51.574-42.109 93.527-93.867 93.527z"
       id="path8" />
    <path
       d="m600 621.5c-69.266 0-117.87 109.29-117.87 168.47 0 64.805 52.875 117.53 117.87 117.53s117.87-52.723 117.87-117.53c0-59.18-48.602-168.47-117.87-168.47zm0 262c-51.758 0-93.867-41.953-93.867-93.527 0-54.34 45.461-144.47 93.867-144.47 48.402 0 93.867 90.129 93.867 144.47 0 51.574-42.109 93.527-93.867 93.527z"
       id="path10" />
    <path
       d="m879.13 621.5c-69.266 0-117.87 109.29-117.87 168.47 0 64.805 52.875 117.53 117.87 117.53 64.992 0 117.87-52.723 117.87-117.53 0-59.18-48.605-168.47-117.87-168.47zm0 262c-51.758 0-93.867-41.953-93.867-93.527 0-54.34 45.461-144.47 93.867-144.47 48.402 0 93.867 90.129 93.867 144.47 0 51.574-42.109 93.527-93.867 93.527z"
       id="path12" />
    <path
       d="m998.3 222h-796.36c-45.18 0-81.938 36.762-81.938 81.938v592.12c0 45.176 36.758 81.938 81.938 81.938h796.36c45.18 0 81.938-36.762 81.938-81.938v-592.12c0-45.176-36.754-81.938-81.938-81.938zm57.938 674.06c0 31.945-25.992 57.938-57.938 57.938h-796.36c-31.945 0-57.938-25.992-57.938-57.938v-592.12c0-31.945 25.992-57.938 57.938-57.938h796.36c31.945 0 57.938 25.992 57.938 57.938z"
       id="path14" />
  </g>
</svg>
