<?xml version="1.0" encoding="UTF-8" standalone="no"?>
<svg
   width="1200pt"
   height="1200pt"
   version="1.1"
   viewBox="0 0 1200 1200"
   id="svg18"
   sodipodi:docname="ovules.svg"
   inkscape:version="1.1.2 (0a00cf5339, 2022-02-04)"
   xmlns:inkscape="http://www.inkscape.org/namespaces/inkscape"
   xmlns:sodipodi="http://sodipodi.sourceforge.net/DTD/sodipodi-0.dtd"
   xmlns="http://www.w3.org/2000/svg"
   xmlns:svg="http://www.w3.org/2000/svg">
  <defs
     id="defs22" />
  <sodipodi:namedview
     id="namedview20"
     pagecolor="#ffffff"
     bordercolor="#666666"
     borderopacity="1.0"
     inkscape:pageshadow="2"
     inkscape:pageopacity="0.0"
     inkscape:pagecheckerboard="0"
     inkscape:document-units="pt"
     showgrid="false"
     inkscape:zoom="0.5275"
     inkscape:cx="800.94787"
     inkscape:cy="800.94787"
     inkscape:window-width="1920"
     inkscape:window-height="1016"
     inkscape:window-x="0"
     inkscape:window-y="27"
     inkscape:window-maximized="1"
     inkscape:current-layer="svg18" />
  <g
     id="g16"
     style="fill:#ffcc00;stroke:#000000;stroke-width:6;stroke-miterlimit:4;stroke-dasharray:none">
    <path
       d="M 320.87,292.5 C 251.604,292.5 203,401.79 203,460.97 c 0,64.805 52.875,117.53 117.87,117.53 64.992,0 117.87,-52.723 117.87,-117.53 0,-59.18 -48.602,-168.47 -117.87,-168.47 z m 0,262 c -51.758,0 -93.867,-41.953 -93.867,-93.527 0,-54.34 45.461,-144.47 93.867,-144.47 48.402,0 93.867,90.129 93.867,144.47 0,51.574 -42.109,93.527 -93.867,93.527 z"
       id="path2"
       style="fill:#ffcc00;stroke:#000000;stroke-width:6;stroke-miterlimit:4;stroke-dasharray:none" />
    <path
       d="m 600,292.5 c -69.266,0 -117.87,109.29 -117.87,168.47 0,64.805 52.875,117.53 117.87,117.53 64.995,0 117.87,-52.723 117.87,-117.53 C 717.87,401.79 669.268,292.5 600,292.5 Z m 0,262 c -51.758,0 -93.867,-41.953 -93.867,-93.527 0,-54.34 45.465,-144.47 93.867,-144.47 48.402,0 93.867,90.129 93.867,144.47 0,51.574 -42.109,93.527 -93.867,93.527 z"
       id="path4"
       style="fill:#ffcc00;stroke:#000000;stroke-width:6;stroke-miterlimit:4;stroke-dasharray:none" />
    <path
       d="m 879.13,292.5 c -69.266,0 -117.87,109.29 -117.87,168.47 0,64.805 52.875,117.53 117.87,117.53 C 944.122,578.5 997,525.777 997,460.97 997,401.79 948.395,292.5 879.13,292.5 Z m 0,262 c -51.758,0 -93.867,-41.953 -93.867,-93.527 0,-54.34 45.461,-144.47 93.867,-144.47 48.402,0 93.867,90.129 93.867,144.47 0,51.574 -42.109,93.527 -93.867,93.527 z"
       id="path6"
       style="fill:#ffcc00;stroke:#000000;stroke-width:6;stroke-miterlimit:4;stroke-dasharray:none" />
    <path
       d="M 320.87,621.5 C 251.604,621.5 203,730.79 203,789.97 c 0,64.805 52.875,117.53 117.87,117.53 64.992,0 117.87,-52.723 117.87,-117.53 0,-59.18 -48.602,-168.47 -117.87,-168.47 z m 0,262 c -51.758,0 -93.867,-41.953 -93.867,-93.527 0,-54.34 45.461,-144.47 93.867,-144.47 48.402,0 93.867,90.129 93.867,144.47 0,51.574 -42.109,93.527 -93.867,93.527 z"
       id="path8"
       style="fill:#ffcc00;stroke:#000000;stroke-width:6;stroke-miterlimit:4;stroke-dasharray:none" />
    <path
       d="m 600,621.5 c -69.266,0 -117.87,109.29 -117.87,168.47 0,64.805 52.875,117.53 117.87,117.53 64.995,0 117.87,-52.723 117.87,-117.53 C 717.87,730.79 669.268,621.5 600,621.5 Z m 0,262 c -51.758,0 -93.867,-41.953 -93.867,-93.527 0,-54.34 45.461,-144.47 93.867,-144.47 48.402,0 93.867,90.129 93.867,144.47 0,51.574 -42.109,93.527 -93.867,93.527 z"
       id="path10"
       style="fill:#ffcc00;stroke:#000000;stroke-width:6;stroke-miterlimit:4;stroke-dasharray:none" />
    <path
       d="m 879.13,621.5 c -69.266,0 -117.87,109.29 -117.87,168.47 0,64.805 52.875,117.53 117.87,117.53 C 944.122,907.5 997,854.777 997,789.97 997,730.79 948.395,621.5 879.13,621.5 Z m 0,262 c -51.758,0 -93.867,-41.953 -93.867,-93.527 0,-54.34 45.461,-144.47 93.867,-144.47 48.402,0 93.867,90.129 93.867,144.47 0,51.574 -42.109,93.527 -93.867,93.527 z"
       id="path12"
       style="fill:#ffcc00;stroke:#000000;stroke-width:6;stroke-miterlimit:4;stroke-dasharray:none" />
    <path
       d="M 998.3,222 H 201.94 c -45.18,0 -81.938,36.762 -81.938,81.938 v 592.12 c 0,45.176 36.758,81.938 81.938,81.938 H 998.3 c 45.18,0 81.938,-36.762 81.938,-81.938 V 303.938 C 1080.238,258.762 1043.484,222 998.3,222 Z m 57.938,674.06 c 0,31.945 -25.992,57.938 -57.938,57.938 H 201.94 c -31.945,0 -57.938,-25.992 -57.938,-57.938 V 303.94 c 0,-31.945 25.992,-57.938 57.938,-57.938 H 998.3 c 31.945,0 57.938,25.992 57.938,57.938 z"
       id="path14"
       style="fill:#ffcc00;stroke:#000000;stroke-width:6;stroke-miterlimit:4;stroke-dasharray:none" />
  </g>
</svg>
