<?xml version="1.0" encoding="UTF-8" standalone="no"?>
<svg
   width="1200pt"
   height="1200pt"
   version="1.1"
   viewBox="0 0 1200 1200"
   id="svg4"
   sodipodi:docname="panaris.svg"
   inkscape:version="1.1.2 (0a00cf5339, 2022-02-04)"
   xmlns:inkscape="http://www.inkscape.org/namespaces/inkscape"
   xmlns:sodipodi="http://sodipodi.sourceforge.net/DTD/sodipodi-0.dtd"
   xmlns="http://www.w3.org/2000/svg"
   xmlns:svg="http://www.w3.org/2000/svg">
  <defs
     id="defs8">
    <filter
       inkscape:collect="always"
       style="color-interpolation-filters:sRGB"
       id="filter929"
       x="-0.07634762"
       y="-0.078735485"
       width="1.1526952"
       height="1.157471">
      <feGaussianBlur
         inkscape:collect="always"
         stdDeviation="18.05762"
         id="feGaussianBlur931" />
    </filter>
  </defs>
  <sodipodi:namedview
     id="namedview6"
     pagecolor="#ffffff"
     bordercolor="#666666"
     borderopacity="1.0"
     inkscape:pageshadow="2"
     inkscape:pageopacity="0.0"
     inkscape:pagecheckerboard="0"
     inkscape:document-units="pt"
     showgrid="false"
     inkscape:zoom="0.11245328"
     inkscape:cx="-2209.8066"
     inkscape:cy="-729.19171"
     inkscape:window-width="1920"
     inkscape:window-height="1043"
     inkscape:window-x="1920"
     inkscape:window-y="0"
     inkscape:window-maximized="1"
     inkscape:current-layer="svg4" />
  <path
     d="m1065.7 36.398c-1.4336-4.1758 0.79297-8.7227 4.9688-10.156 4.1758-1.4336 8.7227 0.79297 10.156 4.9688 17.746 51.449 30.391 96.082 33.301 140.39 2.9297 44.617-4.0469 88.539-25.645 138.11-0.25391 0.58203-0.50781 1.1641-0.76562 1.7461-0.20312 0.45703-0.23047 0.91797-0.082032 1.3945 10.711 34.84 15.488 65.211 12.238 94.383-3.3828 30.375-15.41 59.07-38.414 89.656-1.5664 2.082-4.1523 5.4805-6.7812 8.9375-23.648 31.09-50.727 66.688-56.855 112.04-0.58594 4.3672-4.6016 7.4297-8.9688 6.8438-2.4727-0.33203-4.5273-1.7656-5.7383-3.7383-8.9531-14.191-14.836-27.863-18.074-42.695-1.8594-8.5156-2.832-17.387-2.9961-26.938-0.011719-0.78906-0.45312-1.4609-1.1719-1.7852-0.71875-0.32422-1.5117-0.21875-2.1133 0.28906-96.336 80.543-66.969 132.27-18.242 218 1.957 3.4414 3.9414 6.9375 5.9531 10.488 28.172 49.777 20.188 107.16 12.434 162.9l-0.96484 6.9141h0.003906c-1.6992 12.324-8.9102 24.105-20.617 34.793-0.023438 0.019532-0.039063 0.039063-0.0625 0.058594-21.676 21.562-23.777 43.574-25.59 62.621-2.1914 23-4.0391 42.395-31.086 55.141l-0.19141 0.089844c-52.137 24.57-146.54 69.055-266.48 83.438-93.977 11.27-198.1 11.094-285.07-1.0391-53.074-7.4023-99.918-19.301-134.43-35.816-36.211-17.332-59.246-39.98-62.629-68.207-0.61719-5.1523-0.5625-10.484 0.20703-16.004 4.7734-34.215 48.762-129.52 96.59-210.5 35.234-59.668 73.023-112.07 99.805-127.98 0.67188-0.39844 1.0352-1.1016 0.97266-1.8789-1.4766-18.078 0.10156-37.93 6.1719-57.344 8.4141-26.895 25.387-52.984 54.695-72.5 28.105-18.715 65.145-59.965 99.281-116.13 28.445-46.801 54.73-103.78 72.012-166.53 4.4492-16.16 13.266-63.242 22.266-116.25 9.2773-54.648 18.68-115.2 23.676-154.57 0.55078-4.3672 4.5391-7.457 8.9062-6.9062 4.3672 0.55078 7.457 4.5391 6.9062 8.9062-5.082 40.039-14.5 100.77-23.738 155.2-9.0508 53.312-17.996 100.96-22.641 117.82-17.707 64.297-44.629 122.66-73.762 170.59-35.406 58.254-74.289 101.35-104.09 121.19-25.867 17.223-40.84 40.234-48.258 63.938-9.6367 30.801-6.6328 62.727 1.8125 84.809 43.051 112.59 116.49 182.21 197.31 221.74 109.52 53.57 232.57 52.133 312.11 27.445 23.949-7.4336 43.801-16.949 57.945-27.652 2.6914-2.0352 5.1602-4.1016 7.3984-6.1953 0.31641-0.30469 0.64062-0.60938 0.96094-0.91406 7.9023-7.6445 12.711-15.605 13.805-23.535h0.003906l0.95703-6.9141c7.3867-53.109 14.996-107.79-10.496-152.84-2.0117-3.5508-3.9961-7.0469-5.9531-10.488-55.699-98.004-88.105-155.03 39.133-251.82 0.019531-0.015625 0.035156-0.027344 0.054687-0.042969 1.5508-1.2656 3.5742-1.9531 5.7266-1.7695 4.3828 0.37891 7.6289 4.2422 7.25 8.625-1.5117 16.789-1.0156 31.02 1.8594 44.191 0.98047 4.4883 2.2422 8.8633 3.8008 13.184 0.29688 0.82031 1.0469 1.3398 1.9219 1.3203 0.87109-0.015624 1.6055-0.5625 1.8672-1.3984 11.449-36.211 33.758-65.539 53.738-91.809 1.9453-2.5586 3.875-5.0938 6.7188-8.875 21.18-28.16 32.227-54.348 35.289-81.844 2.3086-20.742 0.10547-42.441-5.7109-66.453-0.19922-0.82422-0.85547-1.4102-1.6992-1.5156s-1.6211 0.30078-2.0156 1.0547c-4.4336 8.4219-9.2773 17.023-14.547 25.832-11.414 19.074-24.809 39.07-40.391 60.27-2.6055 3.5547-7.6016 4.3242-11.156 1.7188-3.5547-2.6055-4.3242-7.6016-1.7188-11.156 15.348-20.883 28.473-40.465 39.578-59.02 9.8594-16.473 18.156-32.176 25.031-47.301 0.019531-0.039063 0.03125-0.074219 0.046875-0.11328 0.11328-0.29688 0.24609-0.58594 0.39453-0.86719 0.019531-0.039062 0.035156-0.070312 0.054688-0.10938 0.67969-1.5039 1.3438-3 1.9922-4.4922 20.48-47.004 27.098-88.574 24.332-130.73-2.7891-42.465-15.137-85.906-32.488-136.21zm-221.39 997.46c2.6328-0.80859 5.4219 0.66797 6.2305 3.3008 0.80859 2.6328-0.66797 5.4219-3.3008 6.2305-82.012 25.457-208.81 26.965-321.61-28.207-83.523-40.855-159.38-112.7-203.76-228.75-0.98047-2.5781 0.3125-5.4648 2.8906-6.4453s5.4648 0.3125 6.4453 2.8906c43.359 113.39 117.36 183.52 198.8 223.36 110.28 53.941 234.19 52.488 314.3 27.621zm208.18-803.89c0.83984-2.6211 3.6484-4.0625 6.2695-3.2227 2.6211 0.83984 4.0625 3.6484 3.2227 6.2695-5.7734 17.984-13.285 36.852-22.703 56.902-9.4219 20.059-20.711 41.219-34.035 63.77-1.4023 2.3711-4.4609 3.1602-6.8359 1.7578-2.3711-1.4023-3.1602-4.4609-1.7578-6.8359 13.238-22.41 24.383-43.281 33.605-62.91 9.2266-19.637 16.578-38.117 22.238-55.73zm-153.29 777.2c-9.8398 4.5508-20.727 8.6992-32.496 12.355-82.582 25.633-210.25 27.156-323.8-28.383-84.148-41.16-160.56-113.52-205.25-230.37-1.9492-5.0938-3.6367-10.648-5.0039-16.559-0.15625-0.68359-0.61719-1.1992-1.2773-1.4336-0.66016-0.23438-1.3438-0.125-1.8984 0.30469-23.242 18.07-55.855 64.789-87.145 117.77-46.949 79.504-90.004 172.14-94.527 204.57-0.57031 4.0898-0.60938 8.0703-0.14453 11.941 2.6602 22.18 22.406 40.762 53.629 55.707 32.926 15.758 78.164 27.188 129.74 34.379 85.613 11.941 188.25 12.098 281.01 0.97656 117.41-14.078 210.26-57.832 261.54-82l0.19141-0.089844c18.848-8.8828 20.301-24.125 22.023-42.203 1.0273-10.797 2.1406-22.426 6.1445-34.523 0.25781-0.77344 0.039062-1.5781-0.56641-2.1211-0.60938-0.54297-1.4336-0.66406-2.1719-0.32422z"
     id="path2" />
  <ellipse
     style="fill:#d40000;stroke-width:4.8189;filter:url(#filter929);opacity:0.45276861"
     id="path847"
     cx="844.68829"
     cy="227.93919"
     rx="283.82211"
     ry="275.21445" />
</svg>
