<?xml version="1.0" encoding="UTF-8" standalone="no"?>
<svg
   viewBox="0 0 128 128"
   x="0px"
   y="0px"
   version="1.1"
   id="svg8"
   sodipodi:docname="pedagogie.svg"
   inkscape:version="1.1.2 (0a00cf5339, 2022-02-04)"
   xmlns:inkscape="http://www.inkscape.org/namespaces/inkscape"
   xmlns:sodipodi="http://sodipodi.sourceforge.net/DTD/sodipodi-0.dtd"
   xmlns="http://www.w3.org/2000/svg"
   xmlns:svg="http://www.w3.org/2000/svg"
   xmlns:rdf="http://www.w3.org/1999/02/22-rdf-syntax-ns#"
   xmlns:cc="http://creativecommons.org/ns#"
   xmlns:dc="http://purl.org/dc/elements/1.1/">
  <defs
     id="defs12" />
  <sodipodi:namedview
     id="namedview10"
     pagecolor="#ffffff"
     bordercolor="#666666"
     borderopacity="1.0"
     inkscape:pageshadow="2"
     inkscape:pageopacity="0.0"
     inkscape:pagecheckerboard="0"
     showgrid="false"
     inkscape:zoom="6.59375"
     inkscape:cx="64"
     inkscape:cy="64"
     inkscape:window-width="1920"
     inkscape:window-height="1043"
     inkscape:window-x="1920"
     inkscape:window-y="0"
     inkscape:window-maximized="1"
     inkscape:current-layer="svg8" />
  <title
     id="title2">11</title>
  <g
     data-name="1"
     id="g6"
     style="fill:#558f99;fill-opacity:1">
    <path
       d="m 26.45368,77.81077 a 1.52813,1.52813 0 0 1 1.51426,-1.51426 h 10.5542 a 1.51954,1.51954 0 0 1 1.46865,1.51426 1.49552,1.49552 0 0 1 -1.46865,1.51423 h -10.5542 a 1.50477,1.50477 0 0 1 -1.51426,-1.51423 z m 43.69458,10.37176 h -4.54278 a 1.51426,1.51426 0 1 0 0,3.02852 h 4.54278 a 1.515,1.515 0 0 0 0,-3.02852 z m -19.60327,0 h -22.577 a 1.51426,1.51426 0 1 0 0,3.02852 H 50.545 a 1.51426,1.51426 0 1 0 0,-3.02852 z m 63.161,-43.06516 v 26.63637 a 6.056,6.056 0 0 1 -6.057,6.01142 h -23.8724 v 19.284 a 5.98771,5.98771 0 0 1 -6.01143,6.01142 H 72.374 v 9.13117 a 1.50812,1.50812 0 0 1 -0.80274,1.34094 1.46271,1.46271 0 0 1 -0.71151,0.17331 1.421,1.421 0 0 1 -0.84835,-0.26454 L 55.407,103.06058 H 20.30542 A 6.01672,6.01672 0 0 1 14.294,97.04916 V 70.45841 A 6.04628,6.04628 0 0 1 20.30542,64.447 H 44.1778 V 52.95321 H 20.30542 A 6.04628,6.04628 0 0 1 14.294,46.94178 V 20.351 a 6.05594,6.05594 0 0 1 6.01142,-6.057 h 57.45974 a 6.02659,6.02659 0 0 1 6.01143,6.057 V 39.106 H 107.649 a 6.05,6.05 0 0 1 6.057,6.01137 z M 20.30542,49.9703 h 35.58509 a 1.65086,1.65086 0 0 1 0.894,0.26454 l 12.561,8.95784 V 51.439 a 1.48969,1.48969 0 0 1 1.51426,-1.46865 h 6.90538 a 3.03268,3.03268 0 0 0 3.02852,-3.02852 V 20.351 A 3.03268,3.03268 0 0 0 77.76515,17.32248 H 20.30542 A 3.0174,3.0174 0 0 0 17.32251,20.351 v 26.59078 a 3.0174,3.0174 0 0 0 2.98291,3.02852 z M 80.79368,77.76516 H 72.54735 L 57.98857,88.10043 a 1.67388,1.67388 0 0 1 -0.894,0.26454 1.7401,1.7401 0 0 1 -0.6659,-0.13683 1.54787,1.54787 0 0 1 -0.80274,-1.33182 v -9.13116 h -5.4367 A 6.04629,6.04629 0 0 1 44.1778,71.75374 V 67.4755 H 20.30542 a 2.97822,2.97822 0 0 0 -2.98291,2.98291 v 26.59075 a 3.01739,3.01739 0 0 0 2.98291,3.02851 h 35.58509 a 1.65086,1.65086 0 0 1 0.894,0.26454 l 12.561,8.95785 v -7.70813 a 1.4991,1.4991 0 0 1 1.51426,-1.51426 h 6.90538 a 3.03267,3.03267 0 0 0 3.02852,-3.02851 z m 29.88381,-32.64779 a 3.01739,3.01739 0 0 0 -3.02852,-2.9829 H 83.77659 v 4.80731 a 6.01673,6.01673 0 0 1 -6.01143,6.01143 H 72.374 v 9.13116 a 1.50811,1.50811 0 0 1 -0.80274,1.34094 1.46261,1.46261 0 0 1 -0.71151,0.17332 1.421,1.421 0 0 1 -0.84835,-0.26454 L 55.407,52.95321 h -8.24629 v 18.80053 a 3.02931,3.02931 0 0 0 3.02852,2.9829 h 6.90538 a 1.4991,1.4991 0 0 1 1.51426,1.51426 v 7.699 l 12.60666,-8.94872 a 1.62831,1.62831 0 0 1 0.894,-0.26454 H 107.649 a 3.02337,3.02337 0 0 0 3.02852,-2.9829 z M 100.03206,50.992 h -10.5542 a 1.4991,1.4991 0 0 0 -1.51426,1.51426 1.52813,1.52813 0 0 0 1.51426,1.51426 h 10.5542 a 1.51954,1.51954 0 0 0 1.46865,-1.51426 1.48969,1.48969 0 0 0 -1.46865,-1.51426 z M 62.34891,62.8415 h -4.49717 a 1.52812,1.52812 0 0 0 -1.51425,1.51426 1.49909,1.49909 0 0 0 1.51425,1.51424 h 4.49717 a 1.4991,1.4991 0 0 0 1.51426,-1.51426 1.52813,1.52813 0 0 0 -1.51426,-1.51424 z m 31.62612,0 H 77.4094 A 1.51954,1.51954 0 0 0 75.94075,64.35576 1.48969,1.48969 0 0 0 77.4094,65.87 H 93.975 A 1.4991,1.4991 0 0 0 95.48926,64.35574 1.52813,1.52813 0 0 0 93.975,62.8415 Z M 50.545,29.21766 h 19.60326 a 1.51968,1.51968 0 0 0 0,-3.03764 H 50.545 a 1.51883,1.51883 0 0 0 0,3.03764 z m -22.577,0 h 13.53705 a 1.51883,1.51883 0 0 0 0,-3.03764 H 27.96794 a 1.51883,1.51883 0 0 0 0,3.03764 z M 61.10831,39.58942 A 1.50477,1.50477 0 0 0 59.59405,38.07516 H 27.96794 a 1.49163,1.49163 0 1 0 0,2.98291 h 31.62611 a 1.49552,1.49552 0 0 0 1.51426,-1.46865 z"
       id="path4"
       style="fill:#558f99;fill-opacity:1" />
  </g>
  <metadata
     id="metadata935">
    <rdf:RDF>
      <cc:Work
         rdf:about="">
        <dc:title>11</dc:title>
      </cc:Work>
    </rdf:RDF>
  </metadata>
</svg>
