<?xml version="1.0" encoding="UTF-8" standalone="no"?>
<svg
   viewBox="0 0 128 128"
   x="0px"
   y="0px"
   version="1.1"
   id="svg12"
   sodipodi:docname="phyto_ini.svg"
   inkscape:version="1.2.2 (b0a8486541, 2022-12-01)"
   xmlns:inkscape="http://www.inkscape.org/namespaces/inkscape"
   xmlns:sodipodi="http://sodipodi.sourceforge.net/DTD/sodipodi-0.dtd"
   xmlns="http://www.w3.org/2000/svg"
   xmlns:svg="http://www.w3.org/2000/svg"
   xmlns:rdf="http://www.w3.org/1999/02/22-rdf-syntax-ns#"
   xmlns:cc="http://creativecommons.org/ns#"
   xmlns:dc="http://purl.org/dc/elements/1.1/">
  <defs
     id="defs16" />
  <sodipodi:namedview
     id="namedview14"
     pagecolor="#ffffff"
     bordercolor="#666666"
     borderopacity="1.0"
     inkscape:pageshadow="2"
     inkscape:pageopacity="0.0"
     inkscape:pagecheckerboard="0"
     showgrid="false"
     inkscape:zoom="6.59375"
     inkscape:cx="59.981043"
     inkscape:cy="64.151659"
     inkscape:window-width="1920"
     inkscape:window-height="1011"
     inkscape:window-x="0"
     inkscape:window-y="32"
     inkscape:window-maximized="1"
     inkscape:current-layer="svg12"
     inkscape:showpageshadow="2"
     inkscape:deskcolor="#d1d1d1" />
  <title
     id="title2">50</title>
  <g
     data-name="1"
     id="g10"
     style="fill:#00ff00;fill-opacity:1">
    <path
       d="m 27.29,95.81649 a 2.22711,2.22711 0 1 1 -2.22721,-2.227 2.22715,2.22715 0 0 1 2.22721,2.227 z m 0,0"
       id="path4"
       style="fill:#00ff00;fill-opacity:1" />
    <path
       d="M 109.69944,27.68788 H 96.596 a 12.18872,12.18872 0 0 0 -7.79345,2.80656 V 23.79829 A 15.8785,15.8785 0 0 0 72.9423,7.93808 H 58.08355 a 2.22726,2.22726 0 0 0 -2.227,2.227 v 6.11575 a 15.8786,15.8786 0 0 0 15.86106,15.861 H 84.34829 V 54.717 C 83.76095,54.68 83.16941,54.6594 82.57556,54.6594 a 27.49269,27.49269 0 0 0 -16.18079,5.21751 2.2270808,2.2270808 0 0 0 2.60562,3.61252 23.18738,23.18738 0 0 1 17.08973,-4.105 2.34907,2.34907 0 0 0 0.29262,0.04456 23.27714,23.27714 0 0 1 16.53226,11.67666 2.22713,2.22713 0 0 0 3.89632,-2.15848 27.73,27.73 0 0 0 -18.00879,-13.5754 V 48.17069 H 99.67876 A 12.26138,12.26138 0 0 0 111.92645,35.923 v -6.00812 a 2.227,2.227 0 0 0 -2.227,-2.227 z m -25.35115,0 H 71.7176 A 11.42027,11.42027 0 0 1 60.31076,16.28088 V 12.39209 H 72.9423 a 11.41923,11.41923 0 0 1 11.406,11.4062 z m 23.12415,8.23512 a 7.80225,7.80225 0 0 1 -7.79368,7.79347 H 88.80253 v -3.7809 A 7.80225,7.80225 0 0 1 96.596,32.14189 h 10.87646 z m 0,0"
       id="path6"
       style="fill:#00ff00;fill-opacity:1" />
    <path
       d="M 120.26944,80.21505 A 8.73872,8.73872 0 0 0 108.76,75.75663 l -0.0326,0.01408 -14.551,6.71045 a 2.22724,2.22724 0 1 0 1.8648,4.04535 l 14.53355,-6.702 a 4.27331,4.27331 0 0 1 3.43616,7.82542 l -29.777,13.14677 A 17.25885,17.25885 0 0 1 69.54064,100.46415 L 58.64041,95.04879 A 21.70483,21.70483 0 0 0 40.16619,94.63 l -0.21442,0.0946 -8.146,-18.45026 11.3093,-4.99363 a 22.50858,22.50858 0 0 1 16.92914,-0.54024 l 21.91921,8.05013 a 3.95,3.95 0 0 1 -2.627,7.44977 l -16.951,-5.73274 a 2.22695,2.22695 0 1 0 -1.42672,4.2192 l 16.95,5.73379 A 8.40544,8.40544 0 0 0 88.5532,85.2194 8.45361,8.45361 0 0 0 83.499,74.60928 L 61.57961,66.55914 a 26.94061,26.94061 0 0 0 -20.26208,0.647 l -11.38308,5.026 A 5.62858,5.62858 0 0 0 22.94211,70.15187 L 8.32069,76.558 a 2.22793,2.22793 0 0 0 -1.33318,2.04013 v 39.23657 a 2.2262,2.2262 0 0 0 3.23057,1.98778 l 28.38643,-14.33994 a 5.64516,5.64516 0 0 0 3.09477,-6.66041 l 0.26552,-0.11625 a 17.26033,17.26033 0 0 1 14.69434,0.33256 l 10.90022,5.41531 a 21.70316,21.70316 0 0 0 18.47316,0.4177 l 29.77828,-13.147 a 8.739,8.739 0 0 0 4.45864,-11.50942 z m -82.89489,20.561 a 1.18262,1.18262 0 0 1 -0.62854,0.65776 c -0.0349,0.0154 -0.06958,0.033 -0.10448,0.0502 l -25.2,12.7295 v -9.74888 l 6.58768,-3.23392 a 2.2274,2.2274 0 0 0 -1.964,-3.99848 L 11.44152,99.5028 V 80.05424 l 13.29287,-5.82545 a 1.18926,1.18926 0 0 1 1.56694,0.60689 l 10.47516,23.72532 0.0034,0.0067 0.5741,1.29933 a 1.18683,1.18683 0 0 1 0.0206,0.909 z m 0,0"
       id="path8"
       style="fill:#00ff00;fill-opacity:1" />
  </g>
  <metadata
     id="metadata889">
    <rdf:RDF>
      <cc:Work
         rdf:about="">
        <dc:title>50</dc:title>
      </cc:Work>
    </rdf:RDF>
  </metadata>
</svg>
