<?xml version="1.0" encoding="UTF-8" standalone="no"?>
<svg
   data-name="Layer 38"
   viewBox="0 0 100 100"
   x="0px"
   y="0px"
   version="1.1"
   id="svg8"
   sodipodi:docname="produits_light.svg"
   width="100"
   height="100"
   inkscape:version="1.1.2 (0a00cf5339, 2022-02-04)"
   xmlns:inkscape="http://www.inkscape.org/namespaces/inkscape"
   xmlns:sodipodi="http://sodipodi.sourceforge.net/DTD/sodipodi-0.dtd"
   xmlns="http://www.w3.org/2000/svg"
   xmlns:svg="http://www.w3.org/2000/svg">
  <defs
     id="defs12" />
  <sodipodi:namedview
     id="namedview10"
     pagecolor="#ffffff"
     bordercolor="#666666"
     borderopacity="1.0"
     inkscape:pageshadow="2"
     inkscape:pageopacity="0.0"
     inkscape:pagecheckerboard="0"
     showgrid="false"
     fit-margin-top="0"
     fit-margin-left="0"
     fit-margin-right="0"
     fit-margin-bottom="0"
     inkscape:zoom="4.6918965"
     inkscape:cx="32.715982"
     inkscape:cy="52.004557"
     inkscape:window-width="1500"
     inkscape:window-height="773"
     inkscape:window-x="238"
     inkscape:window-y="108"
     inkscape:window-maximized="0"
     inkscape:current-layer="svg8" />
  <g
     id="g826"
     transform="matrix(1.0999383,0,0,1.0999383,5.5133322,0.50251949)"
     style="stroke-width:0.909142">
    <path
       d="M 4.45,44.74 H 22.2 A 20,20 0 0 1 20.6,38.56 L 15.83,30.46 7.45,29 A 0.75,0.75 0 0 1 7.7,27.53 l 7.12,1.22 -8.27,-14.08 a 0.75,0.75 0 0 1 1.29,-0.75 l 12.7,21.57 C 20.83,29.7 23.41,24.09 26.9,19.08 16.26,11.34 3.14,7.39 3.14,7.39 c 0,0 -4.86,22.23 1.31,37.35 z"
       id="path2"
       style="fill:#e6e6e6;stroke-width:0.909142" />
    <path
       d="m 79.45,16.68 -6.47,-4.27 a 3.38,3.38 0 0 0 -2.53,-0.49 3.28,3.28 0 0 0 -2.1,1.43 l -1.41,2.12 a 3.32,3.32 0 0 0 0.71,4.42 0.73,0.73 0 0 1 0.28,0.52 0.76,0.76 0 0 1 -0.17,0.56 c -4.51,5.27 -9.18,10.35 -13.69,15.26 l -1.38,1.5 a 0.76,0.76 0 0 1 -1.06,0 0.75,0.75 0 0 1 0,-1.06 l 1.38,-1.5 q 2.71,-2.94 5.48,-6 C 57.24,14.76 49.18,0 49.18,0 c 0,0 -35.55,23.16 -25.34,44.73 h 9.26 l -3.77,-4.47 a 0.75,0.75 0 0 1 0.12,-1.06 0.76,0.76 0 0 1 1.06,0.09 l 4.58,5.44 h 2.08 l 4.89,-19.4 -4.95,-6.91 a 0.75,0.75 0 0 1 1.22,-0.87 l 4.21,5.87 2.61,-10.48 a 0.75,0.75 0 1 1 1.45,0.37 l -5.73,22.74 7.33,-4 a 0.75420488,0.75420488 0 0 1 0.73,1.32 L 40.37,38 38.69,44.69 h 5.61 q 1.6,-1.81 3.27,-3.65 a 0.75,0.75 0 1 1 1.11,1 c -0.79,0.88 -1.59,1.76 -2.37,2.64 h 18 l 0.63,-1.39 c 2.73,-6.06 5.56,-12.33 8.62,-18.52 a 0.76,0.76 0 0 1 0.45,-0.39 0.86,0.86 0 0 1 0.59,0.06 3.3,3.3 0 0 0 4.34,-1.08 l 1.41,-2.13 a 3.32,3.32 0 0 0 -0.9,-4.55 z M 47.95,8 47.45,9.78 a 0.75,0.75 0 0 1 -0.73,0.57 H 46.54 A 0.75,0.75 0 0 1 46,9.43 L 46.46,7.6 A 0.77137864,0.77137864 0 0 1 47.95,8 Z"
       id="path4"
       style="fill:#e6e6e6;stroke-width:0.909142" />
    <path
       d="M 4.63,46.23 A 4.63,4.63 0 0 0 0,50.85 V 51 a 4.64,4.64 0 0 0 4.63,4.63 h 37.28 a 0.75,0.75 0 0 1 0,1.5 H 4.63 4.23 c 0.75,6.07 2.84,14.92 8.53,22.39 A 27.07,27.07 0 0 0 34.31,90 h 8.91 A 27.05,27.05 0 0 0 64.76,79.52 C 70.46,72.05 72.54,63.2 73.3,57.13 H 72.9 60.45 a 0.75,0.75 0 0 1 0,-1.5 H 72.9 A 4.63,4.63 0 0 0 77.52,51 V 50.83 A 4.62,4.62 0 0 0 72.9,46.21 Z M 54.45,56.4 a 0.76,0.76 0 0 1 -0.75,0.75 h -5.57 a 0.75,0.75 0 0 1 0,-1.5 h 5.57 a 0.75,0.75 0 0 1 0.75,0.75 z"
       id="path6"
       style="fill:#e6e6e6;stroke-width:0.909142" />
  </g>
</svg>
