<?xml version="1.0" encoding="UTF-8" standalone="no"?>
<svg
   width="1200pt"
   height="1200pt"
   version="1.1"
   viewBox="0 0 1200 1200"
   id="svg304"
   sodipodi:docname="spray.svg"
   inkscape:version="1.1.2 (0a00cf5339, 2022-02-04)"
   xmlns:inkscape="http://www.inkscape.org/namespaces/inkscape"
   xmlns:sodipodi="http://sodipodi.sourceforge.net/DTD/sodipodi-0.dtd"
   xmlns="http://www.w3.org/2000/svg"
   xmlns:svg="http://www.w3.org/2000/svg">
  <defs
     id="defs308" />
  <sodipodi:namedview
     id="namedview306"
     pagecolor="#ffffff"
     bordercolor="#666666"
     borderopacity="1.0"
     inkscape:pageshadow="2"
     inkscape:pageopacity="0.0"
     inkscape:pagecheckerboard="0"
     inkscape:document-units="pt"
     showgrid="false"
     inkscape:zoom="0.5275"
     inkscape:cx="800.94787"
     inkscape:cy="800"
     inkscape:window-width="1920"
     inkscape:window-height="1043"
     inkscape:window-x="1920"
     inkscape:window-y="0"
     inkscape:window-maximized="1"
     inkscape:current-layer="svg304" />
  <g
     id="g302">
    <path
       d="m375.72 1012c4.6797-4.6797 4.6797-12.238 0-17.039-4.6797-4.5586-12.238-4.5586-16.922 0-4.6797 4.8008-4.6797 12.359 0 17.039 2.2812 2.2812 5.3984 3.4805 8.5195 3.4805 3.0039 0 6.125-1.2031 8.4023-3.4805z"
       id="path2" />
    <path
       d="m256.92 1096.8c-4.6797 4.6797-4.6797 12.238 0 17.039 2.3984 2.2812 5.3984 3.4805 8.5195 3.4805s6.1211-1.1992 8.5195-3.4805c4.6797-4.8008 4.6797-12.359 0-17.039-4.6797-4.6797-12.359-4.6797-17.039 0z"
       id="path4" />
    <path
       d="m494.52 888.24c3.1211 0 6.1211-1.1992 8.5195-3.6016 4.6797-4.6797 4.6797-12.238 0-16.922-4.6797-4.6797-12.238-4.6797-17.039 0-4.5586 4.6797-4.5586 12.238 0 16.922 2.3984 2.4023 5.5195 3.6016 8.5195 3.6016z"
       id="path6" />
    <path
       d="m324.84 1062.8c4.6797-4.6797 4.6797-12.238 0-16.922-4.6797-4.6797-12.238-4.6797-17.039 0-4.5586 4.6797-4.5586 12.238 0 16.922 2.3984 2.3984 5.5195 3.4805 8.5195 3.4805 3.1211 0 6.2383-1.082 8.5195-3.4805z"
       id="path8" />
    <path
       d="m409.68 961.08c2.3984 2.2812 5.3984 3.4805 8.5195 3.4805 3 0 6.1211-1.1992 8.5195-3.4805 4.6797-4.6797 4.6797-12.359 0-17.039-4.8008-4.6797-12.359-4.6797-17.039 0-4.6797 4.6797-4.6797 12.359 0 17.039z"
       id="path10" />
    <path
       d="m341.76 1040.9c3.1211 0 6.2383-1.0781 8.5195-3.4805 4.6797-4.6797 4.6797-12.238 0-16.922-4.6797-4.6797-12.238-4.6797-16.922 0-4.6797 4.6797-4.6797 12.238 0 16.922 2.2812 2.4023 5.4023 3.4805 8.4023 3.4805z"
       id="path12" />
    <path
       d="m519.96 862.68c3.1211 0 6.2383-1.0781 8.5195-3.4805 4.6797-4.6797 4.6797-12.238 0-16.922-4.6797-4.6797-12.238-4.6797-16.922 0-4.6797 4.6797-4.6797 12.238 0 16.922 2.2812 2.4023 5.4023 3.4805 8.4023 3.4805z"
       id="path14" />
    <path
       d="m460.56 910.08c2.3984 2.3984 5.5195 3.6016 8.5195 3.6016 3.1211 0 6.1211-1.1992 8.5195-3.6016 4.6797-4.6797 4.6797-12.238 0-16.922-4.6797-4.6797-12.359-4.6797-17.039 0-4.6797 4.6836-4.6797 12.242 0 16.922z"
       id="path16" />
    <path
       d="m282.36 1071.4c-4.5586 4.6797-4.5586 12.238 0 16.922 2.3984 2.3984 5.3984 3.6016 8.5195 3.6016s6.1211-1.1992 8.5195-3.6016c4.6797-4.6797 4.6797-12.238 0-16.922-4.6797-4.6797-12.359-4.6797-17.039 0z"
       id="path18" />
    <path
       d="m392.76 990c3 0 6.1211-1.1992 8.3984-3.4805 4.6797-4.6797 4.6797-12.359 0-17.039-4.6797-4.6797-12.238-4.6797-16.922 0-4.6797 4.6797-4.6797 12.359 0 17.039 2.4023 2.2812 5.4023 3.4805 8.5234 3.4805z"
       id="path20" />
    <path
       d="m452.16 918.6c-4.6797-4.6797-12.359-4.6797-17.039 0-4.6797 4.6797-4.6797 12.359 0 17.039 2.3984 2.2812 5.3984 3.4805 8.5195 3.4805s6.1211-1.1992 8.5195-3.4805c4.5586-4.6797 4.5586-12.359 0-17.039z"
       id="path22" />
    <path
       d="m258.36 1035.4c-4.5586 4.6797-4.5586 12.238 0 16.922 2.3984 2.3984 5.5195 3.6016 8.5195 3.6016 3.1211 0 6.1211-1.1992 8.5195-3.6016 4.6797-4.6797 4.6797-12.238 0-16.922-4.6797-4.6797-12.359-4.6797-17.039 0z"
       id="path24" />
    <path
       d="m368.76 954c3 0 6.1211-1.1992 8.5195-3.4805 4.5586-4.6797 4.5586-12.359 0-17.039-4.8008-4.6797-12.359-4.6797-17.039 0-4.6797 4.6797-4.6797 12.359 0 17.039 2.3984 2.2812 5.3984 3.4805 8.5195 3.4805z"
       id="path26" />
    <path
       d="m445.08 877.68c3.1211 0 6.1211-1.1992 8.5195-3.6016 4.6797-4.6797 4.6797-12.238 0-16.922-4.6797-4.6797-12.359-4.6797-17.039 0-4.6797 4.6797-4.6797 12.238 0 16.922 2.4023 2.4023 5.4023 3.6016 8.5195 3.6016z"
       id="path28" />
    <path
       d="m283.8 1009.9c-4.5586 4.6797-4.5586 12.238 0 16.922 2.3984 2.3984 5.5195 3.4805 8.5195 3.4805 3.1211 0 6.1211-1.0781 8.5195-3.4805 4.6797-4.6797 4.6797-12.238 0-16.922-4.6797-4.6836-12.238-4.6836-17.039 0z"
       id="path30" />
    <path
       d="m394.2 928.56c3 0 6.1211-1.1992 8.5195-3.4805 4.5586-4.6797 4.5586-12.359 0-17.039-4.6797-4.6797-12.359-4.6797-17.039 0-4.6797 4.6797-4.6797 12.359 0 17.039 2.3984 2.2812 5.3984 3.4805 8.5195 3.4805z"
       id="path32" />
    <path
       d="m419.64 903.12c3.1211 0 6.1211-1.1992 8.5195-3.4805 4.6797-4.6797 4.6797-12.359 0-17.039-4.6797-4.6797-12.359-4.6797-17.039 0-4.6797 4.6797-4.6797 12.359 0 17.039 2.3984 2.2812 5.3984 3.4805 8.5195 3.4805z"
       id="path34" />
    <path
       d="m249.96 1060.8c-4.6797-4.6797-12.359-4.6797-17.039 0-4.6797 4.6797-4.6797 12.238 0 16.922 2.3984 2.3984 5.3984 3.6016 8.5195 3.6016s6.1211-1.1992 8.5195-3.6016c4.6797-4.6836 4.6797-12.242 0-16.922z"
       id="path36" />
    <path
       d="m343.2 979.44c3.1211 0 6.2383-1.1992 8.5195-3.4805 4.6797-4.6797 4.6797-12.238 0-17.039-4.6797-4.5586-12.238-4.5586-16.922 0-4.6797 4.8008-4.6797 12.359 0 17.039 2.2812 2.2773 5.4023 3.4805 8.4023 3.4805z"
       id="path38" />
    <path
       d="m495.96 826.68c3.1211 0 6.2383-1.0781 8.5195-3.4805 4.6797-4.6797 4.6797-12.238 0-16.922-4.6797-4.6797-12.238-4.6797-16.922 0-4.6797 4.6797-4.6797 12.238 0 16.922 2.2812 2.4023 5.4023 3.4805 8.4023 3.4805z"
       id="path40" />
    <path
       d="m462.12 848.64c2.2812 2.3984 5.3984 3.6016 8.3984 3.6016 3.1211 0 6.1211-1.1992 8.5195-3.6016 4.6797-4.6797 4.6797-12.238 0-16.922-4.6797-4.6797-12.238-4.6797-16.922 0-4.7969 4.6797-4.7969 12.242 0.003906 16.922z"
       id="path42" />
    <path
       d="m309.36 984.48c-4.6797 4.6797-4.6797 12.238 0 16.922 2.2812 2.3984 5.3984 3.4805 8.3984 3.4805 3.1211 0 6.2383-1.0781 8.5195-3.4805 4.6797-4.6797 4.6797-12.238 0-16.922-4.6758-4.6797-12.238-4.6797-16.918 0z"
       id="path44" />
    <path
       d="m521.4 801.24c3.1211 0 6.2383-1.0781 8.5195-3.4805 4.6797-4.6797 4.6797-12.238 0-16.922-4.6797-4.6797-12.238-4.6797-16.922 0-4.6797 4.6797-4.6797 12.238 0 16.922 2.2852 2.4023 5.4023 3.4805 8.4023 3.4805z"
       id="path46" />
    <path
       d="m283.92 949.92c-4.6797 4.6797-4.6797 12.238 0 16.922 2.2812 2.3984 5.3984 3.4805 8.3984 3.4805 3.1211 0 6.2383-1.0781 8.5195-3.4805 4.6797-4.6797 4.6797-12.238 0-16.922-4.6797-4.6836-12.238-4.6836-16.918 0z"
       id="path48" />
    <path
       d="m462.12 788.64c2.2812 2.3984 5.3984 3.6016 8.3984 3.6016 3.1211 0 6.2383-1.1992 8.5195-3.6016 4.6797-4.6797 4.6797-12.238 0-16.922-4.6797-4.6797-12.238-4.6797-16.922 0-4.7969 4.6797-4.7969 12.242 0.003906 16.922z"
       id="path50" />
    <path
       d="m368.76 894c3 0 6.1211-1.1992 8.5195-3.4805 4.5586-4.6797 4.5586-12.359 0-17.039-4.8008-4.6797-12.359-4.6797-17.039 0-4.6797 4.6797-4.6797 12.359 0 17.039 2.3984 2.2812 5.3984 3.4805 8.5195 3.4805z"
       id="path52" />
    <path
       d="m394.2 868.56c3 0 6.1211-1.1992 8.5195-3.4805 4.5586-4.6797 4.5586-12.359 0-17.039-4.6797-4.6797-12.359-4.6797-17.039 0-4.6797 4.6797-4.6797 12.359 0 17.039 2.3984 2.2812 5.3984 3.4805 8.5195 3.4805z"
       id="path54" />
    <path
       d="m258.36 975.36c-4.6797 4.6797-4.6797 12.238 0 16.922 2.3984 2.3984 5.5195 3.6016 8.5195 3.6016 3.1211 0 6.1211-1.1992 8.5195-3.6016 4.6797-4.6797 4.6797-12.238 0-16.922-4.6797-4.6797-12.238-4.6797-17.039 0z"
       id="path56" />
    <path
       d="m317.76 944.88c3.1211 0 6.2383-1.0781 8.5195-3.4805 4.6797-4.6797 4.6797-12.238 0-16.922-4.6797-4.6797-12.238-4.6797-17.039 0-4.5586 4.6797-4.5586 12.238 0 16.922 2.3984 2.4023 5.5195 3.4805 8.5195 3.4805z"
       id="path58" />
    <path
       d="m241.44 1021.3c3.1211 0 6.1211-1.1992 8.5195-3.4805 4.6797-4.8008 4.6797-12.359 0-17.039-4.6797-4.6797-12.359-4.6797-17.039 0-4.6797 4.6797-4.6797 12.238 0 17.039 2.3984 2.2812 5.3984 3.4805 8.5195 3.4805z"
       id="path60" />
    <path
       d="m445.08 817.68c3.1211 0 6.1211-1.1992 8.5195-3.6016 4.6797-4.6797 4.6797-12.238 0-16.922-4.6797-4.6797-12.359-4.6797-17.039 0-4.6797 4.6797-4.6797 12.238 0 16.922 2.4023 2.4023 5.5195 3.6016 8.5195 3.6016z"
       id="path62" />
    <path
       d="m343.32 919.44c3 0 6.1211-1.1992 8.3984-3.4805 4.6797-4.6797 4.6797-12.359 0-17.039-4.6797-4.5586-12.238-4.5586-16.922 0-4.6797 4.6797-4.6797 12.359 0 17.039 2.2812 2.2773 5.4023 3.4805 8.5234 3.4805z"
       id="path64" />
    <path
       d="m419.64 843.12c3.1211 0 6.1211-1.1992 8.5195-3.4805 4.6797-4.6797 4.6797-12.359 0-17.039-4.6797-4.6797-12.359-4.6797-17.039 0-4.6797 4.6797-4.6797 12.359 0 17.039 2.3984 2.2812 5.3984 3.4805 8.5195 3.4805z"
       id="path66" />
    <path
       d="m495.96 766.68c3.1211 0 6.2383-1.0781 8.5195-3.4805 4.6797-4.6797 4.6797-12.238 0-16.922-4.6797-4.6797-12.238-4.6797-16.922 0-4.6797 4.6797-4.6797 12.238 0 16.922 2.2812 2.4023 5.4023 3.4805 8.4023 3.4805z"
       id="path68" />
    <path
       d="m521.52 741.24c3 0 6.1211-1.0781 8.3984-3.4805 4.6797-4.6797 4.6797-12.238 0-16.922-4.6797-4.6797-12.238-4.6797-16.922 0-4.6797 4.6797-4.6797 12.238 0 16.922 2.2852 2.4023 5.4023 3.4805 8.5234 3.4805z"
       id="path70" />
    <path
       d="m258.36 915.36c-4.5586 4.6797-4.5586 12.238 0 16.922 2.3984 2.3984 5.5195 3.6016 8.5195 3.6016 3.1211 0 6.1211-1.1992 8.5195-3.6016 4.6797-4.6797 4.6797-12.238 0-16.922-4.6797-4.6797-12.359-4.6797-17.039 0z"
       id="path72" />
    <path
       d="m317.76 884.88c3.1211 0 6.2383-1.0781 8.5195-3.4805 4.6797-4.6797 4.6797-12.238 0-16.922-4.6797-4.6797-12.238-4.6797-16.922 0-4.6797 4.6797-4.6797 12.238 0 16.922 2.2812 2.4023 5.4023 3.4805 8.4023 3.4805z"
       id="path74" />
    <path
       d="m241.44 961.32c3.1211 0 6.1211-1.1992 8.5195-3.4805 4.6797-4.8008 4.6797-12.359 0-17.039-4.6797-4.6797-12.359-4.6797-17.039 0-4.6797 4.6797-4.6797 12.238 0 17.039 2.3984 2.2812 5.3984 3.4805 8.5195 3.4805z"
       id="path76" />
    <path
       d="m343.32 859.44c3 0 6.1211-1.1992 8.3984-3.4805 4.6797-4.6797 4.6797-12.359 0-17.039s-12.238-4.6797-16.922 0c-4.6797 4.6797-4.6797 12.359 0 17.039 2.2812 2.2773 5.4023 3.4805 8.5234 3.4805z"
       id="path78" />
    <path
       d="m521.4 681.24c3.1211 0 6.2383-1.0781 8.5195-3.4805 4.6797-4.6797 4.6797-12.238 0-16.922-4.6797-4.6797-12.238-4.6797-16.922 0-4.6797 4.6797-4.6797 12.238 0 16.922 2.2852 2.4023 5.4023 3.4805 8.4023 3.4805z"
       id="path80" />
    <path
       d="m419.64 783.12c3.1211 0 6.1211-1.1992 8.5195-3.4805 4.6797-4.6797 4.6797-12.359 0-17.039-4.6797-4.6797-12.359-4.6797-17.039 0-4.6797 4.6797-4.6797 12.359 0 17.039 2.3984 2.2812 5.3984 3.4805 8.5195 3.4805z"
       id="path82" />
    <path
       d="m394.2 808.56c3 0 6.1211-1.1992 8.5195-3.4805 4.5586-4.6797 4.5586-12.359 0-17.039-4.8008-4.6797-12.359-4.6797-17.039 0-4.6797 4.6797-4.6797 12.359 0 17.039 2.3984 2.2812 5.3984 3.4805 8.5195 3.4805z"
       id="path84" />
    <path
       d="m445.08 757.68c3.1211 0 6.1211-1.1992 8.5195-3.6016 4.6797-4.6797 4.6797-12.238 0-16.922-4.6797-4.6797-12.359-4.6797-17.039 0-4.6797 4.6797-4.6797 12.238 0 16.922 2.4023 2.4023 5.5195 3.6016 8.5195 3.6016z"
       id="path86" />
    <path
       d="m495.96 706.68c3.1211 0 6.2383-1.0781 8.5195-3.4805 4.6797-4.6797 4.6797-12.238 0-16.922-4.6797-4.6797-12.238-4.6797-16.922 0-4.6797 4.6797-4.6797 12.238 0 16.922 2.2812 2.4023 5.4023 3.4805 8.4023 3.4805z"
       id="path88" />
    <path
       d="m283.92 889.92c-4.6797 4.6797-4.6797 12.238 0 16.922 2.2812 2.3984 5.3984 3.6016 8.3984 3.6016 3.1211 0 6.1211-1.1992 8.5195-3.6016 4.6797-4.6797 4.6797-12.238 0-16.922-4.6797-4.6836-12.238-4.6836-16.918 0z"
       id="path90" />
    <path
       d="m462.12 728.64c2.2812 2.3984 5.3984 3.4805 8.3984 3.4805 3.1211 0 6.1211-1.0781 8.5195-3.4805 4.6797-4.6797 4.6797-12.238 0-16.922-4.6797-4.6797-12.238-4.6797-16.922 0-4.7969 4.6797-4.7969 12.242 0.003906 16.922z"
       id="path92" />
    <path
       d="m368.76 834c3 0 6.1211-1.1992 8.3984-3.4805 4.6797-4.6797 4.6797-12.359 0-17.039-4.6797-4.6797-12.238-4.6797-16.922 0-4.6797 4.6797-4.6797 12.359 0 17.039 2.4023 2.2812 5.4023 3.4805 8.5234 3.4805z"
       id="path94" />
    <path
       d="m495.96 646.68c3.1211 0 6.2383-1.0781 8.5195-3.4805 4.6797-4.6797 4.6797-12.238 0-16.922-4.6797-4.6797-12.238-4.6797-16.922 0-4.6797 4.6797-4.6797 12.238 0 16.922 2.2812 2.4023 5.4023 3.4805 8.4023 3.4805z"
       id="path96" />
    <path
       d="m521.4 621.24c3.1211 0 6.2383-1.0781 8.5195-3.4805 4.6797-4.6797 4.6797-12.238 0-16.922-4.6797-4.6797-12.238-4.6797-16.922 0-4.6797 4.6797-4.6797 12.238 0 16.922 2.2852 2.4023 5.4023 3.4805 8.4023 3.4805z"
       id="path98" />
    <path
       d="m317.76 824.88c3.1211 0 6.2383-1.0781 8.5195-3.4805 4.6797-4.6797 4.6797-12.238 0-16.922-4.6797-4.6797-12.238-4.6797-16.922 0-4.6797 4.6797-4.6797 12.238 0 16.922 2.2812 2.4023 5.4023 3.4805 8.4023 3.4805z"
       id="path100" />
    <path
       d="m419.64 723.12c3.1211 0 6.1211-1.1992 8.5195-3.4805 4.6797-4.6797 4.6797-12.359 0-17.039-4.6797-4.6797-12.359-4.6797-17.039 0-4.6797 4.6797-4.6797 12.359 0 17.039 2.3984 2.2812 5.3984 3.4805 8.5195 3.4805z"
       id="path102" />
    <path
       d="m368.76 774c3 0 6.1211-1.1992 8.5195-3.4805 4.5586-4.6797 4.5586-12.359 0-17.039-4.8008-4.6797-12.359-4.6797-17.039 0-4.6797 4.6797-4.6797 12.359 0 17.039 2.2773 2.2812 5.3984 3.4805 8.5195 3.4805z"
       id="path104" />
    <path
       d="m394.2 748.56c3 0 6.1211-1.1992 8.5195-3.4805 4.6797-4.6797 4.6797-12.359 0-17.039-4.6797-4.6797-12.359-4.6797-17.039 0-4.6797 4.6797-4.6797 12.359 0 17.039 2.3984 2.2812 5.3984 3.4805 8.5195 3.4805z"
       id="path106" />
    <path
       d="m343.32 799.44c3 0 6.1211-1.1992 8.3984-3.4805 4.6797-4.6797 4.6797-12.238 0-16.922-4.6797-4.6797-12.238-4.6797-16.922 0-4.6797 4.6797-4.6797 12.238 0 16.922 2.2812 2.2773 5.4023 3.4805 8.5234 3.4805z"
       id="path108" />
    <path
       d="m445.08 697.68c3.1211 0 6.1211-1.1992 8.5195-3.6016 4.6797-4.6797 4.6797-12.238 0-16.922-4.6797-4.6797-12.359-4.6797-17.039 0-4.6797 4.6797-4.6797 12.238 0 16.922 2.4023 2.4023 5.5195 3.6016 8.5195 3.6016z"
       id="path110" />
    <path
       d="m470.52 672.24c3.1211 0 6.2383-1.1992 8.5195-3.6016 4.6797-4.6797 4.6797-12.238 0-16.922-4.6797-4.6797-12.238-4.6797-16.922 0-4.6797 4.6797-4.6797 12.238 0 16.922 2.2812 2.4023 5.4023 3.6016 8.4023 3.6016z"
       id="path112" />
    <path
       d="m258.36 855.36c-4.6797 4.6797-4.6797 12.238 0 16.922 2.3984 2.3984 5.5195 3.6016 8.5195 3.6016 3.1211 0 6.1211-1.1992 8.5195-3.6016 4.6797-4.6797 4.6797-12.238 0-16.922-4.6797-4.6797-12.238-4.6797-17.039 0z"
       id="path114" />
    <path
       d="m283.8 829.92c-4.5586 4.6797-4.5586 12.238 0 16.922 2.3984 2.3984 5.5195 3.6016 8.5195 3.6016 3.1211 0 6.1211-1.1992 8.5195-3.6016 4.6797-4.6797 4.6797-12.238 0-16.922-4.6797-4.6836-12.238-4.6836-17.039 0z"
       id="path116" />
    <path
       d="m241.44 901.32c3.1211 0 6.1211-1.1992 8.5195-3.6016 4.6797-4.6797 4.6797-12.238 0-16.922-4.6797-4.6797-12.359-4.6797-17.039 0s-4.6797 12.238 0 16.922c2.3984 2.4023 5.3984 3.6016 8.5195 3.6016z"
       id="path118" />
    <path
       d="m368.76 714c3 0 6.1211-1.1992 8.3984-3.4805 4.6797-4.6797 4.6797-12.359 0-17.039-4.6797-4.6797-12.238-4.6797-16.922 0-4.6797 4.6797-4.6797 12.359 0 17.039 2.4023 2.2812 5.4023 3.4805 8.5234 3.4805z"
       id="path120" />
    <path
       d="m343.32 739.44c3 0 6.1211-1.1992 8.3984-3.4805 4.6797-4.6797 4.6797-12.238 0-17.039-4.6797-4.6797-12.238-4.6797-16.922 0-4.6797 4.8008-4.6797 12.359 0 17.039 2.2812 2.2773 5.4023 3.4805 8.5234 3.4805z"
       id="path122" />
    <path
       d="m241.44 841.32c3.1211 0 6.1211-1.1992 8.5195-3.4805 4.6797-4.8008 4.6797-12.359 0-17.039-4.6797-4.6797-12.359-4.6797-17.039 0-4.6797 4.6797-4.6797 12.238 0 17.039 2.3984 2.2812 5.3984 3.4805 8.5195 3.4805z"
       id="path124" />
    <path
       d="m394.2 688.56c3 0 6.1211-1.1992 8.5195-3.4805 4.6797-4.6797 4.6797-12.359 0-17.039-4.6797-4.6797-12.359-4.6797-17.039 0-4.6797 4.6797-4.6797 12.359 0 17.039 2.3984 2.2812 5.3984 3.4805 8.5195 3.4805z"
       id="path126" />
    <path
       d="m495.96 586.68c3.1211 0 6.2383-1.0781 8.5195-3.4805 4.6797-4.6797 4.6797-12.238 0-16.922-4.6797-4.6797-12.238-4.6797-16.922 0-4.6797 4.6797-4.6797 12.238 0 16.922 2.2812 2.4023 5.4023 3.4805 8.4023 3.4805z"
       id="path128" />
    <path
       d="m258.36 795.36c-4.6797 4.6797-4.6797 12.238 0 16.922 2.3984 2.3984 5.3984 3.6016 8.5195 3.6016s6.1211-1.1992 8.5195-3.6016c4.6797-4.6797 4.6797-12.238 0-16.922-4.6797-4.6797-12.359-4.6797-17.039 0z"
       id="path130" />
    <path
       d="m283.92 769.92c-4.6797 4.6797-4.6797 12.238 0 16.922 2.2812 2.3984 5.3984 3.4805 8.3984 3.4805 3.1211 0 6.2383-1.0781 8.5195-3.4805 4.6797-4.6797 4.6797-12.238 0-16.922-4.6797-4.6836-12.238-4.6836-16.918 0z"
       id="path132" />
    <path
       d="m419.64 663.12c3.1211 0 6.1211-1.1992 8.5195-3.4805 4.6797-4.6797 4.6797-12.359 0-17.039-4.6797-4.6797-12.359-4.6797-17.039 0-4.6797 4.6797-4.6797 12.359 0 17.039 2.3984 2.2812 5.3984 3.4805 8.5195 3.4805z"
       id="path134" />
    <path
       d="m445.08 637.68c3.1211 0 6.1211-1.1992 8.5195-3.4805 4.6797-4.8008 4.6797-12.359 0-17.039-4.6797-4.6797-12.359-4.6797-17.039 0-4.6797 4.6797-4.6797 12.238 0 17.039 2.4023 2.2812 5.5195 3.4805 8.5195 3.4805z"
       id="path136" />
    <path
       d="m521.4 561.24c3.1211 0 6.2383-1.0781 8.5195-3.4805 4.6797-4.6797 4.6797-12.238 0-16.922-4.6797-4.6797-12.238-4.6797-16.922 0-4.6797 4.6797-4.6797 12.238 0 16.922 2.2852 2.4023 5.4023 3.4805 8.4023 3.4805z"
       id="path138" />
    <path
       d="m317.76 765c3.1211 0 6.2383-1.1992 8.5195-3.6016 4.6797-4.6797 4.6797-12.238 0-16.922-4.6797-4.6797-12.238-4.6797-16.922 0-4.6797 4.6797-4.6797 12.238 0 16.922 2.2812 2.4023 5.4023 3.6016 8.4023 3.6016z"
       id="path140" />
    <path
       d="m470.52 612.24c3.1211 0 6.1211-1.1992 8.5195-3.6016 4.6797-4.6797 4.6797-12.238 0-16.922-4.6797-4.6797-12.238-4.6797-17.039 0-4.6797 4.6797-4.6797 12.238 0 16.922 2.3984 2.4023 5.5195 3.6016 8.5195 3.6016z"
       id="path142" />
    <path
       d="m470.52 552.24c3.1211 0 6.1211-1.1992 8.5195-3.6016 4.6797-4.6797 4.6797-12.238 0-16.922-4.6797-4.6797-12.238-4.6797-17.039 0-4.6797 4.6797-4.6797 12.238 0 16.922 2.3984 2.4023 5.5195 3.6016 8.5195 3.6016z"
       id="path144" />
    <path
       d="m521.4 501.24c3.1211 0 6.2383-1.1992 8.5195-3.4805 4.6797-4.6797 4.6797-12.238 0-16.922-4.6797-4.6797-12.238-4.6797-16.922 0-4.6797 4.6797-4.6797 12.238 0 16.922 2.2852 2.2812 5.4023 3.4805 8.4023 3.4805z"
       id="path146" />
    <path
       d="m368.76 654c3 0 6.1211-1.1992 8.3984-3.4805 4.6797-4.6797 4.6797-12.359 0-17.039-4.6797-4.6797-12.238-4.6797-16.922 0-4.6797 4.6797-4.6797 12.359 0 17.039 2.2812 2.2812 5.4023 3.4805 8.5234 3.4805z"
       id="path148" />
    <path
       d="m283.92 709.92c-4.6797 4.6797-4.6797 12.238 0 16.922 2.2812 2.3984 5.3984 3.4805 8.3984 3.4805 3.1211 0 6.1211-1.0781 8.5195-3.4805 4.6797-4.6797 4.6797-12.238 0-16.922-4.6797-4.6836-12.238-4.6836-16.918 0z"
       id="path150" />
    <path
       d="m419.64 603.12c3.1211 0 6.1211-1.1992 8.5195-3.4805 4.6797-4.6797 4.6797-12.359 0-17.039-4.8008-4.6797-12.359-4.6797-17.039 0-4.6797 4.6797-4.6797 12.359 0 17.039 2.3984 2.2812 5.3984 3.4805 8.5195 3.4805z"
       id="path152" />
    <path
       d="m495.96 526.8c3.1211 0 6.2383-1.1992 8.5195-3.6016 4.6797-4.6797 4.6797-12.238 0-16.922-4.6797-4.6797-12.238-4.6797-16.922 0-4.6797 4.6797-4.6797 12.238 0 16.922 2.2812 2.4023 5.4023 3.6016 8.4023 3.6016z"
       id="path154" />
    <path
       d="m394.2 628.56c3 0 6.1211-1.1992 8.5195-3.4805 4.6797-4.6797 4.6797-12.359 0-17.039-4.8008-4.6797-12.359-4.6797-17.039 0-4.6797 4.6797-4.6797 12.359 0 17.039 2.3984 2.2812 5.3984 3.4805 8.5195 3.4805z"
       id="path156" />
    <path
       d="m445.08 577.68c3.1211 0 6.1211-1.1992 8.5195-3.6016 4.6797-4.5586 4.6797-12.238 0-16.922-4.6797-4.6797-12.238-4.6797-17.039 0-4.6797 4.6797-4.6797 12.359 0 16.922 2.4023 2.4023 5.5195 3.6016 8.5195 3.6016z"
       id="path158" />
    <path
       d="m241.44 781.32c3.1211 0 6.1211-1.1992 8.5195-3.4805 4.6797-4.8008 4.6797-12.359 0-17.039-4.6797-4.6797-12.359-4.6797-17.039 0-4.6797 4.6797-4.6797 12.238 0 17.039 2.3984 2.2812 5.3984 3.4805 8.5195 3.4805z"
       id="path160" />
    <path
       d="m343.32 679.44c3 0 6.1211-1.1992 8.3984-3.4805 4.6797-4.6797 4.6797-12.359 0-16.922-4.6797-4.6797-12.238-4.6797-16.922 0-4.6797 4.5586-4.6797 12.238 0 16.922 2.2812 2.2773 5.4023 3.4805 8.5234 3.4805z"
       id="path162" />
    <path
       d="m317.76 704.88c3.1211 0 6.2383-1.0781 8.5195-3.4805 4.6797-4.6797 4.6797-12.238 0-16.922-4.6797-4.6797-12.238-4.6797-16.922 0-4.6797 4.6797-4.6797 12.238 0 16.922 2.2812 2.4023 5.4023 3.4805 8.4023 3.4805z"
       id="path164" />
    <path
       d="m258.36 735.36c-4.6797 4.6797-4.6797 12.238 0 16.922 2.3984 2.3984 5.5195 3.6016 8.5195 3.6016 3.1211 0 6.1211-1.1992 8.5195-3.6016 4.6797-4.6797 4.6797-12.238 0-16.922-4.6797-4.6797-12.238-4.6797-17.039 0z"
       id="path166" />
    <path
       d="m343.32 619.44c3 0 6.1211-1.1992 8.3984-3.4805 4.6797-4.6797 4.6797-12.238 0-17.039-4.6797-4.6797-12.238-4.6797-16.922 0-4.6797 4.8008-4.6797 12.359 0 17.039 2.2812 2.2773 5.4023 3.4805 8.5234 3.4805z"
       id="path168" />
    <path
       d="m394.2 568.56c3 0 6.1211-1.1992 8.5195-3.4805 4.5586-4.6797 4.5586-12.359 0-17.039-4.6797-4.6797-12.359-4.6797-17.039 0-4.6797 4.6797-4.6797 12.359 0 17.039 2.3984 2.2812 5.3984 3.4805 8.5195 3.4805z"
       id="path170" />
    <path
       d="m283.8 649.92c-4.5586 4.6797-4.5586 12.238 0 16.922 2.3984 2.3984 5.5195 3.6016 8.5195 3.6016 3.1211 0 6.1211-1.1992 8.5195-3.6016 4.6797-4.6797 4.6797-12.238 0-16.922-4.6797-4.6836-12.238-4.6836-17.039 0z"
       id="path172" />
    <path
       d="m445.08 517.68c3.1211 0 6.1211-1.1992 8.5195-3.6016 4.6797-4.6797 4.6797-12.238 0-16.922-4.6797-4.6797-12.359-4.6797-17.039 0-4.6797 4.6797-4.6797 12.238 0 16.922 2.4023 2.4023 5.5195 3.6016 8.5195 3.6016z"
       id="path174" />
    <path
       d="m368.76 594c3 0 6.1211-1.1992 8.3984-3.4805 4.6797-4.6797 4.6797-12.359 0-17.039-4.6797-4.6797-12.238-4.6797-16.922 0-4.6797 4.6797-4.6797 12.359 0 17.039 2.2812 2.2812 5.4023 3.4805 8.5234 3.4805z"
       id="path176" />
    <path
       d="m258.36 675.36c-4.6797 4.6797-4.6797 12.238 0 16.922 2.3984 2.3984 5.5195 3.6016 8.5195 3.6016 3.1211 0 6.1211-1.1992 8.5195-3.6016 4.6797-4.6797 4.6797-12.238 0-16.922-4.6797-4.6797-12.359-4.6797-17.039 0z"
       id="path178" />
    <path
       d="m241.44 721.32c3.1211 0 6.1211-1.1992 8.5195-3.6016 4.6797-4.5586 4.6797-12.238 0-16.922-4.6797-4.6797-12.359-4.6797-17.039 0s-4.6797 12.359 0 16.922c2.3984 2.4023 5.3984 3.6016 8.5195 3.6016z"
       id="path180" />
    <path
       d="m419.64 543.12c3.1211 0 6.1211-1.1992 8.5195-3.4805 4.6797-4.6797 4.6797-12.359 0-17.039-4.6797-4.6797-12.359-4.6797-17.039 0-4.6797 4.6797-4.6797 12.359 0 17.039 2.3984 2.2812 5.3984 3.4805 8.5195 3.4805z"
       id="path182" />
    <path
       d="m317.76 644.88c3.1211 0 6.2383-1.0781 8.5195-3.4805 4.6797-4.6797 4.6797-12.238 0-16.922-4.6797-4.6797-12.238-4.6797-16.922 0-4.6797 4.6797-4.6797 12.238 0 16.922 2.2812 2.4023 5.4023 3.4805 8.4023 3.4805z"
       id="path184" />
    <path
       d="m495.96 466.68c3.1211 0 6.2383-1.0781 8.5195-3.4805 4.6797-4.6797 4.6797-12.238 0-16.922-4.6797-4.6797-12.238-4.6797-16.922 0-4.6797 4.6797-4.6797 12.238 0 16.922 2.2812 2.4023 5.4023 3.4805 8.4023 3.4805z"
       id="path186" />
    <path
       d="m470.52 492.24c3.1211 0 6.2383-1.1992 8.5195-3.6016 4.6797-4.6797 4.6797-12.238 0-16.922-4.6797-4.6797-12.238-4.6797-17.039 0-4.5586 4.6797-4.5586 12.238 0 16.922 2.3984 2.4023 5.5195 3.6016 8.5195 3.6016z"
       id="path188" />
    <path
       d="m419.64 483.12c3.1211 0 6.1211-1.1992 8.5195-3.4805 4.6797-4.6797 4.6797-12.359 0-17.039-4.6797-4.6797-12.359-4.6797-17.039 0-4.6797 4.6797-4.6797 12.359 0 17.039 2.3984 2.2812 5.3984 3.4805 8.5195 3.4805z"
       id="path190" />
    <path
       d="m317.76 584.88c3.1211 0 6.2383-1.0781 8.5195-3.4805 4.6797-4.6797 4.6797-12.238 0-16.922-4.6797-4.6797-12.238-4.6797-16.922 0-4.6797 4.6797-4.6797 12.238 0 16.922 2.2812 2.4023 5.4023 3.4805 8.4023 3.4805z"
       id="path192" />
    <path
       d="m445.08 457.68c3.1211 0 6.1211-1.1992 8.5195-3.6016 4.6797-4.6797 4.6797-12.238 0-16.922-4.6797-4.6797-12.359-4.6797-17.039 0-4.6797 4.6797-4.6797 12.238 0 16.922 2.4023 2.4023 5.5195 3.6016 8.5195 3.6016z"
       id="path194" />
    <path
       d="m241.44 661.32c3.1211 0 6.1211-1.1992 8.5195-3.6016 4.6797-4.6797 4.6797-12.238 0-16.922-4.6797-4.6797-12.359-4.6797-17.039 0s-4.6797 12.238 0 16.922c2.3984 2.4023 5.3984 3.6016 8.5195 3.6016z"
       id="path196" />
    <path
       d="m258.48 615.36c-4.8008 4.6797-4.8008 12.238 0 16.922 2.2812 2.3984 5.3984 3.6016 8.3984 3.6016 3.1211 0 6.1211-1.1992 8.5195-3.6016 4.6797-4.6797 4.6797-12.238 0-16.922-4.6797-4.6797-12.359-4.6797-16.918 0z"
       id="path198" />
    <path
       d="m283.92 589.92c-4.6797 4.6797-4.6797 12.238 0 16.922 2.2812 2.3984 5.3984 3.6016 8.3984 3.6016 3.1211 0 6.2383-1.1992 8.5195-3.6016 4.6797-4.6797 4.6797-12.238 0-16.922-4.6797-4.6836-12.238-4.6836-16.918 0z"
       id="path200" />
    <path
       d="m368.76 534c3 0 6.1211-1.1992 8.3984-3.4805 4.6797-4.6797 4.6797-12.359 0-17.039-4.6797-4.6797-12.238-4.6797-16.922 0-4.6797 4.6797-4.6797 12.359 0 17.039 2.4023 2.2812 5.4023 3.4805 8.5234 3.4805z"
       id="path202" />
    <path
       d="m343.32 559.44c3 0 6.1211-1.1992 8.3984-3.4805 4.6797-4.6797 4.6797-12.238 0-16.922-4.6797-4.6797-12.238-4.6797-16.922 0-4.6797 4.6797-4.6797 12.238 0 16.922 2.2812 2.2773 5.4023 3.4805 8.5234 3.4805z"
       id="path204" />
    <path
       d="m394.2 508.56c3 0 6.1211-1.1992 8.5195-3.4805 4.6797-4.6797 4.6797-12.359 0-17.039-4.6797-4.6797-12.359-4.6797-17.039 0-4.6797 4.6797-4.6797 12.359 0 17.039 2.3984 2.2812 5.3984 3.4805 8.5195 3.4805z"
       id="path206" />
    <path
       d="m317.76 524.88c3.1211 0 6.2383-1.0781 8.5195-3.4805 4.6797-4.6797 4.6797-12.238 0-16.922-4.6797-4.6797-12.238-4.6797-16.922 0-4.6797 4.6797-4.6797 12.238 0 16.922 2.2812 2.4023 5.4023 3.4805 8.4023 3.4805z"
       id="path208" />
    <path
       d="m241.44 601.32c3.1211 0 6.1211-1.1992 8.5195-3.4805 4.6797-4.8008 4.6797-12.359 0-17.039-4.6797-4.6797-12.359-4.6797-17.039 0-4.6797 4.6797-4.6797 12.238 0 17.039 2.3984 2.2812 5.3984 3.4805 8.5195 3.4805z"
       id="path210" />
    <path
       d="m258.36 555.36c-4.5586 4.6797-4.5586 12.238 0 16.922 2.3984 2.3984 5.5195 3.6016 8.5195 3.6016 3.1211 0 6.1211-1.1992 8.5195-3.6016 4.6797-4.6797 4.6797-12.238 0-16.922-4.6797-4.6797-12.238-4.6797-17.039 0z"
       id="path212" />
    <path
       d="m283.92 529.92c-4.6797 4.6797-4.6797 12.238 0 16.922 2.2812 2.3984 5.3984 3.6016 8.3984 3.6016 3.1211 0 6.2383-1.1992 8.5195-3.6016 4.6797-4.6797 4.6797-12.238 0-16.922-4.6797-4.6836-12.238-4.6836-16.918 0z"
       id="path214" />
    <path
       d="m343.2 499.44c3.1211 0 6.2383-1.1992 8.5195-3.4805 4.6797-4.6797 4.6797-12.359 0-17.039s-12.238-4.6797-16.922 0c-4.6797 4.6797-4.6797 12.359 0 17.039 2.2812 2.2773 5.4023 3.4805 8.4023 3.4805z"
       id="path216" />
    <path
       d="m368.76 474c3 0 6.1211-1.1992 8.3984-3.4805 4.6797-4.6797 4.6797-12.359 0-17.039-4.6797-4.6797-12.238-4.6797-16.922 0-4.6797 4.6797-4.6797 12.359 0 17.039 2.2812 2.2812 5.4023 3.4805 8.5234 3.4805z"
       id="path218" />
    <path
       d="m258.36 495.36c-4.5586 4.6797-4.5586 12.238 0 17.039 2.3984 2.2812 5.3984 3.4805 8.5195 3.4805s6.1211-1.1992 8.5195-3.4805c4.6797-4.8008 4.6797-12.359 0-17.039-4.6797-4.6797-12.359-4.6797-17.039 0z"
       id="path220" />
    <path
       d="m241.44 541.32c3.1211 0 6.1211-1.1992 8.5195-3.6016 4.6797-4.6797 4.6797-12.238 0-16.922-4.6797-4.6797-12.359-4.6797-17.039 0s-4.6797 12.238 0 16.922c2.3984 2.4023 5.3984 3.6016 8.5195 3.6016z"
       id="path222" />
    <path
       d="m283.8 469.92c-4.5586 4.6797-4.5586 12.238 0 16.922 2.3984 2.3984 5.5195 3.4805 8.5195 3.4805 3.1211 0 6.1211-1.0781 8.5195-3.4805 4.6797-4.6797 4.6797-12.238 0-16.922-4.6797-4.6836-12.238-4.6836-17.039 0z"
       id="path224" />
    <path
       d="m317.76 464.88c3.1211 0 6.2383-1.0781 8.5195-3.4805 4.6797-4.6797 4.6797-12.238 0-16.922-4.6797-4.6797-12.238-4.6797-16.922 0-4.6797 4.6797-4.6797 12.238 0 16.922 2.2812 2.4023 5.4023 3.4805 8.4023 3.4805z"
       id="path226" />
    <path
       d="m241.44 481.32c3.1211 0 6.1211-1.1992 8.5195-3.6016 4.6797-4.6797 4.6797-12.238 0-16.922-4.6797-4.6797-12.359-4.6797-17.039 0s-4.6797 12.238 0 16.922c2.3984 2.4023 5.3984 3.6016 8.5195 3.6016z"
       id="path228" />
    <path
       d="m258.36 435.36c-4.5586 4.6797-4.5586 12.238 0 16.922 2.3984 2.3984 5.3984 3.6016 8.5195 3.6016s6.1211-1.1992 8.5195-3.6016c4.6797-4.6797 4.6797-12.238 0-16.922-4.6797-4.6797-12.359-4.6797-17.039 0z"
       id="path230" />
    <path
       d="m316.92 1096.8c-4.6797 4.6797-4.6797 12.238 0 17.039 2.3984 2.2812 5.3984 3.4805 8.5195 3.4805s6.1211-1.1992 8.5195-3.4805c4.6797-4.8008 4.6797-12.359 0-17.039-4.6797-4.6797-12.359-4.6797-17.039 0z"
       id="path232" />
    <path
       d="m512.16 918.6c-4.6797-4.6797-12.359-4.6797-17.039 0-4.6797 4.6797-4.6797 12.359 0 17.039 2.3984 2.2812 5.3984 3.4805 8.5195 3.4805s6.1211-1.1992 8.5195-3.4805c4.6797-4.6797 4.6797-12.359 0-17.039z"
       id="path234" />
    <path
       d="m410.28 1020.5c-4.6797-4.6797-12.238-4.6797-16.922 0-4.6797 4.6797-4.6797 12.238 0 16.922 2.2812 2.3984 5.3984 3.4805 8.3984 3.4805 3.1211 0 6.2383-1.0781 8.5195-3.4805 4.6836-4.6836 4.6836-12.242 0.003906-16.922z"
       id="path236" />
    <path
       d="m452.76 990c3 0 6.1211-1.1992 8.5195-3.4805 4.5586-4.6797 4.5586-12.359 0-17.039-4.8008-4.6797-12.359-4.6797-17.039 0-4.6797 4.6797-4.6797 12.359 0 17.039 2.2773 2.2812 5.3984 3.4805 8.5195 3.4805z"
       id="path238" />
    <path
       d="m520.56 893.16c-4.6797 4.6797-4.6797 12.238 0 16.922 2.3984 2.3984 5.5195 3.6016 8.5195 3.6016 3.1211 0 6.1211-1.1992 8.5195-3.6016 4.6797-4.6797 4.6797-12.238 0-16.922-4.6758-4.6797-12.359-4.6797-17.039 0z"
       id="path240" />
    <path
       d="m342.36 1071.4c-4.5586 4.6797-4.5586 12.238 0 16.922 2.3984 2.3984 5.5195 3.6016 8.5195 3.6016 3.1211 0 6.1211-1.1992 8.5195-3.6016 4.6797-4.6797 4.6797-12.238 0-16.922-4.6797-4.6797-12.238-4.6797-17.039 0z"
       id="path242" />
    <path
       d="m486.72 944.04c-4.6797-4.6797-12.359-4.6797-17.039 0-4.6797 4.6797-4.6797 12.359 0 17.039 2.3984 2.2812 5.3984 3.4805 8.5195 3.4805 3 0 6.1211-1.1992 8.5195-3.4805 4.5625-4.6797 4.5625-12.359 0-17.039z"
       id="path244" />
    <path
       d="m435.72 994.92c-4.6797-4.5586-12.238-4.5586-16.922 0-4.6797 4.8008-4.6797 12.359 0 17.039 2.2812 2.2812 5.3984 3.4805 8.5195 3.4805 3 0 6.1211-1.1992 8.3984-3.4805 4.6836-4.6797 4.6836-12.242 0.003906-17.039z"
       id="path246" />
    <path
       d="m384.84 1045.9c-4.6797-4.6797-12.238-4.6797-17.039 0-4.5586 4.6797-4.5586 12.238 0 16.922 2.3984 2.3984 5.5195 3.4805 8.5195 3.4805 3.1211 0 6.1211-1.0781 8.5195-3.4805 4.6797-4.6836 4.6797-12.242 0-16.922z"
       id="path248" />
    <path
       d="m524.76 978c3 0 6.1211-1.1992 8.3984-3.4805 4.6797-4.6797 4.6797-12.359 0-17.039-4.6797-4.6797-12.238-4.6797-16.922 0-4.6797 4.6797-4.6797 12.359 0 17.039 2.4023 2.2812 5.4023 3.4805 8.5234 3.4805z"
       id="path250" />
    <path
       d="m499.32 1003.4c3 0 6.1211-1.1992 8.3984-3.4805 4.6797-4.6797 4.6797-12.359 0-17.039s-12.238-4.6797-16.922 0c-4.6797 4.6797-4.6797 12.359 0 17.039 2.2812 2.2773 5.4023 3.4805 8.5234 3.4805z"
       id="path252" />
    <path
       d="m473.76 1028.9c3.1211 0 6.2383-1.0781 8.5195-3.4805 4.6797-4.6797 4.6797-12.238 0-16.922-4.6797-4.6797-12.238-4.6797-16.922 0-4.6797 4.6797-4.6797 12.238 0 16.922 2.2812 2.4023 5.4023 3.4805 8.4023 3.4805z"
       id="path254" />
    <path
       d="m414.36 1059.4c-4.5586 4.6797-4.5586 12.238 0 16.922 2.3984 2.3984 5.5195 3.6016 8.5195 3.6016 3.1211 0 6.1211-1.1992 8.5195-3.6016 4.6797-4.6797 4.6797-12.238 0-16.922-4.6797-4.6797-12.238-4.6797-17.039 0z"
       id="path256" />
    <path
       d="m388.92 1084.8c-4.6797 4.6797-4.6797 12.238 0 17.039 2.3984 2.2812 5.3984 3.4805 8.5195 3.4805s6.1211-1.1992 8.5195-3.4805c4.6797-4.8008 4.6797-12.359 0-17.039-4.6797-4.6797-12.359-4.6797-17.039 0z"
       id="path258" />
    <path
       d="m456.84 1050.8c4.6797-4.6797 4.6797-12.238 0-16.922-4.6797-4.6797-12.238-4.6797-17.039 0-4.5586 4.6797-4.5586 12.238 0 16.922 2.3984 2.3984 5.5195 3.6016 8.5195 3.6016 3.1211 0 6.2383-1.2031 8.5195-3.6016z"
       id="path260" />
    <path
       d="m448.92 1084.8c-4.6797 4.6797-4.6797 12.238 0 17.039 2.3984 2.2812 5.3984 3.4805 8.5195 3.4805s6.1211-1.1992 8.5195-3.4805c4.6797-4.8008 4.6797-12.359 0-17.039-4.6797-4.6797-12.359-4.6797-17.039 0z"
       id="path262" />
    <path
       d="m525.36 1008.5c-4.6797 4.6797-4.6797 12.238 0 16.922 2.2812 2.3984 5.3984 3.4805 8.3984 3.4805 3.1211 0 6.2383-1.0781 8.5195-3.4805 4.6797-4.6797 4.6797-12.238 0-16.922-4.6758-4.6797-12.238-4.6797-16.918 0z"
       id="path264" />
    <path
       d="m516.84 1050.8c4.6797-4.6797 4.6797-12.238 0-16.922-4.6797-4.6797-12.238-4.6797-17.039 0-4.5586 4.6797-4.5586 12.238 0 16.922 2.3984 2.3984 5.5195 3.6016 8.5195 3.6016 3.1211 0 6.2383-1.2031 8.5195-3.6016z"
       id="path266" />
    <path
       d="m474.36 1059.4c-4.6797 4.6797-4.6797 12.238 0 16.922 2.3984 2.3984 5.5195 3.6016 8.5195 3.6016 3.1211 0 6.1211-1.1992 8.5195-3.6016 4.6797-4.6797 4.6797-12.238 0-16.922-4.6797-4.6797-12.238-4.6797-17.039 0z"
       id="path268" />
    <path
       d="m508.92 1084.8c-4.6797 4.6797-4.6797 12.238 0 17.039 2.3984 2.2812 5.3984 3.4805 8.5195 3.4805s6.1211-1.1992 8.5195-3.4805c4.6797-4.8008 4.6797-12.359 0-17.039-4.6797-4.6797-12.359-4.6797-17.039 0z"
       id="path270" />
    <path
       d="m1116 250.56h-12c-6.6016 0-12 5.3984-12 12 0 6.6016 5.3984 12 12 12h12c6.6016 0 12-5.3984 12-12 0-6.5977-5.3984-12-12-12z"
       id="path272" />
    <path
       d="m1056 250.56h-12c-6.6016 0-12 5.3984-12 12 0 6.6016 5.3984 12 12 12h12c6.6016 0 12-5.3984 12-12 0-6.5977-5.3984-12-12-12z"
       id="path274" />
    <path
       d="m972 181.92c2.3984 0 4.8008-0.71875 6.9609-2.2812l9.7188-6.9609c5.3984-3.8398 6.6016-11.398 2.7617-16.68-3.8398-5.3984-11.398-6.6016-16.68-2.7617l-9.7188 6.9609c-5.3984 3.8398-6.6016 11.398-2.7617 16.68 2.2773 3.2422 6 5.043 9.7188 5.043z"
       id="path276" />
    <path
       d="m1020.8 147c2.3984 0 4.8008-0.71875 6.9609-2.2812l9.7188-6.9609c5.3984-3.8398 6.6016-11.398 2.7617-16.801-3.8398-5.3984-11.281-6.6016-16.801-2.7617l-9.7188 6.9609c-5.3984 3.8398-6.6016 11.398-2.7617 16.801 2.3984 3.3633 6.1211 5.043 9.8398 5.043z"
       id="path278" />
    <path
       d="m1027.8 380.28c-5.3984-3.8398-12.84-2.6406-16.801 2.7617-3.8398 5.3984-2.6406 12.84 2.7617 16.801l9.7188 6.9609c2.1602 1.4414 4.5586 2.2812 6.9609 2.2812 3.7188 0 7.4414-1.8008 9.8398-5.0391 3.8398-5.3984 2.6406-12.84-2.7617-16.801z"
       id="path280" />
    <path
       d="m978.96 345.48c-5.3984-3.8398-12.84-2.6406-16.68 2.7617-3.8398 5.3984-2.6406 12.84 2.7617 16.68l9.7188 7.0781c2.1602 1.5586 4.5586 2.2812 6.9609 2.2812 3.7188 0 7.4414-1.8008 9.7188-5.0391 3.8398-5.3984 2.6406-12.84-2.7617-16.68z"
       id="path282" />
    <path
       d="m575.16 412.92c-0.12109-0.35938-0.23828-0.71875-0.35938-1.0781-0.60156-1.1992-1.3203-2.3984-2.2812-3.3594 0 0 0-0.12109-0.12109-0.12109l-60-60c-2.2812-2.2812-5.2812-3.4805-8.5195-3.4805h-18v-168c0-6.6016-5.3984-12-12-12h-180c-6.6016 0-12 5.3984-12 12v168l-17.879-0.003906c-3.2383 0-6.2383 1.3203-8.5195 3.4805l-60 60s0 0.12109-0.12109 0.12109c-0.96094 0.96094-1.6797 2.1602-2.2812 3.3594-0.12109 0.35938-0.23828 0.71875-0.35938 1.0781-0.35938 1.0781-0.60156 2.0391-0.60156 3.2383 0 0.23828-0.12109 0.48047-0.12109 0.71875v720c0 6.6016 5.3984 12 12 12h360c6.6016 0 12-5.3984 12-12v-720c0-0.23828-0.12109-0.48047-0.12109-0.71875-0.11328-1.1953-0.35547-2.2773-0.71484-3.2344zm-113.16-115.44c-12.238-4.8008-21-16.801-21-30.719 0-13.922 8.7617-25.922 21-30.719zm-156-108.72h156v22.32c-25.68 5.5195-45 28.32-45 55.68s19.32 50.16 45 55.68v22.32h-156zm-37.078 180h230.16l36 36h-302.16zm233.28 756c2.6406-4.5586 2.2812-10.559-1.6797-14.52-4.6797-4.6797-12.359-4.6797-17.039 0-3.9609 3.9609-4.3203 9.9609-1.6797 14.52h-39.602c2.6406-4.5586 2.2812-10.559-1.6797-14.52-4.6797-4.6797-12.359-4.6797-17.039 0-3.9609 3.9609-4.3203 9.9609-1.6797 14.52h-39.602c2.6406-4.5586 2.2812-10.559-1.6797-14.52-4.6797-4.6797-12.359-4.6797-17.039 0-3.9609 3.9609-4.3203 9.9609-1.6797 14.52h-51.602c-0.48047-0.83984-0.96094-1.8008-1.6797-2.5195-4.6797-4.6797-12.359-4.6797-17.039 0-0.71875 0.71875-1.1992 1.6797-1.6797 2.5195h-39.602c-0.48047-0.83984-0.96094-1.8008-1.6797-2.5195-4.6797-4.6797-12.359-4.6797-17.039 0-0.71875 0.71875-1.1992 1.6797-1.6797 2.5195h-13.801v-18c3.1211 0 6.1211-1.1992 8.5195-3.4805 4.6797-4.6797 4.6797-12.359 0-17.039-2.3984-2.3984-5.3984-3.4805-8.5195-3.4805v-36c3.1211 0 6.1211-1.1992 8.5195-3.4805 4.6797-4.6797 4.6797-12.359 0-17.039-2.3984-2.3984-5.3984-3.4805-8.5195-3.4805v-36c3.1211 0 6.1211-1.1992 8.5195-3.4805 4.6797-4.6797 4.6797-12.359 0-17.039-2.3984-2.3984-5.3984-3.4805-8.5195-3.4805v-36c3.1211 0 6.1211-1.1992 8.5195-3.4805 4.6797-4.6797 4.6797-12.359 0-17.039-2.3984-2.3984-5.3984-3.4805-8.5195-3.4805v-36c3.1211 0 6.1211-1.1992 8.5195-3.4805 4.6797-4.6797 4.6797-12.359 0-17.039-2.3984-2.3984-5.3984-3.4805-8.5195-3.4805v-36c3.1211 0 6.1211-1.1992 8.5195-3.4805 4.6797-4.6797 4.6797-12.359 0-17.039-2.3984-2.3984-5.3984-3.4805-8.5195-3.4805v-36c3.1211 0 6.1211-1.1992 8.5195-3.4805 4.6797-4.6797 4.6797-12.359 0-17.039-2.3984-2.3984-5.3984-3.4805-8.5195-3.4805v-36c3.1211 0 6.1211-1.1992 8.5195-3.4805 4.6797-4.6797 4.6797-12.359 0-17.039-2.3984-2.3984-5.3984-3.4805-8.5195-3.4805v-36c3.1211 0 6.1211-1.1992 8.5195-3.4805 4.6797-4.6797 4.6797-12.359 0-17.039-2.3984-2.3984-5.3984-3.4805-8.5195-3.4805v-36c3.1211 0 6.1211-1.1992 8.5195-3.4805 4.6797-4.6797 4.6797-12.359 0-17.039-2.3984-2.3984-5.3984-3.4805-8.5195-3.4805v-36c3.1211 0 6.1211-1.1992 8.5195-3.4805 4.6797-4.6797 4.6797-12.359 0-17.039-2.3984-2.3984-5.3984-3.4805-8.5195-3.4805v-54h70.68c1.8008 0.96094 3.7188 1.6797 5.6406 1.6797 2.0391 0 3.9609-0.71875 5.6406-1.6797h33.48c0.23828 2.6406 1.1992 5.1602 3.2383 7.1992 2.2812 2.2812 5.3984 3.4805 8.5195 3.4805 3 0 6.1211-1.1992 8.3984-3.4805 2.0391-2.0391 3-4.5586 3.2383-7.1992h30.238c-4.0781 4.6797-3.9609 11.879 0.48047 16.32 2.3984 2.2812 5.3984 3.4805 8.5195 3.4805 3 0 6.1211-1.1992 8.5195-3.4805 4.4414-4.4414 4.5586-11.641 0.48047-16.32h59.039c2.2812 2.2812 5.2812 3.4805 8.2812 3.4805s6-1.1992 8.3984-3.4805h30.719c-0.12109 3.2383 0.96094 6.4805 3.3594 9 2.2812 2.3984 5.3984 3.4805 8.3984 3.4805 3.1211 0 6.2383-1.0781 8.5195-3.4805 2.5195-2.5195 3.6016-5.7617 3.3594-9h18.852v24.238c-4.4414-2.1602-9.8398-1.4414-13.559 2.2812-4.6797 4.6797-4.6797 12.359 0 17.039 2.2812 2.2812 5.3984 3.4805 8.5195 3.4805 1.6797 0 3.4805-0.48047 5.0391-1.3203v38.52c-4.4414-2.1602-9.8398-1.4414-13.559 2.2812-4.6797 4.6797-4.6797 12.359 0 17.039 2.2812 2.2812 5.3984 3.4805 8.5195 3.4805 1.6797 0 3.4805-0.48047 5.0391-1.3203v38.52c-4.4414-2.1602-9.8398-1.4414-13.559 2.2812-4.6797 4.8008-4.6797 12.359 0 17.039 2.2812 2.2812 5.3984 3.4805 8.5195 3.4805 1.6797 0 3.4805-0.48047 5.0391-1.3203v38.52c-4.4414-2.1602-9.8398-1.4414-13.559 2.2812-4.6797 4.8008-4.6797 12.359 0 17.039 2.2812 2.2812 5.3984 3.4805 8.5195 3.4805 1.6797 0 3.4805-0.48047 5.0391-1.3203v38.52c-4.4414-2.1602-9.8398-1.4414-13.559 2.2812-4.6797 4.6797-4.6797 12.359 0 17.039 2.2812 2.2812 5.3984 3.4805 8.5195 3.4805 1.6797 0 3.4805-0.48047 5.0391-1.3203v38.52c-4.4414-2.1602-9.8398-1.4414-13.559 2.2812-4.6797 4.6797-4.6797 12.359 0 17.039 2.2812 2.2812 5.3984 3.4805 8.5195 3.4805 1.6797 0 3.4805-0.48047 5.0391-1.3203v41.039c-4.6797-3.1211-10.922-2.8789-15 1.3203-4.6797 4.6797-4.6797 12.238 0 16.922 2.2812 2.3984 5.3984 3.4805 8.3984 3.4805 2.3984 0 4.5586-0.83984 6.6016-2.1602v29.641c-2.1602 0.48047-4.1992 1.3203-5.8789 3-4.8008 4.6797-4.8008 12.238 0 16.922 1.6797 1.6797 3.7188 2.6406 5.8789 3.1211v41.16c-3.7188-0.60156-7.5586 0.35938-10.32 3.1211-4.6797 4.6797-4.6797 12.359 0 17.039 2.3984 2.2812 5.3984 3.4805 8.5195 3.4805 0.60156 0 1.1992-0.23828 1.8008-0.35938v29.879c-0.35938 0.35937-0.83984 0.48047-1.1992 0.83984-4.6797 4.6797-4.6797 12.359 0 17.039 0.35938 0.35938 0.83984 0.48047 1.1992 0.83984v59.52c-0.23828-0.23828-0.35938-0.60156-0.60156-0.83984-4.6797-4.6797-12.238-4.6797-17.039 0-4.6797 4.6797-4.6797 12.238 0 16.922 2.3984 2.3984 5.5195 3.6016 8.5195 3.6016 3.1211 0 6.1211-1.1992 8.5195-3.6016 0.23828-0.23828 0.35937-0.60156 0.60156-0.96094v49.441l-49.801-0.007813z"
       id="path284" />
    <path
       d="m693 270.6c4.0781-4.5586 4.0781-11.398 0-15.961-1.1992-1.4414-30.84-33.961-69-33.961s-67.68 32.641-69 33.961c-4.0781 4.5586-4.0781 11.398 0 15.961 1.1992 1.4414 30.84 33.961 69 33.961 38.16-0.003906 67.68-32.641 69-33.961zm-69 9.957c-8.5195 0-16.68-2.5195-23.879-6h25.922c6.6016 0 12-5.3984 12-12 0-6.6016-5.3984-12-12-12h-25.801c7.1992-3.4805 15.359-6 23.879-6 17.281 0 33.121 10.32 42.359 18-9.3594 7.6797-25.199 18-42.48 18z"
       id="path286" />
    <path
       d="m683.4 202.56c0.35937 0 2.1602 0.12109 5.1602 0.12109 16.199 0 66.84-2.7617 99.48-35.398 38.52-38.52 35.52-101.88 35.281-104.64-0.35937-6.1211-5.1602-11.039-11.281-11.281-2.6406-0.12109-66.121-3.2383-104.64 35.281-38.52 38.52-35.52 101.88-35.281 104.64 0.24219 6.1172 5.1641 10.918 11.281 11.277zm40.922-99c22.199-22.199 56.879-27.121 74.762-28.078-0.96094 17.879-6 52.559-28.078 74.762-15.719 15.719-37.68 22.68-55.559 25.801l42.84-42.84c4.6797-4.6797 4.6797-12.238 0-16.922-4.6797-4.6797-12.238-4.6797-16.922 0l-42.84 42.84c2.9961-17.762 9.957-39.723 25.797-55.562z"
       id="path288" />
    <path
       d="m683.4 322.56c-6.1211 0.35938-11.039 5.1602-11.281 11.281-0.12109 2.6406-3.2383 66.121 35.281 104.64 32.641 32.641 83.281 35.398 99.48 35.398 2.8789 0 4.6797-0.12109 5.1602-0.12109 6.1211-0.35937 11.039-5.1602 11.281-11.281 0.12109-2.6406 3.2383-66.121-35.281-104.64-38.52-38.516-102.12-35.395-104.64-35.277zm40.922 99c-15.719-15.719-22.68-37.68-25.801-55.559l42.84 42.84c2.3984 2.3984 5.3984 3.4805 8.5195 3.4805s6.1211-1.1992 8.5195-3.4805c4.6797-4.6797 4.6797-12.238 0-16.922l-42.84-42.84c17.879 3.1211 39.84 10.078 55.559 25.922 22.199 22.199 27.121 56.879 28.078 74.762-17.996-1.082-52.676-6-74.875-28.203z"
       id="path290" />
    <path
       d="m864 190.56c-70.801 0-126.6 61.441-129 63.961-4.0781 4.5586-4.0781 11.398 0 15.961 2.3984 2.6406 58.078 63.961 129 63.961s126.6-61.441 129-63.961c4.0781-4.5586 4.0781-11.398 0-15.961-2.3984-2.5195-58.199-63.961-129-63.961zm0 120c-36 0-68.52-19.922-88.922-36h92.879c6.6016 0 12-5.3984 12-12 0-6.6016-5.3984-12-12-12h-92.879c20.398-16.078 52.922-36 88.922-36 45.961 0 86.398 32.52 102.96 48-16.562 15.48-57 48-102.96 48z"
       id="path292" />
    <path
       d="m862.2 495.72c-4.6797-4.6797-12.238-4.6797-16.922 0-4.6797 4.6797-4.6797 12.238 0 16.922l8.5195 8.5195c2.3984 2.3984 5.3984 3.4805 8.5195 3.4805s6.1211-1.1992 8.5195-3.4805c4.6797-4.6797 4.6797-12.238 0-16.922z"
       id="path294" />
    <path
       d="m904.56 538.2c-4.6797-4.6797-12.238-4.6797-16.922 0-4.6797 4.6797-4.6797 12.238 0 16.922l8.5195 8.5195c2.3984 2.3984 5.3984 3.4805 8.5195 3.4805 3.1211 0 6.1211-1.1992 8.5195-3.4805 4.6797-4.6797 4.6797-12.238 0-16.922z"
       id="path296" />
    <path
       d="m771.72 577.44c-6.6016 0-12 5.3984-12 12v12c0 6.6016 5.3984 12 12 12s12-5.3984 12-12v-12c0-6.6016-5.3984-12-12-12z"
       id="path298" />
    <path
       d="m771.72 517.44c-6.6016 0-12 5.3984-12 12v12c0 6.6016 5.3984 12 12 12s12-5.3984 12-12v-12c0-6.6016-5.3984-12-12-12z"
       id="path300" />
  </g>
</svg>
