<?xml version="1.0" encoding="UTF-8" standalone="no"?>
<svg
   width="1200pt"
   height="1200pt"
   version="1.1"
   viewBox="0 0 1200 1200"
   id="svg26402"
   sodipodi:docname="tube_rouge.svg"
   inkscape:version="1.2.2 (b0a8486541, 2022-12-01)"
   xmlns:inkscape="http://www.inkscape.org/namespaces/inkscape"
   xmlns:sodipodi="http://sodipodi.sourceforge.net/DTD/sodipodi-0.dtd"
   xmlns="http://www.w3.org/2000/svg"
   xmlns:svg="http://www.w3.org/2000/svg">
  <defs
     id="defs26406" />
  <sodipodi:namedview
     id="namedview26404"
     pagecolor="#ffffff"
     bordercolor="#666666"
     borderopacity="1.0"
     inkscape:showpageshadow="2"
     inkscape:pageopacity="0.0"
     inkscape:pagecheckerboard="0"
     inkscape:deskcolor="#d1d1d1"
     inkscape:document-units="pt"
     showgrid="false"
     inkscape:zoom="0.52913485"
     inkscape:cx="782.40925"
     inkscape:cy="792.80357"
     inkscape:window-width="1920"
     inkscape:window-height="1011"
     inkscape:window-x="0"
     inkscape:window-y="32"
     inkscape:window-maximized="1"
     inkscape:current-layer="svg26402" />
  <path
     d="m 561.9977,459.12 c 2.6875,-2.5391 6.2422,-3.9531 9.9414,-3.9531 3.6992,0 7.2539,1.4141 9.9414,3.9531 l 159.1,159.1 c 2.6367,2.6367 4.1211,6.2148 4.1211,9.9414 0,3.7305 -1.4844,7.3086 -4.1211,9.9453 l -320.16,320.16 c -2.6367,2.6367 -6.2148,4.1172 -9.9414,4.1172 -3.7305,0 -7.3086,-1.4805 -9.9453,-4.1172 l -159.09,-159.1 c -2.6367,-2.6367 -4.1211,-6.2148 -4.1211,-9.9414 0,-3.7305 1.4844,-7.3086 4.1211,-9.9453 z m -151.12,469.32 300.27,-300.27 -139.21,-139.21 -300.27,300.28 z"
     id="path26396"
     style="fill:#808080" />
  <path
     id="rect26942"
     style="fill:#d40000;stroke:#e5d5ff;stroke-width:0.800255;stroke-linejoin:round"
     transform="matrix(0.70839247,0.70581875,-0.75131952,0.65993862,0,0)"
     d="m 619.03139,-510.02002 c 37.61182,-43.85607 407.56891,-3.89195 407.56891,-3.89195 l 19.7948,295.76463 -430.83828,-3.54736 c 0,0 -34.13726,-244.46924 3.47457,-288.32532 z"
     sodipodi:nodetypes="zcccz" />
  <path
     d="m 137.9077,781.46 462.68,-462.69 -17.445,-17.445 c -2.6367,-2.6367 -4.1172,-6.2148 -4.1172,-9.9453 0,-3.7305 1.4805,-7.3047 4.1172,-9.9414 l 180.31,-180.3 h 0.004 c 13.742,-13.719 32.371,-21.426 51.789,-21.426 19.422,0 38.047,7.707 51.793,21.426 l 231.9,231.89 c 13.707,13.75 21.402,32.375 21.402,51.793 -0,19.414 -7.7031,38.039 -21.41,51.789 l -180.31,180.32 h -0.004 c -2.6367,2.6406 -6.2109,4.1211 -9.9414,4.1211 -3.7305,0 -7.3047,-1.4805 -9.9414,-4.1211 l -17.449,-17.449 -462.68,462.69 c -18.391,18.488 -40.266,33.145 -64.355,43.125 -24.09,9.9805 -49.922,15.082 -75.996,15.012 h -0.008 c -52.641,0 -103.12,-20.914 -140.35,-58.137 -37.223,-37.227 -58.133,-87.711 -58.129,-140.35 0,-52.641 20.91,-103.12 58.133,-140.35 z m 770.77,-194.37 170.37,-170.38 c 8.4453,-8.4688 13.188,-19.945 13.188,-31.906 0,-11.961 -4.7422,-23.434 -13.188,-31.906 l -231.89,-231.88 c -8.4727,-8.4453 -19.945,-13.184 -31.906,-13.184 -11.961,0 -23.434,4.7383 -31.906,13.184 l -170.37,170.36 z m -750.89,455.18 c 31.949,31.949 75.281,49.895 120.46,49.895 45.184,0 88.516,-17.945 120.46,-49.895 l 462.68,-462.69 -240.93,-240.93 -462.68,462.69 c -31.949,31.949 -49.898,75.281 -49.898,120.46 0,45.179 17.949,88.516 49.898,120.46 z"
     id="path26398"
     style="fill:#808080" />
</svg>
