<?xml version="1.0" encoding="UTF-8" standalone="no"?>
<!-- Created with Inkscape (http://www.inkscape.org/) -->

<svg
   width="109.61271"
   height="99.824425"
   viewBox="0 0 29.001696 26.411879"
   version="1.1"
   id="svg5"
   inkscape:version="1.1.2 (0a00cf5339, 2022-02-04)"
   sodipodi:docname="VL.svg"
   xmlns:inkscape="http://www.inkscape.org/namespaces/inkscape"
   xmlns:sodipodi="http://sodipodi.sourceforge.net/DTD/sodipodi-0.dtd"
   xmlns="http://www.w3.org/2000/svg"
   xmlns:svg="http://www.w3.org/2000/svg">
  <sodipodi:namedview
     id="namedview7"
     pagecolor="#ffffff"
     bordercolor="#666666"
     borderopacity="1.0"
     inkscape:pageshadow="2"
     inkscape:pageopacity="0.0"
     inkscape:pagecheckerboard="0"
     inkscape:document-units="mm"
     showgrid="false"
     fit-margin-top="0"
     fit-margin-left="5"
     fit-margin-right="5"
     fit-margin-bottom="0"
     units="px"
     width="100px"
     inkscape:zoom="4.1091101"
     inkscape:cx="-2.3119361"
     inkscape:cy="55.364786"
     inkscape:window-width="1920"
     inkscape:window-height="1016"
     inkscape:window-x="0"
     inkscape:window-y="27"
     inkscape:window-maximized="1"
     inkscape:current-layer="layer1"
     inkscape:snap-global="false"
     scale-x="1" />
  <defs
     id="defs2" />
  <g
     inkscape:label="Calque 1"
     inkscape:groupmode="layer"
     id="layer1"
     transform="translate(-55.761687,-106.86235)">
    <path
       style="fill:#548e98;stroke-width:0.999998"
       d="m 67.982396,133.10793 c -6.264952,-0.92809 -10.897792,-6.47706 -10.897792,-13.05281 0,-14.38739 19.595504,-18.34285 25.438045,-5.13479 1.221019,2.76032 1.224084,7.50554 0.0072,10.24536 -2.57782,5.80113 -8.21691,8.87993 -14.546851,7.94224 z"
       id="path982"
       sodipodi:nodetypes="cssccc" />
    <path
       d="m 63.880854,121.57275 3.574107,0.77817 -1.016097,1.23386 v 0.76183 c 0,0.14263 -0.115487,0.25811 -0.258106,0.25811 -0.142618,0 -0.258106,-0.11573 -0.258106,-0.25811 v -0.75462 h -0.663393 v 0.75462 c 0,0.14263 -0.115727,0.25811 -0.258106,0.25811 -0.142378,0 -0.258106,-0.11573 -0.258106,-0.25811 v -0.75462 h -0.769035 l 0.433617,3.3765 h -0.842265 l -0.82642,-3.37314 -0.01536,-0.52078 z m 7.253378,0.83699 -0.58536,4.55851 h 0.842266 l 0.868677,-3.73906 -0.43866,-0.81993 z m 10.154731,-0.16855 -2.110227,0.007 -3.747939,-7.20368 c -0.290519,-0.55727 -0.866756,-0.90685 -1.495334,-0.90685 h -12.90482 c -0.745987,2.4e-4 -1.350554,0.60505 -1.350554,1.3508 v 6.41519 h 0.675397 v -6.41519 c 0,-0.37216 0.303004,-0.6754 0.675397,-0.6754 v 3.05981 l 0.337579,2.34241 -0.337579,2.02595 0.337579,4.72706 h 0.844187 v -4.05167 l 1.46292,-1.90686 4.108327,0.89389 4.413973,-9e-4 0.885244,1.68909 0.356307,3.37651 h 0.844186 v -5.06464 l 4.811336,5.06464 h 0.703489 c 0.310687,0 0.56279,-0.25187 0.56279,-0.56279 v -3.23581 z"
       id="path2-6"
       style="fill:#ffffff;stroke-width:0.264583" />
  </g>
</svg>
