<?xml version="1.0" encoding="UTF-8"?>
<svg width="1200pt" height="1200pt" version="1.1" viewBox="0 0 1200 1200" xmlns="http://www.w3.org/2000/svg">
 <path d="m691.32 222.96c-12.383-21.461-31.934-37.875-55.215-46.352s-48.809-8.4766-72.09 0-42.832 24.891-55.215 46.352l-374.52 648.72c-12.391 21.461-16.82 46.598-12.512 71 4.3086 24.402 17.078 46.504 36.07 62.422 18.988 15.918 42.98 24.637 67.762 24.617h748.92c24.781 0.019531 48.773-8.6992 67.762-24.617 18.988-15.918 31.762-38.02 36.07-62.422 4.3086-24.402-0.12109-49.539-12.512-71zm-91.32 646.44c-9.0078 0-17.645-3.5781-24.012-9.9453-6.3711-6.3672-9.9492-15.008-9.9492-24.012 0-9.0078 3.5781-17.645 9.9492-24.016 6.3672-6.3672 15.004-9.9453 24.012-9.9453s17.645 3.5781 24.012 9.9453c6.3711 6.3711 9.9492 15.008 9.9492 24.016 0 9.0039-3.5781 17.645-9.9492 24.012-6.3672 6.3672-15.004 9.9453-24.012 9.9453zm43.922-364.08-19.922 231.96c0 8.5742-4.5742 16.496-12 20.785-7.4258 4.2852-16.574 4.2852-24 0-7.4258-4.2891-12-12.211-12-20.785l-19.922-231.96c-1.3477-15.691 5.7734-30.91 18.688-39.926s29.656-10.457 43.922-3.7812c14.262 6.6758 23.883 20.457 25.234 36.148 0.23828 2.5117 0.23828 5.043 0 7.5586z" fill="#ff001b"/>
</svg>
