<?xml version="1.0" encoding="UTF-8" standalone="no"?>
<svg
   width="1200pt"
   height="1200pt"
   version="1.1"
   viewBox="0 0 1200 1200"
   id="svg20"
   sodipodi:docname="au.svg"
   inkscape:version="1.1.2 (0a00cf5339, 2022-02-04)"
   xmlns:inkscape="http://www.inkscape.org/namespaces/inkscape"
   xmlns:sodipodi="http://sodipodi.sourceforge.net/DTD/sodipodi-0.dtd"
   xmlns="http://www.w3.org/2000/svg"
   xmlns:svg="http://www.w3.org/2000/svg">
  <defs
     id="defs24" />
  <sodipodi:namedview
     id="namedview22"
     pagecolor="#ffffff"
     bordercolor="#666666"
     borderopacity="1.0"
     inkscape:pageshadow="2"
     inkscape:pageopacity="0.0"
     inkscape:pagecheckerboard="0"
     inkscape:document-units="pt"
     showgrid="false"
     inkscape:zoom="0.5275"
     inkscape:cx="800.94787"
     inkscape:cy="800"
     inkscape:window-width="1920"
     inkscape:window-height="1043"
     inkscape:window-x="1920"
     inkscape:window-y="0"
     inkscape:window-maximized="1"
     inkscape:current-layer="svg20" />
  <g
     id="g18"
     style="fill:#44403c;fill-opacity:1">
    <path
       d="m 977.1,120.3 h -0.0117 c 0.0586,-0.49219 0.10156,-0.98828 0.10156,-1.5 0,-6.6289 -5.3711,-12 -12,-12 h -652.04 c -6.6289,0 -12,5.3711 -12,12 v 42.977 h -19.156 c -6.625,0 -12,5.3711 -12,12 v 0.0234 39.91 h -35.191 c -6.6289,0 -12,5.3711 -12,12 v 0.0312 731.99 c 0,0.12109 0.0117,0.22656 0.0195,0.34766 0.008,0.21484 0.0195,0.4375 0.0352,0.65234 0.0195,0.1875 0.0352,0.37109 0.0586,0.55859 0.0234,0.20313 0.0547,0.40234 0.0898,0.60156 0.0352,0.19141 0.0781,0.38281 0.12109,0.57422 0.043,0.1875 0.0898,0.37891 0.14453,0.5625 0.0547,0.19141 0.11328,0.37891 0.17969,0.5625 0.0586,0.17969 0.125,0.36719 0.19922,0.54688 0.0703,0.17969 0.14844,0.35938 0.22656,0.53906 0.0781,0.17969 0.16797,0.35547 0.25391,0.52734 0.0898,0.17578 0.1875,0.34375 0.28125,0.51562 0.0977,0.16797 0.19922,0.33594 0.30078,0.49609 0.10938,0.17578 0.22656,0.33594 0.34766,0.50391 0.10938,0.14844 0.21484,0.30078 0.33594,0.44531 0.13672,0.17578 0.28125,0.33594 0.42578,0.50391 0.0781,0.0859 0.14453,0.17969 0.22266,0.26562 l 115.73,123.45999 c 0.043,0.043 0.0898,0.078 0.13281,0.125 0.16797,0.1758 0.34375,0.3359 0.52344,0.5039 0.125,0.1133 0.24609,0.2344 0.37891,0.3438 0.17578,0.1445 0.35547,0.2773 0.53516,0.414 0.14453,0.1094 0.28125,0.2227 0.43359,0.3242 0.17969,0.125 0.37109,0.2344 0.55859,0.3477 0.14844,0.09 0.30078,0.1914 0.45703,0.2773 0.25391,0.1368 0.52344,0.2578 0.78516,0.3789 0.0977,0.043 0.1875,0.098 0.28125,0.1329 0.73047,0.3125 1.5,0.5468 2.293,0.707 0.043,0.012 0.0898,0.012 0.13281,0.023 0.34766,0.066 0.69531,0.1211 1.0508,0.1563 0.34766,0.035 0.70312,0.047 1.0508,0.055 0.0547,0 0.10156,0.01 0.14844,0.01 h 498.46 c 6.6289,0 12,-5.3711 12,-12 v -0.059 -38.16 z m -638.56,930.55 -76.031,-81.113 h 76.031 z m 12,-105.11 H 246.81 V 237.72 H 836.99 V 1069.2 H 362.54 V 957.74 c 0,-6.6289 -5.3789,-12 -12,-12 z M 325.157,130.8 h 626.43 l -72.254,574.16 28.828,-530.53 h -0.0195 c 0.0117,-0.21484 0.0312,-0.43359 0.0312,-0.64844 0,-6.6289 -5.3711,-12 -12,-12 h -571.02 z m -31.156,54.984 h 589.52 l -22.523,414.46 -0.004,-374.53 c 0,-6.6289 -5.3711,-12 -12,-12 h -554.99 z"
       id="path2"
       style="fill:#44403c;fill-opacity:1" />
    <path
       d="m 389.78,323.9 h 304.24 c 6.6289,0 12,-5.3711 12,-12 0,-6.6289 -5.3711,-12 -12,-12 H 389.78 c -6.625,0 -12,5.3711 -12,12 0,6.6328 5.375,12 12,12 z"
       id="path4"
       style="fill:#44403c;fill-opacity:1" />
    <path
       d="m 311.18,417.04 h 461.45 c 6.6289,0 12,-5.3711 12,-12 0,-6.6289 -5.3711,-12 -12,-12 H 311.18 c -6.6289,0 -12,5.3711 -12,12 0,6.6289 5.3672,12 12,12 z"
       id="path6"
       style="fill:#44403c;fill-opacity:1" />
    <path
       d="m 311.18,510.17 h 461.45 c 6.6289,0 12,-5.3711 12,-12 0,-6.6289 -5.3711,-12 -12,-12 H 311.18 c -6.6289,0 -12,5.3711 -12,12 0,6.6289 5.3672,12 12,12 z"
       id="path8"
       style="fill:#44403c;fill-opacity:1" />
    <path
       d="m 311.18,603.3 h 461.45 c 6.6289,0 12,-5.375 12,-12 0,-6.6289 -5.3711,-12 -12,-12 H 311.18 c -6.6289,0 -12,5.3711 -12,12 0,6.625 5.3672,12 12,12 z"
       id="path10"
       style="fill:#44403c;fill-opacity:1" />
    <path
       d="m 311.18,696.44 h 461.45 c 6.6289,0 12,-5.3711 12,-12 0,-6.625 -5.3711,-12 -12,-12 H 311.18 c -6.6289,0 -12,5.375 -12,12 0,6.6289 5.3672,12 12,12 z"
       id="path12"
       style="fill:#44403c;fill-opacity:1" />
    <path
       d="m 784.62,777.57 c 0,-6.6289 -5.3711,-12 -12,-12 H 311.17 c -6.6289,0 -12,5.3711 -12,12 0,6.625 5.3711,12 12,12 h 461.45 c 6.6211,0 11.996,-5.375 11.996,-12 z"
       id="path14"
       style="fill:#44403c;fill-opacity:1" />
    <path
       d="M 772.62,945.64 H 588.95 c -6.6289,0 -12,5.375 -12,12 0,6.6289 5.3711,12 12,12 h 183.67 c 6.6289,0 12,-5.3711 12,-12 0,-6.6289 -5.375,-12 -12,-12 z"
       id="path16"
       style="fill:#44403c;fill-opacity:1" />
  </g>
</svg>
