<?xml version="1.0" encoding="UTF-8" standalone="no"?>
<!-- Created with Inkscape (http://www.inkscape.org/) -->

<svg
   width="159.81198"
   height="228.42296"
   id="svg2"
   version="1.1"
   inkscape:version="1.2.2 (b0a8486541, 2022-12-01)"
   sodipodi:docname="icone AVER.svg"
   inkscape:export-filename="C:\Users\antikor\Documents\NUAGE\Images(nuage)\logos\logo scop antikor.png"
   inkscape:export-xdpi="90"
   inkscape:export-ydpi="90"
   viewBox="-3 -2 153.92321 220.006"
   xmlns:inkscape="http://www.inkscape.org/namespaces/inkscape"
   xmlns:sodipodi="http://sodipodi.sourceforge.net/DTD/sodipodi-0.dtd"
   xmlns="http://www.w3.org/2000/svg"
   xmlns:svg="http://www.w3.org/2000/svg"
   xmlns:rdf="http://www.w3.org/1999/02/22-rdf-syntax-ns#"
   xmlns:cc="http://creativecommons.org/ns#"
   xmlns:dc="http://purl.org/dc/elements/1.1/">
  <defs
     id="defs4" />
  <sodipodi:namedview
     id="base"
     pagecolor="#ffffff"
     bordercolor="#666666"
     borderopacity="1.0"
     inkscape:pageopacity="0.0"
     inkscape:pageshadow="2"
     inkscape:zoom="1.2151906"
     inkscape:cx="211.078"
     inkscape:cy="59.249966"
     inkscape:document-units="px"
     inkscape:current-layer="layer1"
     showgrid="false"
     inkscape:window-width="1920"
     inkscape:window-height="1011"
     inkscape:window-x="0"
     inkscape:window-y="32"
     inkscape:window-maximized="1"
     fit-margin-top="0.6"
     fit-margin-right="1.5"
     fit-margin-left="1.5"
     fit-margin-bottom="0.6"
     inkscape:showpageshadow="2"
     inkscape:pagecheckerboard="0"
     inkscape:deskcolor="#d1d1d1" />
  <metadata
     id="metadata7">
    <rdf:RDF>
      <cc:Work
         rdf:about="">
        <dc:format>image/svg+xml</dc:format>
        <dc:type
           rdf:resource="http://purl.org/dc/dcmitype/StillImage" />
      </cc:Work>
    </rdf:RDF>
  </metadata>
  <g
     inkscape:label="Calque 1"
     inkscape:groupmode="layer"
     id="layer1"
     transform="translate(-79.287854,-100.93108)">
    <g
       aria-label="A"
       transform="matrix(-0.8565209,-0.123065,0.09130999,-1.1543944,0,0)"
       style="font-style:normal;font-variant:normal;font-weight:normal;font-stretch:normal;line-height:0%;font-family:Christopherhand;-inkscape-font-specification:Christopherhand;letter-spacing:0px;word-spacing:0px;fill:#000000;fill-opacity:1;stroke:none"
       id="text2985">
      <path
         d="m -187.02631,-252.94713 q 20.62078,0 35.56337,45.27606 l 1.64369,1.34484 v 1.34483 l -1.64369,7.91957 q 4.33336,0 7.77015,14.64375 6.12647,4.0345 13.89662,4.0345 l 1.49426,1.34483 v 1.34484 q 0,2.68966 -7.62073,2.68966 v 1.19541 l 2.98852,10.75867 -1.49426,-1.34483 h -1.49426 v 2.68966 h 1.49426 l 1.49426,-1.34483 h 1.64369 q 1.79311,11.95408 4.6322,11.95408 l -1.64368,1.34483 v 2.68967 h 1.64368 v -2.68967 h 2.98852 l 6.27589,15.98858 -1.49426,1.34483 q 4.0345,0 7.62073,6.57474 l -1.49426,1.34484 v 1.34483 q 9.26441,8.96556 9.26441,20.02308 l -7.77015,10.609239 h -2.98852 q -21.36791,-5.379334 -21.66677,-9.264409 13.89662,-2.98852 13.89662,-5.37933 0,-5.08049 -27.79323,-58.57498 -2.39082,0 -4.6322,-5.37933 -9.41384,0 -9.41384,4.0345 l -1.49426,-1.34484 h -1.49426 l -6.27589,5.37934 -1.49426,-1.34483 h -1.49426 q -13.44833,2.68966 -21.66676,7.91957 l -4.63221,-1.34483 q -2.54024,3.58622 -20.1725,10.75867 l -7.77015,19.87365 1.64369,1.34483 h 1.49426 l -4.63221,8.069 1.49426,1.34484 v 1.34483 q -4.6322,18.080541 -9.26441,22.563319 0,3.885075 -2.98852,3.885075 l 4.63221,21.367911 -7.77015,4.034501 q -12.40236,-1.045982 -12.40236,-9.413835 0,-13.597762 7.77015,-42.436971 -30.93117,-2.24139 -30.93117,-17.33341 v -2.68967 q 11.5058,-8.069 44.82779,-24.05758 28.54035,-95.78203 49.45999,-95.78203 z m 3.13794,15.98857 -18.52882,23.90816 1.49426,1.34483 v 1.34483 l -1.49426,1.34484 h -1.64368 l -1.49426,-1.34484 v 1.34484 l 1.49426,5.37933 h -1.49426 l 1.49426,1.34484 v 2.54024 l -2.98852,2.68966 v -6.57474 h -1.64369 l -4.6322,14.64375 v 1.34483 h 1.64369 v -2.68967 h 1.49425 v 2.68967 q -1.49425,7.91957 -4.6322,7.91957 l -1.49426,-1.34483 1.49426,9.26441 v 6.72417 l 23.16102,-6.72417 1.64369,1.34483 h 1.49426 l 21.66676,-6.57474 4.63221,1.34484 1.49426,-1.34484 1.49426,1.34484 1.64368,-1.34484 v -1.34483 q 0,-11.35637 -24.80471,-58.57498 z m -69.63249,110.42578 v 2.68967 h 7.77015 l 1.49426,-7.91957 h -1.49426 z"
         style="font-size:306.024px;line-height:1.25"
         id="path856" />
    </g>
  </g>
</svg>
