<?xml version="1.0" encoding="UTF-8" standalone="no"?>
<!-- Created with Inkscape (http://www.inkscape.org/) -->

<svg
   width="282.03284"
   height="102.20051"
   id="svg2"
   version="1.1"
   inkscape:version="1.1.2 (0a00cf5339, 2022-02-04)"
   sodipodi:docname="logo.svg"
   inkscape:export-filename="C:\Users\antikor\Documents\NUAGE\Images(nuage)\logos\logo scop antikor.png"
   inkscape:export-xdpi="90"
   inkscape:export-ydpi="90"
   viewBox="0 0 264.40579 95.812983"
   xmlns:inkscape="http://www.inkscape.org/namespaces/inkscape"
   xmlns:sodipodi="http://sodipodi.sourceforge.net/DTD/sodipodi-0.dtd"
   xmlns="http://www.w3.org/2000/svg"
   xmlns:svg="http://www.w3.org/2000/svg"
   xmlns:rdf="http://www.w3.org/1999/02/22-rdf-syntax-ns#"
   xmlns:cc="http://creativecommons.org/ns#"
   xmlns:dc="http://purl.org/dc/elements/1.1/">
  <defs
     id="defs4" />
  <sodipodi:namedview
     id="base"
     pagecolor="#ffffff"
     bordercolor="#666666"
     borderopacity="1.0"
     inkscape:pageopacity="0.0"
     inkscape:pageshadow="2"
     inkscape:zoom="5.3556535"
     inkscape:cx="70.299544"
     inkscape:cy="38.930823"
     inkscape:document-units="px"
     inkscape:current-layer="layer1"
     showgrid="false"
     inkscape:window-width="1920"
     inkscape:window-height="1016"
     inkscape:window-x="0"
     inkscape:window-y="27"
     inkscape:window-maximized="1"
     fit-margin-top="5"
     fit-margin-right="5"
     fit-margin-left="5"
     fit-margin-bottom="5"
     inkscape:pagecheckerboard="0" />
  <metadata
     id="metadata7">
    <rdf:RDF>
      <cc:Work
         rdf:about="">
        <dc:format>image/svg+xml</dc:format>
        <dc:type
           rdf:resource="http://purl.org/dc/dcmitype/StillImage" />
        <dc:title />
      </cc:Work>
    </rdf:RDF>
  </metadata>
  <g
     inkscape:label="Calque 1"
     inkscape:groupmode="layer"
     id="layer1"
     transform="translate(-74.600355,-223.95211)">
    <g
       aria-label="A"
       transform="matrix(-0.34572562,-0.04967389,0.03685631,-0.46595911,47.284149,187.89985)"
       style="font-style:normal;font-variant:normal;font-weight:normal;font-stretch:normal;line-height:0%;font-family:Christopherhand;-inkscape-font-specification:Christopherhand;letter-spacing:0px;word-spacing:0px;fill:#000000;fill-opacity:1;stroke:none"
       id="text2985">
      <path
         d="m -187.02631,-252.94713 q 20.62078,0 35.56337,45.27606 l 1.64369,1.34484 v 1.34483 l -1.64369,7.91957 q 4.33336,0 7.77015,14.64375 6.12647,4.0345 13.89662,4.0345 l 1.49426,1.34483 v 1.34484 q 0,2.68966 -7.62073,2.68966 v 1.19541 l 2.98852,10.75867 -1.49426,-1.34483 h -1.49426 v 2.68966 h 1.49426 l 1.49426,-1.34483 h 1.64369 q 1.79311,11.95408 4.6322,11.95408 l -1.64368,1.34483 v 2.68967 h 1.64368 v -2.68967 h 2.98852 l 6.27589,15.98858 -1.49426,1.34483 q 4.0345,0 7.62073,6.57474 l -1.49426,1.34484 v 1.34483 q 9.26441,8.96556 9.26441,20.02308 l -7.77015,10.609239 h -2.98852 q -21.36791,-5.379334 -21.66677,-9.264409 13.89662,-2.98852 13.89662,-5.37933 0,-5.08049 -27.79323,-58.57498 -2.39082,0 -4.6322,-5.37933 -9.41384,0 -9.41384,4.0345 l -1.49426,-1.34484 h -1.49426 l -6.27589,5.37934 -1.49426,-1.34483 h -1.49426 q -13.44833,2.68966 -21.66676,7.91957 l -4.63221,-1.34483 q -2.54024,3.58622 -20.1725,10.75867 l -7.77015,19.87365 1.64369,1.34483 h 1.49426 l -4.63221,8.069 1.49426,1.34484 v 1.34483 q -4.6322,18.080541 -9.26441,22.563319 0,3.885075 -2.98852,3.885075 l 4.63221,21.367911 -7.77015,4.034501 q -12.40236,-1.045982 -12.40236,-9.413835 0,-13.597762 7.77015,-42.436971 -30.93117,-2.24139 -30.93117,-17.33341 v -2.68967 q 11.5058,-8.069 44.82779,-24.05758 28.54035,-95.78203 49.45999,-95.78203 z m 3.13794,15.98857 -18.52882,23.90816 1.49426,1.34483 v 1.34483 l -1.49426,1.34484 h -1.64368 l -1.49426,-1.34484 v 1.34484 l 1.49426,5.37933 h -1.49426 l 1.49426,1.34484 v 2.54024 l -2.98852,2.68966 v -6.57474 h -1.64369 l -4.6322,14.64375 v 1.34483 h 1.64369 v -2.68967 h 1.49425 v 2.68967 q -1.49425,7.91957 -4.6322,7.91957 l -1.49426,-1.34483 1.49426,9.26441 v 6.72417 l 23.16102,-6.72417 1.64369,1.34483 h 1.49426 l 21.66676,-6.57474 4.63221,1.34484 1.49426,-1.34484 1.49426,1.34484 1.64368,-1.34484 v -1.34483 q 0,-11.35637 -24.80471,-58.57498 z m -69.63249,110.42578 v 2.68967 h 7.77015 l 1.49426,-7.91957 h -1.49426 z"
         style="font-size:306.024px;line-height:1.25"
         id="path856"
         inkscape:connector-curvature="0" />
    </g>
    <g
       aria-label="Antikor "
       style="font-style:normal;font-variant:normal;font-weight:normal;font-stretch:normal;line-height:0%;font-family:'Times Sans Serif';-inkscape-font-specification:'Times Sans Serif';letter-spacing:0px;word-spacing:0px;fill:#000000;fill-opacity:1;stroke:none"
       id="text2992"
       transform="matrix(0.40363944,0,0,0.40363944,47.284149,187.89985)">
      <path
         d="m 293.86762,109.23413 h 2.57652 l 45.862,102.10367 H 323.6816 l -3.16543,-8.53931 q -0.51531,-1.4723 -4.34327,-10.52691 l -6.03641,-14.35488 h -38.64775 l -14.4285,33.4211 h -7.43509 z m 14.20765,63.23508 -16.93139,-40.34089 -17.37309,40.34089 z"
         style="font-size:150.763px;line-height:1.25"
         id="path841"
         inkscape:connector-curvature="0" />
      <path
         d="m 374.47578,156.20034 q 11.85198,-14.28126 22.59974,-14.28126 11.41028,0 15.82717,11.85198 1.61952,4.34327 1.61952,13.54511 v 28.78337 l 0.0736,15.23826 h -12.22005 v -42.84379 q 0,-17.52032 -10.4533,-17.52032 -8.76015,0 -17.4467,9.56992 l -0.0736,50.79419 h -12.07282 v -40.26728 l 0.0736,-29.15144 h 12.07282 z"
         style="font-size:150.763px;line-height:1.25"
         id="path843"
         inkscape:connector-curvature="0" />
      <path
         d="m 449.78369,121.74863 v 22.15805 h 15.75355 v 5.15303 h -15.75355 v 43.72717 q 0,11.11583 6.69894,11.11583 5.74195,0 8.24485,-5.9628 h 2.87098 q -5.15304,14.50211 -17.00501,14.50211 -8.17124,0 -11.41029,-7.28786 -1.54591,-3.45989 -1.54591,-10.74776 v -45.34669 h -10.67414 v -5.15303 h 10.60053 v -22.15805 z"
         style="font-size:150.763px;line-height:1.25"
         id="path845"
         inkscape:connector-curvature="0" />
      <path
         d="m 489.16758,106.65761 q 3.09182,0 5.22665,2.20844 2.20845,2.13483 2.20845,5.22665 0,3.09182 -2.20845,5.30026 -2.13483,2.20845 -5.22665,2.20845 -3.09182,0 -5.30026,-2.20845 -2.20844,-2.20844 -2.20844,-5.30026 0,-3.16544 2.13483,-5.30026 2.20844,-2.13483 5.37387,-2.13483 z m 6.11003,35.26147 0.0736,69.41872 -12.29366,0.22084 v -69.93402 l 8.981,0.29446 z"
         style="font-size:150.763px;line-height:1.25"
         id="path847"
         inkscape:connector-curvature="0" />
      <path
         d="m 533.77813,106.65761 v 67.13666 l 31.50712,-29.81398 h 8.24485 l -27.75276,26.13324 33.20026,41.44511 h -14.20765 l -30.99182,-37.76437 0.0736,37.54353 h -12.29367 v -14.79657 l -0.0736,-89.66278 z"
         style="font-size:150.763px;line-height:1.25"
         id="path849"
         inkscape:connector-curvature="0" />
      <path
         d="m 622.18945,141.91908 q 15.31187,0 24.58733,11.63113 7.87678,9.93799 7.87678,22.82058 0,9.34907 -4.26966,18.18284 -4.4905,9.49631 -12.07282,14.20765 -7.58232,4.63773 -16.9314,4.63773 -15.23825,0 -24.21925,-12.14643 -7.58232,-10.23246 -7.58232,-22.96781 0,-9.27546 4.41688,-18.10923 4.71135,-9.42269 12.22005,-13.83958 7.58232,-4.41688 15.97441,-4.41688 z m -2.28206,4.78496 q -9.86438,0 -14.20765,10.45329 -2.42929,5.81557 -2.42929,14.9438 0,12.51451 4.4905,22.74696 5.81557,13.32427 16.78417,13.32427 16.41609,0 16.41609,-26.13324 0,-17.88838 -7.72955,-28.26806 -5.30026,-7.06702 -13.32427,-7.06702 z"
         style="font-size:150.763px;line-height:1.25"
         id="path851"
         inkscape:connector-curvature="0" />
      <path
         d="m 684.32032,142.508 v 14.57572 q 8.4657,-14.57572 16.78416,-14.42849 6.69895,0.29446 10.01161,10.67414 l -5.37388,4.12242 q -2.28205,-4.34327 -4.78495,-5.74195 -2.50291,-1.39868 -5.37388,-0.58892 -2.79736,0.73615 -4.41689,2.20845 -3.38628,3.09182 -6.84617,9.93799 v 32.31688 l -0.14723,15.4591 H 672.2475 l -0.0736,-14.87018 v -26.13324 q 0,-10.08522 0,-27.38469 z"
         style="font-size:150.763px;line-height:1.25"
         id="path853"
         inkscape:connector-curvature="0" />
    </g>
    <g
       aria-label="vétérinaire"
       transform="matrix(0.42016186,0,0,0.38776675,47.284149,187.89985)"
       style="font-style:normal;font-variant:normal;font-weight:normal;font-stretch:normal;line-height:0%;font-family:'Times Sans Serif';-inkscape-font-specification:'Times Sans Serif';letter-spacing:0px;word-spacing:0px;fill:#000000;fill-opacity:1;stroke:none"
       id="text2998">
      <path
         d="m 238.68657,279.73008 h 6.422 l 9.65017,23.90219 9.40977,-23.90219 2.78172,-0.0343 -13.18742,32.45341 h -1.40803 z"
         style="font-size:70.3329px;line-height:1.25;letter-spacing:12.3193px"
         id="path17"
         inkscape:connector-curvature="0" />
      <path
         d="m 290.01869,291.57815 q -0.0343,5.83818 2.71303,10.06227 3.19383,4.91094 8.75727,4.91094 6.38766,0 9.20372,-7.52095 l 1.06461,0.68685 q -0.78987,5.08265 -4.22409,8.6199 -3.67462,3.81198 -8.65425,3.81198 -6.42199,0 -10.26832,-5.0483 -3.46857,-4.60186 -3.46857,-11.22991 0,-7.24622 3.57159,-11.91676 3.94936,-5.18568 10.95518,-5.18568 5.56344,0 8.86029,3.67462 3.22817,3.53725 3.22817,9.13504 z m 0,-1.99185 h 14.56111 q -0.17172,-3.02212 -0.72119,-4.25844 -1.82014,-4.12107 -6.11292,-4.12107 -3.29685,0 -5.46041,2.61001 -1.92317,2.33527 -2.26659,5.7695 z m 16.38124,-26.13444 -10.13096,11.84807 h -1.16763 l 3.60593,-11.84807 z"
         style="font-size:70.3329px;line-height:1.25;letter-spacing:12.3193px"
         id="path19"
         inkscape:connector-curvature="0" />
      <path
         d="m 337.3671,269.39306 v 10.33702 h 7.34924 v 2.40395 h -7.34924 v 20.39929 q 0,5.18568 3.12514,5.18568 2.6787,0 3.84633,-2.78173 h 1.33935 q -2.40395,6.76542 -7.93305,6.76542 -3.81199,0 -5.32305,-3.39988 -0.72119,-1.61408 -0.72119,-5.01396 v -21.15482 h -4.97962 v -2.40395 h 4.94528 v -10.33702 z"
         style="font-size:70.3329px;line-height:1.25;letter-spacing:12.3193px"
         id="path21"
         inkscape:connector-curvature="0" />
      <path
         d="m 365.3465,291.57815 q -0.0343,5.83818 2.71304,10.06227 3.19382,4.91094 8.75727,4.91094 6.38765,0 9.20371,-7.52095 l 1.06461,0.68685 q -0.78987,5.08265 -4.22409,8.6199 -3.67462,3.81198 -8.65424,3.81198 -6.422,0 -10.26833,-5.0483 -3.46857,-4.60186 -3.46857,-11.22991 0,-7.24622 3.5716,-11.91676 3.94935,-5.18568 10.95517,-5.18568 5.56344,0 8.86029,3.67462 3.22817,3.53725 3.22817,9.13504 z m 0,-1.99185 h 14.56111 q -0.17171,-3.02212 -0.72119,-4.25844 -1.82014,-4.12107 -6.11292,-4.12107 -3.29685,0 -5.46041,2.61001 -1.92317,2.33527 -2.26659,5.7695 z m 16.38125,-26.13444 -10.13096,11.84807 h -1.16764 l 3.60594,-11.84807 z"
         style="font-size:70.3329px;line-height:1.25;letter-spacing:12.3193px"
         id="path23"
         inkscape:connector-curvature="0" />
      <path
         d="m 412.76359,279.07757 v 6.79977 q 3.94936,-6.79977 7.83003,-6.73108 3.12514,0.13737 4.67054,4.97962 l -2.50698,1.92317 q -1.06461,-2.0262 -2.23224,-2.6787 -1.16764,-0.6525 -2.50699,-0.27474 -1.305,0.34343 -2.06053,1.03027 -1.57974,1.44238 -3.19383,4.6362 v 15.07624 l -0.0687,7.21187 h -5.56345 l -0.0343,-6.93713 v -12.19149 q 0,-4.70489 0,-12.77531 z"
         style="font-size:70.3329px;line-height:1.25;letter-spacing:12.3193px"
         id="path25"
         inkscape:connector-curvature="0" />
      <path
         d="m 447.37105,262.35291 q 1.44237,0 2.43829,1.03026 1.03027,0.99593 1.03027,2.4383 0,1.44237 -1.03027,2.47264 -0.99592,1.03027 -2.43829,1.03027 -1.44238,0 -2.47265,-1.03027 -1.03026,-1.03027 -1.03026,-2.47264 0,-1.47671 0.99592,-2.47264 1.03027,-0.99592 2.50699,-0.99592 z m 2.8504,16.44993 0.0343,32.38472 -5.73515,0.10303 v -32.62512 l 4.18975,0.13737 z"
         style="font-size:70.3329px;line-height:1.25;letter-spacing:12.3193px"
         id="path27"
         inkscape:connector-curvature="0" />
      <path
         d="m 480.36441,285.46523 q 5.5291,-6.66239 10.54307,-6.66239 5.32304,0 7.38358,5.52909 0.75553,2.0262 0.75553,6.31898 v 13.42781 l 0.0343,7.10884 h -5.70081 v -19.98718 q 0,-8.17345 -4.8766,-8.17345 -4.08673,0 -8.13911,4.46449 l -0.0343,23.69614 h -5.63213 v -18.7852 l 0.0343,-13.59952 h 5.63213 z"
         style="font-size:70.3329px;line-height:1.25;letter-spacing:12.3193px"
         id="path29"
         inkscape:connector-curvature="0" />
      <path
         d="m 536.50443,306.65439 q -4.8766,3.77764 -6.07857,4.32712 -1.85448,0.85855 -3.94936,0.85855 -3.43422,0 -5.49476,-2.36961 -1.99185,-2.26659 -1.99185,-5.73515 0,-4.8766 5.94121,-8.37951 3.46857,-2.06053 11.57333,-5.01396 v -1.23632 q 0,-3.84633 -0.99592,-5.70082 -1.37369,-2.50698 -3.9837,-2.81606 -2.61001,-0.30908 -5.01397,0.72119 -2.40395,1.03027 -2.47264,5.73515 h -2.54132 q 0.10302,-5.22002 2.74737,-6.73108 2.6787,-1.5454 7.45227,-1.51105 7.86437,0 9.85622,4.73922 0.61816,1.47672 0.61816,6.04424 v 10.68043 l 0.20605,11.50465 h -5.73515 z m 0,-2.23225 V 292.4367 q -5.11699,2.02619 -6.69673,2.91909 -5.04831,2.81606 -5.04831,6.76542 0,2.23225 1.305,3.91502 1.40803,1.82013 3.5716,1.82013 2.61001,0 6.86844,-3.43422 z"
         style="font-size:70.3329px;line-height:1.25;letter-spacing:12.3193px"
         id="path31"
         inkscape:connector-curvature="0" />
      <path
         d="m 570.18463,262.35291 q 1.44237,0 2.4383,1.03026 1.03026,0.99593 1.03026,2.4383 0,1.44237 -1.03026,2.47264 -0.99593,1.03027 -2.4383,1.03027 -1.44238,0 -2.47264,-1.03027 -1.03027,-1.03027 -1.03027,-2.47264 0,-1.47671 0.99593,-2.47264 1.03026,-0.99592 2.50698,-0.99592 z m 2.8504,16.44993 0.0344,32.38472 -5.73516,0.10303 v -32.62512 l 4.18976,0.13737 z"
         style="font-size:70.3329px;line-height:1.25;letter-spacing:12.3193px"
         id="path33"
         inkscape:connector-curvature="0" />
      <path
         d="m 603.21235,279.07757 v 6.79977 q 3.94936,-6.79977 7.83003,-6.73108 3.12514,0.13737 4.67054,4.97962 l -2.50698,1.92317 q -1.06461,-2.0262 -2.23224,-2.6787 -1.16764,-0.6525 -2.50699,-0.27474 -1.305,0.34343 -2.06053,1.03027 -1.57974,1.44238 -3.19383,4.6362 v 15.07624 l -0.0687,7.21187 h -5.56344 l -0.0344,-6.93713 v -12.19149 q 0,-4.70489 0,-12.77531 z"
         style="font-size:70.3329px;line-height:1.25;letter-spacing:12.3193px"
         id="path35"
         inkscape:connector-curvature="0" />
      <path
         d="m 635.10675,291.57815 q -0.0343,5.83818 2.71304,10.06227 3.19383,4.91094 8.75727,4.91094 6.38766,0 9.20372,-7.52095 l 1.06461,0.68685 q -0.78987,5.08265 -4.2241,8.6199 -3.67462,3.81198 -8.65424,3.81198 -6.422,0 -10.26833,-5.0483 -3.46856,-4.60186 -3.46856,-11.22991 0,-7.24622 3.57159,-11.91676 3.94936,-5.18568 10.95517,-5.18568 5.56344,0 8.8603,3.67462 3.22817,3.53725 3.22817,9.13504 z m 0,-1.99185 h 14.56111 q -0.17171,-3.02212 -0.72119,-4.25844 -1.82013,-4.12107 -6.11291,-4.12107 -3.29686,0 -5.46042,2.61001 -1.92316,2.33527 -2.26659,5.7695 z"
         style="font-size:70.3329px;line-height:1.25;letter-spacing:12.3193px"
         id="path37"
         inkscape:connector-curvature="0" />
    </g>
    <path
       d="m 135.70184,280.60889 q 0,0.10249 -0.0237,0.25228 -0.0237,0.14979 -0.071,0.30746 -0.0394,0.14979 -0.10249,0.29169 -0.0552,0.13402 -0.12613,0.21285 -0.18921,0.22863 -0.67799,0.22863 0,-0.53608 -0.14979,-0.89084 -0.0709,-0.16556 -0.26016,-0.27593 -0.18132,-0.11825 -0.40995,-0.19709 -0.22862,-0.0788 -0.46513,-0.11037 -0.22862,-0.0394 -0.39417,-0.0394 -0.37842,0 -0.73318,0.0158 -0.34687,0.0158 -0.68587,0.0709 -0.33111,0.0473 -0.67799,0.14191 -0.33899,0.0867 -0.70952,0.2365 -0.28381,0.11826 -0.59127,0.28381 -0.30746,0.15767 -0.56762,0.36265 -0.26015,0.20497 -0.44936,0.44936 -0.18921,0.24439 -0.23651,0.53608 -0.0158,0.22075 0.13402,0.50455 0.14979,0.28381 0.40207,0.55186 0.26015,0.26804 0.59126,0.48878 0.339,0.22074 0.70164,0.32323 0.0631,0.0237 0.2917,0.10248 0.22862,0.0788 0.48878,0.16556 0.26804,0.0867 0.48878,0.16555 0.22862,0.0709 0.29169,0.0867 1.78169,0.45725 2.641,1.08793 0.86719,0.62281 0.86719,1.52942 0,0.29169 -0.13402,0.58339 -0.12613,0.2838 -0.32322,0.55185 -0.19709,0.26016 -0.42572,0.48089 -0.22862,0.22075 -0.42571,0.37053 -0.22862,0.18133 -0.52032,0.37841 -0.29169,0.18921 -0.6228,0.37053 -0.33111,0.18133 -0.68587,0.339 -0.35476,0.15767 -0.71741,0.27592 -0.35476,0.11826 -0.74894,0.21286 -0.38629,0.10249 -0.77259,0.17344 -0.37841,0.071 -0.73317,0.11037 -0.34688,0.0473 -0.6228,0.0473 -0.20498,0 -0.53609,-0.0631 -0.32322,-0.0552 -0.63857,-0.16555 -0.31534,-0.10249 -0.54397,-0.25228 -0.22073,-0.1419 -0.22073,-0.30746 0,-0.10249 0.0237,-0.25227 0.0315,-0.14979 0.0788,-0.2917 0.0552,-0.1419 0.11825,-0.2365 0.0709,-0.10249 0.15767,-0.10249 0.15767,0 0.32323,0.0552 0.17344,0.0473 0.40206,0.11037 0.23651,0.0631 0.55185,0.11825 0.32323,0.0473 0.78048,0.0473 0.47301,0 0.97756,-0.0946 0.51243,-0.10249 1.00122,-0.26804 0.48878,-0.16556 0.93026,-0.37842 0.44936,-0.21285 0.80412,-0.44148 0.16556,-0.11036 0.36265,-0.25227 0.20497,-0.14979 0.37841,-0.32323 0.17344,-0.17343 0.29169,-0.37053 0.11826,-0.19709 0.11826,-0.40994 0,-0.29958 -0.44148,-0.5755 -0.4336,-0.26804 -0.89085,-0.41783 -0.44936,-0.14979 -0.80412,-0.23651 -0.4336,-0.11037 -0.97757,-0.29169 -0.53608,-0.18133 -1.18253,-0.4336 -1.07217,-0.40995 -1.81323,-1.1983 -0.74106,-0.78837 -0.74106,-1.89995 -0.0158,-0.52031 0.31535,-1.00121 0.33899,-0.4809 0.90661,-0.89085 0.56762,-0.40995 1.29291,-0.72529 0.73317,-0.32323 1.50576,-0.50455 0.15767,-0.0315 0.37841,-0.0709 0.22863,-0.0394 0.46513,-0.0631 0.2444,-0.0315 0.46514,-0.0473 0.22862,-0.0236 0.38629,-0.0236 0.18921,0 0.47302,0.0315 0.29169,0.0236 0.59127,0.0709 0.30745,0.0473 0.5755,0.11826 0.27592,0.0709 0.44148,0.16555 0.40206,0.21286 0.63069,0.51243 0.22862,0.29958 0.22862,0.58339 z"
       style="font-style:normal;font-variant:normal;font-weight:normal;font-stretch:normal;font-size:40px;line-height:125%;font-family:'Segoe Script';-inkscape-font-specification:'Segoe Script';text-align:start;letter-spacing:0px;word-spacing:0px;writing-mode:lr-tb;text-anchor:start;fill:#000000;fill-opacity:1;stroke:none;stroke-width:0.403639;stroke-opacity:1"
       id="path832"
       inkscape:connector-curvature="0" />
    <path
       d="m 149.75827,285.53613 q 0,0.48878 -0.67011,1.20619 -0.16555,0.18132 -0.40995,0.40206 -0.2365,0.22074 -0.50454,0.44937 -0.26805,0.22074 -0.54397,0.44148 -0.26804,0.22074 -0.50455,0.40206 -0.75683,0.58339 -1.5846,1.1037 -0.82778,0.52032 -1.67132,0.9145 -0.84355,0.39418 -1.68709,0.6228 -0.83566,0.22862 -1.61613,0.22862 -0.85143,0 -1.48211,-0.24439 -0.63069,-0.24439 -1.04852,-0.69375 -0.40995,-0.44937 -0.61492,-1.08005 -0.20498,-0.63857 -0.20498,-1.41905 -0.008,-0.70952 0.14191,-1.44269 0.15767,-0.73318 0.4336,-1.4427 0.27592,-0.70952 0.66222,-1.36386 0.38629,-0.66222 0.84354,-1.22195 0.27593,-0.339 0.6228,-0.68588 0.34688,-0.35476 0.7253,-0.68587 0.38629,-0.33111 0.78047,-0.61492 0.39418,-0.29169 0.77259,-0.51243 0.24439,-0.1419 0.6228,-0.33111 0.37841,-0.18921 0.79625,-0.35476 0.41782,-0.16556 0.82777,-0.27593 0.40995,-0.11825 0.70952,-0.11825 0.4809,0 0.76471,0.0709 0.29169,0.0631 0.51243,0.22074 0.10249,0.0788 0.23651,0.24439 0.1419,0.15767 0.26016,0.35476 0.12614,0.18921 0.20497,0.3863 0.0867,0.1892 0.0867,0.32323 0,0.13402 -0.12613,0.40206 -0.12614,0.26804 -0.2917,0.55973 -0.16555,0.28381 -0.33111,0.53609 -0.16556,0.24439 -0.25227,0.33899 -0.32323,0.35476 -0.69376,0.35476 -0.31534,0 -0.49666,-0.1892 -0.17344,-0.19709 -0.17344,-0.48878 0,-0.10249 0.11825,-0.31535 0.11825,-0.22074 0.39418,-0.49666 0.27593,-0.27593 0.42571,-0.50455 0.15768,-0.23651 0.19709,-0.31535 -0.15767,-0.11037 -0.38629,-0.17344 -0.22862,-0.0631 -0.42571,-0.0631 -0.28381,0 -0.70165,0.13402 -0.41782,0.12613 -0.8593,0.33111 -0.4336,0.20497 -0.85143,0.45725 -0.40995,0.24438 -0.69376,0.47301 -0.81201,0.67011 -1.49788,1.4427 -0.68587,0.77259 -1.13523,1.71073 -0.18133,0.3863 -0.34688,0.81201 -0.15767,0.41783 -0.27593,0.85143 -0.11825,0.43359 -0.1892,0.86719 -0.0631,0.42572 -0.0631,0.8199 0,0.46513 0.10248,0.86719 0.11037,0.40206 0.35477,0.69376 0.24439,0.29169 0.63857,0.45724 0.40206,0.16556 0.98545,0.16556 0.63068,0 1.2929,-0.17344 0.66222,-0.17344 1.31656,-0.46513 0.66222,-0.29958 1.30868,-0.67799 0.64645,-0.38629 1.23772,-0.80413 0.59915,-0.41782 1.13523,-0.83566 0.53609,-0.41783 0.97757,-0.78836 0.18132,-0.14978 0.37841,-0.3311 0.20497,-0.18133 0.40206,-0.36265 0.19709,-0.18132 0.37841,-0.36264 0.18921,-0.18133 0.33112,-0.33112 0.35476,0.18133 0.35476,0.52032 z"
       style="font-style:normal;font-variant:normal;font-weight:normal;font-stretch:normal;font-size:40px;line-height:125%;font-family:'Segoe Script';-inkscape-font-specification:'Segoe Script';text-align:start;letter-spacing:0px;word-spacing:0px;writing-mode:lr-tb;text-anchor:start;fill:#000000;fill-opacity:1;stroke:none;stroke-width:0.403639;stroke-opacity:1"
       id="path834"
       inkscape:connector-curvature="0" />
    <path
       d="m 161.30771,283.08434 q 0,1.1983 -0.41782,2.302 -0.41784,1.09582 -1.23773,2.04974 -0.81989,0.94603 -2.04184,1.7265 -1.21408,0.77259 -2.80656,1.31656 -0.14191,0.0473 -0.32323,0.0867 -0.18132,0.0394 -0.35476,0.071 -0.17344,0.0315 -0.32323,0.0473 -0.1419,0.0158 -0.21285,0.0158 -0.70952,0 -1.34021,-0.11037 -0.63069,-0.11037 -1.17466,-0.36264 -0.53608,-0.26016 -0.96968,-0.67799 -0.42571,-0.42571 -0.72529,-1.0564 -0.18132,-0.37841 -0.25227,-0.72529 -0.0709,-0.35476 -0.0709,-0.73318 0,-0.51243 0.15767,-1.151 0.16555,-0.64645 0.46513,-1.34809 0.29958,-0.70164 0.7174,-1.41905 0.42572,-0.72528 0.93815,-1.40327 0.52032,-0.67799 1.11947,-1.26926 0.59915,-0.59915 1.25349,-1.04063 0.66222,-0.44149 1.35598,-0.69376 0.70163,-0.26016 1.41904,-0.26016 0.0473,0 0.18133,0.0788 0.1419,0.0709 0.33111,0.17344 0.1892,0.0946 0.40206,0.19709 0.21286,0.10248 0.40994,0.14979 0.39418,0.10248 0.81201,0.33899 0.41783,0.23651 0.80413,0.55973 0.3863,0.31535 0.72529,0.70953 0.34687,0.38629 0.59915,0.80412 0.26016,0.40995 0.40995,0.82778 0.14978,0.41783 0.14978,0.79624 z m -1.15888,0.55973 q 0,-0.29169 -0.0394,-0.63068 -0.0394,-0.339 -0.17343,-0.70164 -0.13403,-0.36265 -0.39419,-0.72529 -0.26015,-0.37053 -0.70163,-0.71741 -0.071,-0.0473 -0.21286,-0.1419 -0.13402,-0.0946 -0.29169,-0.18921 -0.14979,-0.0946 -0.29169,-0.16555 -0.14191,-0.071 -0.20498,-0.071 -0.0552,0 -0.0946,0.0237 -0.0315,0.0158 -0.10249,0.0473 -0.071,0.0237 -0.20497,0.0473 -0.13402,0.0158 -0.37841,0.0158 -0.0552,0 -0.13402,-0.0394 -0.0788,-0.0394 -0.16556,-0.0867 -0.0788,-0.0552 -0.15767,-0.0946 -0.0788,-0.0394 -0.13402,-0.0394 -0.0552,0 -0.22074,0.0552 -0.15767,0.0552 -0.34688,0.12613 -0.18132,0.0631 -0.34688,0.11825 -0.15767,0.0552 -0.22074,0.0552 -0.0552,0 -0.11037,-0.0236 -0.0552,-0.0315 -0.11037,-0.0631 -0.0473,-0.0394 -0.10249,-0.0631 -0.0473,-0.0315 -0.0946,-0.0315 -0.27592,0 -0.61492,0.19709 -0.33899,0.19709 -0.7174,0.53608 -0.37053,0.33899 -0.75683,0.79624 -0.37841,0.45725 -0.74105,0.97757 -0.36265,0.51243 -0.67799,1.06428 -0.31535,0.54397 -0.55185,1.08005 -0.23651,0.5282 -0.37841,1.01698 -0.13403,0.4809 -0.13403,0.85931 0,0.46513 0.14979,0.84355 0.14979,0.37841 0.40206,0.6701 0.26016,0.28381 0.59916,0.49667 0.33899,0.20497 0.7174,0.34687 0.3863,0.13402 0.78836,0.19709 0.40995,0.0631 0.78836,0.0631 0.40206,0 0.89084,-0.14979 0.48879,-0.14978 1.0091,-0.41783 0.52821,-0.26804 1.0564,-0.63068 0.53609,-0.37053 1.03275,-0.80413 0.49667,-0.43359 0.93027,-0.91449 0.43359,-0.4809 0.74894,-0.97757 0.32322,-0.50455 0.50455,-0.99333 0.1892,-0.49666 0.1892,-0.96179 z"
       style="font-style:normal;font-variant:normal;font-weight:normal;font-stretch:normal;font-size:40px;line-height:125%;font-family:'Segoe Script';-inkscape-font-specification:'Segoe Script';text-align:start;letter-spacing:0px;word-spacing:0px;writing-mode:lr-tb;text-anchor:start;fill:#000000;fill-opacity:1;stroke:none;stroke-width:0.403639;stroke-opacity:1"
       id="path836"
       inkscape:connector-curvature="0" />
    <path
       d="m 174.27621,280.85328 q 0,0.26805 -0.22863,0.83567 -0.11036,0.27592 -0.21285,0.48089 -0.10249,0.20498 -0.20497,0.34688 -0.55974,0.79624 -1.829,1.65555 -1.27714,0.85931 -2.54639,1.50577 -0.83566,0.43359 -1.67132,0.78047 -0.82778,0.339 -1.67132,0.60704 -0.0473,0.0631 -0.0473,0.30746 v 0.26016 q 0,0.22073 0.0237,0.61492 0.0237,0.38629 0.0631,0.95391 0.0394,0.56762 0.0631,1.0091 0.0237,0.4336 0.0237,0.7647 0,0.29958 -0.18132,0.47302 -0.18132,0.17344 -0.4809,0.17344 -0.86719,0 -0.86719,-3.76047 v -0.22862 q 0,-0.44149 0.0552,-0.95392 0.0552,-0.51243 0.14979,-1.23772 0.0394,-0.22862 0.071,-0.47301 0.0394,-0.2444 0.0788,-0.52032 0.0788,-0.54397 0.14979,-0.93815 0.0709,-0.39418 0.17344,-0.76471 0.0237,-0.10248 0.0552,-0.24439 0.0315,-0.1419 0.071,-0.32323 0.0788,-0.36264 0.16556,-0.63857 0.0867,-0.26804 0.22074,-0.52031 0.13402,-0.25228 0.33899,-0.47301 0.12614,-0.0473 0.27593,-0.0473 0.29169,0 0.4336,0.18133 0.14978,0.17343 0.14978,0.48089 0,0.0394 -0.0631,0.24439 -0.0552,0.19709 -0.13402,0.42572 -0.0709,0.22862 -0.1419,0.4336 -0.0631,0.20497 -0.0788,0.25227 -0.0631,0.16555 -0.11825,0.44936 -0.0394,0.22863 -0.0867,0.47302 -0.0394,0.23651 -0.0867,0.50455 -0.0473,0.26016 -0.0867,0.5282 -0.0315,0.26016 -0.0552,0.50455 -0.0237,0.23651 -0.0473,0.44936 -0.0158,0.20497 -0.0237,0.35477 0.25228,-0.11038 0.60704,-0.26017 0.36265,-0.14978 0.83566,-0.34687 0.93026,-0.3863 1.65555,-0.73318 0.73317,-0.34687 1.42693,-0.7647 0.45725,-0.27593 0.88296,-0.62281 0.4336,-0.34687 0.84354,-0.75682 0.8199,-0.83566 0.8199,-1.55306 0,-0.33112 -0.64646,-0.50455 -0.32322,-0.0867 -0.65433,-0.13402 -0.33111,-0.0552 -0.65434,-0.0788 -0.32323,-0.0315 -0.63069,-0.0394 -0.29957,-0.008 -0.55973,-0.008 -1.55307,0 -3.29534,0.33899 -0.84354,0.18133 -2.38873,0.70952 -0.18132,0.071 -0.27592,0.071 -0.17344,0 -0.29169,-0.10249 -0.11037,-0.11037 -0.11037,-0.28381 0,-0.38629 0.22074,-0.6228 0.22862,-0.23651 0.65434,-0.41783 0.45724,-0.19709 1.41904,-0.40207 0.4809,-0.10248 0.9618,-0.17343 0.48878,-0.0788 0.98544,-0.14191 0.99334,-0.11825 1.49,-0.11825 0.42571,0 0.8199,0.008 0.40206,0.008 0.78047,0.0394 0.38629,0.0237 0.76471,0.0867 0.38629,0.0552 0.78047,0.14978 0.78836,0.18921 1.32444,0.61492 0.53609,0.41783 0.53609,1.11947 z"
       style="font-style:normal;font-variant:normal;font-weight:normal;font-stretch:normal;font-size:40px;line-height:125%;font-family:'Segoe Script';-inkscape-font-specification:'Segoe Script';text-align:start;letter-spacing:0px;word-spacing:0px;writing-mode:lr-tb;text-anchor:start;fill:#000000;fill-opacity:1;stroke:none;stroke-width:0.403639;stroke-opacity:1"
       id="path838"
       inkscape:connector-curvature="0" />
  </g>
</svg>
