<?xml version="1.0" encoding="UTF-8" standalone="no"?>
<svg
   width="1200pt"
   height="1200pt"
   version="1.1"
   viewBox="0 0 1200 1200"
   id="svg4"
   sodipodi:docname="formations_light.svg"
   inkscape:version="1.1.2 (0a00cf5339, 2022-02-04)"
   xmlns:inkscape="http://www.inkscape.org/namespaces/inkscape"
   xmlns:sodipodi="http://sodipodi.sourceforge.net/DTD/sodipodi-0.dtd"
   xmlns="http://www.w3.org/2000/svg"
   xmlns:svg="http://www.w3.org/2000/svg">
  <defs
     id="defs8" />
  <sodipodi:namedview
     id="namedview6"
     pagecolor="#ffffff"
     bordercolor="#666666"
     borderopacity="1.0"
     inkscape:pageshadow="2"
     inkscape:pageopacity="0.0"
     inkscape:pagecheckerboard="0"
     inkscape:document-units="pt"
     showgrid="false"
     inkscape:zoom="0.5275"
     inkscape:cx="800.94787"
     inkscape:cy="800"
     inkscape:window-width="1920"
     inkscape:window-height="1043"
     inkscape:window-x="1920"
     inkscape:window-y="0"
     inkscape:window-maximized="1"
     inkscape:current-layer="svg4" />
  <path
     d="m544.8 922.8c-44.398 0-86.398-14.398-122.4-39.602-30 14.398-62.398 21.602-96 21.602-76.801 0-140.4-38.398-169.2-99.602-4.8008-1.1992-9.6016-2.3984-14.398-3.6016-37.199-9.6016-63.602-48-70.801-98.398-8.3984-60 12-138 75.602-181.2 8.3945-54 32.395-94.801 68.395-115.2 18-10.801 43.199-18 73.199-20.398 6-30 18-50.398 39.602-67.199 37.199-28.801 69.602-31.199 98.398-8.3984 12-8.3984 25.199-15.602 40.801-20.398 25.199-8.3984 46.801-13.199 66-13.199 25.199 0 46.801 7.1992 66 21.602 30-20.398 66-24 108-9.6016l2.3984 1.1992c19.199-2.3984 39.602 0 62.398 4.8008 22.801 6 39.602 19.199 50.398 40.801 24-1.1992 46.801 9.6016 78 34.801 20.398 16.801 38.398 39.602 50.398 64.801 70.801 15.602 118.8 84 127.2 142.8 1.1992 10.801 1.1992 20.398-2.3984 30 58.801 60 62.398 139.2 40.801 192-20.398 49.199-62.398 76.801-117.6 76.801-45.602 0-94.801-20.398-124.8-51.602-3.6016 3.6016-6 6-8.3984 8.3984-3.6016 3.6016-7.1992 9.6016-9.6016 13.199-22.801 28.801-48 62.398-103.2 62.398-26.398 0-56.398-8.3984-91.199-22.801-3.6016 3.6016-8.3984 6-12 8.3984-31.195 17.996-68.395 27.598-105.59 27.598zm-99.602-52.801c28.801 18 63.602 28.801 99.602 28.801 32.398 0 63.602-8.3984 90-22.801-9.6016-4.8008-20.398-10.801-31.199-16.801-57.602-30-98.398-34.801-127.2-34.801-7.2031 19.203-18.004 34.801-31.203 45.602zm234-1.1992c28.801 12 52.801 18 74.398 18 43.199 0 63.602-26.398 84-54 3.6016-4.8008 7.1992-9.6016 10.801-13.199 2.3984-3.6016 7.1992-7.1992 12-12-4.8008-7.1992-6-13.199-6-19.199l-2.3984-1.2031c-12-2.3984-15.602-3.6016-22.801-6h-1.1992c-24 25.199-62.398 32.398-115.2 22.801-10.801 28.801-21.602 50.398-33.602 64.801zm-494.4-63.602c26.398 46.801 79.199 74.398 141.6 74.398 26.398 0 51.602-4.8008 74.398-14.398-10.801-10.801-21.602-21.602-31.199-34.801-21.602 0-39.602-2.3984-58.801-7.1992-26.398-7.1992-51.602-19.199-73.199-37.199-19.203 10.801-36 16.801-52.801 19.199zm349.2 1.1992c26.398 6 52.801 16.801 81.602 31.199 14.398 8.3984 28.801 14.398 42 20.398 12-13.199 21.602-32.398 31.199-60-9.6016-2.3984-18-4.8008-25.199-7.1992-22.801-7.1992-32.398-27.602-38.398-48-46.801 1.1992-57.602 16.801-61.199 30-6.0039 18.004-16.805 28.805-30.004 33.602zm-133.2 22.801c7.1992 9.6016 15.602 16.801 24 24 9.6016-6 18-15.602 25.199-28.801-8.3984 0-15.602 1.1992-22.801 2.3984-9.5977 1.2031-18 1.2031-26.398 2.4023zm492-20.398c25.199 26.398 68.398 43.199 108 43.199 26.398 0 73.199-8.3984 96-62.398 18-44.398 15.602-109.2-30-160.8-15.602 19.199-42 30-66 32.398l2.3984 2.3984c39.602 12 61.199 30 68.398 52.801 8.3984 30 7.1992 52.801-6 69.602-12 16.801-34.801 24-68.398 24-24 0-46.801-3.6016-94.801-13.199h1.1992c-5.9961 6-8.3984 9.5977-10.797 12zm-552-103.2c9.6016 38.398 24 72 42 99.602 14.398 0 27.602-1.1992 40.801-2.3984 10.801-1.1992 22.801-2.3984 34.801-2.3984 2.3984-6 3.6016-13.199 4.8008-20.398-13.199-12-24-27.602-33.602-44.398-24-6-44.398-21.602-63.602-46.801-7.1992 4.793-15.602 10.793-25.199 16.793zm-82.801 64.797c18 13.199 37.199 22.801 58.801 28.801 12 3.6016 25.199 4.8008 37.199 6-14.398-24-25.199-52.801-33.602-84-13.199 9.6016-24 19.199-34.801 27.602-9.5977 7.1992-19.199 14.398-27.598 21.598zm225.6 30h7.1992c-2.3984-1.1992-3.6016-2.3984-6-3.6016l-1.1992 3.6016zm433.2-22.797c33.602 7.1992 58.801 9.6016 79.199 9.6016 25.199 0 40.801-4.8008 48-14.398 7.1992-9.6016 8.3984-26.398 1.1992-48-3.6016-13.199-18-24-43.199-33.602 0 6-1.1992 12-3.6016 18-10.801 25.199-43.199 36-74.398 46.801 0 7.1953-2.3984 14.395-7.1992 21.598zm-198 3.5977c34.801 6 61.199 3.6016 79.199-7.1992-24-6-49.199-12-72-16.801-2.3984 8.4023-4.8008 16.801-7.1992 24zm-229.2-10.801c10.801 8.3984 21.602 13.199 31.199 13.199 3.6016 0 14.398 0 20.398-18 9.6016-28.801 36-44.398 78-46.801-1.1992 0 0 0-2.3984-13.199-2.3984-14.398-6-28.801-9.6016-43.199-16.801-10.801-32.398-26.398-48-48v1.1992c-15.602 55.199-33.602 94.801-63.602 111.6-2.3984 15.602-3.5977 30-5.9961 43.199zm-319.2-79.199c-7.1992 15.602-12 42 1.1992 85.199 0 1.1992 1.1992 3.6016 1.1992 4.8008 14.398 0 28.801-4.8008 45.602-14.398-18-20.402-34.797-45.602-48-75.602zm-25.199-135.6c-43.199 38.398-56.398 97.199-49.199 145.2 6 39.602 25.199 69.602 51.602 78-19.199-64.801-1.1992-98.398 12-114-10.801-36-15.602-74.402-14.402-109.2zm505.2 189.6c4.8008 14.398 10.801 21.602 20.398 24 6 2.3984 15.602 4.8008 25.199 7.1992 2.3984-7.1992 4.8008-14.398 7.1992-24-20.395-3.5977-37.195-6-52.797-7.1992zm237.6 26.402c1.1992 0 2.3984 1.1992 3.6016 1.1992 1.1992-1.1992 2.3984-2.3984 2.3984-4.8008-1.1992 1.1992-3.6016 2.3984-6 3.6016zm-46.801-10.801c6 1.1992 12 2.3984 18 4.8008 8.3984-12 25.199-19.199 44.398-25.199-1.1992-13.199-8.3984-25.199-22.801-38.398-6-4.8008-12-10.801-16.801-16.801-6 16.801-9.6016 31.199-12 43.199-2.3945 10.797-5.9961 21.598-10.797 32.398zm-109.2-28.801c27.602 6 56.398 14.398 85.199 21.602 4.8008-8.3984 8.3984-19.199 10.801-31.199 2.3984-15.602 8.3984-33.602 16.801-57.602l-22.801-2.3984c-20.398 4.8008-45.602 10.801-75.602 14.398-2.3984 9.6016-4.8008 19.199-8.3984 28.801-6 25.199 0 0-6 26.398zm-543.6-60c12 32.398 30 60 51.602 81.602 9.6016-7.1992 18-15.602 30-24 13.199-10.801 30-21.602 42-34.801h1.1992c-3.6016-14.398-4.8008-30-7.1992-45.602-3.6016-30-7.1992-57.602-10.801-82.801-15.602-24-31.199-37.199-48-43.199-8.3984 6-13.199 12-13.199 18-1.1992 4.8008 1.1992 9.6016 6 14.398 40.801 49.199 38.398 81.602 30 99.602-8.3984 16.801-25.199 25.199-37.199 25.199-7.1992 0-13.199-2.3984-16.801-6-7.1992-6-18-7.1992-27.602-2.3984zm272.4 66c2.3984 3.6016 4.8008 7.1992 8.3984 10.801 0-3.6016 1.1992-7.1992 1.1992-12-1.1992 0 1.1992 0 0 0-2.3984 1.1992-8.3984 1.1992-9.5977 1.1992zm421.2-69.602c3.6016 4.8008 8.3984 9.6016 13.199 14.398 18 15.602 27.602 31.199 31.199 48l2.3984-1.1992c21.602-7.1992 43.199-16.801 48-30 2.3984-4.8008 2.3984-9.6016 0-16.801-27.598-5.9961-61.195-10.797-94.797-14.398zm-238.8 51.602c18 1.1992 39.602 3.6016 64.801 8.3984 2.3984-8.3984 4.8008-18 7.1992-27.602 2.3984-7.1992 3.6016-14.398 6-21.602-16.801 1.1992-33.602 2.3984-50.398 2.3984h-2.3984c-12 0-22.801-1.1992-33.602-4.8008 2.3984 8.3984 3.6016 16.801 4.8008 25.199 1.1992 6.0078 2.3984 12.008 3.5977 18.008zm-195.6-6c4.8008 1.1992 10.801 1.1992 16.801 0 2.3984 0 6-1.1992 8.3984-1.1992 2.3984-28.801 3.6016-63.602 9.6016-85.199-18 7.1992-34.801 15.602-50.398 24 1.1953 20.398 5.9961 42 15.598 62.398zm-60-38.398c9.6016 12 19.199 21.602 30 27.602-4.8008-13.199-7.1992-26.398-8.3984-40.801-8.4023 4.7969-15.602 8.3984-21.602 13.199zm124.8-60c-9.6016 16.801-13.199 48-15.602 81.602 16.801-19.199 28.801-52.801 38.398-88.801-7.1953 1.1992-14.395 3.5977-22.797 7.1992zm-184.8 6c1.1992 8.3984 2.3984 15.602 3.6016 24 1.1992 12 3.6016 22.801 6 33.602 6-3.6016 12-8.3984 16.801-12-10.805-13.203-19.203-30.004-26.402-45.602zm298.8 26.398c13.199 7.1992 27.602 10.801 42 10.801h1.1992c19.199 0 38.398-3.6016 57.602-6 0-1.1992 1.1992-6 1.1992-6v2.3984c-27.602-4.8008-46.801-10.801-58.801-19.199-20.398-13.199-20.398-37.199-16.801-56.398-24 4.8008-46.801 10.801-68.398 18 24 14.398 34.801 38.398 42 56.398zm-307.2-88.801c9.6016 15.602 19.199 32.398 27.602 49.199 8.3984 15.602 16.801 32.398 26.398 48 10.801-7.1992 22.801-13.199 33.602-19.199 1.1992-33.602 12-63.602 31.199-99.602h-1.1992c-19.199-3.6016-31.199-13.199-37.199-27.602-3.6016-10.801-8.3984-21.602-10.801-31.199-27.602 4.8008-54 9.6016-78 16.801 3.5977 16.801 6 38.402 8.3984 63.602zm-91.199 94.801c1.1992 0 3.6016 1.1992 4.8008 1.1992 4.8008 0 12-3.6016 15.602-10.801 3.6016-7.1992 8.3984-30-27.602-73.199-8.3984-10.801-12-21.602-10.801-33.602 1.1992-6 3.6016-10.801 7.1992-16.801-6 1.1992-12 2.3984-19.199 4.8008-9.6016 3.6016-19.199 7.1992-27.602 12-3.6016 36 0 74.398 10.801 111.6 16.801-7.1992 36-4.8008 49.199 6zm667.2-8.3984c15.602 2.3984 32.398 3.6016 46.801 6-3.6016-2.3984-6-6-8.3984-8.3984-10.801-1.2031-25.203-0.003906-38.402 2.3984zm81.602-6c22.801 2.3984 55.199-6 69.602-25.199-20.398-18-45.602-31.199-75.602-42-3.6016 16.801-8.3984 31.199-15.602 43.199-1.1992 2.3984-3.6016 6-3.6016 8.3984 9.6016 2.3984 18.004 8.3984 25.203 15.602zm-217.2-8.4023c20.398 2.3984 42 4.8008 61.199 7.1992 4.8008-1.1992 9.6016-2.3984 14.398-3.6016-8.3984-22.801-13.199-49.199-15.602-82.801-9.6016 0-20.398 1.1992-30 1.1992-10.797 21.605-20.398 46.805-29.996 78.004zm84-79.199c2.3984 31.199 7.1992 56.398 15.602 76.801h1.1992l4.8008-9.6016c9.6016-21.602 19.199-43.199 26.398-63.602-15.602-2.3984-31.203-3.5977-48-3.5977zm-164.4 16.801c-8.3984 33.602 1.1992 39.602 3.6016 42 9.6016 6 27.602 12 52.801 16.801 8.3984-27.602 16.801-51.602 26.398-72-26.398 3.5977-54 7.1992-82.801 13.199zm-212.4-30c-19.199 26.398-31.199 55.199-34.801 84 20.398-9.6016 42-19.199 64.801-27.602 9.6016-12 21.602-18 37.199-18-7.1992-13.199-14.398-27.602-21.602-44.398-16.797 3.5977-32.398 6-45.598 6zm448.8 19.199c-7.1992 20.398-16.801 43.199-26.398 64.801 10.801-2.3984 22.801-3.6016 33.602-3.6016l6-1.1992c1.1992-4.8008 2.3984-9.6016 6-15.602 6-10.801 10.801-24 13.199-38.398-9.6055-2.3984-21.605-4.8008-32.402-6zm58.797-10.801c31.199 9.6016 57.602 24 80.398 42v-7.1992c-7.1992-45.602-42-98.398-91.199-117.6 8.4023 27.602 12.004 55.203 10.801 82.801zm-404.4 24c28.801-8.3984 58.801-15.602 90-22.801 7.1992-20.398 16.801-43.199 27.602-67.199-13.199 3.6016-27.602 8.3984-40.801 13.199-21.602 7.1992-43.199 13.199-64.801 20.398-2.3984 10.801-4.8008 20.398-7.1992 31.199-1.1992 8.4023-3.6016 16.805-4.8008 25.203zm-32.398-44.398c4.8008 9.6016 8.3984 18 12 26.398 1.1992-4.8008 2.3984-8.3984 2.3984-13.199 1.1992-6 2.3984-12 3.6016-18-6 1.1992-12 3.6016-18 4.8008zm181.2-54c-2.3984 6-4.8008 10.801-7.1992 16.801-8.3984 19.199-16.801 37.199-24 54 30-6 58.801-9.6016 86.398-12h-1.1992c13.199-22.801 30-40.801 42-55.199v-1.1992c0-8.3984 1.1992-15.602 1.1992-24-30 2.3984-66 11.996-97.199 21.598zm204 61.199c9.6016 1.1992 19.199 3.6016 28.801 6 1.1992-27.602-4.8008-56.398-15.602-82.801-7.1992-1.1992-14.398-1.1992-21.602 0 16.801 24 13.203 56.402 8.4023 76.801zm-80.402-6c19.199 0 38.398 1.1992 55.199 3.6016 10.801-42 0-58.801-12-68.398-14.398 4.8008-30 13.199-44.398 24 1.1992 13.195 1.1992 26.398 1.1992 40.797zm-24-19.199c-4.8008 6-9.6016 12-14.398 19.199h14.398v-19.199zm-546 0c7.1992 3.6016 13.199 8.3984 18 14.398-1.1992-7.1992-1.1992-14.398-2.3984-20.398-4.8008 2.3984-9.6016 3.5977-15.602 6zm141.6-33.602c2.3984 8.3984 6 16.801 9.6016 26.398 1.1992 3.6016 4.8008 13.199 31.199 14.398 10.801-13.199 22.801-25.199 36-36l-2.3984-6c-18.004-3.5977-44.402-2.3945-74.402 1.2031zm86.398 27.602c-3.6016 3.6016-7.1992 7.1992-10.801 9.6016 4.8008-1.1992 8.3984-1.1992 13.199-2.3984-2.3984-7.2031-1.1953-4.8047-2.3984-7.2031zm-214.8-91.199c-25.199 2.3984-44.398 7.1992-58.801 16.801-25.199 14.398-43.199 43.199-52.801 80.398 4.8008-2.3984 10.801-3.6016 15.602-6 19.199-6 36-7.1992 51.602-4.8008h1.1992c12-7.1992 20.398-13.199 44.398-19.199-1.1992-27.602-2.4023-49.199-1.1992-67.199zm234 74.398c2.3984 6 4.8008 13.199 8.3984 19.199 10.801-2.3984 22.801-6 36-9.6016 13.199-51.602 28.801-104.4 54-144-6-8.3984-12-15.602-18-21.602-10.801 9.6016-19.199 20.398-28.801 31.199-14.398 18-28.801 34.801-48 43.199-8.3984 3.6016-20.398 7.1992-33.602 8.3984 4.8008 12 10.801 25.199 15.602 37.199 7.1992 2.3984 16.801 6 20.398 15.602 1.2031 7.207-1.1992 14.406-5.9961 20.406zm111.6-111.6c-18 31.199-31.199 72-42 112.8 16.801-4.8008 33.602-10.801 50.398-15.602 20.398-6 40.801-13.199 61.199-19.199 9.6016-20.398 18-42 24-61.199-7.1992 3.6016-12 7.1992-16.801 9.6016-12 7.1992-20.398 12-31.199 12-16.797 0-29.996-13.199-45.598-38.402zm-320.4 34.801c-1.1992 15.602-1.1992 36 0 61.199 22.801-6 48-12 73.199-15.602-3.6016-15.602-4.8008-30-4.8008-43.199-22.801-1.1992-46.801-2.3984-68.398-2.3984zm530.4 40.801v8.3984c3.6016-2.3984 8.3984-4.8008 12-7.1992-3.5977-1.1992-7.1992-1.1992-12-1.1992zm-438-37.199c0 12 2.3984 24 4.8008 38.398 26.398-3.6016 51.602-4.8008 70.801-3.6016-4.8008-10.801-8.3984-21.602-13.199-32.398-20.402 1.1992-40.801 0-62.402-2.3984zm349.2-33.602c-3.6016 20.398-12 42-21.602 64.801 36-9.6016 63.602-15.602 85.199-18-1.1992-21.602-2.3984-45.602-8.3984-64.801-9.6016 2.3984-21.602 6-36 10.801-7.1992 3.6016-11.996 4.8008-19.199 7.1992zm88.801 46.801c6 0 12 1.1992 18 2.3984 12 2.3984 21.602 6 30 9.6016 10.801-2.3984 21.602-3.6016 33.602-4.8008-9.6016-16.801-22.801-31.199-37.199-43.199-25.199-20.398-39.602-27.602-52.801-28.801 4.8008 19.199 7.1992 42 8.3984 64.801zm-436.8-36c18 1.1992 34.801 2.3984 49.199 2.3984-9.6016-20.398-19.199-36-28.801-48-10.797 12-17.996 26.402-20.398 45.602zm39.602-62.398c12 14.398 24 34.801 36 62.398 14.398-1.1992 25.199-3.6016 33.602-7.1992 13.199-6 26.398-21.602 39.602-37.199 8.3984-10.801 18-21.602 27.602-31.199-14.398-8.3984-30-13.199-46.801-13.199-16.801 0-34.801 3.6016-57.602 12-13.203 3.5977-24.004 9.5977-32.402 14.398zm201.6 25.199c9.6016 15.602 22.801 36 30 36 3.6016 0 10.801-3.6016 19.199-8.3984 9.6016-4.8008 20.398-12 34.801-18 2.3984-31.199-10.801-42-24-48-21.602 3.5977-42 16.797-60 38.398zm-266.4 34.801c3.6016-24 13.199-44.398 28.801-61.199-19.199-13.199-39.602-9.6016-64.801 10.801-15.602 12-24 26.398-28.801 48 20.402-0.003906 44.402 1.1953 64.801 2.3984zm364.8-74.402c7.1992 10.801 10.801 24 10.801 39.602h1.1992l8.3984-2.3984c12-4.8008 22.801-8.3984 33.602-10.801-7.1992-10.801-18-18-31.199-21.602-8.4023-2.3984-15.602-3.6016-22.801-4.8008zm-111.6 16.801c10.801-9.6016 20.398-19.199 32.398-25.199-16.801-1.1992-32.398 2.3984-45.602 10.801 3.6055 4.7969 8.4062 9.5977 13.203 14.398z"
     id="path2"
     style="fill:#e6e6e6" />
</svg>
