<?xml version="1.0" encoding="UTF-8" standalone="no"?>
<svg
   version="1.1"
   x="0px"
   y="0px"
   viewBox="0 0 48 48"
   enable-background="new 0 0 48 48"
   xml:space="preserve"
   id="svg6"
   sodipodi:docname="femme.svg"
   inkscape:version="1.1.2 (0a00cf5339, 2022-02-04)"
   xmlns:inkscape="http://www.inkscape.org/namespaces/inkscape"
   xmlns:sodipodi="http://sodipodi.sourceforge.net/DTD/sodipodi-0.dtd"
   xmlns="http://www.w3.org/2000/svg"
   xmlns:svg="http://www.w3.org/2000/svg"><defs
     id="defs10" /><sodipodi:namedview
     id="namedview8"
     pagecolor="#ffffff"
     bordercolor="#666666"
     borderopacity="1.0"
     inkscape:pageshadow="2"
     inkscape:pageopacity="0.0"
     inkscape:pagecheckerboard="0"
     showgrid="false"
     inkscape:zoom="17.583333"
     inkscape:cx="24"
     inkscape:cy="24"
     inkscape:window-width="1920"
     inkscape:window-height="1043"
     inkscape:window-x="1920"
     inkscape:window-y="0"
     inkscape:window-maximized="1"
     inkscape:current-layer="svg6" /><path
     d="M32.384,31.104c-0.489-0.105-0.953-0.206-1.379-0.317c-1.618-0.422-2.243-1.16-2.461-1.799  c0.823-0.63,1.497-1.413,2.036-2.261c6.139-3.689,8.112-6.232,4.631-17.531c-1.51-4.894-5.034-7.771-10.192-8.32  c-3.382-0.359-6.376,0.393-7.103,0.597c-1.089-0.132-2.135,0.221-3.109,1.048c-3.093,2.619-4.76,9.543-4.76,14.729  c0,6.606,5.746,8.761,7.201,9.199c0.568,0.953,1.295,1.841,2.208,2.54c-0.218,0.64-0.843,1.377-2.462,1.799  c-0.424,0.111-0.89,0.212-1.377,0.317c-3.832,0.827-9.625,2.079-9.625,11.338v0.27l0.175,0.206C6.316,43.093,9.978,47.22,24,47.22  c14.021,0,17.684-4.127,17.834-4.302l0.174-0.206v-0.27C42.008,33.184,36.216,31.932,32.384,31.104z M18.438,25.6  c-0.028-0.088-0.072-0.168-0.13-0.239c-1.045-1.973-1.272-4.04-1.288-4.206c-0.036-0.353-0.318-0.632-0.673-0.66  c-0.829-0.066-1.552-0.769-1.796-1.744c-0.199-0.795-0.06-1.712,0.348-2.28c0.215-0.3,0.473-0.465,0.768-0.489  c2.418-0.202,2.35-2.232,2.307-3.445c-0.027-0.809-0.053-1.571,0.337-1.938c0.863-0.815,1.841-1.229,2.909-1.229  c0.913,0,1.685,0.304,2.084,0.499c0.684,5.416,8.006,6.185,9.305,6.278c0.741,0.48,1.102,1.569,0.842,2.605  c-0.244,0.976-0.966,1.679-1.797,1.744c-0.354,0.029-0.637,0.308-0.672,0.661c-0.008,0.079-0.838,7.86-6.98,7.86  C21.148,29.016,19.447,27.38,18.438,25.6z M24,30.485c1.258,0,2.345-0.268,3.283-0.719c0.172,0.381,0.438,0.782,0.838,1.158  c-1.131,0.67-3.041,2.02-3.564,3.752c-0.193,0.643-0.385,1.34-0.557,2.002c-0.172-0.662-0.363-1.359-0.558-2.002  c-0.522-1.732-2.431-3.08-3.562-3.751c0.4-0.376,0.664-0.778,0.837-1.159C21.655,30.218,22.742,30.485,24,30.485z"
     id="path2"
     style="fill:#558f99;fill-opacity:1" /><path
     d="M24,26.923c0.831,0,1.66-0.316,2.293-0.947c0.287-0.287,0.287-0.753,0-1.04s-0.752-0.287-1.039,0  c-0.691,0.691-1.816,0.691-2.508,0c-0.287-0.287-0.752-0.287-1.039,0s-0.287,0.753,0,1.04C22.339,26.606,23.17,26.923,24,26.923z"
     id="path4"
     style="fill:#558f99;fill-opacity:1" /></svg>
