<?xml version="1.0" encoding="UTF-8" standalone="no"?>
<svg
   version="1.1"
   x="0px"
   y="0px"
   viewBox="0 0 100 100"
   style="enable-background:new 0 0 100 100;"
   xml:space="preserve"
   id="svg4"
   sodipodi:docname="intervenant.svg"
   inkscape:version="1.1.2 (0a00cf5339, 2022-02-04)"
   xmlns:inkscape="http://www.inkscape.org/namespaces/inkscape"
   xmlns:sodipodi="http://sodipodi.sourceforge.net/DTD/sodipodi-0.dtd"
   xmlns="http://www.w3.org/2000/svg"
   xmlns:svg="http://www.w3.org/2000/svg"><defs
     id="defs8" /><sodipodi:namedview
     id="namedview6"
     pagecolor="#ffffff"
     bordercolor="#666666"
     borderopacity="1.0"
     inkscape:pageshadow="2"
     inkscape:pageopacity="0.0"
     inkscape:pagecheckerboard="0"
     showgrid="false"
     inkscape:zoom="8.44"
     inkscape:cx="50"
     inkscape:cy="50"
     inkscape:window-width="1920"
     inkscape:window-height="1043"
     inkscape:window-x="1920"
     inkscape:window-y="0"
     inkscape:window-maximized="1"
     inkscape:current-layer="svg4" /><path
     d="M72.6445313,57.3517456l-4.7275391-1.9504395c1.0522461-7.5489502,2.8962402-22.4836426,2.2751465-30.5591431  C69.3378906,13.7389526,59.8720703,8.1019287,50,8.1019287s-19.3378906,5.6370239-20.1921387,16.7402344  c-0.6210938,8.0755615,1.2229004,23.010376,2.2751465,30.5592651l-4.7272949,1.9503174  c-7.0761719,2.9193115-11.6931152,9.8181763-11.6931152,17.4727783v17.0735474h68.6748047V74.8245239  C84.3374023,67.1699219,79.7207031,60.2710571,72.6445313,57.3517456z M56.0776367,21.5786743  c0,0,5.4667969,8.1377563,10.5473633,12.1413574c-3.4042969,14.2540283-8.8613281,21.1917725-16.6821289,21.1917725  c-9.8754883,0-14.5561523-11.6552734-16.7436523-21.4331055c-0.0385742-0.1723022-0.0522461-0.3447876-0.0854492-0.5172119  C35.4619141,31.2954102,45.682373,22.5588379,56.0776367,21.5786743z M50,71.3088379l-12.8112793-5.0628662l4.5974121-10.0305176  c-0.7792969-0.5490723-1.5270996-1.1884766-2.2470703-1.9040527l1.9399414-1.6372681  c2.3139648,2.0040894,5.1015625,3.2376709,8.4638672,3.2376709c3.2189941,0,6.0522461-1.0767212,8.5249023-3.2337036  l1.9477539,1.6328125c-0.706543,0.7127686-1.4404297,1.3483276-2.2067871,1.8937378l4.6025391,10.0413208L50,71.3088379z"
     id="path2"
     style="fill:#558f99;fill-opacity:1" /></svg>
