<?xml version="1.0" encoding="UTF-8" standalone="no"?>
<!-- Created with Inkscape (http://www.inkscape.org/) -->

<svg
   width="122.0787mm"
   height="141.2706mm"
   viewBox="0 0 122.0787 141.2706"
   version="1.1"
   id="svg5"
   inkscape:version="1.2 (dc2aedaf03, 2022-05-15)"
   sodipodi:docname="mammel_pr.svg"
   xmlns:inkscape="http://www.inkscape.org/namespaces/inkscape"
   xmlns:sodipodi="http://sodipodi.sourceforge.net/DTD/sodipodi-0.dtd"
   xmlns="http://www.w3.org/2000/svg"
   xmlns:svg="http://www.w3.org/2000/svg">
  <sodipodi:namedview
     id="namedview7"
     pagecolor="#ffffff"
     bordercolor="#666666"
     borderopacity="1.0"
     inkscape:pageshadow="2"
     inkscape:pageopacity="0.0"
     inkscape:pagecheckerboard="0"
     inkscape:document-units="mm"
     showgrid="false"
     fit-margin-top="0"
     fit-margin-left="0"
     fit-margin-right="0"
     fit-margin-bottom="0"
     inkscape:zoom="0.97976716"
     inkscape:cx="169.42801"
     inkscape:cy="307.21585"
     inkscape:window-width="1920"
     inkscape:window-height="1051"
     inkscape:window-x="-9"
     inkscape:window-y="-9"
     inkscape:window-maximized="1"
     inkscape:current-layer="layer1"
     inkscape:showpageshadow="2"
     inkscape:deskcolor="#d1d1d1" />
  <defs
     id="defs2" />
  <g
     inkscape:label="Calque 1"
     inkscape:groupmode="layer"
     id="layer1"
     transform="translate(13.072467,-68.924398)">
    <path
       id="path937"
       style="fill:#808080;stroke:none;stroke-width:0.264582px;stroke-linecap:butt;stroke-linejoin:miter;stroke-opacity:1"
       d="m 20.809618,108.59849 c -5.54725,5.1022 -28.2793153,22.22985 -33.829356,27.32962 0.124939,6.56386 -0.235972,20.39796 -0.113912,26.96187 9.8190748,-1.66566 9.6389653,-2.07614 23.422712,-8.2208 13.783747,-6.14467 15.38447,-4.49339 17.227871,-5.63379 1.288179,0.54017 -0.697988,-11.40915 -1.109464,-9.59128 -0.279423,3.32507 -0.348863,6.73698 1.090141,9.8791 0.667144,2.36569 -0.502691,4.74026 -0.749959,7.10938 -0.301897,2.27874 -1.375817,4.5018 -1.479634,6.76295 -0.03016,0.91195 1.030841,1.90605 0.766627,2.68138 -1.360654,0.54912 0.263451,1.51323 -1.430989,3.06064 -1.694443,1.5474 -9.522206,4.15225 -8.871031,6.02367 0.651174,1.8714 8.879306,2.32977 13.471028,2.34307 2.688812,-0.2512 4.136348,2.07782 6.394423,2.92073 2.578137,1.13522 5.199363,2.47826 8.004252,2.99296 5.580512,0.54104 11.266295,0.0872 16.55459,-1.63502 2.078283,-0.14721 2.768368,-0.87108 1.436834,-2.44175 -2.103118,-4.44675 -5.099797,-10.02477 -5.642307,-14.92056 -2.226463,-9.96462 -3.84322,-18.70773 -6.307309,-28.61965 0.496372,-11.82666 -6.688799,-16.91127 -10.588046,-25.17686 -5.905658,-0.76651 -11.809445,-1.54449 -17.714648,-2.31379 -0.177271,0.16271 -0.354548,0.32543 -0.531823,0.48813 z"
       sodipodi:nodetypes="ccczcccccczzcccccccccc" />
    <path
       style="fill:#999999;stroke:none;stroke-width:0.264582px;stroke-linecap:butt;stroke-linejoin:miter;stroke-opacity:1"
       d="m -13.882608,78.492192 c 0,0 33.73739,-9.593265 74.422072,-9.567774 40.684686,0.02549 47.535916,25.016729 47.535916,25.016729 l -4.44969,10.758493 -4.147364,9.88088 -1.030553,3.8196 2.212467,5.57267 0.0842,10.78959 -1.612216,10.52455 -0.311437,5.88412 3.068093,8.86322 3.68136,8.0745 2.23732,3.76609 1.19868,2.20616 -0.72039,5.64576 -0.20242,4.35791 -1.5932,2.70458 -1.28943,2.77062 -0.8616,4.5081 -13.524578,0.49046 0.863798,-3.2854 -2.057237,-7.2056 -2.268015,-8.10629 -0.85867,-4.55541 -2.869452,2.30871 1.368081,2.90238 -1.097628,4.43882 -2.62781,6.08282 -1.433709,4.76674 -5.528703,18.28978 -10.88444,-0.17518 -0.05984,-21.88196 -2.004875,-9.29914 -4.326298,-8.76297 -1.078364,-5.85512 -3.305665,-12.28453 -2.20876,-10.86275 -2.198939,-8.87781 -2.923403,-5.14814 -1.483536,-5.37924 -0.768502,-2.97141 -3.870478,-4.74415 -4.426676,-2.55023 -6.226083,-1.05421 -5.484722,1.29145 -6.884192,3.83308 -5.290348,4.21373 -23.899894,16.24169 z"
       id="path869"
       sodipodi:nodetypes="czccccccccccccccccccccccccccccccccccccccccccccccc" />
    <path
       id="path3464"
       style="fill:#808080;stroke:none;stroke-width:0.264582px;stroke-linecap:butt;stroke-linejoin:miter;stroke-opacity:1"
       d="m 92.337104,110.80491 c -3.056589,3.93016 -6.436569,7.67823 -8.762909,12.01179 -2.004232,3.19022 -4.078382,6.40263 -4.733253,10.06669 -1.403939,5.63066 -3.078075,11.32214 -2.804974,17.13367 -0.270525,3.38467 0.321477,6.73546 1.504068,9.94851 0.904753,3.60346 2.320148,7.08058 4.247904,10.34446 0.342283,1.51454 2.497353,2.87638 3.849288,1.40019 2.968097,-3.30749 5.858509,-6.73482 8.032083,-10.53708 2.036124,-3.44376 3.861726,-7.05179 5.242053,-10.7212 0.79438,-7.45018 2.121346,-14.88191 1.799776,-22.38736 0.16733,-2.81013 -0.32503,-5.58814 -1.656133,-8.14932 -1.591371,-3.7316 -3.424319,-7.37255 -5.19371,-11.03852 -0.508063,0.64271 -1.016128,1.28543 -1.524193,1.92817 z"
       sodipodi:nodetypes="ccccccccccccc" />
  </g>
</svg>
