<?xml version="1.0" encoding="UTF-8" standalone="no"?>
<svg
   version="1.1"
   x="0px"
   y="0px"
   viewBox="0 0 50 50"
   enable-background="new 0 0 50 50"
   xml:space="preserve"
   id="svg18"
   sodipodi:docname="man.svg"
   inkscape:version="1.1.2 (0a00cf5339, 2022-02-04)"
   xmlns:inkscape="http://www.inkscape.org/namespaces/inkscape"
   xmlns:sodipodi="http://sodipodi.sourceforge.net/DTD/sodipodi-0.dtd"
   xmlns="http://www.w3.org/2000/svg"
   xmlns:svg="http://www.w3.org/2000/svg"><defs
     id="defs22" /><sodipodi:namedview
     id="namedview20"
     pagecolor="#ffffff"
     bordercolor="#666666"
     borderopacity="1.0"
     inkscape:pageshadow="2"
     inkscape:pageopacity="0.0"
     inkscape:pagecheckerboard="0"
     showgrid="false"
     inkscape:zoom="16.88"
     inkscape:cx="25"
     inkscape:cy="25"
     inkscape:window-width="1920"
     inkscape:window-height="1043"
     inkscape:window-x="1920"
     inkscape:window-y="0"
     inkscape:window-maximized="1"
     inkscape:current-layer="svg18" /><g
     id="g16"
     style="fill:#558f99;fill-opacity:1"><g
       id="g6"
       style="fill:#558f99;fill-opacity:1"><path
         d="m 15.2819,17.73335 c 0.952,5.2624 4.9445,11.1929 9.7553,11.1929 5.09461,0 9.2658,-6.6487 9.8854,-12.1137 0.9844,-1.9917 1.6239,-4.1296 1.6259,-6.3549 l 8e-4,-0.9249 c 0.0026,-2.857 -2.3128,-5.1744 -5.1698,-5.1744 h -0.3051 c 0,-1.8311 -1.4844,-3.3156 -3.3155,-3.3156 h -6.5535 c -4.2829,0 -7.7547,3.472 -7.7547,7.7547 v 2.498 c 0,2.2122 0.6268,4.361 1.6925,6.2998 0.0265,0.0481 0.0778,0.0938 0.1387,0.1381 z m 9.7553,9.1929 c -4.0153,0 -7.60139,-6.2024 -7.9402,-10.7802 1.5089,-3.6902 1.2374,-5.9237 3.2476,-6.1931 l 6.9795,-0.9349 c 0.5382,-0.0721 1.08271,0.0778 1.5082,0.4152 2.5912,2.2311 3.6096,2.4112 3.7904,3.7123 l 0.3707,2.6685 c -0.1818,4.6032 -3.8425,11.1122 -7.9562,11.1122 z"
         id="path2"
         style="fill:#558f99;fill-opacity:1" /><path
         d="m 34,29.88715 h -0.6851 c -0.4652,0 -0.8777,0.3196 -0.97009,0.7755 -0.29711,1.4656 -1.022,2.7718 -2.04481,3.7946 -1.35,1.3599 -3.23,2.1999 -5.3,2.1999 -3.6186,0 -6.6488,-2.57 -7.3438,-5.9875 -0.0932,-0.4584 -0.5031,-0.7825 -0.971,-0.7825 H 16 c -6.63,0 -12,5.3801 -12,12 v 6.0701 c 0,0.5523 0.4477,1 1,1 h 40 c 0.5523,0 1,-0.4477 1,-1 v -6.0701 c 0,-6.6199 -5.37,-12 -12,-12 z"
         id="path4"
         style="fill:#558f99;fill-opacity:1" /></g><g
       id="g14"
       style="fill:#558f99;fill-opacity:1"><g
         id="g12"
         style="fill:#558f99;fill-opacity:1"><path
           d="m 15.2819,17.73335 c 0.952,5.2624 4.9445,11.1929 9.7553,11.1929 5.09461,0 9.2658,-6.6487 9.8854,-12.1137 0.9844,-1.9917 1.6239,-4.1296 1.6259,-6.3549 l 8e-4,-0.9249 c 0.0026,-2.857 -2.3128,-5.1744 -5.1698,-5.1744 h -0.3051 c 0,-1.8311 -1.4844,-3.3156 -3.3155,-3.3156 h -6.5535 c -4.2829,0 -7.7547,3.472 -7.7547,7.7547 v 2.498 c 0,2.2122 0.6268,4.361 1.6925,6.2998 0.0265,0.0481 0.0778,0.0938 0.1387,0.1381 z m 9.7553,9.1929 c -4.0153,0 -7.60139,-6.2024 -7.9402,-10.7802 1.5089,-3.6902 1.2374,-5.9237 3.2476,-6.1931 l 6.9795,-0.9349 c 0.5382,-0.0721 1.08271,0.0778 1.5082,0.4152 2.5912,2.2311 3.6096,2.4112 3.7904,3.7123 l 0.3707,2.6685 c -0.1818,4.6032 -3.8425,11.1122 -7.9562,11.1122 z"
           id="path8"
           style="fill:#558f99;fill-opacity:1" /><path
           d="m 34,29.88715 h -0.6851 c -0.4652,0 -0.8777,0.3196 -0.97009,0.7755 -0.29711,1.4656 -1.022,2.7718 -2.04481,3.7946 -1.35,1.3599 -3.23,2.1999 -5.3,2.1999 -3.6186,0 -6.6488,-2.57 -7.3438,-5.9875 -0.0932,-0.4584 -0.5031,-0.7825 -0.971,-0.7825 H 16 c -6.63,0 -12,5.3801 -12,12 v 6.0701 c 0,0.5523 0.4477,1 1,1 h 40 c 0.5523,0 1,-0.4477 1,-1 v -6.0701 c 0,-6.6199 -5.37,-12 -12,-12 z"
           id="path10"
           style="fill:#558f99;fill-opacity:1" /></g></g></g></svg>
