<?xml version="1.0" encoding="UTF-8" standalone="no"?>
<svg
   version="1.1"
   x="0px"
   y="0px"
   viewBox="0 0 48 48"
   enable-background="new 0 0 48 48"
   xml:space="preserve"
   id="svg6"
   sodipodi:docname="public.svg"
   inkscape:version="1.1.2 (0a00cf5339, 2022-02-04)"
   xmlns:inkscape="http://www.inkscape.org/namespaces/inkscape"
   xmlns:sodipodi="http://sodipodi.sourceforge.net/DTD/sodipodi-0.dtd"
   xmlns="http://www.w3.org/2000/svg"
   xmlns:svg="http://www.w3.org/2000/svg"><defs
     id="defs10" /><sodipodi:namedview
     id="namedview8"
     pagecolor="#ffffff"
     bordercolor="#666666"
     borderopacity="1.0"
     inkscape:pageshadow="2"
     inkscape:pageopacity="0.0"
     inkscape:pagecheckerboard="0"
     showgrid="false"
     inkscape:zoom="8.8592152"
     inkscape:cx="2.5397283"
     inkscape:cy="29.743041"
     inkscape:window-width="1920"
     inkscape:window-height="1016"
     inkscape:window-x="0"
     inkscape:window-y="27"
     inkscape:window-maximized="1"
     inkscape:current-layer="svg6" /><path
     d="M32.384,31.104c-0.489-0.105-0.953-0.206-1.379-0.317c-1.618-0.422-2.243-1.16-2.461-1.799  c0.823-0.63,1.497-1.413,2.036-2.261c6.139-3.689,8.112-6.232,4.631-17.531c-1.51-4.894-5.034-7.771-10.192-8.32  c-3.382-0.359-6.376,0.393-7.103,0.597c-1.089-0.132-2.135,0.221-3.109,1.048c-3.093,2.619-4.76,9.543-4.76,14.729  c0,6.606,5.746,8.761,7.201,9.199c0.568,0.953,1.295,1.841,2.208,2.54c-0.218,0.64-0.843,1.377-2.462,1.799  c-0.424,0.111-0.89,0.212-1.377,0.317c-3.832,0.827-9.625,2.079-9.625,11.338v0.27l0.175,0.206C6.316,43.093,9.978,47.22,24,47.22  c14.021,0,17.684-4.127,17.834-4.302l0.174-0.206v-0.27C42.008,33.184,36.216,31.932,32.384,31.104z M18.438,25.6  c-0.028-0.088-0.072-0.168-0.13-0.239c-1.045-1.973-1.272-4.04-1.288-4.206c-0.036-0.353-0.318-0.632-0.673-0.66  c-0.829-0.066-1.552-0.769-1.796-1.744c-0.199-0.795-0.06-1.712,0.348-2.28c0.215-0.3,0.473-0.465,0.768-0.489  c2.418-0.202,2.35-2.232,2.307-3.445c-0.027-0.809-0.053-1.571,0.337-1.938c0.863-0.815,1.841-1.229,2.909-1.229  c0.913,0,1.685,0.304,2.084,0.499c0.684,5.416,8.006,6.185,9.305,6.278c0.741,0.48,1.102,1.569,0.842,2.605  c-0.244,0.976-0.966,1.679-1.797,1.744c-0.354,0.029-0.637,0.308-0.672,0.661c-0.008,0.079-0.838,7.86-6.98,7.86  C21.148,29.016,19.447,27.38,18.438,25.6z M24,30.485c1.258,0,2.345-0.268,3.283-0.719c0.172,0.381,0.438,0.782,0.838,1.158  c-1.131,0.67-3.041,2.02-3.564,3.752c-0.193,0.643-0.385,1.34-0.557,2.002c-0.172-0.662-0.363-1.359-0.558-2.002  c-0.522-1.732-2.431-3.08-3.562-3.751c0.4-0.376,0.664-0.778,0.837-1.159C21.655,30.218,22.742,30.485,24,30.485z"
     id="path2"
     style="fill:#558f99;fill-opacity:1" /><g
     id="g16"
     style="fill:#558f99;fill-opacity:1;stroke-width:1.24283"
     transform="matrix(0.80461542,0,0,0.80461542,22.965186,5.9913172)"><g
       id="g6"
       style="fill:#558f99;fill-opacity:1;stroke-width:1.24283"><path
         d="m 15.2819,17.73335 c 0.952,5.2624 4.9445,11.1929 9.7553,11.1929 5.09461,0 9.2658,-6.6487 9.8854,-12.1137 0.9844,-1.9917 1.6239,-4.1296 1.6259,-6.3549 l 8e-4,-0.9249 c 0.0026,-2.857 -2.3128,-5.1744 -5.1698,-5.1744 h -0.3051 c 0,-1.8311 -1.4844,-3.3156 -3.3155,-3.3156 h -6.5535 c -4.2829,0 -7.7547,3.472 -7.7547,7.7547 v 2.498 c 0,2.2122 0.6268,4.361 1.6925,6.2998 0.0265,0.0481 0.0778,0.0938 0.1387,0.1381 z m 9.7553,9.1929 c -4.0153,0 -7.60139,-6.2024 -7.9402,-10.7802 1.5089,-3.6902 1.2374,-5.9237 3.2476,-6.1931 l 6.9795,-0.9349 c 0.5382,-0.0721 1.08271,0.0778 1.5082,0.4152 2.5912,2.2311 3.6096,2.4112 3.7904,3.7123 l 0.3707,2.6685 c -0.1818,4.6032 -3.8425,11.1122 -7.9562,11.1122 z"
         id="path2-3"
         style="fill:#558f99;fill-opacity:1;stroke-width:1.24283" /><path
         d="m 34,29.88715 h -0.6851 c -0.4652,0 -0.8777,0.3196 -0.97009,0.7755 -0.29711,1.4656 -1.022,2.7718 -2.04481,3.7946 -1.35,1.3599 -3.23,2.1999 -5.3,2.1999 -3.6186,0 -6.6488,-2.57 -7.3438,-5.9875 -0.0932,-0.4584 -0.5031,-0.7825 -0.971,-0.7825 H 16 c -6.63,0 -12,5.3801 -12,12 v 6.0701 c 0,0.5523 0.4477,1 1,1 h 40 c 0.5523,0 1,-0.4477 1,-1 v -6.0701 c 0,-6.6199 -5.37,-12 -12,-12 z"
         id="path4-6"
         style="fill:#558f99;fill-opacity:1;stroke-width:1.24283" /></g><g
       id="g14"
       style="fill:#558f99;fill-opacity:1;stroke-width:1.24283"><g
         id="g12"
         style="fill:#558f99;fill-opacity:1;stroke-width:1.24283"><path
           d="m 15.2819,17.73335 c 0.952,5.2624 4.9445,11.1929 9.7553,11.1929 5.09461,0 9.2658,-6.6487 9.8854,-12.1137 0.9844,-1.9917 1.6239,-4.1296 1.6259,-6.3549 l 8e-4,-0.9249 c 0.0026,-2.857 -2.3128,-5.1744 -5.1698,-5.1744 h -0.3051 c 0,-1.8311 -1.4844,-3.3156 -3.3155,-3.3156 h -6.5535 c -4.2829,0 -7.7547,3.472 -7.7547,7.7547 v 2.498 c 0,2.2122 0.6268,4.361 1.6925,6.2998 0.0265,0.0481 0.0778,0.0938 0.1387,0.1381 z m 9.7553,9.1929 c -4.0153,0 -7.60139,-6.2024 -7.9402,-10.7802 1.5089,-3.6902 1.2374,-5.9237 3.2476,-6.1931 l 6.9795,-0.9349 c 0.5382,-0.0721 1.08271,0.0778 1.5082,0.4152 2.5912,2.2311 3.6096,2.4112 3.7904,3.7123 l 0.3707,2.6685 c -0.1818,4.6032 -3.8425,11.1122 -7.9562,11.1122 z"
           id="path8"
           style="fill:#558f99;fill-opacity:1;stroke-width:1.24283" /><path
           d="m 34,29.88715 h -0.6851 c -0.4652,0 -0.8777,0.3196 -0.97009,0.7755 -0.29711,1.4656 -1.022,2.7718 -2.04481,3.7946 -1.35,1.3599 -3.23,2.1999 -5.3,2.1999 -3.6186,0 -6.6488,-2.57 -7.3438,-5.9875 -0.0932,-0.4584 -0.5031,-0.7825 -0.971,-0.7825 H 16 c -6.63,0 -12,5.3801 -12,12 v 6.0701 c 0,0.5523 0.4477,1 1,1 h 40 c 0.5523,0 1,-0.4477 1,-1 v -6.0701 c 0,-6.6199 -5.37,-12 -12,-12 z"
           id="path10"
           style="fill:#558f99;fill-opacity:1;stroke-width:1.24283" /></g></g></g><path
     d="M24,26.923c0.831,0,1.66-0.316,2.293-0.947c0.287-0.287,0.287-0.753,0-1.04s-0.752-0.287-1.039,0  c-0.691,0.691-1.816,0.691-2.508,0c-0.287-0.287-0.752-0.287-1.039,0s-0.287,0.753,0,1.04C22.339,26.606,23.17,26.923,24,26.923z"
     id="path4"
     style="fill:#558f99;fill-opacity:1" /><path
     d="M 11.967558,31.007333 10.06183,30.221087 c 0.424173,-3.043074 1.167509,-9.063433 0.91714,-12.318766 -0.344359,-4.475839 -4.1601473,-6.748192 -8.1396997,-6.748192 -3.9795523,0 -7.7953408,2.272353 -8.1396986,6.748192 -0.2503706,3.255358 0.4929664,9.275765 0.9171396,12.318815 l -1.9056305,0.786197 c -2.852492,1.176809 -4.7136378,3.957827 -4.7136378,7.043491 v 6.882555 h 27.683655 v -6.882555 c 0,-3.085664 -1.861048,-5.866682 -4.71354,-7.043491 z M 5.2892403,16.586769 c 0,0 2.2037329,3.28043 4.2517709,4.89433 -1.3723132,5.745974 -3.5721094,8.542664 -6.7247702,8.542664 -3.9809303,0 -5.8677633,-4.698384 -6.7495715,-8.639948 -0.015548,-0.06945 -0.021063,-0.138988 -0.034446,-0.208494 0.9465661,-0.671617 5.0665585,-4.193436 9.2570168,-4.588552 z m -2.44997,20.046839 -5.1643835,-2.040903 1.85327313,-4.043426 C -0.7859842,30.327941 -1.0874329,30.07019 -1.3776619,29.781732 l 0.7820143,-0.660003 c 0.93278763,0.807873 2.0565022,1.305145 3.4118886,1.305145 1.2976159,0 2.4397345,-0.434039 3.4364925,-1.303544 l 0.7851635,0.658205 c -0.2848162,0.287326 -0.5806546,0.543528 -0.8895829,0.763389 l 1.8553399,4.047781 z"
     id="path2-5"
     style="fill:#558f99;fill-opacity:1;stroke-width:1" /></svg>
