<?xml version="1.0" encoding="UTF-8" standalone="no"?>
<svg
   version="1.1"
   x="0px"
   y="0px"
   viewBox="0 0 66 66"
   style="enable-background:new 0 0 66 66;"
   xml:space="preserve"
   id="svg10"
   sodipodi:docname="urgence.svg"
   inkscape:version="1.1.2 (0a00cf5339, 2022-02-04)"
   xmlns:inkscape="http://www.inkscape.org/namespaces/inkscape"
   xmlns:sodipodi="http://sodipodi.sourceforge.net/DTD/sodipodi-0.dtd"
   xmlns="http://www.w3.org/2000/svg"
   xmlns:svg="http://www.w3.org/2000/svg"><defs
     id="defs14" /><sodipodi:namedview
     id="namedview12"
     pagecolor="#ffffff"
     bordercolor="#666666"
     borderopacity="1.0"
     inkscape:pageshadow="2"
     inkscape:pageopacity="0.0"
     inkscape:pagecheckerboard="0"
     showgrid="false"
     inkscape:zoom="7.8993025"
     inkscape:cx="20.634733"
     inkscape:cy="47.345953"
     inkscape:window-width="1920"
     inkscape:window-height="1043"
     inkscape:window-x="1920"
     inkscape:window-y="0"
     inkscape:window-maximized="1"
     inkscape:current-layer="svg10" /><path
     d="M33.09,8.13c0.55,0,1-0.45,1-1V2.35c0-0.55-0.45-1-1-1s-1,0.45-1,1v4.78C32.09,7.68,32.53,8.13,33.09,8.13z"
     id="path2"
     style="fill:#d40000;fill-opacity:1" /><path
     d="M25.83,8.87c0.2,0.2,0.45,0.29,0.71,0.29s0.51-0.1,0.71-0.29c0.39-0.39,0.39-1.02,0-1.41l-3.42-3.42  c-0.39-0.39-1.02-0.39-1.41,0s-0.39,1.02,0,1.41L25.83,8.87z"
     id="path4"
     style="fill:#d40000;fill-opacity:1" /><path
     d="M41,9.16c0.26,0,0.51-0.1,0.71-0.29l3.24-3.24c0.39-0.39,0.39-1.02,0-1.41s-1.02-0.39-1.41,0L40.3,7.45  c-0.39,0.39-0.39,1.02,0,1.41C40.49,9.06,40.75,9.16,41,9.16z"
     id="path6"
     style="fill:#d40000;fill-opacity:1" /><path
     d="M30.03,54.83V35.74c0-1.64,1.33-2.97,2.97-2.97s2.97,1.33,2.97,2.97v19.08H30.03z M56.71,64.65H9.29v-5.99  c0-1.01,0.83-1.84,1.84-1.84h0.13h17.78c0,0,0,0,0,0h7.94c0,0,0,0,0,0h17.77h0.13c1.01,0,1.84,0.83,1.84,1.84V64.65z M33,13.04  c-11.44,0-20.75,9.31-20.75,20.75v21.04h15.78V35.75c0-2.74,2.23-4.97,4.97-4.97s4.97,2.23,4.97,4.97v19.08h15.77V33.79  C53.74,22.35,44.44,13.04,33,13.04z M36.47,19.58c-0.13,0.44-0.53,0.73-0.97,0.73c-0.09,0-0.18-0.01-0.26-0.03  c-1.38-0.38-2.81-0.57-4.25-0.57c-0.55,0-1-0.45-1-1s0.45-1,1-1c1.62,0,3.23,0.22,4.77,0.64C36.3,18.5,36.61,19.05,36.47,19.58z   M48.08,36.79c-0.56,0-1-0.45-1-1c0-5.9-3.23-11.31-8.42-14.14c-0.49-0.26-0.67-0.87-0.4-1.35c0.26-0.49,0.87-0.67,1.35-0.4  c5.84,3.17,9.47,9.26,9.47,15.89C49.08,36.34,48.63,36.79,48.08,36.79z"
     id="path8"
     style="fill:#d40000" /></svg>
