<?xml version="1.0" encoding="UTF-8" standalone="no"?>
<!-- Created with Inkscape (http://www.inkscape.org/) -->

<svg
   width="100"
   height="100"
   viewBox="0 0 26.45833 26.458332"
   version="1.1"
   id="svg5"
   inkscape:version="1.1.2 (0a00cf5339, 2022-02-04)"
   sodipodi:docname="vache_allaitante.svg"
   xmlns:inkscape="http://www.inkscape.org/namespaces/inkscape"
   xmlns:sodipodi="http://sodipodi.sourceforge.net/DTD/sodipodi-0.dtd"
   xmlns="http://www.w3.org/2000/svg"
   xmlns:svg="http://www.w3.org/2000/svg">
  <sodipodi:namedview
     id="namedview7"
     pagecolor="#ffffff"
     bordercolor="#666666"
     borderopacity="1.0"
     inkscape:pageshadow="2"
     inkscape:pageopacity="0.0"
     inkscape:pagecheckerboard="0"
     inkscape:document-units="mm"
     showgrid="false"
     fit-margin-top="0"
     fit-margin-left="0"
     fit-margin-right="0"
     fit-margin-bottom="0"
     units="px"
     width="100px"
     inkscape:zoom="4.1091101"
     inkscape:cx="-7.3008508"
     inkscape:cy="55.364785"
     inkscape:window-width="1920"
     inkscape:window-height="1016"
     inkscape:window-x="0"
     inkscape:window-y="27"
     inkscape:window-maximized="1"
     inkscape:current-layer="layer1"
     inkscape:snap-global="false" />
  <defs
     id="defs2" />
  <g
     inkscape:label="Calque 1"
     inkscape:groupmode="layer"
     id="layer1"
     transform="translate(-57.033365,-106.83913)">
    <path
       style="fill:#548e98;stroke-width:0.999998"
       d="m 67.982396,133.10793 c -6.264952,-0.92809 -10.897792,-6.47706 -10.897792,-13.05281 0,-14.38739 19.595504,-18.34285 25.438045,-5.13479 1.221019,2.76032 1.224084,7.50554 0.0072,10.24536 -2.57782,5.80113 -8.21691,8.87993 -14.546851,7.94224 z"
       id="path982"
       sodipodi:nodetypes="cssccc" />
    <path
       d="m 80.375384,118.19161 -0.472293,-0.14914 h -1.11859 l -1.566026,-0.34801 -1.839459,3.33091 h -8.451567 c -0.596582,0 -1.093733,0.37286 -1.292595,0.87002 h -1.71517 l 0.696011,5.24494 h -0.870013 l -1.392024,-5.22008 -0.720868,1.01916 v 4.20092 h -0.870015 l -0.348006,-4.89694 0.348006,-2.08803 -0.348006,-2.43604 v -2.4609 c -0.397721,0 -0.696011,0.32315 -0.696011,0.69601 v 5.94096 h -0.696011 v -5.94096 c 0,-0.77057 0.621438,-1.39202 1.392022,-1.39202 h 13.870515 l 1.963747,-0.32315 -0.770584,-0.74573 h 0.696011 c 0.223717,0 0.422578,0.0746 0.621439,0.17401 l 0.596581,0.37285 0.124288,-0.025 -0.223718,-0.522 c -0.298291,-0.67117 0.19886,-1.41689 0.944587,-1.41689 h 1.963746 l -1.491453,0.57174 c -0.273433,0.0994 -0.422578,0.44743 -0.298291,0.72086 l 0.198861,0.42258 c 0.348007,-0.0497 0.596582,0.0497 0.745727,0.29829 l 1.938889,2.83376 c 0.174002,0.24857 0.174002,0.57171 0,0.82029 l -0.149146,0.14915 c -0.174002,0.24858 -0.472293,0.37287 -0.770584,0.29829 z m -0.422578,4.87209 -1.242878,-1.86432 c -0.124287,-0.19886 -0.348005,-0.27344 -0.571723,-0.24858 l -0.124288,0.025 -0.248575,-0.27344 c -0.09943,-0.14914 -0.248576,-0.22372 -0.42258,-0.22372 H 77.16876 v 0.69602 l -1.814602,0.37285 h -8.426709 c -0.397722,0 -0.870015,0.32316 -0.870015,0.87002 v 3.87778 H 66.6043 v -3.72863 c 0,-0.24857 0.19886,-0.42258 0.422578,-0.42258 v 0.72087 l 0.397721,2.16261 -0.397721,1.29259 0.52201,3.03262 h 0.571723 l -0.198861,-2.43604 0.994302,-1.4666 3.380628,0.47231 0.19886,3.43033 h 0.571724 l 0.19886,-3.30606 0.472294,0.0746 0.696012,3.23149 h 0.571723 l -0.397721,-3.13206 2.460897,-2.41118 c 0.174004,-0.174 0.447437,-0.24858 0.696013,-0.174 l 0.571723,0.174 c 0.07457,0.0248 0.149145,0.0248 0.223718,0.0248 h 0.944587 c 0.124288,0 0.223717,-0.0746 0.273433,-0.174 l 0.149146,-0.27343 c 0.07457,-0.0995 0.07457,-0.22373 0.02486,-0.32315 z m -11.235614,3.62919 1.267735,2.63491 h 0.571724 l -0.870015,-2.43604 0.348006,-0.79545 -0.845157,-0.12428 z"
       id="path2"
       style="stroke-width:0.264583;fill:#ffffff" />
  </g>
</svg>
